  0
SECTION
  2
HEADER
  9
$ACADVER
  1
AC1015
  9
$ACADMAINTVER
 70
     6
  9
$DWGCODEPAGE
  3
ANSI_932
  9
$INSBASE
 10
0.0
 20
0.0
 30
0.0
  9
$EXTMIN
 10
0.45191
 20
-370.048558
 30
1.000000E+20
  9
$EXTMAX
 10
406.869222
 20
264.309362
 30
-1.000000E+20
  9
$LIMMIN
 10
0.45191
 20
-370.048558
  9
$LIMMAX
 10
406.869222
 20
264.309362
  9
$ORTHOMODE
 70
     0
  9
$REGENMODE
 70
     1
  9
$FILLMODE
 70
     1
  9
$QTEXTMODE
 70
     0
  9
$MIRRTEXT
 70
     1
  9
$LTSCALE
 40
1.0
  9
$ATTMODE
 70
     1
  9
$TEXTSIZE
 40
0.2
  9
$TRACEWID
 40
0.05
  9
$TEXTSTYLE
  7
Standard
  9
$CLAYER
  8
0
  9
$CELTYPE
  6
Continuous
  9
$CECOLOR
 62
   256
  9
$CELTSCALE
 40
1.0
  9
$DISPSILH
 70
     0
  9
$DIMSCALE
 40
1.0
  9
$DIMASZ
 40
0.18
  9
$DIMEXO
 40
0.0625
  9
$DIMDLI
 40
0.38
  9
$DIMRND
 40
0.0
  9
$DIMDLE
 40
0.0
  9
$DIMEXE
 40
0.18
  9
$DIMTP
 40
0.0
  9
$DIMTM
 40
0.0
  9
$DIMTXT
 40
0.18
  9
$DIMCEN
 40
0.09
  9
$DIMTSZ
 40
0.0
  9
$DIMTOL
 70
     0
  9
$DIMLIM
 70
     0
  9
$DIMTIH
 70
     1
  9
$DIMTOH
 70
     1
  9
$DIMSE1
 70
     0
  9
$DIMSE2
 70
     0
  9
$DIMTAD
 70
     0
  9
$DIMZIN
 70
     0
  9
$DIMBLK
  1

  9
$DIMASO
 70
     1
  9
$DIMSHO
 70
     1
  9
$DIMPOST
  1

  9
$DIMAPOST
  1

  9
$DIMALT
 70
     0
  9
$DIMALTD
 70
     2
  9
$DIMALTF
 40
25.4
  9
$DIMLFAC
 40
1.0
  9
$DIMTOFL
 70
     0
  9
$DIMTVP
 40
0.0
  9
$DIMTIX
 70
     0
  9
$DIMSOXD
 70
     0
  9
$DIMSAH
 70
     0
  9
$DIMBLK1
  1

  9
$DIMBLK2
  1

  9
$DIMSTYLE
  2
Standard
  9
$DIMCLRD
 70
     0
  9
$DIMCLRE
 70
     0
  9
$DIMCLRT
 70
     0
  9
$DIMTFAC
 40
1.0
  9
$DIMGAP
 40
0.09
  9
$DIMJUST
 70
     0
  9
$DIMSD1
 70
     0
  9
$DIMSD2
 70
     0
  9
$DIMTOLJ
 70
     1
  9
$DIMTZIN
 70
     0
  9
$DIMALTZ
 70
     0
  9
$DIMALTTZ
 70
     0
  9
$DIMUPT
 70
     0
  9
$DIMDEC
 70
     4
  9
$DIMTDEC
 70
     4
  9
$DIMALTU
 70
     2
  9
$DIMALTTD
 70
     2
  9
$DIMTXSTY
  7
Standard
  9
$DIMAUNIT
 70
     0
  9
$DIMADEC
 70
     0
  9
$DIMALTRND
 40
0.0
  9
$DIMAZIN
 70
     0
  9
$DIMDSEP
 70
     0
  9
$DIMATFIT
 70
     3
  9
$DIMFRAC
 70
     0
  9
$DIMLDRBLK
  1

  9
$DIMLUNIT
 70
     2
  9
$DIMLWD
 70
     0
  9
$DIMLWE
 70
     0
  9
$DIMTMOVE
 70
     0
  9
$LUNITS
 70
     2
  9
$LUPREC
 70
     4
  9
$SKETCHINC
 40
0.1
  9
$FILLETRAD
 40
0.0
  9
$AUNITS
 70
     0
  9
$AUPREC
 70
     0
  9
$MENU
  1
acad
  9
$ELEVATION
 40
0.0
  9
$PELEVATION
 40
0.0
  9
$THICKNESS
 40
0.0
  9
$LIMCHECK
 70
     0
  9
$CHAMFERA
 40
0.0
  9
$CHAMFERB
 40
0.0
  9
$CHAMFERC
 40
0.0
  9
$CHAMFERD
 40
0.0
  9
$SKPOLY
 70
     0
  9
$TDCREATE
 40
0.000000000
  9
$TDUCREATE
 40
0.000000000
  9
$TDUPDATE
 40
0.000000000
  9
$TDUUPDATE
 40
0.000000000
  9
$TDINDWG
 40
0.0000000000
  9
$TDUSRTIMER
 40
0.0000000000
  9
$USRTIMER
 70
     1
  9
$ANGBASE
 50
0.0
  9
$ANGDIR
 70
     0
  9
$PDMODE
 70
     0
  9
$PDSIZE
 40
0.0
  9
$PLINEWID
 40
0.0
  9
$SPLFRAME
 70
     0
  9
$SPLINETYPE
 70
     6
  9
$SPLINESEGS
 70
     8
  9
$HANDSEED
  5
50
  9
$SURFTAB1
 70
     6
  9
$SURFTAB2
 70
     6
  9
$SURFTYPE
 70
     6
  9
$SURFU
 70
     6
  9
$SURFV
 70
     6
  9
$UCSBASE
  2

  9
$UCSNAME
  2

  9
$UCSORG
 10
0.0
 20
0.0
 30
0.0
  9
$UCSXDIR
 10
1.0
 20
0.0
 30
0.0
  9
$UCSYDIR
 10
0.0
 20
1.0
 30
0.0
  9
$UCSORTHOREF
  2

  9
$UCSORTHOVIEW
 70
     0
  9
$UCSORGTOP
 10
0.0
 20
0.0
 30
0.0
  9
$UCSORGBOTTOM
 10
0.0
 20
0.0
 30
0.0
  9
$UCSORGLEFT
 10
0.0
 20
0.0
 30
0.0
  9
$UCSORGRIGHT
 10
0.0
 20
0.0
 30
0.0
  9
$UCSORGFRONT
 10
0.0
 20
0.0
 30
0.0
  9
$UCSORGBACK
 10
0.0
 20
0.0
 30
0.0
  9
$PUCSBASE
  2

  9
$PUCSNAME
  2

  9
$PUCSORG
 10
0.0
 20
0.0
 30
0.0
  9
$PUCSXDIR
 10
1.0
 20
0.0
 30
0.0
  9
$PUCSYDIR
 10
0.0
 20
1.0
 30
0.0
  9
$PUCSORTHOREF
  2

  9
$PUCSORTHOVIEW
 70
     0
  9
$PUCSORGTOP
 10
0.0
 20
0.0
 30
0.0
  9
$PUCSORGBOTTOM
 10
0.0
 20
0.0
 30
0.0
  9
$PUCSORGLEFT
 10
0.0
 20
0.0
 30
0.0
  9
$PUCSORGRIGHT
 10
0.0
 20
0.0
 30
0.0
  9
$PUCSORGFRONT
 10
0.0
 20
0.0
 30
0.0
  9
$PUCSORGBACK
 10
0.0
 20
0.0
 30
0.0
  9
$USERI1
 70
     0
  9
$USERI2
 70
     0
  9
$USERI3
 70
     0
  9
$USERI4
 70
     0
  9
$USERI5
 70
     0
  9
$USERR1
 40
0.0
  9
$USERR2
 40
0.0
  9
$USERR3
 40
0.0
  9
$USERR4
 40
0.0
  9
$USERR5
 40
0.0
  9
$WORLDVIEW
 70
     1
  9
$SHADEDGE
 70
     3
  9
$SHADEDIF
 70
    70
  9
$TILEMODE
 70
     1
  9
$MAXACTVP
 70
    16
  9
$PINSBASE
 10
0.0
 20
0.0
 30
0.0
  9
$PLIMCHECK
 70
     0
  9
$PEXTMIN
 10
1.000000E+20
 20
1.000000E+20
 30
1.000000E+20
  9
$PEXTMAX
 10
-1.000000E+20
 20
-1.000000E+20
 30
-1.000000E+20
  9
$PLIMMIN
 10
0.0
 20
0.0
  9
$PLIMMAX
 10
12.0
 20
9.0
  9
$UNITMODE
 70
     0
  9
$VISRETAIN
 70
     0
  9
$PLINEGEN
 70
     1
  9
$PSLTSCALE
 70
     0
  9
$TREEDEPTH
 70
  3020
  9
$CMLSTYLE
  2
Standard
  9
$CMLJUST
 70
     0
  9
$CMLSCALE
 40
1.0
  9
$PROXYGRAPHICS
 70
     0
  9
$MEASUREMENT
 70
     0
  9
$CELWEIGHT
370
     0
  9
$ENDCAPS
280
     0
  9
$JOINSTYLE
280
     0
  9
$LWDISPLAY
290
     0
  9
$INSUNITS
 70
     0
  9
$HYPERLINKBASE
  1

  9
$XEDIT
290
     1
  9
$CEPSNTYPE
380
     0
  9
$PSTYLEMODE
290
     1
  9
$FINGERPRINTGUID
  2

  9
$VERSIONGUID
  2

  9
$EXTNAMES
290
     1
  9
$PSVPSCALE
 40
0.0
  0
ENDSEC
  0
SECTION
  2
CLASSES
  0
CLASS
  1
LWPOLYLINE
  2
AcDbPolyline
  3
"AutoCAD"
 90
        0
280
     0
281
     1
  0
CLASS
  1
IMAGE
  2
AcDbRasterImage
  3
ISM
 90
      127
280
     0
281
     1
  0
CLASS
  1
OLE2FRAME
  2
AcDbOle2Frame
  3
""
 90
        0
280
     0
281
     1
  0
CLASS
  1
HATCH
  2
AcDbHatch
  3
"ACAD_SEDONA"
 90
        0
280
     0
281
     1
  0
CLASS
  1
DICTIONARYVAR
  2
AcDbDictionaryVar
  3
"AutoCAD"
 90
        0
280
     0
281
     0
  0
CLASS
  1
RASTERVARIABLES
  2
AcDbRasterVariables
  3
ISM
 90
        0
280
     0
281
     0
  0
CLASS
  1
IMAGEDEF
  2
AcDbRasterImageDef
  3
ISM
 90
        0
280
     0
281
     0
  0
CLASS
  1
IMAGEDEF_REACTOR
  2
AcDbRasterImageDefReactor
  3
ISM
 90
        1
280
     0
281
     0
  0
CLASS
  1
IDBUFFER
  2
AcDbIdBuffer
  3
"Acad"
 90
        0
280
     0
281
     0
  0
CLASS
  1
SPATIAL_FILTER
  2
AcDbSpatialFilter
  3
"Acad"
 90
        0
280
     0
281
     0
  0
CLASS
  1
XRECORD
  2
AcDbXrecord
  3
"<Built In>"
 90
        0
280
     0
281
     0
  0
CLASS
  1
SORTENTSTABLE
  2
AcDbSortentsTable
  3
"AutoCAD"
 90
        0
280
     0
281
     0
  0
CLASS
  1
LAYER_INDEX
  2
AcDbLayerIndex
  3
"Acad"
 90
        0
280
     0
281
     0
  0
CLASS
  1
SPATIAL_INDEX
  2
AcDbSpatialIndex
  3
"Acad"
 90
        0
280
     0
281
     0
  0
CLASS
  1
OBJECT_PTR
  2
CAseDLPNTableRecord
  3
"ASE-LPNTableRecord"
 90
        1
280
     0
281
     0
  0
CLASS
  1
LAYOUT
  2
AcDbLayout
  3
"AutoCAD 2000"
 90
        1
280
     0
281
     0
  0
CLASS
  1
PLOTSETTINGS
  2
AcDbPlotSettings
  3
"AutoCAD 2000"
 90
        1
280
     0
281
     0
  0
CLASS
  1
ACDBDICTIONARYWDFLT
  2
AcDbDictionaryWithDefault
  3
"AutoCAD 2000"
 90
        1
280
     0
281
     0
  0
CLASS
  1
ACDBPLACEHOLDER
  2
AcDbPlaceHolder
  3
"AutoCAD 2000"
 90
        1
280
     0
281
     0
  0
CLASS
  1
VBA_PROJECT
  2
AcDbVbaProject
  3
"acadvba"
 90
        1
280
     0
281
     0
  0
CLASS
  1
WIPEOUT
  2
AcDbWipeout
  3
WipeOut|AutoCAD Express Tool|expresstools@autodesk.com
 90
      127
280
     0
281
     1
  0
CLASS
  1
WIPEOUTVARIABLES
  2
AcDbWipeoutVariables
  3
WipeOut|AutoCAD Express Tool|expresstools@autodesk.com
 90
        0
280
     0
281
     0
  0
CLASS
  1
RTEXT
  2
RText
  3
RText|AutoCAD Express Tool|expresstools@autodesk.com
 90
        0
280
     0
281
     1
  0
CLASS
  1
ARCALIGNEDTEXT
  2
AcDbArcAlignedText
  3
ATEXT|AutoCAD Express Tool|expresstools@autodesk.com
 90
        0
280
     0
281
     1
  0
ENDSEC
  0
SECTION
  2
TABLES
  0
TABLE
  2
VPORT
  5
7
100
AcDbSymbolTable
 70
     1
  0
VPORT
  5
15
100
AcDbSymbolTableRecord
100
AcDbViewportTableRecord
  2
*ACTIVE
 70
     0
 10
0.0
 20
0.0
 11
1.0
 21
1.0
 12
6.591288
 22
4.579184
 13
0.0
 23
0.0
 14
1.0
 24
1.0
 15
0.0
 25
0.0
 16
0.0
 26
0.0
 36
1.0
 17
0.0
 27
0.0
 37
0.0
 40
9.158369
 41
0.688564
 42
50.0
 43
0.0
 44
0.0
 50
0.0
 51
0.0
 71
     0
 72
   100
 73
     1
 74
     1
 75
     0
 76
     0
 77
     0
 78
     0
281
     0
 65
     0
110
0.0
120
0.0
130
0.0
111
1.0
121
0.0
131
0.0
112
0.0
122
1.0
132
0.0
345
0
346
0
 79
     0
146
0.0
  0
ENDTAB
  0
TABLE
  2
LTYPE
  5
4
100
AcDbSymbolTable
 70
     3
  0
LTYPE
  5
11
100
AcDbSymbolTableRecord
100
AcDbLinetypeTableRecord
  2
ByBlock
 70
    64
  3

 72
    65
 73
     0
 40
0.0
  0
LTYPE
  5
12
100
AcDbSymbolTableRecord
100
AcDbLinetypeTableRecord
  2
ByLayer
 70
    64
  3

 72
    65
 73
     0
 40
0.0
  0
LTYPE
  5
13
100
AcDbSymbolTableRecord
100
AcDbLinetypeTableRecord
  2
Continuous
 70
    64
  3
Solid line
 72
    65
 73
     0
 40
0.0
  0
ENDTAB
  0
TABLE
  2
LAYER
  5
2
100
AcDbSymbolTable
 70
     2
  0
LAYER
  5
14
100
AcDbSymbolTableRecord
100
AcDbLayerTableRecord
  2
0
 70
     0
 62
     7
  6
Continuous
290
     1
370
    -3
390
1D
  0
LAYER
  5
28
100
AcDbSymbolTableRecord
100
AcDbLayerTableRecord
  2
LAYER_1
 70
     0
 62
   160
  6
Continuous
290
     1
370
    -3
390
1F
  0
ENDTAB
  0
TABLE
  2
STYLE
  5
3
100
AcDbSymbolTable
 70
     5
  0
STYLE
  5
17
100
AcDbSymbolTableRecord
100
AcDbTextStyleTableRecord
  2
Standard
 70
     0
 40
0.0
 41
1.0
 50
0.0
 71
     0
 42
0.0
  3
txt
  4

  0
STYLE
  5
24
100
AcDbSymbolTableRecord
100
AcDbTextStyleTableRecord
  2
STD
 70
     0
 40
0.0
 41
1.0
 50
0.0
 71
     0
 42
0.0
  3
txt
  4

  0
STYLE
  5
25
100
AcDbSymbolTableRecord
100
AcDbTextStyleTableRecord
  2
TATESTD
 70
     4
 40
0.0
 41
1.0
 50
0.0
 71
     0
 42
0.0
  3
txt
  4

  0
STYLE
  5
26
100
AcDbSymbolTableRecord
100
AcDbTextStyleTableRecord
  2
KANJISTD
 70
     0
 40
0.0
 41
1.0
 50
0.0
 71
     0
 42
0.0
  3
txt
  4
extfont
  0
STYLE
  5
27
100
AcDbSymbolTableRecord
100
AcDbTextStyleTableRecord
  2
KANJITATE
 70
     4
 40
0.0
 41
1.0
 50
0.0
 71
     0
 42
0.0
  3
txt
  4
extfont
  0
ENDTAB
  0
TABLE
  2
VIEW
  5
5
100
AcDbSymbolTable
 70
     0
  0
ENDTAB
  0
TABLE
  2
UCS
  5
6
100
AcDbSymbolTable
 70
     0
  0
ENDTAB
  0
TABLE
  2
APPID
  5
8
100
AcDbSymbolTable
 70
     1
  0
APPID
  5
16
100
AcDbSymbolTableRecord
100
AcDbRegAppTableRecord
  2
ACAD
 70
     0
  0
ENDTAB
  0
TABLE
  2
DIMSTYLE
  5
9
100
AcDbSymbolTable
 70
     1
100
AcDbDimStyleTable
 71
     0
  0
DIMSTYLE
105
18
100
AcDbSymbolTableRecord
100
AcDbDimStyleTableRecord
  2
Standard
 70
     0
  3

  4

 40
1.0
 41
0.18
 42
0.0625
 43
0.38
 44
0.18
 45
0.0
 46
0.0
 47
0.0
 48
0.0
 71
     0
 72
     0
 73
     1
 74
     1
 75
     0
 76
     0
 77
     0
 78
     0
 79
     0
140
0.18
141
0.09
142
0.0
143
25.4
144
1.0
145
0.0
146
1.0
147
0.09
148
0.0
170
     0
171
     2
172
     0
173
     0
174
     0
175
     0
176
     0
177
     0
178
     0
179
     0
271
     4
272
     4
273
     2
274
     2
275
     0
276
     0
277
     2
278
    46
279
     0
280
     0
281
     0
282
     0
283
     1
284
     0
285
     0
286
     0
288
     0
340
17
341
0
342
0
343
0
344
0
371
    -2
372
    -2
  0
ENDTAB
  0
TABLE
  2
BLOCK_RECORD
  5
1
100
AcDbSymbolTable
 70
     3
  0
BLOCK_RECORD
  5
A
100
AcDbSymbolTableRecord
100
AcDbBlockTableRecord
  2
*MODEL_SPACE
340
20
  0
BLOCK_RECORD
  5
B
100
AcDbSymbolTableRecord
100
AcDbBlockTableRecord
  2
*PAPER_SPACE
340
21
  0
BLOCK_RECORD
  5
29
100
AcDbSymbolTableRecord
100
AcDbBlockTableRecord
  2
AI9-BLK1
340
0
  0
BLOCK_RECORD
  5
42
100
AcDbSymbolTableRecord
100
AcDbBlockTableRecord
  2
AI9-BLK2
340
0
  0
BLOCK_RECORD
  5
48
100
AcDbSymbolTableRecord
100
AcDbBlockTableRecord
  2
AI9-BLK3
340
0
  0
ENDTAB
  0
ENDSEC
  0
SECTION
  2
BLOCKS
  0
BLOCK
  5
D
100
AcDbEntity
  8
0
100
AcDbBlockBegin
  2
*MODEL_SPACE
 70
     0
 10
0.0
 20
0.0
 30
0.0
  3
*MODEL_SPACE
  1

  0
ENDBLK
  5
E
100
AcDbEntity
  8
0
100
AcDbBlockEnd
  0
BLOCK
  5
F
100
AcDbEntity
 67
     1
  8
0
100
AcDbBlockBegin
  2
*PAPER_SPACE
 70
     0
 10
0.0
 20
0.0
 30
0.0
  3
*PAPER_SPACE
  1

  0
ENDBLK
  5
10
100
AcDbEntity
 67
     1
  8
0
100
AcDbBlockEnd
  0
BLOCK
  5
2B
100
AcDbEntity
  8
LAYER_1
 62
     7
100
AcDbBlockBegin
  2
AI9-BLK1
 70
     0
 10
0.0
 20
0.0
 30
0.0
  3
AI9-BLK1
  1

  0
SPLINE
  5
40
100
AcDbEntity
  8
LAYER_1
 62
     7
100
AcDbSpline
210
0.0
220
0.0
230
1.0
 70
     8
 71
     3
 72
    86
 73
    82
 74
     0
 42
0.00000001
 43
0.00000001
 40
0.0
 40
0.0
 40
0.0
 40
0.0
 40
1.0
 40
1.0
 40
1.0
 40
2.0
 40
2.0
 40
2.0
 40
3.0
 40
3.0
 40
3.0
 40
4.0
 40
4.0
 40
4.0
 40
5.0
 40
5.0
 40
5.0
 40
6.0
 40
6.0
 40
6.0
 40
7.0
 40
7.0
 40
7.0
 40
8.0
 40
8.0
 40
8.0
 40
9.0
 40
9.0
 40
9.0
 40
10.0
 40
10.0
 40
10.0
 40
11.0
 40
11.0
 40
11.0
 40
12.0
 40
12.0
 40
12.0
 40
13.0
 40
13.0
 40
13.0
 40
14.0
 40
14.0
 40
14.0
 40
15.0
 40
15.0
 40
15.0
 40
16.0
 40
16.0
 40
16.0
 40
17.0
 40
17.0
 40
17.0
 40
18.0
 40
18.0
 40
18.0
 40
19.0
 40
19.0
 40
19.0
 40
20.0
 40
20.0
 40
20.0
 40
21.0
 40
21.0
 40
21.0
 40
22.0
 40
22.0
 40
22.0
 40
23.0
 40
23.0
 40
23.0
 40
24.0
 40
24.0
 40
24.0
 40
25.0
 40
25.0
 40
25.0
 40
26.0
 40
26.0
 40
26.0
 40
27.0
 40
27.0
 40
27.0
 40
27.0
 10
-94.389199829101557
 20
316.46513637966575
 30
0.0
 10
-100.97208828396266
 20
314.82122294108069
 30
0.0
 10
-99.680866495768214
 20
308.23488939073349
 30
0.0
 10
-99.680866495768214
 20
302.9432227240668
 30
0.0
 10
-99.680866495768214
 20
289.53766716851123
 30
0.0
 10
-99.32808871799044
 20
276.13211161295573
 30
0.0
 10
-99.32808871799044
 20
262.72655605740016
 30
0.0
 10
-99.32808871799044
 20
228.09430304633244
 30
0.0
 10
-98.622533162434891
 20
193.58211161295571
 30
0.0
 10
-98.622533162434891
 20
159.00988939073349
 30
0.0
 10
-98.622533162434891
 20
135.84291415744357
 30
0.0
 10
-98.696602715386277
 20
111.98812561035155
 30
0.0
 10
-98.329786173502598
 20
89.159889390733497
 30
0.0
 10
-98.696602715386277
 20
75.740208943684891
 30
0.0
 10
-98.269755384657103
 20
62.465222507052943
 30
0.0
 10
-98.269755384657103
 20
49.299445597330724
 30
0.0
 10
-98.269755384657103
 20
25.017723592122394
 30
0.0
 10
-98.033421834309891
 20
0.852445814344618
 30
0.0
 10
-97.916977606879328
 20
-23.37277662489149
 30
0.0
 10
-97.624230617947035
 20
-84.992443508572038
 30
0.0
 10
-96.858644273545991
 20
-146.66860995822481
 30
0.0
 10
-96.858644273545991
 20
-208.22833218044704
 30
0.0
 10
-96.858644273545991
 20
-234.27394307454426
 30
0.0
 10
-96.505866495768217
 20
-260.20310974121094
 30
0.0
 10
-96.505866495768217
 20
-286.19222106933591
 30
0.0
 10
-96.505866495768217
 20
-286.19222106933591
 30
0.0
 10
-96.505866495768217
 20
-305.94777662489145
 30
0.0
 10
-96.505866495768217
 20
-305.94777662489145
 30
0.0
 10
-96.505866495768217
 20
-308.71005418565534
 30
0.0
 10
-97.095063951280366
 20
-312.12138773600259
 30
0.0
 10
-95.271144273546
 20
-314.41444329155814
 30
0.0
 10
-92.388977389865445
 20
-318.00216573079422
 30
0.0
 10
-86.804477606879331
 20
-316.88388773600258
 30
0.0
 10
-82.747533162434891
 20
-316.88388773600258
 30
0.0
 10
-82.747533162434891
 20
-316.88388773600258
 30
0.0
 10
-49.58642205132378
 20
-316.88388773600258
 30
0.0
 10
-49.58642205132378
 20
-316.88388773600258
 30
0.0
 10
-17.247310723198783
 20
-316.88388773600258
 30
0.0
 10
15.03185594346788
 20
-316.178332180447
 30
0.0
 10
47.427466837565099
 20
-316.178332180447
 30
0.0
 10
57.894355943467879
 20
-316.178332180447
 30
0.0
 10
68.30130038791232
 20
-315.82555440266924
 30
0.0
 10
78.824689059787318
 20
-315.82555440266924
 30
0.0
 10
83.999911499023426
 20
-315.82555440266924
 30
0.0
 10
90.289966837565089
 20
-316.94383239746088
 30
0.0
 10
95.40524461534288
 20
-315.53272128634978
 30
0.0
 10
101.10963372124566
 20
-313.94522128634981
 30
0.0
 10
99.6385779486762
 20
-306.65333218044702
 30
0.0
 10
99.6385779486762
 20
-302.06722106933591
 30
0.0
 10
99.6385779486762
 20
-302.06722106933591
 30
0.0
 10
99.6385779486762
 20
-261.49777662489146
 30
0.0
 10
99.6385779486762
 20
-261.49777662489146
 30
0.0
 10
99.6385779486762
 20
-203.52577684190535
 30
0.0
 10
98.933022393120652
 20
-145.61027662489147
 30
0.0
 10
98.933022393120652
 20
-87.578332180447035
 30
0.0
 10
98.933022393120652
 20
11.668667602539061
 30
0.0
 10
97.169133504231766
 20
110.91566738552517
 30
0.0
 10
97.169133504231766
 20
210.16266716851126
 30
0.0
 10
97.169133504231766
 20
236.32816738552515
 30
0.0
 10
97.581855943467872
 20
262.72655605740016
 30
0.0
 10
96.463577948676203
 20
288.83211161295571
 30
0.0
 10
96.17074483235676
 20
294.76930304633242
 30
0.0
 10
96.463577948676203
 20
300.82655605740013
 30
0.0
 10
96.463577948676203
 20
306.82377827962239
 30
0.0
 10
96.463577948676203
 20
309.40958082411021
 30
0.0
 10
96.992744615342872
 20
312.70455627441402
 30
0.0
 10
95.168911064995655
 20
314.82122294108069
 30
0.0
 10
92.583022393120658
 20
317.8762474907769
 30
0.0
 10
86.585800170898423
 20
316.70155605740013
 30
0.0
 10
83.058022393120652
 20
316.70155605740013
 30
0.0
 10
83.058022393120652
 20
316.70155605740013
 30
0.0
 10
49.544133504231766
 20
316.70155605740013
 30
0.0
 10
49.544133504231766
 20
316.70155605740013
 30
0.0
 10
49.544133504231766
 20
316.70155605740013
 30
0.0
 10
-48.880866495768224
 20
316.70155605740013
 30
0.0
 10
-48.880866495768224
 20
316.70155605740013
 30
0.0
 10
-48.880866495768224
 20
316.70155605740013
 30
0.0
 10
-79.572533162434894
 20
316.70155605740013
 30
0.0
 10
-79.572533162434894
 20
316.70155605740013
 30
0.0
 10
-84.218675062391483
 20
316.70155605740013
 30
0.0
 10
-89.919532945420997
 20
317.58350050184458
 30
0.0
 10
-94.389199829101557
 20
316.46513637966575
 30
0.0
  0
SPLINE
  5
3F
100
AcDbEntity
  8
LAYER_1
 62
     7
100
AcDbSpline
210
0.0
220
0.0
230
1.0
 70
     8
 71
     3
 72
    23
 73
    19
 74
     0
 42
0.00000001
 43
0.00000001
 40
0.0
 40
0.0
 40
0.0
 40
0.0
 40
1.0
 40
1.0
 40
1.0
 40
2.0
 40
2.0
 40
2.0
 40
3.0
 40
3.0
 40
3.0
 40
4.0
 40
4.0
 40
4.0
 40
5.0
 40
5.0
 40
5.0
 40
6.0
 40
6.0
 40
6.0
 40
6.0
 10
-88.568366495768217
 20
303.58874749077688
 30
0.0
 10
-89.626699829101554
 20
302.76683383517792
 30
0.0
 10
-89.097533162434885
 20
300.18094516330291
 30
0.0
 10
-89.097533162434885
 20
299.06266716851127
 30
0.0
 10
-89.097533162434885
 20
294.76930304633242
 30
0.0
 10
-90.215897284613703
 20
288.71566738552514
 30
0.0
 10
-89.037588500976554
 20
284.59877827962237
 30
0.0
 10
-88.628397284613712
 20
283.36405605740015
 30
0.0
 10
-86.688119506835932
 20
283.18766716851127
 30
0.0
 10
-85.686199612087663
 20
283.89322272406679
 30
0.0
 10
-84.451477389865445
 20
284.71513637966575
 30
0.0
 10
-84.864199829101551
 20
287.12816738552516
 30
0.0
 10
-84.864199829101551
 20
288.4793338351779
 30
0.0
 10
-84.864199829101551
 20
292.71266716851125
 30
0.0
 10
-83.805866495768228
 20
298.76983405219181
 30
0.0
 10
-84.980644056532114
 20
302.8831919352213
 30
0.0
 10
-85.39336649576822
 20
304.11791415744352
 30
0.0
 10
-87.626477389865443
 20
304.3543338351779
 30
0.0
 10
-88.568366495768217
 20
303.58874749077688
 30
0.0
  0
SPLINE
  5
3E
100
AcDbEntity
  8
LAYER_1
 62
     7
100
AcDbSpline
210
0.0
220
0.0
230
1.0
 70
     8
 71
     3
 72
    23
 73
    19
 74
     0
 42
0.00000001
 43
0.00000001
 40
0.0
 40
0.0
 40
0.0
 40
0.0
 40
1.0
 40
1.0
 40
1.0
 40
2.0
 40
2.0
 40
2.0
 40
3.0
 40
3.0
 40
3.0
 40
4.0
 40
4.0
 40
4.0
 40
5.0
 40
5.0
 40
5.0
 40
6.0
 40
6.0
 40
6.0
 40
6.0
 10
48.662189059787323
 20
239.03041415744354
 30
0.0
 10
47.603855726453986
 20
238.20850050184458
 30
0.0
 10
47.840189276801212
 20
235.32624749077689
 30
0.0
 10
49.191355726453992
 20
234.91705627441405
 30
0.0
 10
53.131855943467876
 20
233.79877827962238
 30
0.0
 10
58.832799953884546
 20
234.85711161295572
 30
0.0
 10
62.949689059787318
 20
234.85711161295572
 30
0.0
 10
64.184411282009549
 20
234.85711161295572
 30
0.0
 10
66.593911064995652
 20
234.38788960774738
 30
0.0
 10
67.595744832356772
 20
235.38627827962239
 30
0.0
 10
68.534188842773432
 20
236.32816738552515
 30
0.0
 10
68.534188842773432
 20
238.85402526855466
 30
0.0
 10
67.12307773166232
 20
239.32677849663625
 30
0.0
 10
63.186022610134543
 20
240.44152526855467
 30
0.0
 10
57.481633504231766
 20
239.44322272406683
 30
0.0
 10
53.424689059787319
 20
239.44322272406683
 30
0.0
 10
52.130022176106763
 20
239.44322272406683
 30
0.0
 10
49.720522393120653
 20
239.85594516330292
 30
0.0
 10
48.662189059787323
 20
239.03041415744354
 30
0.0
  0
SPLINE
  5
3D
100
AcDbEntity
  8
LAYER_1
 62
     7
100
AcDbSpline
210
0.0
220
0.0
230
1.0
 70
     8
 71
     3
 72
    11
 73
     7
 74
     0
 42
0.00000001
 43
0.00000001
 40
0.0
 40
0.0
 40
0.0
 40
0.0
 40
1.0
 40
1.0
 40
1.0
 40
2.0
 40
2.0
 40
2.0
 40
2.0
 10
44.605244615342876
 20
171.00433383517793
 30
0.0
 10
42.195744832356766
 20
170.29877827962238
 30
0.0
 10
43.546911282009546
 20
166.35819193522133
 30
0.0
 10
45.899911499023432
 20
167.30016716851128
 30
0.0
 10
48.133022393120655
 20
168.18211161295571
 30
0.0
 10
46.838355509440099
 20
171.70988939073348
 30
0.0
 10
44.605244615342876
 20
171.00433383517793
 30
0.0
  0
SPLINE
  5
3C
100
AcDbEntity
  8
LAYER_1
 62
     7
100
AcDbSpline
210
0.0
220
0.0
230
1.0
 70
     8
 71
     3
 72
    11
 73
     7
 74
     0
 42
0.00000001
 43
0.00000001
 40
0.0
 40
0.0
 40
0.0
 40
0.0
 40
1.0
 40
1.0
 40
1.0
 40
2.0
 40
2.0
 40
2.0
 40
2.0
 10
-47.353397284613713
 20
133.54985860188802
 30
0.0
 10
-49.117286173502599
 20
132.55155605740015
 30
0.0
 10
-48.175310940212668
 20
129.14013637966579
 30
0.0
 10
-46.118675062391489
 20
130.08211161295571
 30
0.0
 10
-43.825619506835935
 20
131.14044494628905
 30
0.0
 10
-45.176699829101558
 20
134.84461161295573
 30
0.0
 10
-47.353397284613713
 20
133.54985860188802
 30
0.0
  0
SPLINE
  5
3B
100
AcDbEntity
  8
LAYER_1
 62
     7
100
AcDbSpline
210
0.0
220
0.0
230
1.0
 70
     8
 71
     3
 72
    11
 73
     7
 74
     0
 42
0.00000001
 43
0.00000001
 40
0.0
 40
0.0
 40
0.0
 40
0.0
 40
1.0
 40
1.0
 40
1.0
 40
2.0
 40
2.0
 40
2.0
 40
2.0
 10
44.605244615342876
 20
104.62208082411023
 30
0.0
 10
42.428633287217878
 20
103.38735860188801
 30
0.0
 10
44.545299953884545
 20
100.27238939073349
 30
0.0
 10
46.605467054578988
 20
101.50711161295573
 30
0.0
 10
48.662189059787323
 20
102.74183383517794
 30
0.0
 10
46.721911282009543
 20
105.85680304633246
 30
0.0
 10
44.605244615342876
 20
104.62208082411023
 30
0.0
  0
SPLINE
  5
3A
100
AcDbEntity
  8
LAYER_1
 62
     7
100
AcDbSpline
210
0.0
220
0.0
230
1.0
 70
     8
 71
     3
 72
    11
 73
     7
 74
     0
 42
0.00000001
 43
0.00000001
 40
0.0
 40
0.0
 40
0.0
 40
0.0
 40
1.0
 40
1.0
 40
1.0
 40
2.0
 40
2.0
 40
2.0
 40
2.0
 10
45.663577948676213
 20
39.06889004177517
 30
0.0
 10
43.370522393120659
 20
38.423279147677945
 30
0.0
 10
43.723300170898433
 20
34.659167819552948
 30
0.0
 10
46.30918884277343
 20
35.304778713650173
 30
0.0
 10
48.662189059787323
 20
35.833945380316834
 30
0.0
 10
48.073077731662323
 20
39.834390258789057
 30
0.0
 10
45.663577948676213
 20
39.06889004177517
 30
0.0
  0
SPLINE
  5
39
100
AcDbEntity
  8
LAYER_1
 62
     7
100
AcDbSpline
210
0.0
220
0.0
230
1.0
 70
     8
 71
     3
 72
    11
 73
     7
 74
     0
 42
0.00000001
 43
0.00000001
 40
0.0
 40
0.0
 40
0.0
 40
0.0
 40
1.0
 40
1.0
 40
1.0
 40
2.0
 40
2.0
 40
2.0
 40
2.0
 10
-46.764199829101557
 20
37.950612046983501
 30
0.0
 10
-48.644532945421005
 20
37.012168036566834
 30
0.0
 10
-47.5297861735026
 20
33.54088982476128
 30
0.0
 10
-45.413119506835933
 20
34.542723592122393
 30
0.0
 10
-43.529255167643228
 20
35.48116760253906
 30
0.0
 10
-44.707563951280378
 20
38.952445814344614
 30
0.0
 10
-46.764199829101557
 20
37.950612046983501
 30
0.0
  0
SPLINE
  5
38
100
AcDbEntity
  8
LAYER_1
 62
     7
100
AcDbSpline
210
0.0
220
0.0
230
1.0
 70
     8
 71
     3
 72
    11
 73
     7
 74
     0
 42
0.00000001
 43
0.00000001
 40
0.0
 40
0.0
 40
0.0
 40
0.0
 40
1.0
 40
1.0
 40
1.0
 40
2.0
 40
2.0
 40
2.0
 40
2.0
 10
-46.411422051323783
 20
1.6145009358723956
 30
0.0
 10
-48.58811950683593
 20
0.6161122639973958
 30
0.0
 10
-47.293366495768225
 20
-3.0880544026692704
 30
0.0
 10
-45.116755167643227
 20
-1.8533321804470484
 30
0.0
 10
-43.352866278754334
 20
-0.8549435085720485
 30
0.0
 10
-44.354786173502603
 20
2.4964453803168403
 30
0.0
 10
-46.411422051323783
 20
1.6145009358723956
 30
0.0
  0
SPLINE
  5
37
100
AcDbEntity
  8
LAYER_1
 62
     7
100
AcDbSpline
210
0.0
220
0.0
230
1.0
 70
     8
 71
     3
 72
    11
 73
     7
 74
     0
 42
0.00000001
 43
0.00000001
 40
0.0
 40
0.0
 40
0.0
 40
0.0
 40
1.0
 40
1.0
 40
1.0
 40
2.0
 40
2.0
 40
2.0
 40
2.0
 10
45.370744832356763
 20
-27.313276841905381
 30
0.0
 10
43.194133504231765
 20
-28.604498630099823
 30
0.0
 10
45.074466620551213
 20
-32.132276407877605
 30
0.0
 10
47.251077948676212
 20
-30.781109958224825
 30
0.0
 10
49.42768927680121
 20
-29.486443074544269
 30
0.0
 10
47.603855726453986
 20
-25.95866529676649
 30
0.0
 10
45.370744832356763
 20
-27.313276841905381
 30
0.0
  0
SPLINE
  5
36
100
AcDbEntity
  8
LAYER_1
 62
     7
100
AcDbSpline
210
0.0
220
0.0
230
1.0
 70
     8
 71
     3
 72
    11
 73
     7
 74
     0
 42
0.00000001
 43
0.00000001
 40
0.0
 40
0.0
 40
0.0
 40
0.0
 40
1.0
 40
1.0
 40
1.0
 40
2.0
 40
2.0
 40
2.0
 40
2.0
 10
46.016355726453988
 20
-93.162831963433149
 30
0.0
 10
43.546911282009546
 20
-93.988276841905375
 30
0.0
 10
44.781633504231763
 20
-97.985276624891483
 30
0.0
 10
47.367522176106768
 20
-96.926943291558146
 30
0.0
 10
49.367744615342879
 20
-96.044998847113703
 30
0.0
 10
48.192967054578986
 20
-92.4572764078776
 30
0.0
 10
46.016355726453988
 20
-93.162831963433149
 30
0.0
  0
SPLINE
  5
35
100
AcDbEntity
  8
LAYER_1
 62
     7
100
AcDbSpline
210
0.0
220
0.0
230
1.0
 70
     8
 71
     3
 72
    11
 73
     7
 74
     0
 42
0.00000001
 43
0.00000001
 40
0.0
 40
0.0
 40
0.0
 40
0.0
 40
1.0
 40
1.0
 40
1.0
 40
2.0
 40
2.0
 40
2.0
 40
2.0
 10
-46.058644273546001
 20
-94.341054619683149
 30
0.0
 10
-47.93897738986545
 20
-95.279498630099823
 30
0.0
 10
-46.880644056532113
 20
-98.45449863009982
 30
0.0
 10
-44.707563951280378
 20
-97.632498847113709
 30
0.0
 10
-42.707255384657117
 20
-96.866998630099815
 30
0.0
 10
-44.05842183430989
 20
-93.399165513780375
 30
0.0
 10
-46.058644273546001
 20
-94.341054619683149
 30
0.0
  0
SPLINE
  5
34
100
AcDbEntity
  8
LAYER_1
 62
     7
100
AcDbSpline
210
0.0
220
0.0
230
1.0
 70
     8
 71
     3
 72
    11
 73
     7
 74
     0
 42
0.00000001
 43
0.00000001
 40
0.0
 40
0.0
 40
0.0
 40
0.0
 40
1.0
 40
1.0
 40
1.0
 40
2.0
 40
2.0
 40
2.0
 40
2.0
 10
-45.705866495768227
 20
-130.61722106933593
 30
0.0
 10
-47.706175062391488
 20
-131.14638773600259
 30
0.0
 10
-47.233421834309894
 20
-134.79060974121091
 30
0.0
 10
-45.060341729058159
 20
-134.26144307454425
 30
0.0
 10
-42.767286173502598
 20
-133.73227640787761
 30
0.0
 10
-43.472841729058153
 20
-130.02810974121093
 30
0.0
 10
-45.705866495768227
 20
-130.61722106933593
 30
0.0
  0
SPLINE
  5
33
100
AcDbEntity
  8
LAYER_1
 62
     7
100
AcDbSpline
210
0.0
220
0.0
230
1.0
 70
     8
 71
     3
 72
    11
 73
     7
 74
     0
 42
0.00000001
 43
0.00000001
 40
0.0
 40
0.0
 40
0.0
 40
0.0
 40
1.0
 40
1.0
 40
1.0
 40
2.0
 40
2.0
 40
2.0
 40
2.0
 10
46.369133504231769
 20
-159.48505418565537
 30
0.0
 10
44.136022610134546
 20
-160.25055440266925
 30
0.0
 10
45.074466620551213
 20
-163.95472106933593
 30
0.0
 10
47.367522176106768
 20
-163.24916551378035
 30
0.0
 10
49.604078165690098
 20
-162.54360995822481
 30
0.0
 10
48.722133721245655
 20
-158.72299906412758
 30
0.0
 10
46.369133504231769
 20
-159.48505418565537
 30
0.0
  0
SPLINE
  5
32
100
AcDbEntity
  8
LAYER_1
 62
     7
100
AcDbSpline
210
0.0
220
0.0
230
1.0
 70
     8
 71
     3
 72
    11
 73
     7
 74
     0
 42
0.00000001
 43
0.00000001
 40
0.0
 40
0.0
 40
0.0
 40
0.0
 40
1.0
 40
1.0
 40
1.0
 40
2.0
 40
2.0
 40
2.0
 40
2.0
 10
0.5080223931206597
 20
-169.01005418565538
 30
0.0
 10
-1.9614220513237846
 20
-169.89199863009981
 30
0.0
 10
-0.7266998291015624
 20
-174.00888773600258
 30
0.0
 10
1.8591888427734373
 20
-173.06699863009982
 30
0.0
 10
4.3286332872178814
 20
-172.12855461968314
 30
0.0
 10
3.0939110649956594
 20
-168.12810974121092
 30
0.0
 10
0.5080223931206597
 20
-169.01005418565538
 30
0.0
  0
SPLINE
  5
31
100
AcDbEntity
  8
LAYER_1
 62
     7
100
AcDbSpline
210
0.0
220
0.0
230
1.0
 70
     8
 71
     3
 72
    23
 73
    19
 74
     0
 42
0.00000001
 43
0.00000001
 40
0.0
 40
0.0
 40
0.0
 40
0.0
 40
1.0
 40
1.0
 40
1.0
 40
2.0
 40
2.0
 40
2.0
 40
3.0
 40
3.0
 40
3.0
 40
4.0
 40
4.0
 40
4.0
 40
5.0
 40
5.0
 40
5.0
 40
6.0
 40
6.0
 40
6.0
 40
6.0
 10
51.484411282009546
 20
-204.05494350857202
 30
0.0
 10
50.366133287217878
 20
-204.93688795301648
 30
0.0
 10
50.718911064995652
 20
-208.16838751898871
 30
0.0
 10
52.013577948676208
 20
-208.75749884711371
 30
0.0
 10
55.481411064995655
 20
-210.22855461968314
 30
0.0
 10
62.007799953884543
 20
-208.93388773600259
 30
0.0
 10
65.77191128200954
 20
-208.93388773600259
 30
0.0
 10
67.006633504231772
 20
-208.93388773600259
 30
0.0
 10
69.123300170898432
 20
-209.34661017523871
 30
0.0
 10
70.121688842773437
 20
-208.40472106933592
 30
0.0
 10
71.123522610134543
 20
-207.40633239746091
 30
0.0
 10
71.063577948676212
 20
-204.23133239746093
 30
0.0
 10
69.592522176106769
 20
-203.75866529676648
 30
0.0
 10
65.77191128200954
 20
-202.64383239746093
 30
0.0
 10
60.187411499023433
 20
-203.64222106933593
 30
0.0
 10
56.246911282009542
 20
-203.64222106933593
 30
0.0
 10
54.952244398328986
 20
-203.64222106933593
 30
0.0
 10
52.542744615342876
 20
-203.22949863009981
 30
0.0
 10
51.484411282009546
 20
-204.05494350857202
 30
0.0
  0
SPLINE
  5
30
100
AcDbEntity
  8
LAYER_1
 62
     7
100
AcDbSpline
210
0.0
220
0.0
230
1.0
 70
     8
 71
     3
 72
    29
 73
    25
 74
     0
 42
0.00000001
 43
0.00000001
 40
0.0
 40
0.0
 40
0.0
 40
0.0
 40
1.0
 40
1.0
 40
1.0
 40
2.0
 40
2.0
 40
2.0
 40
3.0
 40
3.0
 40
3.0
 40
4.0
 40
4.0
 40
4.0
 40
5.0
 40
5.0
 40
5.0
 40
6.0
 40
6.0
 40
6.0
 40
7.0
 40
7.0
 40
7.0
 40
8.0
 40
8.0
 40
8.0
 40
8.0
 10
68.770522393120658
 20
-276.72716573079424
 30
0.0
 10
67.71218905978732
 20
-277.54916551378034
 30
0.0
 10
68.241355726453989
 20
-280.13505418565535
 30
0.0
 10
68.241355726453989
 20
-281.25333218044705
 30
0.0
 10
68.241355726453989
 20
-281.25333218044705
 30
0.0
 10
68.241355726453989
 20
-291.83666551378036
 30
0.0
 10
68.241355726453989
 20
-291.83666551378036
 30
0.0
 10
68.241355726453989
 20
-293.13133239746094
 30
0.0
 10
67.828633287217869
 20
-295.12810974121089
 30
0.0
 10
68.417744615342869
 20
-296.36283196343311
 30
0.0
 10
69.006855943467869
 20
-297.48110995822481
 30
0.0
 10
72.005467054578986
 20
-297.54105461968311
 30
0.0
 10
72.943911064995646
 20
-296.77555440266923
 30
0.0
 10
74.002244398328983
 20
-295.95355461968313
 30
0.0
 10
73.533022393120646
 20
-293.36422085232203
 30
0.0
 10
73.533022393120646
 20
-292.18944329155812
 30
0.0
 10
73.533022393120646
 20
-292.18944329155812
 30
0.0
 10
73.533022393120646
 20
-281.60610995822481
 30
0.0
 10
73.533022393120646
 20
-281.60610995822481
 30
0.0
 10
73.533022393120646
 20
-280.37138773600259
 30
0.0
 10
73.885800170898435
 20
-278.37116529676649
 30
0.0
 10
73.296688842773435
 20
-277.13644307454422
 30
0.0
 10
72.711022610134549
 20
-276.02161017523866
 30
0.0
 10
69.712411499023432
 20
-275.96166551378036
 30
0.0
 10
68.770522393120658
 20
-276.72716573079424
 30
0.0
  0
SPLINE
  5
2F
100
AcDbEntity
  8
LAYER_1
 62
     7
100
AcDbSpline
210
0.0
220
0.0
230
1.0
 70
     8
 71
     3
 72
    23
 73
    19
 74
     0
 42
0.00000001
 43
0.00000001
 40
0.0
 40
0.0
 40
0.0
 40
0.0
 40
1.0
 40
1.0
 40
1.0
 40
2.0
 40
2.0
 40
2.0
 40
3.0
 40
3.0
 40
3.0
 40
4.0
 40
4.0
 40
4.0
 40
5.0
 40
5.0
 40
5.0
 40
6.0
 40
6.0
 40
6.0
 40
6.0
 10
-69.387883504231766
 20
238.71647983127167
 30
0.0
 10
-70.446216837565103
 20
237.89448004828557
 30
0.0
 10
-70.209797159830728
 20
235.01231316460502
 30
0.0
 10
-68.858716837565098
 20
234.60303582085501
 30
0.0
 10
-64.918130493164057
 20
233.48475782606334
 30
0.0
 10
-59.217272610134543
 20
234.54309115939668
 30
0.0
 10
-55.100383504231765
 20
234.54309115939668
 30
0.0
 10
-53.86566128200954
 20
234.54309115939668
 30
0.0
 10
-51.45616149902343
 20
234.07386915418834
 30
0.0
 10
-50.454241604275168
 20
235.07225782606335
 30
0.0
 10
-49.515883721245658
 20
236.01414693196614
 30
0.0
 10
-49.515883721245658
 20
238.54009094238279
 30
0.0
 10
-50.926994832356769
 20
239.01275804307724
 30
0.0
 10
-54.86396382649739
 20
240.1275909423828
 30
0.0
 10
-60.568439059787323
 20
239.12920227050779
 30
0.0
 10
-64.625383504231763
 20
239.12920227050779
 30
0.0
 10
-65.920050387912326
 20
239.12920227050779
 30
0.0
 10
-68.329550170898429
 20
239.54192470974391
 30
0.0
 10
-69.387883504231766
 20
238.71647983127167
 30
0.0
  0
SPLINE
  5
2E
100
AcDbEntity
  8
LAYER_1
 62
     7
100
AcDbSpline
210
0.0
220
0.0
230
1.0
 70
     8
 71
     3
 72
    11
 73
     7
 74
     0
 42
0.00000001
 43
0.00000001
 40
0.0
 40
0.0
 40
0.0
 40
0.0
 40
1.0
 40
1.0
 40
1.0
 40
2.0
 40
2.0
 40
2.0
 40
2.0
 10
-47.420404391818572
 20
170.49979960123696
 30
0.0
 10
-49.833349270290796
 20
169.79424404568141
 30
0.0
 10
-48.478737725151902
 20
165.85374382866752
 30
0.0
 10
-46.12918260362413
 20
166.79563293457031
 30
0.0
 10
-43.892626614040793
 20
167.67757737901474
 30
0.0
 10
-45.187293497721349
 20
171.20535515679251
 30
0.0
 10
-47.420404391818572
 20
170.49979960123696
 30
0.0
  0
SPLINE
  5
2D
100
AcDbEntity
  8
LAYER_1
 62
     7
100
AcDbSpline
210
0.0
220
0.0
230
1.0
 70
     8
 71
     3
 72
    11
 73
     7
 74
     0
 42
0.00000001
 43
0.00000001
 40
0.0
 40
0.0
 40
0.0
 40
0.0
 40
1.0
 40
1.0
 40
1.0
 40
2.0
 40
2.0
 40
2.0
 40
2.0
 10
1.2452728271484375
 20
-259.21884596082896
 30
0.0
 10
-1.2241716172960069
 20
-260.10079040527341
 30
0.0
 10
0.0105506049262153
 20
-264.21406216091577
 30
0.0
 10
2.596439276801215
 20
-263.27579040527343
 30
0.0
 10
5.0658837212456591
 20
-262.33390129937061
 30
0.0
 10
3.8311614990234371
 20
-258.3369015163845
 30
0.0
 10
1.2452728271484375
 20
-259.21884596082896
 30
0.0
  0
SPLINE
  5
2C
100
AcDbEntity
  8
LAYER_1
 62
     7
100
AcDbSpline
210
0.0
220
0.0
230
1.0
 70
     8
 71
     3
 72
    23
 73
    19
 74
     0
 42
0.00000001
 43
0.00000001
 40
0.0
 40
0.0
 40
0.0
 40
0.0
 40
1.0
 40
1.0
 40
1.0
 40
2.0
 40
2.0
 40
2.0
 40
3.0
 40
3.0
 40
3.0
 40
4.0
 40
4.0
 40
4.0
 40
5.0
 40
5.0
 40
5.0
 40
6.0
 40
6.0
 40
6.0
 40
6.0
 10
-66.801994832356769
 20
-204.74637417263452
 30
0.0
 10
-67.920272827148438
 20
-205.62831861707897
 30
0.0
 10
-67.567495049370649
 20
-208.86326327853732
 30
0.0
 10
-66.2728281656901
 20
-209.45237460666232
 30
0.0
 10
-62.804995049370653
 20
-210.91998528374563
 30
0.0
 10
-56.278606160481765
 20
-209.6287634955512
 30
0.0
 10
-52.514494832356768
 20
-209.6287634955512
 30
0.0
 10
-51.279772610134543
 20
-209.6287634955512
 30
0.0
 10
-49.163105943467876
 20
-210.0380408393012
 30
0.0
 10
-48.164717271592878
 20
-209.09959682888453
 30
0.0
 10
-47.162883504231765
 20
-208.09776306152341
 30
0.0
 10
-47.222828165690103
 20
-204.92276306152343
 30
0.0
 10
-48.693883938259546
 20
-204.45354105631509
 30
0.0
 10
-52.514494832356768
 20
-203.33526306152342
 30
0.0
 10
-58.098994615342875
 20
-204.33709682888454
 30
0.0
 10
-62.039494832356766
 20
-204.33709682888454
 30
0.0
 10
-63.334161716037322
 20
-204.33709682888454
 30
0.0
 10
-65.743661499023432
 20
-203.92437438964842
 30
0.0
 10
-66.801994832356769
 20
-204.74637417263452
 30
0.0
  0
ENDBLK
  5
41
100
AcDbEntity
  8
LAYER_1
100
AcDbBlockEnd
  0
BLOCK
  5
44
100
AcDbEntity
  8
LAYER_1
 62
     7
100
AcDbBlockBegin
  2
AI9-BLK2
 70
     0
 10
0.0
 20
0.0
 30
0.0
  3
AI9-BLK2
  1

  0
SPLINE
  5
46
100
AcDbEntity
  8
LAYER_1
 62
     7
100
AcDbSpline
210
0.0
220
0.0
230
1.0
 70
     8
 71
     3
 72
   113
 73
   109
 74
     0
 42
0.00000001
 43
0.00000001
 40
0.0
 40
0.0
 40
0.0
 40
0.0
 40
1.0
 40
1.0
 40
1.0
 40
2.0
 40
2.0
 40
2.0
 40
3.0
 40
3.0
 40
3.0
 40
4.0
 40
4.0
 40
4.0
 40
5.0
 40
5.0
 40
5.0
 40
6.0
 40
6.0
 40
6.0
 40
7.0
 40
7.0
 40
7.0
 40
8.0
 40
8.0
 40
8.0
 40
9.0
 40
9.0
 40
9.0
 40
10.0
 40
10.0
 40
10.0
 40
11.0
 40
11.0
 40
11.0
 40
12.0
 40
12.0
 40
12.0
 40
13.0
 40
13.0
 40
13.0
 40
14.0
 40
14.0
 40
14.0
 40
15.0
 40
15.0
 40
15.0
 40
16.0
 40
16.0
 40
16.0
 40
17.0
 40
17.0
 40
17.0
 40
18.0
 40
18.0
 40
18.0
 40
19.0
 40
19.0
 40
19.0
 40
20.0
 40
20.0
 40
20.0
 40
21.0
 40
21.0
 40
21.0
 40
22.0
 40
22.0
 40
22.0
 40
23.0
 40
23.0
 40
23.0
 40
24.0
 40
24.0
 40
24.0
 40
25.0
 40
25.0
 40
25.0
 40
26.0
 40
26.0
 40
26.0
 40
27.0
 40
27.0
 40
27.0
 40
28.0
 40
28.0
 40
28.0
 40
29.0
 40
29.0
 40
29.0
 40
30.0
 40
30.0
 40
30.0
 40
31.0
 40
31.0
 40
31.0
 40
32.0
 40
32.0
 40
32.0
 40
33.0
 40
33.0
 40
33.0
 40
34.0
 40
34.0
 40
34.0
 40
35.0
 40
35.0
 40
35.0
 40
36.0
 40
36.0
 40
36.0
 40
36.0
 10
-36.222939724392354
 20
230.03755221896699
 30
0.0
 10
-37.81043972439236
 20
228.97921888563366
 30
0.0
 10
-37.574106174045134
 20
223.33477444118921
 30
0.0
 10
-35.986606174045136
 20
222.3964165581597
 30
0.0
 10
-34.69193929036458
 20
221.69086100260415
 30
0.0
 10
-33.047939724392357
 20
222.27644110785587
 30
0.0
 10
-31.869717068142357
 20
221.33808322482636
 30
0.0
 10
-31.164161512586801
 20
220.74897189670136
 30
0.0
 10
-30.987772623697914
 20
219.69063856336803
 30
0.0
 10
-31.284050835503468
 20
218.8086941189236
 30
0.0
 10
-32.28243950737847
 20
216.16286078559025
 30
0.0
 10
-35.986606174045136
 20
217.69032999674477
 30
0.0
 10
-36.868550618489579
 20
214.86810777452254
 30
0.0
 10
-37.81043972439236
 20
211.92952745225693
 30
0.0
 10
-37.044939507378466
 20
207.75613878038192
 30
0.0
 10
-37.044939507378466
 20
204.69758300781248
 30
0.0
 10
-37.044939507378466
 20
204.69758300781248
 30
0.0
 10
-37.044939507378466
 20
182.82536078559025
 30
0.0
 10
-37.044939507378466
 20
182.82536078559025
 30
0.0
 10
-37.044939507378466
 20
182.82536078559025
 30
0.0
 10
-37.044939507378466
 20
110.85869411892359
 30
0.0
 10
-37.044939507378466
 20
110.85869411892359
 30
0.0
 10
-37.044939507378466
 20
110.85869411892359
 30
0.0
 10
-37.044939507378466
 20
-135.37674967447916
 30
0.0
 10
-37.044939507378466
 20
-135.37674967447916
 30
0.0
 10
-37.044939507378466
 20
-135.37674967447916
 30
0.0
 10
-37.044939507378466
 20
-192.17397189670137
 30
0.0
 10
-37.044939507378466
 20
-192.17397189670137
 30
0.0
 10
-37.044939507378466
 20
-192.17397189670137
 30
0.0
 10
-37.044939507378466
 20
-209.81286078559026
 30
0.0
 10
-37.044939507378466
 20
-209.81286078559026
 30
0.0
 10
-37.044939507378466
 20
-212.34224989149303
 30
0.0
 10
-37.634050835503466
 20
-215.57374945746525
 30
0.0
 10
-36.92849527994791
 20
-217.92674967447914
 30
0.0
 10
-36.162995062934023
 20
-220.63252766927081
 30
0.0
 10
-32.165995279947914
 20
-219.3978054470486
 30
0.0
 10
-31.516939290364579
 20
-221.86724989149303
 30
0.0
 10
-30.578495279947912
 20
-225.68786078559026
 30
0.0
 10
-38.692384168836803
 20
-224.51308322482637
 30
0.0
 10
-35.986606174045136
 20
-229.21563856336803
 30
0.0
 10
-34.988217502170137
 20
-230.91958279079859
 30
0.0
 10
-33.047939724392357
 20
-230.45036078559025
 30
0.0
 10
-31.400495062934024
 20
-230.3339165581597
 30
0.0
 10
-27.579884168836802
 20
-230.09758300781249
 30
0.0
 10
-23.639383951822914
 20
-230.27397189670137
 30
0.0
 10
-19.758828396267358
 20
-230.27397189670137
 30
0.0
 10
-19.758828396267358
 20
-230.27397189670137
 30
0.0
 10
20.105060492621526
 20
-230.27397189670137
 30
0.0
 10
20.105060492621526
 20
-230.27397189670137
 30
0.0
 10
20.105060492621526
 20
-230.27397189670137
 30
0.0
 10
30.688393825954858
 20
-230.27397189670137
 30
0.0
 10
30.688393825954858
 20
-230.27397189670137
 30
0.0
 10
32.159449598524304
 20
-230.27397189670137
 30
0.0
 10
34.216171603732633
 20
-230.62674967447916
 30
0.0
 10
35.567338053385413
 20
-229.86124945746525
 30
0.0
 10
37.21478271484375
 20
-228.9228054470486
 30
0.0
 10
37.451116265190969
 20
-226.39341634114581
 30
0.0
 10
35.920115831163194
 20
-225.21863878038192
 30
0.0
 10
34.452505154079859
 20
-224.16030544704859
 30
0.0
 10
29.806449381510415
 20
-224.33669433593747
 30
0.0
 10
32.099504937065973
 20
-220.86541612413191
 30
0.0
 10
33.217782931857634
 20
-219.22141655815969
 30
0.0
 10
35.803671603732639
 20
-220.57258300781248
 30
0.0
 10
36.745560709635413
 20
-218.27952745225693
 30
0.0
 10
37.860393608940967
 20
-215.57374945746525
 30
0.0
 10
37.038393825954856
 20
-210.98763834635415
 30
0.0
 10
37.038393825954856
 20
-208.04897189670137
 30
0.0
 10
37.038393825954856
 20
-208.04897189670137
 30
0.0
 10
37.038393825954856
 20
-185.1184163411458
 30
0.0
 10
37.038393825954856
 20
-185.1184163411458
 30
0.0
 10
37.038393825954856
 20
-161.36586100260416
 30
0.0
 10
36.685616048177081
 20
-137.60986056857638
 30
0.0
 10
36.685616048177081
 20
-113.85730523003471
 30
0.0
 10
36.685616048177081
 20
-113.85730523003471
 30
0.0
 10
36.685616048177081
 20
130.61424967447917
 30
0.0
 10
36.685616048177081
 20
130.61424967447917
 30
0.0
 10
36.685616048177081
 20
130.61424967447917
 30
0.0
 10
36.685616048177081
 20
189.52813856336803
 30
0.0
 10
36.685616048177081
 20
189.52813856336803
 30
0.0
 10
36.685616048177081
 20
194.75977444118922
 30
0.0
 10
36.449282497829856
 20
200.11147189670137
 30
0.0
 10
36.685616048177081
 20
205.40313856336803
 30
0.0
 10
36.802060275607637
 20
208.69449666341143
 30
0.0
 10
37.567560492621524
 20
212.34224989149303
 30
0.0
 10
36.569171820746526
 20
215.57366333007812
 30
0.0
 10
35.803671603732639
 20
218.04310777452255
 30
0.0
 10
32.452282714843747
 20
216.45560777452255
 30
0.0
 10
31.806671820746526
 20
218.8086941189236
 30
0.0
 10
30.804838053385414
 20
222.51286078559025
 30
0.0
 10
33.979838053385414
 20
221.51447211371527
 30
0.0
 10
35.86361626519097
 20
222.98199666341145
 30
0.0
 10
37.098338487413194
 20
223.98391655815971
 30
0.0
 10
37.038393825954856
 20
227.92088555230032
 30
0.0
 10
36.449282497829856
 20
229.33199666341145
 30
0.0
 10
35.803671603732639
 20
230.80313856336804
 30
0.0
 10
33.746949598524303
 20
230.39032999674478
 30
0.0
 10
32.452282714843747
 20
230.45036078559025
 30
0.0
 10
32.452282714843747
 20
230.45036078559025
 30
0.0
 10
20.105060492621526
 20
230.45036078559025
 30
0.0
 10
20.105060492621526
 20
230.45036078559025
 30
0.0
 10
20.105060492621526
 20
230.45036078559025
 30
0.0
 10
-21.169939507378469
 20
230.45036078559025
 30
0.0
 10
-21.169939507378469
 20
230.45036078559025
 30
0.0
 10
-21.169939507378469
 20
230.45036078559025
 30
0.0
 10
-31.753272840711801
 20
230.45036078559025
 30
0.0
 10
-31.753272840711801
 20
230.45036078559025
 30
0.0
 10
-33.047939724392357
 20
230.45036078559025
 30
0.0
 10
-35.104661729600693
 20
230.80313856336804
 30
0.0
 10
-36.222939724392354
 20
230.03755221896699
 30
0.0
  0
SPLINE
  5
45
100
AcDbEntity
  8
LAYER_1
 62
     7
100
AcDbSpline
210
0.0
220
0.0
230
1.0
 70
     8
 71
     3
 72
    11
 73
     7
 74
     0
 42
0.00000001
 43
0.00000001
 40
0.0
 40
0.0
 40
0.0
 40
0.0
 40
1.0
 40
1.0
 40
1.0
 40
2.0
 40
2.0
 40
2.0
 40
2.0
 10
0.9951158311631944
 20
-184.00013834635416
 30
0.0
 10
-2.7655504014756942
 20
-184.41286078559025
 30
0.0
 10
-2.4727172851562496
 20
-190.47002766927082
 30
0.0
 10
1.3478936089409721
 20
-190.29363878038194
 30
0.0
 10
5.1719495985243054
 20
-190.11724989149303
 30
0.0
 10
4.7592271592881943
 20
-183.59086100260416
 30
0.0
 10
0.9951158311631944
 20
-184.00013834635416
 30
0.0
  0
ENDBLK
  5
47
100
AcDbEntity
  8
LAYER_1
100
AcDbBlockEnd
  0
BLOCK
  5
4A
100
AcDbEntity
  8
LAYER_1
 62
     7
100
AcDbBlockBegin
  2
AI9-BLK3
 70
     0
 10
0.0
 20
0.0
 30
0.0
  3
AI9-BLK3
  1

  0
SPLINE
  5
4E
100
AcDbEntity
  8
LAYER_1
 62
     7
100
AcDbSpline
210
0.0
220
0.0
230
1.0
 70
     8
 71
     3
 72
    77
 73
    73
 74
     0
 42
0.00000001
 43
0.00000001
 40
0.0
 40
0.0
 40
0.0
 40
0.0
 40
1.0
 40
1.0
 40
1.0
 40
2.0
 40
2.0
 40
2.0
 40
3.0
 40
3.0
 40
3.0
 40
4.0
 40
4.0
 40
4.0
 40
5.0
 40
5.0
 40
5.0
 40
6.0
 40
6.0
 40
6.0
 40
7.0
 40
7.0
 40
7.0
 40
8.0
 40
8.0
 40
8.0
 40
9.0
 40
9.0
 40
9.0
 40
10.0
 40
10.0
 40
10.0
 40
11.0
 40
11.0
 40
11.0
 40
12.0
 40
12.0
 40
12.0
 40
13.0
 40
13.0
 40
13.0
 40
14.0
 40
14.0
 40
14.0
 40
15.0
 40
15.0
 40
15.0
 40
16.0
 40
16.0
 40
16.0
 40
17.0
 40
17.0
 40
17.0
 40
18.0
 40
18.0
 40
18.0
 40
19.0
 40
19.0
 40
19.0
 40
20.0
 40
20.0
 40
20.0
 40
21.0
 40
21.0
 40
21.0
 40
22.0
 40
22.0
 40
22.0
 40
23.0
 40
23.0
 40
23.0
 40
24.0
 40
24.0
 40
24.0
 40
24.0
 10
-49.039728461371524
 20
231.05880771213106
 30
0.0
 10
-52.098284233940966
 20
230.12044982910155
 30
0.0
 10
-51.156395128038191
 20
225.59075215657549
 30
0.0
 10
-51.156395128038191
 20
223.18133850097655
 30
0.0
 10
-51.156395128038191
 20
215.12739427354597
 30
0.0
 10
-51.509172905815966
 20
207.18989427354597
 30
0.0
 10
-51.509172905815966
 20
199.19244961208764
 30
0.0
 10
-51.509172905815966
 20
164.79661627875433
 30
0.0
 10
-52.214728461371521
 20
130.46072760687932
 30
0.0
 10
-52.214728461371521
 20
96.181338500976551
 30
0.0
 10
-52.214728461371521
 20
15.57506137424045
 30
0.0
 10
-53.625839572482633
 20
-64.798327297634543
 30
0.0
 10
-53.625839572482633
 20
-145.46799418131508
 30
0.0
 10
-53.625839572482633
 20
-166.22193840874564
 30
0.0
 10
-54.331395128038189
 20
-186.91938307020396
 30
0.0
 10
-54.331395128038189
 20
-207.55688307020398
 30
0.0
 10
-54.331395128038189
 20
-207.55688307020398
 30
0.0
 10
-54.331395128038189
 20
-223.43188307020398
 30
0.0
 10
-54.331395128038189
 20
-223.43188307020398
 30
0.0
 10
-54.331395128038189
 20
-225.31221618652341
 30
0.0
 10
-54.860561794704857
 20
-228.13443840874564
 30
0.0
 10
-53.685784233940964
 20
-229.72193840874564
 30
0.0
 10
-52.391117350260409
 20
-231.48582729763453
 30
0.0
 10
-49.216117350260411
 20
-230.84021640353731
 30
0.0
 10
-47.275839572482631
 20
-230.84021640353731
 30
0.0
 10
-41.395061577690967
 20
-230.84021640353731
 30
0.0
 10
-35.574228244357634
 20
-231.19299418131507
 30
0.0
 10
-29.636950683593746
 20
-231.19299418131507
 30
0.0
 10
-10.527006022135415
 20
-231.19299418131507
 30
0.0
 10
8.7558824327256932
 20
-231.72216084798174
 30
0.0
 10
27.865827094184024
 20
-231.2529388427734
 30
0.0
 10
32.744771321614579
 20
-231.13304951985674
 30
0.0
 10
37.7436048719618
 20
-231.19299418131507
 30
0.0
 10
42.68249376085069
 20
-231.19299418131507
 30
0.0
 10
44.62277153862847
 20
-231.19299418131507
 30
0.0
 10
47.444993760850693
 20
-231.72216084798174
 30
0.0
 10
49.325326877170134
 20
-231.01660529242619
 30
0.0
 10
52.207493760850689
 20
-229.89832729763452
 30
0.0
 10
50.972771538628464
 20
-225.13582729763453
 30
0.0
 10
51.149160427517359
 20
-222.7263275146484
 30
0.0
 10
51.738271755642359
 20
-214.02332729763452
 30
0.0
 10
51.501938205295133
 20
-205.08743862575952
 30
0.0
 10
51.501938205295133
 20
-196.26799418131509
 30
0.0
 10
51.501938205295133
 20
-159.87193840874565
 30
0.0
 10
52.207493760850689
 20
-123.41938307020398
 30
0.0
 10
52.207493760850689
 20
-86.906883070203989
 30
0.0
 10
52.207493760850689
 20
-8.2973832872178814
 30
0.0
 10
53.971382649739581
 20
70.428560723198785
 30
0.0
 10
53.971382649739581
 20
149.09800516764321
 30
0.0
 10
53.971382649739581
 20
168.96991882324218
 30
0.0
 10
54.324160427517356
 20
188.78550516764321
 30
0.0
 10
54.324160427517356
 20
208.71744961208765
 30
0.0
 10
54.324160427517356
 20
208.71744961208765
 30
0.0
 10
54.324160427517356
 20
223.8868940565321
 30
0.0
 10
54.324160427517356
 20
223.8868940565321
 30
0.0
 10
54.324160427517356
 20
225.47439405653211
 30
0.0
 10
54.853327094184024
 20
228.41297437879771
 30
0.0
 10
53.735049099392356
 20
229.76767205132376
 30
0.0
 10
52.500326877170131
 20
231.23519660101994
 30
0.0
 10
48.97254909939236
 20
230.58967183430988
 30
0.0
 10
47.268604871961799
 20
230.58967183430988
 30
0.0
 10
47.268604871961799
 20
230.58967183430988
 30
0.0
 10
29.276938205295135
 20
230.58967183430988
 30
0.0
 10
29.276938205295135
 20
230.58967183430988
 30
0.0
 10
10.932493760850694
 20
230.58967183430988
 30
0.0
 10
-7.4119506835937496
 20
231.29522738986543
 30
0.0
 10
-25.756395128038193
 20
231.29522738986543
 30
0.0
 10
-25.756395128038193
 20
231.29522738986543
 30
0.0
 10
-41.278617350260411
 20
231.29522738986543
 30
0.0
 10
-41.278617350260411
 20
231.29522738986543
 30
0.0
 10
-43.688117133246521
 20
231.29522738986543
 30
0.0
 10
-46.74667290581597
 20
231.7643632676866
 30
0.0
 10
-49.039728461371524
 20
231.05880771213106
 30
0.0
  0
SPLINE
  5
4D
100
AcDbEntity
  8
LAYER_1
 62
     7
100
AcDbSpline
210
0.0
220
0.0
230
1.0
 70
     8
 71
     3
 72
    11
 73
     7
 74
     0
 42
0.00000001
 43
0.00000001
 40
0.0
 40
0.0
 40
0.0
 40
0.0
 40
1.0
 40
1.0
 40
1.0
 40
2.0
 40
2.0
 40
2.0
 40
2.0
 10
1.760271538628472
 20
189.727394273546
 30
0.0
 10
-0.7691175672743055
 20
188.90186326768662
 30
0.0
 10
0.5255493164062499
 20
184.72856072319877
 30
0.0
 10
3.1114379882812497
 20
185.61050516764323
 30
0.0
 10
5.5808824327256943
 20
186.49244961208765
 30
0.0
 10
4.1697713216145829
 20
190.48936326768663
 30
0.0
 10
1.760271538628472
 20
189.727394273546
 30
0.0
  0
SPLINE
  5
4C
100
AcDbEntity
  8
LAYER_1
 62
     7
100
AcDbSpline
210
0.0
220
0.0
230
1.0
 70
     8
 71
     3
 72
    53
 73
    49
 74
     0
 42
0.00000001
 43
0.00000001
 40
0.0
 40
0.0
 40
0.0
 40
0.0
 40
1.0
 40
1.0
 40
1.0
 40
2.0
 40
2.0
 40
2.0
 40
3.0
 40
3.0
 40
3.0
 40
4.0
 40
4.0
 40
4.0
 40
5.0
 40
5.0
 40
5.0
 40
6.0
 40
6.0
 40
6.0
 40
7.0
 40
7.0
 40
7.0
 40
8.0
 40
8.0
 40
8.0
 40
9.0
 40
9.0
 40
9.0
 40
10.0
 40
10.0
 40
10.0
 40
11.0
 40
11.0
 40
11.0
 40
12.0
 40
12.0
 40
12.0
 40
13.0
 40
13.0
 40
13.0
 40
14.0
 40
14.0
 40
14.0
 40
15.0
 40
15.0
 40
15.0
 40
16.0
 40
16.0
 40
16.0
 40
16.0
 10
-16.231395128038194
 20
177.84939405653211
 30
0.0
 10
-22.697839355468748
 20
176.67461649576822
 30
0.0
 10
-25.816339789496524
 20
171.26297437879774
 30
0.0
 10
-26.638339572482636
 20
165.325782945421
 30
0.0
 10
-27.403839789496526
 20
159.79769660101996
 30
0.0
 10
-26.814728461371526
 20
153.92044982910156
 30
0.0
 10
-26.814728461371526
 20
148.39244961208766
 30
0.0
 10
-26.814728461371526
 20
139.74939405653211
 30
0.0
 10
-27.167506239149304
 20
131.22269660101995
 30
0.0
 10
-27.167506239149304
 20
122.63967183430988
 30
0.0
 10
-27.167506239149304
 20
98.23797437879773
 30
0.0
 10
-27.520284016927082
 20
73.956338500976557
 30
0.0
 10
-27.520284016927082
 20
49.614671834309888
 30
0.0
 10
-27.520284016927082
 20
41.148005167643227
 30
0.0
 10
-30.635339355468748
 20
28.391505601671003
 30
0.0
 10
-24.638117133246524
 20
21.395894707573781
 30
0.0
 10
-20.933950466579859
 20
17.046117146809895
 30
0.0
 10
-16.231395128038194
 20
16.809783596462673
 30
0.0
 10
-10.939728461371526
 20
16.809783596462673
 30
0.0
 10
-0.8855617947048611
 20
16.809783596462673
 30
0.0
 10
10.87254909939236
 20
14.753061591254339
 30
0.0
 10
20.81027153862847
 20
16.693339369032117
 30
0.0
 10
26.041993543836803
 20
17.75167270236545
 30
0.0
 10
30.042438422309026
 20
22.101450263129337
 30
0.0
 10
30.924382866753469
 20
27.393116929796005
 30
0.0
 10
31.806327311197915
 20
32.86117248535156
 30
0.0
 10
31.040827094184024
 20
39.091283162434891
 30
0.0
 10
31.040827094184024
 20
44.675782945421005
 30
0.0
 10
31.040827094184024
 20
54.437116495768223
 30
0.0
 10
31.393604871961802
 20
64.138505384657108
 30
0.0
 10
31.393604871961802
 20
73.956338500976557
 30
0.0
 10
31.393604871961802
 20
87.598227606879334
 30
0.0
 10
31.74638264973958
 20
101.18017205132378
 30
0.0
 10
31.74638264973958
 20
114.87856072319877
 30
0.0
 10
31.74638264973958
 20
123.81436326768662
 30
0.0
 10
31.15727132161458
 20
133.04661627875433
 30
0.0
 10
31.74638264973958
 20
142.04244961208767
 30
0.0
 10
32.159105088975693
 20
148.21606072319878
 30
0.0
 10
32.099160427517361
 20
154.44961649576823
 30
0.0
 10
32.099160427517361
 20
160.73967183430989
 30
0.0
 10
32.099160427517361
 20
165.20933871799045
 30
0.0
 10
32.33549397786458
 20
169.38272738986544
 30
0.0
 10
29.160493977864579
 20
173.02686326768662
 30
0.0
 10
22.044993760850691
 20
181.37717183430988
 30
0.0
 10
5.5808824327256943
 20
178.02578294542099
 30
0.0
 10
-4.2369506835937498
 20
178.02578294542099
 30
0.0
 10
-8.1175062391493054
 20
178.02578294542099
 30
0.0
 10
-12.467283799913194
 20
178.49491882324216
 30
0.0
 10
-16.231395128038194
 20
177.84939405653211
 30
0.0
  0
SPLINE
  5
4B
100
AcDbEntity
  8
LAYER_1
 62
     7
100
AcDbSpline
210
0.0
220
0.0
230
1.0
 70
     8
 71
     3
 72
    56
 73
    52
 74
     0
 42
0.00000001
 43
0.00000001
 40
0.0
 40
0.0
 40
0.0
 40
0.0
 40
1.0
 40
1.0
 40
1.0
 40
2.0
 40
2.0
 40
2.0
 40
3.0
 40
3.0
 40
3.0
 40
4.0
 40
4.0
 40
4.0
 40
5.0
 40
5.0
 40
5.0
 40
6.0
 40
6.0
 40
6.0
 40
7.0
 40
7.0
 40
7.0
 40
8.0
 40
8.0
 40
8.0
 40
9.0
 40
9.0
 40
9.0
 40
10.0
 40
10.0
 40
10.0
 40
11.0
 40
11.0
 40
11.0
 40
12.0
 40
12.0
 40
12.0
 40
13.0
 40
13.0
 40
13.0
 40
14.0
 40
14.0
 40
14.0
 40
15.0
 40
15.0
 40
15.0
 40
16.0
 40
16.0
 40
16.0
 40
17.0
 40
17.0
 40
17.0
 40
17.0
 10
-17.289728461371528
 20
2.8750613742404512
 30
0.0
 10
-22.817728678385414
 20
1.8167280409071178
 30
0.0
 10
-27.167506239149304
 20
-2.6529388427734371
 30
0.0
 10
-27.813117133246525
 20
-8.2374386257595482
 30
0.0
 10
-29.813339572482636
 20
-24.8179941813151
 30
0.0
 10
-28.225839572482638
 20
-42.396938408745655
 30
0.0
 10
-28.225839572482638
 20
-59.037438625759542
 30
0.0
 10
-28.225839572482638
 20
-91.669383070203992
 30
0.0
 10
-28.931395128038194
 20
-124.18488328721787
 30
0.0
 10
-28.931395128038194
 20
-156.75688307020397
 30
0.0
 10
-28.931395128038194
 20
-156.75688307020397
 30
0.0
 10
-28.931395128038194
 20
-179.33466084798175
 30
0.0
 10
-28.931395128038194
 20
-179.33466084798175
 30
0.0
 10
-28.931395128038194
 20
-184.44993862575953
 30
0.0
 10
-29.167728678385416
 20
-189.32888285319009
 30
0.0
 10
-25.580006239149302
 20
-193.44577195909287
 30
0.0
 10
-22.288562011718749
 20
-197.14993862575952
 30
0.0
 10
-18.640894911024304
 20
-197.32632751464843
 30
0.0
 10
-14.114728461371527
 20
-197.79554951985676
 30
0.0
 10
-7.4119506835937496
 20
-198.38466084798176
 30
0.0
 10
-0.4728393554687499
 20
-198.03188307020397
 30
0.0
 10
6.3463826497395823
 20
-198.03188307020397
 30
0.0
 10
10.403327094184027
 20
-198.03188307020397
 30
0.0
 10
14.989438205295137
 20
-198.62099439832897
 30
0.0
 10
19.046382649739581
 20
-197.91543884277343
 30
0.0
 10
25.279938422309026
 20
-196.73721618652343
 30
0.0
 10
28.984105088975692
 20
-191.32910529242619
 30
0.0
 10
29.513271755642357
 20
-185.33188307020399
 30
0.0
 10
30.158882649739581
 20
-178.86543884277341
 30
0.0
 10
29.629715983072913
 20
-172.1027164035373
 30
0.0
 10
29.629715983072913
 20
-165.57632751464843
 30
0.0
 10
29.629715983072913
 20
-155.87493862575954
 30
0.0
 10
29.982493760850691
 20
-146.11360507541232
 30
0.0
 10
29.982493760850691
 20
-136.29577195909286
 30
0.0
 10
29.982493760850691
 20
-103.37099439832899
 30
0.0
 10
30.688049316406246
 20
-70.50271640353732
 30
0.0
 10
30.688049316406246
 20
-37.517994181315103
 30
0.0
 10
30.688049316406246
 20
-37.517994181315103
 30
0.0
 10
30.688049316406246
 20
-14.23466084798177
 30
0.0
 10
30.688049316406246
 20
-14.23466084798177
 30
0.0
 10
30.688049316406246
 20
-9.7084943983289929
 30
0.0
 10
30.980882432725693
 20
-5.2987721761067705
 30
0.0
 10
27.749382866753471
 20
-1.5946055094401039
 30
0.0
 10
23.748937988281249
 20
2.8750613742404512
 30
0.0
 10
18.164438205295138
 20
3.0514502631293401
 30
0.0
 10
12.696382649739583
 20
3.0514502631293401
 30
0.0
 10
12.696382649739583
 20
3.0514502631293401
 30
0.0
 10
-5.6480617947048604
 20
3.0514502631293401
 30
0.0
 10
-5.6480617947048604
 20
3.0514502631293401
 30
0.0
 10
-9.4121731228298611
 20
3.0514502631293401
 30
0.0
 10
-13.645506456163194
 20
3.5206722683376732
 30
0.0
 10
-17.289728461371528
 20
2.8750613742404512
 30
0.0
  0
ENDBLK
  5
4F
100
AcDbEntity
  8
LAYER_1
100
AcDbBlockEnd
  0
ENDSEC
  0
SECTION
  2
ENTITIES
  0
INSERT
  5
49
100
AcDbEntity
  8
LAYER_1
 62
     7
100
AcDbBlockReference
  2
AI9-BLK3
 10
267.077582
 20
-36.607714
 30
0.0
  0
INSERT
  5
43
100
AcDbEntity
  8
LAYER_1
 62
     7
100
AcDbBlockReference
  2
AI9-BLK2
 10
369.382794
 20
-36.468403
 30
0.0
  0
INSERT
  5
2A
100
AcDbEntity
  8
LAYER_1
 62
     7
100
AcDbBlockReference
  2
AI9-BLK1
 10
100.407609
 20
-52.869598
 30
0.0
  0
ENDSEC
  0
SECTION
  2
OBJECTS
  0
DICTIONARY
  5
19
100
AcDbDictionary
280
     0
281
     1
  3
ACAD_GROUP
350
1A
  3
ACAD_MLINESTYLE
350
1B
  3
ACAD_LAYOUT
350
1E
  3
ACAD_PLOTSETTINGS
350
22
  3
ACAD_PLOTSTYLENAME
350
1F
  3
ACAD_WIPEOUT_VARS
350
23
  0
DICTIONARY
  5
1A
102
{ACAD_REACTORS
330
19
102
}
100
AcDbDictionary
280
     0
281
     1
  0
DICTIONARY
  5
1B
102
{ACAD_REACTORS
330
19
102
}
100
AcDbDictionary
280
     0
281
     1
  3
Standard
350
1C
  0
MLINESTYLE
  5
1C
102
{ACAD_REACTORS
330
1B
102
}
100
AcDbMlineStyle
  2
Standard
 70
     0
  3

 62
     0
 51
90.0
 52
90.0
 71
     2
 49
0.5
 62
   256
  6
BYLAYER
 49
-0.5
 62
   256
  6
BYLAYER
  0
ACDBDICTIONARYWDFLT
  5
1F
102
{ACAD_REACTORS
330
19
102
}
100
AcDbDictionary
281
     1
  3
Normal
350
1D
100
AcDbDictionaryWithDefault
340
1D
  0
ACDBPLACEHOLDER
  5
1D
102
{ACAD_REACTORS
330
1F
102
}
  0
LAYOUT
  5
20
102
{ACAD_REACTORS
330
1E
102
}
100
AcDbPlotSettings
  1

  2

  4

  6

 40
0.0
 41
0.0
 42
0.0
 43
0.0
 44
0.0
 45
0.0
 46
0.0
 47
0.0
 48
0.0
 49
0.0
140
0.0
141
0.0
142
1.0
143
1.0
 70
  1024
 72
     0
 73
     0
 74
     0
  7

 75
     0
147
1.0
148
0.0
149
0.0
100
AcDbLayout
  1
Model
 70
     0
 71
     0
 10
0.0
 20
0.0
 11
0.0
 21
0.0
 12
0.0
 22
0.0
 32
0.0
 14
0.0
 24
0.0
 34
0.0
 15
0.0
 25
0.0
 35
0.0
146
0.0
 13
0.0
 23
0.0
 33
0.0
 16
0.0
 26
0.0
 36
0.0
 17
0.0
 27
0.0
 37
0.0
 76
     0
330
A
331
0
345
0
346
0
  0
LAYOUT
  5
21
102
{ACAD_REACTORS
330
1E
102
}
100
AcDbPlotSettings
  1

  2

  4

  6

 40
0.0
 41
0.0
 42
0.0
 43
0.0
 44
0.0
 45
0.0
 46
0.0
 47
0.0
 48
0.0
 49
0.0
140
0.0
141
0.0
142
1.0
143
1.0
 70
     0
 72
     0
 73
     0
 74
     0
  7

 75
     0
147
1.0
148
0.0
149
0.0
100
AcDbLayout
  1
Layout1
 70
     0
 71
     0
 10
0.0
 20
0.0
 11
0.0
 21
0.0
 12
0.0
 22
0.0
 32
0.0
 14
0.0
 24
0.0
 34
0.0
 15
0.0
 25
0.0
 35
0.0
146
0.0
 13
0.0
 23
0.0
 33
0.0
 16
0.0
 26
0.0
 36
0.0
 17
0.0
 27
0.0
 37
0.0
 76
     0
330
B
331
0
345
0
346
0
  0
DICTIONARY
  5
1E
102
{ACAD_REACTORS
330
19
102
}
100
AcDbDictionary
280
     0
281
     1
  3
Layout1
350
21
  3
Model
350
20
  0
DICTIONARY
  5
22
102
{ACAD_REACTORS
330
19
102
}
100
AcDbDictionary
280
     0
281
     1
  0
WIPEOUTVARIABLES
  5
23
100
AcDbWipeoutVariables
 70
     1
  0
ENDSEC
  0
EOF
