  0
SECTION
  2
HEADER
  9
$ACADVER
  1
AC1015
  9
$ACADMAINTVER
 70
     6
  9
$DWGCODEPAGE
  3
ANSI_932
  9
$INSBASE
 10
0.0
 20
0.0
 30
0.0
  9
$EXTMIN
 10
1.386823
 20
37.510889
 30
1.000000E+20
  9
$EXTMAX
 10
423.686456
 20
679.738182
 30
-1.000000E+20
  9
$LIMMIN
 10
1.386823
 20
37.510889
  9
$LIMMAX
 10
423.686456
 20
679.738182
  9
$ORTHOMODE
 70
     0
  9
$REGENMODE
 70
     1
  9
$FILLMODE
 70
     1
  9
$QTEXTMODE
 70
     0
  9
$MIRRTEXT
 70
     1
  9
$LTSCALE
 40
1.0
  9
$ATTMODE
 70
     1
  9
$TEXTSIZE
 40
0.2
  9
$TRACEWID
 40
0.05
  9
$TEXTSTYLE
  7
Standard
  9
$CLAYER
  8
0
  9
$CELTYPE
  6
Continuous
  9
$CECOLOR
 62
   256
  9
$CELTSCALE
 40
1.0
  9
$DISPSILH
 70
     0
  9
$DIMSCALE
 40
1.0
  9
$DIMASZ
 40
0.18
  9
$DIMEXO
 40
0.0625
  9
$DIMDLI
 40
0.38
  9
$DIMRND
 40
0.0
  9
$DIMDLE
 40
0.0
  9
$DIMEXE
 40
0.18
  9
$DIMTP
 40
0.0
  9
$DIMTM
 40
0.0
  9
$DIMTXT
 40
0.18
  9
$DIMCEN
 40
0.09
  9
$DIMTSZ
 40
0.0
  9
$DIMTOL
 70
     0
  9
$DIMLIM
 70
     0
  9
$DIMTIH
 70
     1
  9
$DIMTOH
 70
     1
  9
$DIMSE1
 70
     0
  9
$DIMSE2
 70
     0
  9
$DIMTAD
 70
     0
  9
$DIMZIN
 70
     0
  9
$DIMBLK
  1

  9
$DIMASO
 70
     1
  9
$DIMSHO
 70
     1
  9
$DIMPOST
  1

  9
$DIMAPOST
  1

  9
$DIMALT
 70
     0
  9
$DIMALTD
 70
     2
  9
$DIMALTF
 40
25.4
  9
$DIMLFAC
 40
1.0
  9
$DIMTOFL
 70
     0
  9
$DIMTVP
 40
0.0
  9
$DIMTIX
 70
     0
  9
$DIMSOXD
 70
     0
  9
$DIMSAH
 70
     0
  9
$DIMBLK1
  1

  9
$DIMBLK2
  1

  9
$DIMSTYLE
  2
Standard
  9
$DIMCLRD
 70
     0
  9
$DIMCLRE
 70
     0
  9
$DIMCLRT
 70
     0
  9
$DIMTFAC
 40
1.0
  9
$DIMGAP
 40
0.09
  9
$DIMJUST
 70
     0
  9
$DIMSD1
 70
     0
  9
$DIMSD2
 70
     0
  9
$DIMTOLJ
 70
     1
  9
$DIMTZIN
 70
     0
  9
$DIMALTZ
 70
     0
  9
$DIMALTTZ
 70
     0
  9
$DIMUPT
 70
     0
  9
$DIMDEC
 70
     4
  9
$DIMTDEC
 70
     4
  9
$DIMALTU
 70
     2
  9
$DIMALTTD
 70
     2
  9
$DIMTXSTY
  7
Standard
  9
$DIMAUNIT
 70
     0
  9
$DIMADEC
 70
     0
  9
$DIMALTRND
 40
0.0
  9
$DIMAZIN
 70
     0
  9
$DIMDSEP
 70
     0
  9
$DIMATFIT
 70
     3
  9
$DIMFRAC
 70
     0
  9
$DIMLDRBLK
  1

  9
$DIMLUNIT
 70
     2
  9
$DIMLWD
 70
     0
  9
$DIMLWE
 70
     0
  9
$DIMTMOVE
 70
     0
  9
$LUNITS
 70
     2
  9
$LUPREC
 70
     4
  9
$SKETCHINC
 40
0.1
  9
$FILLETRAD
 40
0.0
  9
$AUNITS
 70
     0
  9
$AUPREC
 70
     0
  9
$MENU
  1
acad
  9
$ELEVATION
 40
0.0
  9
$PELEVATION
 40
0.0
  9
$THICKNESS
 40
0.0
  9
$LIMCHECK
 70
     0
  9
$CHAMFERA
 40
0.0
  9
$CHAMFERB
 40
0.0
  9
$CHAMFERC
 40
0.0
  9
$CHAMFERD
 40
0.0
  9
$SKPOLY
 70
     0
  9
$TDCREATE
 40
0.000000000
  9
$TDUCREATE
 40
0.000000000
  9
$TDUPDATE
 40
0.000000000
  9
$TDUUPDATE
 40
0.000000000
  9
$TDINDWG
 40
0.0000000000
  9
$TDUSRTIMER
 40
0.0000000000
  9
$USRTIMER
 70
     1
  9
$ANGBASE
 50
0.0
  9
$ANGDIR
 70
     0
  9
$PDMODE
 70
     0
  9
$PDSIZE
 40
0.0
  9
$PLINEWID
 40
0.0
  9
$SPLFRAME
 70
     0
  9
$SPLINETYPE
 70
     6
  9
$SPLINESEGS
 70
     8
  9
$HANDSEED
  5
5A
  9
$SURFTAB1
 70
     6
  9
$SURFTAB2
 70
     6
  9
$SURFTYPE
 70
     6
  9
$SURFU
 70
     6
  9
$SURFV
 70
     6
  9
$UCSBASE
  2

  9
$UCSNAME
  2

  9
$UCSORG
 10
0.0
 20
0.0
 30
0.0
  9
$UCSXDIR
 10
1.0
 20
0.0
 30
0.0
  9
$UCSYDIR
 10
0.0
 20
1.0
 30
0.0
  9
$UCSORTHOREF
  2

  9
$UCSORTHOVIEW
 70
     0
  9
$UCSORGTOP
 10
0.0
 20
0.0
 30
0.0
  9
$UCSORGBOTTOM
 10
0.0
 20
0.0
 30
0.0
  9
$UCSORGLEFT
 10
0.0
 20
0.0
 30
0.0
  9
$UCSORGRIGHT
 10
0.0
 20
0.0
 30
0.0
  9
$UCSORGFRONT
 10
0.0
 20
0.0
 30
0.0
  9
$UCSORGBACK
 10
0.0
 20
0.0
 30
0.0
  9
$PUCSBASE
  2

  9
$PUCSNAME
  2

  9
$PUCSORG
 10
0.0
 20
0.0
 30
0.0
  9
$PUCSXDIR
 10
1.0
 20
0.0
 30
0.0
  9
$PUCSYDIR
 10
0.0
 20
1.0
 30
0.0
  9
$PUCSORTHOREF
  2

  9
$PUCSORTHOVIEW
 70
     0
  9
$PUCSORGTOP
 10
0.0
 20
0.0
 30
0.0
  9
$PUCSORGBOTTOM
 10
0.0
 20
0.0
 30
0.0
  9
$PUCSORGLEFT
 10
0.0
 20
0.0
 30
0.0
  9
$PUCSORGRIGHT
 10
0.0
 20
0.0
 30
0.0
  9
$PUCSORGFRONT
 10
0.0
 20
0.0
 30
0.0
  9
$PUCSORGBACK
 10
0.0
 20
0.0
 30
0.0
  9
$USERI1
 70
     0
  9
$USERI2
 70
     0
  9
$USERI3
 70
     0
  9
$USERI4
 70
     0
  9
$USERI5
 70
     0
  9
$USERR1
 40
0.0
  9
$USERR2
 40
0.0
  9
$USERR3
 40
0.0
  9
$USERR4
 40
0.0
  9
$USERR5
 40
0.0
  9
$WORLDVIEW
 70
     1
  9
$SHADEDGE
 70
     3
  9
$SHADEDIF
 70
    70
  9
$TILEMODE
 70
     1
  9
$MAXACTVP
 70
    16
  9
$PINSBASE
 10
0.0
 20
0.0
 30
0.0
  9
$PLIMCHECK
 70
     0
  9
$PEXTMIN
 10
1.000000E+20
 20
1.000000E+20
 30
1.000000E+20
  9
$PEXTMAX
 10
-1.000000E+20
 20
-1.000000E+20
 30
-1.000000E+20
  9
$PLIMMIN
 10
0.0
 20
0.0
  9
$PLIMMAX
 10
12.0
 20
9.0
  9
$UNITMODE
 70
     0
  9
$VISRETAIN
 70
     0
  9
$PLINEGEN
 70
     1
  9
$PSLTSCALE
 70
     0
  9
$TREEDEPTH
 70
  3020
  9
$CMLSTYLE
  2
Standard
  9
$CMLJUST
 70
     0
  9
$CMLSCALE
 40
1.0
  9
$PROXYGRAPHICS
 70
     0
  9
$MEASUREMENT
 70
     0
  9
$CELWEIGHT
370
     0
  9
$ENDCAPS
280
     0
  9
$JOINSTYLE
280
     0
  9
$LWDISPLAY
290
     0
  9
$INSUNITS
 70
     0
  9
$HYPERLINKBASE
  1

  9
$XEDIT
290
     1
  9
$CEPSNTYPE
380
     0
  9
$PSTYLEMODE
290
     1
  9
$FINGERPRINTGUID
  2

  9
$VERSIONGUID
  2

  9
$EXTNAMES
290
     1
  9
$PSVPSCALE
 40
0.0
  0
ENDSEC
  0
SECTION
  2
CLASSES
  0
CLASS
  1
LWPOLYLINE
  2
AcDbPolyline
  3
"AutoCAD"
 90
        0
280
     0
281
     1
  0
CLASS
  1
IMAGE
  2
AcDbRasterImage
  3
ISM
 90
      127
280
     0
281
     1
  0
CLASS
  1
OLE2FRAME
  2
AcDbOle2Frame
  3
""
 90
        0
280
     0
281
     1
  0
CLASS
  1
HATCH
  2
AcDbHatch
  3
"ACAD_SEDONA"
 90
        0
280
     0
281
     1
  0
CLASS
  1
DICTIONARYVAR
  2
AcDbDictionaryVar
  3
"AutoCAD"
 90
        0
280
     0
281
     0
  0
CLASS
  1
RASTERVARIABLES
  2
AcDbRasterVariables
  3
ISM
 90
        0
280
     0
281
     0
  0
CLASS
  1
IMAGEDEF
  2
AcDbRasterImageDef
  3
ISM
 90
        0
280
     0
281
     0
  0
CLASS
  1
IMAGEDEF_REACTOR
  2
AcDbRasterImageDefReactor
  3
ISM
 90
        1
280
     0
281
     0
  0
CLASS
  1
IDBUFFER
  2
AcDbIdBuffer
  3
"Acad"
 90
        0
280
     0
281
     0
  0
CLASS
  1
SPATIAL_FILTER
  2
AcDbSpatialFilter
  3
"Acad"
 90
        0
280
     0
281
     0
  0
CLASS
  1
XRECORD
  2
AcDbXrecord
  3
"<Built In>"
 90
        0
280
     0
281
     0
  0
CLASS
  1
SORTENTSTABLE
  2
AcDbSortentsTable
  3
"AutoCAD"
 90
        0
280
     0
281
     0
  0
CLASS
  1
LAYER_INDEX
  2
AcDbLayerIndex
  3
"Acad"
 90
        0
280
     0
281
     0
  0
CLASS
  1
SPATIAL_INDEX
  2
AcDbSpatialIndex
  3
"Acad"
 90
        0
280
     0
281
     0
  0
CLASS
  1
OBJECT_PTR
  2
CAseDLPNTableRecord
  3
"ASE-LPNTableRecord"
 90
        1
280
     0
281
     0
  0
CLASS
  1
LAYOUT
  2
AcDbLayout
  3
"AutoCAD 2000"
 90
        1
280
     0
281
     0
  0
CLASS
  1
PLOTSETTINGS
  2
AcDbPlotSettings
  3
"AutoCAD 2000"
 90
        1
280
     0
281
     0
  0
CLASS
  1
ACDBDICTIONARYWDFLT
  2
AcDbDictionaryWithDefault
  3
"AutoCAD 2000"
 90
        1
280
     0
281
     0
  0
CLASS
  1
ACDBPLACEHOLDER
  2
AcDbPlaceHolder
  3
"AutoCAD 2000"
 90
        1
280
     0
281
     0
  0
CLASS
  1
VBA_PROJECT
  2
AcDbVbaProject
  3
"acadvba"
 90
        1
280
     0
281
     0
  0
CLASS
  1
WIPEOUT
  2
AcDbWipeout
  3
WipeOut|AutoCAD Express Tool|expresstools@autodesk.com
 90
      127
280
     0
281
     1
  0
CLASS
  1
WIPEOUTVARIABLES
  2
AcDbWipeoutVariables
  3
WipeOut|AutoCAD Express Tool|expresstools@autodesk.com
 90
        0
280
     0
281
     0
  0
CLASS
  1
RTEXT
  2
RText
  3
RText|AutoCAD Express Tool|expresstools@autodesk.com
 90
        0
280
     0
281
     1
  0
CLASS
  1
ARCALIGNEDTEXT
  2
AcDbArcAlignedText
  3
ATEXT|AutoCAD Express Tool|expresstools@autodesk.com
 90
        0
280
     0
281
     1
  0
ENDSEC
  0
SECTION
  2
TABLES
  0
TABLE
  2
VPORT
  5
7
100
AcDbSymbolTable
 70
     1
  0
VPORT
  5
15
100
AcDbSymbolTableRecord
100
AcDbViewportTableRecord
  2
*ACTIVE
 70
     0
 10
0.0
 20
0.0
 11
1.0
 21
1.0
 12
6.591288
 22
4.579184
 13
0.0
 23
0.0
 14
1.0
 24
1.0
 15
0.0
 25
0.0
 16
0.0
 26
0.0
 36
1.0
 17
0.0
 27
0.0
 37
0.0
 40
9.158369
 41
0.688564
 42
50.0
 43
0.0
 44
0.0
 50
0.0
 51
0.0
 71
     0
 72
   100
 73
     1
 74
     1
 75
     0
 76
     0
 77
     0
 78
     0
281
     0
 65
     0
110
0.0
120
0.0
130
0.0
111
1.0
121
0.0
131
0.0
112
0.0
122
1.0
132
0.0
345
0
346
0
 79
     0
146
0.0
  0
ENDTAB
  0
TABLE
  2
LTYPE
  5
4
100
AcDbSymbolTable
 70
     3
  0
LTYPE
  5
11
100
AcDbSymbolTableRecord
100
AcDbLinetypeTableRecord
  2
ByBlock
 70
    64
  3

 72
    65
 73
     0
 40
0.0
  0
LTYPE
  5
12
100
AcDbSymbolTableRecord
100
AcDbLinetypeTableRecord
  2
ByLayer
 70
    64
  3

 72
    65
 73
     0
 40
0.0
  0
LTYPE
  5
13
100
AcDbSymbolTableRecord
100
AcDbLinetypeTableRecord
  2
Continuous
 70
    64
  3
Solid line
 72
    65
 73
     0
 40
0.0
  0
ENDTAB
  0
TABLE
  2
LAYER
  5
2
100
AcDbSymbolTable
 70
     2
  0
LAYER
  5
14
100
AcDbSymbolTableRecord
100
AcDbLayerTableRecord
  2
0
 70
     0
 62
     7
  6
Continuous
290
     1
370
    -3
390
1D
  0
LAYER
  5
28
100
AcDbSymbolTableRecord
100
AcDbLayerTableRecord
  2
LAYER_1
 70
     0
 62
   160
  6
Continuous
290
     1
370
    -3
390
1F
  0
ENDTAB
  0
TABLE
  2
STYLE
  5
3
100
AcDbSymbolTable
 70
     5
  0
STYLE
  5
17
100
AcDbSymbolTableRecord
100
AcDbTextStyleTableRecord
  2
Standard
 70
     0
 40
0.0
 41
1.0
 50
0.0
 71
     0
 42
0.0
  3
txt
  4

  0
STYLE
  5
24
100
AcDbSymbolTableRecord
100
AcDbTextStyleTableRecord
  2
STD
 70
     0
 40
0.0
 41
1.0
 50
0.0
 71
     0
 42
0.0
  3
txt
  4

  0
STYLE
  5
25
100
AcDbSymbolTableRecord
100
AcDbTextStyleTableRecord
  2
TATESTD
 70
     4
 40
0.0
 41
1.0
 50
0.0
 71
     0
 42
0.0
  3
txt
  4

  0
STYLE
  5
26
100
AcDbSymbolTableRecord
100
AcDbTextStyleTableRecord
  2
KANJISTD
 70
     0
 40
0.0
 41
1.0
 50
0.0
 71
     0
 42
0.0
  3
txt
  4
extfont
  0
STYLE
  5
27
100
AcDbSymbolTableRecord
100
AcDbTextStyleTableRecord
  2
KANJITATE
 70
     4
 40
0.0
 41
1.0
 50
0.0
 71
     0
 42
0.0
  3
txt
  4
extfont
  0
ENDTAB
  0
TABLE
  2
VIEW
  5
5
100
AcDbSymbolTable
 70
     0
  0
ENDTAB
  0
TABLE
  2
UCS
  5
6
100
AcDbSymbolTable
 70
     0
  0
ENDTAB
  0
TABLE
  2
APPID
  5
8
100
AcDbSymbolTable
 70
     1
  0
APPID
  5
16
100
AcDbSymbolTableRecord
100
AcDbRegAppTableRecord
  2
ACAD
 70
     0
  0
ENDTAB
  0
TABLE
  2
DIMSTYLE
  5
9
100
AcDbSymbolTable
 70
     1
100
AcDbDimStyleTable
 71
     0
  0
DIMSTYLE
105
18
100
AcDbSymbolTableRecord
100
AcDbDimStyleTableRecord
  2
Standard
 70
     0
  3

  4

 40
1.0
 41
0.18
 42
0.0625
 43
0.38
 44
0.18
 45
0.0
 46
0.0
 47
0.0
 48
0.0
 71
     0
 72
     0
 73
     1
 74
     1
 75
     0
 76
     0
 77
     0
 78
     0
 79
     0
140
0.18
141
0.09
142
0.0
143
25.4
144
1.0
145
0.0
146
1.0
147
0.09
148
0.0
170
     0
171
     2
172
     0
173
     0
174
     0
175
     0
176
     0
177
     0
178
     0
179
     0
271
     4
272
     4
273
     2
274
     2
275
     0
276
     0
277
     2
278
    46
279
     0
280
     0
281
     0
282
     0
283
     1
284
     0
285
     0
286
     0
288
     0
340
17
341
0
342
0
343
0
344
0
371
    -2
372
    -2
  0
ENDTAB
  0
TABLE
  2
BLOCK_RECORD
  5
1
100
AcDbSymbolTable
 70
     3
  0
BLOCK_RECORD
  5
A
100
AcDbSymbolTableRecord
100
AcDbBlockTableRecord
  2
*MODEL_SPACE
340
20
  0
BLOCK_RECORD
  5
B
100
AcDbSymbolTableRecord
100
AcDbBlockTableRecord
  2
*PAPER_SPACE
340
21
  0
BLOCK_RECORD
  5
29
100
AcDbSymbolTableRecord
100
AcDbBlockTableRecord
  2
AI9-BLK1
340
0
  0
BLOCK_RECORD
  5
42
100
AcDbSymbolTableRecord
100
AcDbBlockTableRecord
  2
AI9-BLK2
340
0
  0
BLOCK_RECORD
  5
4E
100
AcDbSymbolTableRecord
100
AcDbBlockTableRecord
  2
AI9-BLK3
340
0
  0
ENDTAB
  0
ENDSEC
  0
SECTION
  2
BLOCKS
  0
BLOCK
  5
D
100
AcDbEntity
  8
0
100
AcDbBlockBegin
  2
*MODEL_SPACE
 70
     0
 10
0.0
 20
0.0
 30
0.0
  3
*MODEL_SPACE
  1

  0
ENDBLK
  5
E
100
AcDbEntity
  8
0
100
AcDbBlockEnd
  0
BLOCK
  5
F
100
AcDbEntity
 67
     1
  8
0
100
AcDbBlockBegin
  2
*PAPER_SPACE
 70
     0
 10
0.0
 20
0.0
 30
0.0
  3
*PAPER_SPACE
  1

  0
ENDBLK
  5
10
100
AcDbEntity
 67
     1
  8
0
100
AcDbBlockEnd
  0
BLOCK
  5
2B
100
AcDbEntity
  8
LAYER_1
 62
     7
100
AcDbBlockBegin
  2
AI9-BLK1
 70
     0
 10
0.0
 20
0.0
 30
0.0
  3
AI9-BLK1
  1

  0
SPLINE
  5
40
100
AcDbEntity
  8
LAYER_1
 62
     7
100
AcDbSpline
210
0.0
220
0.0
230
1.0
 70
     8
 71
     3
 72
   401
 73
   397
 74
     0
 42
0.00000001
 43
0.00000001
 40
0.0
 40
0.0
 40
0.0
 40
0.0
 40
1.0
 40
1.0
 40
1.0
 40
2.0
 40
2.0
 40
2.0
 40
3.0
 40
3.0
 40
3.0
 40
4.0
 40
4.0
 40
4.0
 40
5.0
 40
5.0
 40
5.0
 40
6.0
 40
6.0
 40
6.0
 40
7.0
 40
7.0
 40
7.0
 40
8.0
 40
8.0
 40
8.0
 40
9.0
 40
9.0
 40
9.0
 40
10.0
 40
10.0
 40
10.0
 40
11.0
 40
11.0
 40
11.0
 40
12.0
 40
12.0
 40
12.0
 40
13.0
 40
13.0
 40
13.0
 40
14.0
 40
14.0
 40
14.0
 40
15.0
 40
15.0
 40
15.0
 40
16.0
 40
16.0
 40
16.0
 40
17.0
 40
17.0
 40
17.0
 40
18.0
 40
18.0
 40
18.0
 40
19.0
 40
19.0
 40
19.0
 40
20.0
 40
20.0
 40
20.0
 40
21.0
 40
21.0
 40
21.0
 40
22.0
 40
22.0
 40
22.0
 40
23.0
 40
23.0
 40
23.0
 40
24.0
 40
24.0
 40
24.0
 40
25.0
 40
25.0
 40
25.0
 40
26.0
 40
26.0
 40
26.0
 40
27.0
 40
27.0
 40
27.0
 40
28.0
 40
28.0
 40
28.0
 40
29.0
 40
29.0
 40
29.0
 40
30.0
 40
30.0
 40
30.0
 40
31.0
 40
31.0
 40
31.0
 40
32.0
 40
32.0
 40
32.0
 40
33.0
 40
33.0
 40
33.0
 40
34.0
 40
34.0
 40
34.0
 40
35.0
 40
35.0
 40
35.0
 40
36.0
 40
36.0
 40
36.0
 40
37.0
 40
37.0
 40
37.0
 40
38.0
 40
38.0
 40
38.0
 40
39.0
 40
39.0
 40
39.0
 40
40.0
 40
40.0
 40
40.0
 40
41.0
 40
41.0
 40
41.0
 40
42.0
 40
42.0
 40
42.0
 40
43.0
 40
43.0
 40
43.0
 40
44.0
 40
44.0
 40
44.0
 40
45.0
 40
45.0
 40
45.0
 40
46.0
 40
46.0
 40
46.0
 40
47.0
 40
47.0
 40
47.0
 40
48.0
 40
48.0
 40
48.0
 40
49.0
 40
49.0
 40
49.0
 40
50.0
 40
50.0
 40
50.0
 40
51.0
 40
51.0
 40
51.0
 40
52.0
 40
52.0
 40
52.0
 40
53.0
 40
53.0
 40
53.0
 40
54.0
 40
54.0
 40
54.0
 40
55.0
 40
55.0
 40
55.0
 40
56.0
 40
56.0
 40
56.0
 40
57.0
 40
57.0
 40
57.0
 40
58.0
 40
58.0
 40
58.0
 40
59.0
 40
59.0
 40
59.0
 40
60.0
 40
60.0
 40
60.0
 40
61.0
 40
61.0
 40
61.0
 40
62.0
 40
62.0
 40
62.0
 40
63.0
 40
63.0
 40
63.0
 40
64.0
 40
64.0
 40
64.0
 40
65.0
 40
65.0
 40
65.0
 40
66.0
 40
66.0
 40
66.0
 40
67.0
 40
67.0
 40
67.0
 40
68.0
 40
68.0
 40
68.0
 40
69.0
 40
69.0
 40
69.0
 40
70.0
 40
70.0
 40
70.0
 40
71.0
 40
71.0
 40
71.0
 40
72.0
 40
72.0
 40
72.0
 40
73.0
 40
73.0
 40
73.0
 40
74.0
 40
74.0
 40
74.0
 40
75.0
 40
75.0
 40
75.0
 40
76.0
 40
76.0
 40
76.0
 40
77.0
 40
77.0
 40
77.0
 40
78.0
 40
78.0
 40
78.0
 40
79.0
 40
79.0
 40
79.0
 40
80.0
 40
80.0
 40
80.0
 40
81.0
 40
81.0
 40
81.0
 40
82.0
 40
82.0
 40
82.0
 40
83.0
 40
83.0
 40
83.0
 40
84.0
 40
84.0
 40
84.0
 40
85.0
 40
85.0
 40
85.0
 40
86.0
 40
86.0
 40
86.0
 40
87.0
 40
87.0
 40
87.0
 40
88.0
 40
88.0
 40
88.0
 40
89.0
 40
89.0
 40
89.0
 40
90.0
 40
90.0
 40
90.0
 40
91.0
 40
91.0
 40
91.0
 40
92.0
 40
92.0
 40
92.0
 40
93.0
 40
93.0
 40
93.0
 40
94.0
 40
94.0
 40
94.0
 40
95.0
 40
95.0
 40
95.0
 40
96.0
 40
96.0
 40
96.0
 40
97.0
 40
97.0
 40
97.0
 40
98.0
 40
98.0
 40
98.0
 40
99.0
 40
99.0
 40
99.0
 40
100.0
 40
100.0
 40
100.0
 40
101.0
 40
101.0
 40
101.0
 40
102.0
 40
102.0
 40
102.0
 40
103.0
 40
103.0
 40
103.0
 40
104.0
 40
104.0
 40
104.0
 40
105.0
 40
105.0
 40
105.0
 40
106.0
 40
106.0
 40
106.0
 40
107.0
 40
107.0
 40
107.0
 40
108.0
 40
108.0
 40
108.0
 40
109.0
 40
109.0
 40
109.0
 40
110.0
 40
110.0
 40
110.0
 40
111.0
 40
111.0
 40
111.0
 40
112.0
 40
112.0
 40
112.0
 40
113.0
 40
113.0
 40
113.0
 40
114.0
 40
114.0
 40
114.0
 40
115.0
 40
115.0
 40
115.0
 40
116.0
 40
116.0
 40
116.0
 40
117.0
 40
117.0
 40
117.0
 40
118.0
 40
118.0
 40
118.0
 40
119.0
 40
119.0
 40
119.0
 40
120.0
 40
120.0
 40
120.0
 40
121.0
 40
121.0
 40
121.0
 40
122.0
 40
122.0
 40
122.0
 40
123.0
 40
123.0
 40
123.0
 40
124.0
 40
124.0
 40
124.0
 40
125.0
 40
125.0
 40
125.0
 40
126.0
 40
126.0
 40
126.0
 40
127.0
 40
127.0
 40
127.0
 40
128.0
 40
128.0
 40
128.0
 40
129.0
 40
129.0
 40
129.0
 40
130.0
 40
130.0
 40
130.0
 40
131.0
 40
131.0
 40
131.0
 40
132.0
 40
132.0
 40
132.0
 40
132.0
 10
52.905814615885411
 20
-191.88217230902777
 30
0.0
 10
52.905814615885411
 20
-191.88217230902777
 30
0.0
 10
52.553036838107637
 20
-188.70717230902775
 30
0.0
 10
52.553036838107637
 20
-188.70717230902775
 30
0.0
 10
54.140536838107636
 20
-188.58969455295139
 30
0.0
 10
57.550492350260413
 20
-188.88356119791666
 30
0.0
 10
58.608825683593743
 20
-187.58992784288193
 30
0.0
 10
59.902114529079853
 20
-186.00242784288193
 30
0.0
 10
59.255814615885413
 20
-182.53356119791664
 30
0.0
 10
59.255814615885413
 20
-180.59328342013887
 30
0.0
 10
59.255814615885413
 20
-180.59328342013887
 30
0.0
 10
59.255814615885413
 20
-166.12939453124997
 30
0.0
 10
59.255814615885413
 20
-166.12939453124997
 30
0.0
 10
59.255814615885413
 20
-164.07163899739581
 30
0.0
 10
59.66715901692708
 20
-161.42580566406249
 30
0.0
 10
58.843781195746523
 20
-159.42661675347222
 30
0.0
 10
56.903503417968743
 20
-154.6641167534722
 30
0.0
 10
49.025259060329859
 20
-155.60497233072914
 30
0.0
 10
44.791925726996524
 20
-155.54606119791666
 30
0.0
 10
43.439381239149299
 20
-155.54606119791666
 30
0.0
 10
41.440536838107633
 20
-155.95775010850693
 30
0.0
 10
40.264381239149301
 20
-155.13437228732639
 30
0.0
 10
38.971092393663191
 20
-154.25242784288193
 30
0.0
 10
39.853036838107634
 20
-150.31330566406248
 30
0.0
 10
39.853036838107634
 20
-148.84328342013887
 30
0.0
 10
39.853036838107634
 20
-142.96353895399304
 30
0.0
 10
38.382670084635414
 20
-134.84965006510416
 30
0.0
 10
39.911603461371527
 20
-129.14663899739583
 30
0.0
 10
40.499336751302081
 20
-127.08853895399304
 30
0.0
 10
43.497947862413191
 20
-127.67661675347222
 30
0.0
 10
45.144703504774299
 20
-127.67661675347222
 30
0.0
 10
49.142392306857637
 20
-127.67661675347222
 30
0.0
 10
55.551647949218747
 20
-129.02881673177083
 30
0.0
 10
58.37387017144097
 20
-125.55995008680554
 30
0.0
 10
60.72549235026041
 20
-122.67881673177082
 30
0.0
 10
59.314381239149299
 20
-117.44606119791666
 30
0.0
 10
59.784981282552081
 20
-113.91828342013888
 30
0.0
 10
61.078270128038191
 20
-104.0405056423611
 30
0.0
 10
59.961370171440969
 20
-93.280783420138874
 30
0.0
 10
59.961370171440969
 20
-83.226616753472214
 30
0.0
 10
59.961370171440969
 20
-79.875227864583323
 30
0.0
 10
61.019703504774299
 20
-74.230783420138877
 30
0.0
 10
59.196558973524297
 20
-71.291083441840271
 30
0.0
 10
56.609981282552077
 20
-66.939927842881943
 30
0.0
 10
50.494936794704856
 20
-68.057172309027777
 30
0.0
 10
46.203036838107636
 20
-68.057172309027777
 30
0.0
 10
44.615536838107637
 20
-68.057172309027777
 30
0.0
 10
41.146325683593744
 20
-68.762727864583326
 30
0.0
 10
40.382203504774303
 20
-66.99883897569444
 30
0.0
 10
39.735214572482633
 20
-65.528816731770831
 30
0.0
 10
40.205814615885416
 20
-63.294672309027774
 30
0.0
 10
40.205814615885416
 20
-61.707172309027769
 30
0.0
 10
40.205814615885416
 20
-57.591316731770831
 30
0.0
 10
40.382203504774303
 20
-53.534372287326384
 30
0.0
 10
40.499336751302081
 20
-49.359950086805554
 30
0.0
 10
41.028503417968743
 20
-36.953816731770829
 30
0.0
 10
39.08822564019097
 20
-23.959950086805552
 30
0.0
 10
40.734981282552077
 20
-11.612727864583333
 30
0.0
 10
41.146325683593744
 20
-8.3202501085069436
 30
0.0
 10
40.911370171440971
 20
-4.7924723307291659
 30
0.0
 10
40.911370171440971
 20
-1.3821723090277775
 30
0.0
 10
40.911370171440971
 20
-0.1474500868055556
 30
0.0
 10
40.499336751302081
 20
1.969216579861111
 30
0.0
 10
41.264147949218746
 20
3.0864610460069444
 30
0.0
 10
42.146092393663189
 20
4.4386610243055555
 30
0.0
 10
45.08544786241319
 20
3.9094943576388888
 30
0.0
 10
46.55581461588541
 20
3.9094943576388888
 30
0.0
 10
50.789147949218744
 20
3.9094943576388888
 30
0.0
 10
57.903270128038187
 20
2.4983832465277778
 30
0.0
 10
59.961370171440969
 20
7.4372721354166664
 30
0.0
 10
61.901647949218741
 20
11.905905490451389
 30
0.0
 10
60.666925726996524
 20
18.843638780381944
 30
0.0
 10
60.666925726996524
 20
23.665049913194441
 30
0.0
 10
60.666925726996524
 20
34.836461046006939
 30
0.0
 10
61.254659016927079
 20
45.948961046006943
 30
0.0
 10
60.96044786241319
 20
57.17893880208333
 30
0.0
 10
60.784058973524303
 20
64.704749891493051
 30
0.0
 10
53.02294786241319
 20
63.881716579861106
 30
0.0
 10
47.614147949218747
 20
63.881716579861106
 30
0.0
 10
45.673870171440967
 20
63.881716579861106
 30
0.0
 10
41.734058973524299
 20
62.999772135416663
 30
0.0
 10
41.264147949218746
 20
65.645605468749991
 30
0.0
 10
40.382203504774303
 20
71.113661024305543
 30
0.0
 10
41.264147949218746
 20
77.346183268229154
 30
0.0
 10
41.264147949218746
 20
82.931716579861103
 30
0.0
 10
41.264147949218746
 20
94.103127712673597
 30
0.0
 10
41.087759060329859
 20
105.27419433593749
 30
0.0
 10
41.557670084635411
 20
116.44560546874999
 30
0.0
 10
41.734058973524299
 20
120.62002766927083
 30
0.0
 10
41.616925726996527
 20
124.91227213541666
 30
0.0
 10
41.616925726996527
 20
129.14560546874998
 30
0.0
 10
41.616925726996527
 20
130.73310546874998
 30
0.0
 10
41.146325683593744
 20
133.20254991319445
 30
0.0
 10
41.793314615885414
 20
134.73113878038194
 30
0.0
 10
42.49887017144097
 20
136.26007215711803
 30
0.0
 10
45.791003417968746
 20
136.14224989149304
 30
0.0
 10
47.261370171440966
 20
136.14224989149304
 30
0.0
 10
51.318314615885413
 20
136.26007215711803
 30
0.0
 10
57.139147949218746
 20
134.55474989149303
 30
0.0
 10
60.078503417968747
 20
138.31782769097222
 30
0.0
 10
62.607203504774297
 20
141.55173882378472
 30
0.0
 10
61.37248128255208
 20
148.13669433593748
 30
0.0
 10
61.37248128255208
 20
152.07616102430555
 30
0.0
 10
61.37248128255208
 20
152.07616102430555
 30
0.0
 10
61.37248128255208
 20
178.53449435763886
 30
0.0
 10
61.37248128255208
 20
178.53449435763886
 30
0.0
 10
61.37248128255208
 20
182.41504991319442
 30
0.0
 10
62.136603461371521
 20
187.4128499348958
 30
0.0
 10
61.136836751302077
 20
191.23449435763888
 30
0.0
 10
59.66715901692708
 20
196.93784993489581
 30
0.0
 10
52.435214572482636
 20
195.82060546874999
 30
0.0
 10
47.966925726996521
 20
195.82060546874999
 30
0.0
 10
46.261603461371521
 20
195.82060546874999
 30
0.0
 10
42.616003417968749
 20
195.05613878038193
 30
0.0
 10
42.028270128038187
 20
197.23171657986109
 30
0.0
 10
41.440536838107633
 20
199.52477213541664
 30
0.0
 10
41.969703504774301
 20
202.58229437934025
 30
0.0
 10
41.969703504774301
 20
204.99282769097221
 30
0.0
 10
41.969703504774301
 20
204.99282769097221
 30
0.0
 10
41.969703504774301
 20
221.92616102430554
 30
0.0
 10
41.969703504774301
 20
221.92616102430554
 30
0.0
 10
41.969703504774301
 20
223.69004991319443
 30
0.0
 10
41.087759060329859
 20
228.51146104600693
 30
0.0
 10
42.733825683593743
 20
229.62836100260415
 30
0.0
 10
43.79215901692708
 20
230.3339165581597
 30
0.0
 10
45.673870171440967
 20
230.04004991319442
 30
0.0
 10
46.908592393663191
 20
230.04004991319442
 30
0.0
 10
51.376881239149299
 20
230.04004991319442
 30
0.0
 10
58.843781195746523
 20
228.45254991319442
 30
0.0
 10
61.136836751302077
 20
233.56782769097219
 30
0.0
 10
62.547947862413189
 20
236.68391655815969
 30
0.0
 10
61.725259060329854
 20
241.74062771267359
 30
0.0
 10
61.725259060329854
 20
245.20949435763887
 30
0.0
 10
61.666003417968746
 20
246.5031277126736
 30
0.0
 10
61.901647949218741
 20
248.20810546874998
 30
0.0
 10
61.019703504774299
 20
249.3253499348958
 30
0.0
 10
59.784981282552081
 20
250.9128499348958
 30
0.0
 10
55.433825683593746
 20
249.3253499348958
 30
0.0
 10
55.139614529079857
 20
251.91227213541666
 30
0.0
 10
54.904659016927077
 20
254.26423882378469
 30
0.0
 10
58.608825683593743
 20
253.44086100260415
 30
0.0
 10
59.902114529079853
 20
254.0289388020833
 30
0.0
 10
62.312992350260409
 20
255.08727213541664
 30
0.0
 10
62.43081461588541
 20
260.61423882378472
 30
0.0
 10
60.843314615885411
 20
262.37812771267357
 30
0.0
 10
59.255814615885413
 20
264.14201660156249
 30
0.0
 10
56.0215589735243
 20
263.55393880208334
 30
0.0
 10
53.964147949218749
 20
263.55393880208334
 30
0.0
 10
48.201881239149301
 20
263.55393880208334
 30
0.0
 10
42.381047905815969
 20
263.55393880208334
 30
0.0
 10
36.678036838107637
 20
263.73032769097222
 30
0.0
 10
20.567392306857638
 20
264.31840549045137
 30
0.0
 10
4.3988701714409721
 20
263.9067165798611
 30
0.0
 10
-11.652518717447915
 20
263.9067165798611
 30
0.0
 10
-20.883996582031248
 20
263.9067165798611
 30
0.0
 10
-30.761774359809024
 20
264.84757215711801
 30
0.0
 10
-39.874740939670133
 20
263.84780544704859
 30
0.0
 10
-43.108996582031246
 20
263.49502766927083
 30
0.0
 10
-44.225896538628469
 20
257.49780544704856
 30
0.0
 10
-42.462007649739583
 20
255.14618326822915
 30
0.0
 10
-41.34510769314236
 20
253.67616102430554
 30
0.0
 10
-39.698352050781246
 20
254.32280544704858
 30
0.0
 10
-38.170107693142356
 20
253.91146104600693
 30
0.0
 10
-37.228907606336804
 20
253.61724989149303
 30
0.0
 10
-36.64117431640625
 20
252.8531277126736
 30
0.0
 10
-36.935385470920139
 20
251.91227213541666
 30
0.0
 10
-37.758074273003466
 20
249.44282769097219
 30
0.0
 10
-41.109463161892357
 20
251.32419433593748
 30
0.0
 10
-42.520574273003469
 20
249.67812771267359
 30
0.0
 10
-43.402518717447911
 20
248.61979437934025
 30
0.0
 10
-43.049740939670137
 20
246.79699435763888
 30
0.0
 10
-43.049740939670137
 20
245.56227213541663
 30
0.0
 10
-43.049740939670137
 20
241.85810546874998
 30
0.0
 10
-44.402285427517356
 20
236.8603054470486
 30
0.0
 10
-42.579829915364577
 20
233.56782769097219
 30
0.0
 10
-40.227518717447914
 20
229.21701660156248
 30
0.0
 10
-33.289785427517359
 20
230.04004991319442
 30
0.0
 10
-28.938629828559026
 20
230.04004991319442
 30
0.0
 10
-27.703907606336802
 20
229.98113878038191
 30
0.0
 10
-25.587240939670135
 20
230.39282769097221
 30
0.0
 10
-24.470340983072916
 20
229.62836100260415
 30
0.0
 10
-22.882840983072914
 20
228.57002766927081
 30
0.0
 10
-23.646963161892359
 20
223.98391655815971
 30
0.0
 10
-23.646963161892359
 20
222.2789388020833
 30
0.0
 10
-23.646963161892359
 20
222.2789388020833
 30
0.0
 10
-23.646963161892359
 20
203.22893880208332
 30
0.0
 10
-23.646963161892359
 20
203.22893880208332
 30
0.0
 10
-23.646963161892359
 20
201.52396104600692
 30
0.0
 10
-22.941407606336803
 20
197.64340549045136
 30
0.0
 10
-24.235385470920136
 20
196.34977213541666
 30
0.0
 10
-25.234463161892357
 20
195.3503499348958
 30
0.0
 10
-27.645340983072913
 20
195.82060546874999
 30
0.0
 10
-28.938629828559026
 20
195.82060546874999
 30
0.0
 10
-32.99557427300347
 20
195.82060546874999
 30
0.0
 10
-39.757607693142354
 20
197.1728054470486
 30
0.0
 10
-42.40344102647569
 20
193.29224989149304
 30
0.0
 10
-43.93168538411458
 20
190.99919433593749
 30
0.0
 10
-43.402518717447911
 20
187.82419433593748
 30
0.0
 10
-43.402518717447911
 20
185.23727213541665
 30
0.0
 10
-43.402518717447911
 20
179.24004991319444
 30
0.0
 10
-43.578907606336799
 20
173.18391655815969
 30
0.0
 10
-43.402518717447911
 20
167.24560546874997
 30
0.0
 10
-43.343952094184026
 20
164.95254991319442
 30
0.0
 10
-42.344185384114581
 20
162.83588324652777
 30
0.0
 10
-40.227518717447914
 20
161.83646104600692
 30
0.0
 10
-37.170340983072911
 20
160.24896104600694
 30
0.0
 10
-31.996496582031249
 20
161.24838324652777
 30
0.0
 10
-28.585852050781249
 20
161.24838324652777
 30
0.0
 10
-27.351129828559024
 20
161.24838324652777
 30
0.0
 10
-25.234463161892357
 20
161.60116102430555
 30
0.0
 10
-24.235385470920136
 20
160.66030544704859
 30
0.0
 10
-22.941407606336803
 20
159.36701660156248
 30
0.0
 10
-23.646963161892359
 20
155.48646104600692
 30
0.0
 10
-23.646963161892359
 20
153.84004991319443
 30
0.0
 10
-23.646963161892359
 20
153.84004991319443
 30
0.0
 10
-23.646963161892359
 20
137.96504991319443
 30
0.0
 10
-23.646963161892359
 20
137.96504991319443
 30
0.0
 10
-23.646963161892359
 20
135.84838324652776
 30
0.0
 10
-23.117796495225694
 20
132.79086100260415
 30
0.0
 10
-24.176129828559027
 20
130.90949435763886
 30
0.0
 10
-25.117329915364582
 20
129.20451660156249
 30
0.0
 10
-28.05668538411458
 20
129.85116102430555
 30
0.0
 10
-29.644185384114582
 20
129.85116102430555
 30
0.0
 10
-33.936774359809021
 20
129.85116102430555
 30
0.0
 10
-40.521729871961803
 20
131.20336100260417
 30
0.0
 10
-42.991174316406244
 20
126.61724989149305
 30
0.0
 10
-44.225896538628469
 20
124.32419433593749
 30
0.0
 10
-43.755296495225693
 20
121.38449435763887
 30
0.0
 10
-43.755296495225693
 20
118.91504991319444
 30
0.0
 10
-43.755296495225693
 20
113.15312771267359
 30
0.0
 10
-44.049507649739581
 20
107.33229437934027
 30
0.0
 10
-43.755296495225693
 20
101.62893880208333
 30
0.0
 10
-43.638163248697914
 20
99.218405490451374
 30
0.0
 10
-42.873352050781243
 20
96.92534993489582
 30
0.0
 10
-40.580296495225689
 20
95.749194335937489
 30
0.0
 10
-37.69950764973958
 20
94.279516601562491
 30
0.0
 10
-32.525663248697917
 20
95.278938802083331
 30
0.0
 10
-29.291407606336804
 20
95.278938802083331
 30
0.0
 10
-27.939552137586801
 20
95.22002766927082
 30
0.0
 10
-25.999274359809025
 20
95.514238823784709
 30
0.0
 10
-24.940941026475691
 20
94.338083224826377
 30
0.0
 10
-23.646963161892359
 20
92.926972113715266
 30
0.0
 10
-24.352518717447914
 20
88.98784993489582
 30
0.0
 10
-24.352518717447914
 20
87.165049913194437
 30
0.0
 10
-24.352518717447914
 20
80.226972113715277
 30
0.0
 10
-23.353441026475693
 20
72.407294379340271
 30
0.0
 10
-24.411774359809026
 20
65.645605468749991
 30
0.0
 10
-24.823118760850694
 20
63.411461046006941
 30
0.0
 10
-27.292563205295135
 20
63.881716579861106
 30
0.0
 10
-28.938629828559026
 20
63.881716579861106
 30
0.0
 10
-32.76061876085069
 20
63.881716579861106
 30
0.0
 10
-38.875663248697911
 20
65.057527669270826
 30
0.0
 10
-41.932840983072914
 20
62.529516601562491
 30
0.0
 10
-44.284463161892354
 20
60.589238823784719
 30
0.0
 10
-44.108074273003467
 20
57.767016601562496
 30
0.0
 10
-44.108074273003467
 20
55.062272135416663
 30
0.0
 10
-44.108074273003467
 20
48.359494357638887
 30
0.0
 10
-45.519185384114579
 20
39.951738823784716
 30
0.0
 10
-43.93168538411458
 20
33.542827690972217
 30
0.0
 10
-42.462007649739583
 20
27.428127712673607
 30
0.0
 10
-34.289552137586803
 20
28.956716579861109
 30
0.0
 10
-29.644185384114582
 20
28.956716579861109
 30
0.0
 10
-28.409463161892358
 20
28.956716579861109
 30
0.0
 10
-25.881452094184027
 20
29.368405490451387
 30
0.0
 10
-24.999507649739581
 20
28.368638780381943
 30
0.0
 10
-24.293952094184025
 20
27.604516601562498
 30
0.0
 10
-24.470340983072916
 20
25.017249891493055
 30
0.0
 10
-24.411774359809026
 20
24.017827690972219
 30
0.0
 10
-24.293952094184025
 20
17.961694335937498
 30
0.0
 10
-24.705296495225692
 20
11.7295166015625
 30
0.0
 10
-24.705296495225692
 20
5.6733832465277771
 30
0.0
 10
-24.705296495225692
 20
3.8505832248263885
 30
0.0
 10
-24.058996582031249
 20
0.2642388237847222
 30
0.0
 10
-25.117329915364582
 20
-1.3232611762152777
 30
0.0
 10
-25.940018717447913
 20
-2.5579833984374996
 30
0.0
 10
-28.350896538628469
 20
-2.087727864583333
 30
0.0
 10
-29.644185384114582
 20
-2.087727864583333
 30
0.0
 10
-33.054829915364579
 20
-2.087727864583333
 30
0.0
 10
-38.228674316406249
 20
-1.1468722873263888
 30
0.0
 10
-41.285852050781244
 20
-2.7343722873263885
 30
0.0
 10
-43.520340983072913
 20
-3.8516167534722219
 30
0.0
 10
-44.460852050781249
 20
-6.0857611762152768
 30
0.0
 10
-44.460852050781249
 20
-8.4377278645833318
 30
0.0
 10
-44.520107693142357
 20
-12.435761176215276
 30
0.0
 10
-44.284463161892354
 20
-16.49270562065972
 30
0.0
 10
-44.520107693142357
 20
-20.432172309027777
 30
0.0
 10
-44.755063205295137
 20
-24.077427842881942
 30
0.0
 10
-45.519185384114579
 20
-28.957750108506943
 30
0.0
 10
-44.460852050781249
 20
-32.426616753472217
 30
0.0
 10
-42.814785427517357
 20
-37.894672309027776
 30
0.0
 10
-35.582840983072913
 20
-37.012727864583333
 30
0.0
 10
-31.05529649522569
 20
-37.012727864583333
 30
0.0
 10
-29.409229871961802
 20
-37.07163899739583
 30
0.0
 10
-25.763629828559026
 20
-36.307172309027777
 30
0.0
 10
-25.175896538628471
 20
-38.482750108506941
 30
0.0
 10
-24.646729871961803
 20
-40.540505642361104
 30
0.0
 10
-25.05807427300347
 20
-43.362727864583327
 30
0.0
 10
-25.05807427300347
 20
-45.479394531249994
 30
0.0
 10
-25.05807427300347
 20
-45.479394531249994
 30
0.0
 10
-25.05807427300347
 20
-60.296061197916664
 30
0.0
 10
-25.05807427300347
 20
-60.296061197916664
 30
0.0
 10
-25.05807427300347
 20
-62.118861219618047
 30
0.0
 10
-24.528907606336805
 20
-66.23437228732638
 30
0.0
 10
-25.940018717447913
 20
-67.528005642361109
 30
0.0
 10
-26.998352050781246
 20
-68.468861219618049
 30
0.0
 10
-29.056452094184024
 20
-68.057172309027777
 30
0.0
 10
-30.349740939670138
 20
-68.057172309027777
 30
0.0
 10
-33.818952094184027
 20
-68.057172309027777
 30
0.0
 10
-38.522885470920137
 20
-67.234138997395831
 30
0.0
 10
-41.638629828559026
 20
-68.762727864583326
 30
0.0
 10
-44.813629828559023
 20
-70.29131673177082
 30
0.0
 10
-44.813629828559023
 20
-73.172450086805554
 30
0.0
 10
-44.813629828559023
 20
-76.171061197916657
 30
0.0
 10
-44.813629828559023
 20
-83.167705620659717
 30
0.0
 10
-46.460385470920137
 20
-91.223027886284711
 30
0.0
 10
-44.931452094184024
 20
-98.043283420138877
 30
0.0
 10
-43.520340983072913
 20
-104.09941677517361
 30
0.0
 10
-36.112007649739581
 20
-102.62939453124999
 30
0.0
 10
-31.408074273003468
 20
-102.62939453124999
 30
0.0
 10
-29.527052137586804
 20
-102.62939453124999
 30
0.0
 10
-25.881452094184027
 20
-101.86492784288194
 30
0.0
 10
-25.47010769314236
 20
-104.45219455295138
 30
0.0
 10
-24.352518717447914
 20
-111.44883897569443
 30
0.0
 10
-25.763629828559026
 20
-119.20995008680555
 30
0.0
 10
-25.763629828559026
 20
-126.26550564236111
 30
0.0
 10
-25.763629828559026
 20
-128.08830566406249
 30
0.0
 10
-24.999507649739581
 20
-132.49802788628472
 30
0.0
 10
-26.587007649739579
 20
-133.73275010850693
 30
0.0
 10
-31.525896538628469
 20
-137.43691677517359
 30
0.0
 10
-43.402518717447911
 20
-129.91076117621526
 30
0.0
 10
-45.4020521375868
 20
-138.61272786458332
 30
0.0
 10
-46.048352050781247
 20
-141.31747233072915
 30
0.0
 10
-45.4020521375868
 20
-144.37465006510416
 30
0.0
 10
-45.578441026475687
 20
-147.07939453124999
 30
0.0
 10
-46.107607693142356
 20
-155.19328342013887
 30
0.0
 10
-45.87196316189236
 20
-163.36608344184026
 30
0.0
 10
-45.87196316189236
 20
-171.42106119791666
 30
0.0
 10
-45.87196316189236
 20
-176.18356119791665
 30
0.0
 10
-46.989552137586799
 20
-182.41608344184027
 30
0.0
 10
-45.813396538628467
 20
-186.94328342013887
 30
0.0
 10
-44.99001871744791
 20
-189.94189453124997
 30
0.0
 10
-39.992563205295134
 20
-187.41353895399303
 30
0.0
 10
-39.698352050781246
 20
-190.17719455295136
 30
0.0
 10
-39.40482991536458
 20
-192.82302788628471
 30
0.0
 10
-45.754829915364581
 20
-191.2355278862847
 30
0.0
 10
-46.224740939670134
 20
-195.05717230902775
 30
0.0
 10
-46.989552137586799
 20
-201.81886121961804
 30
0.0
 10
-46.577518717447916
 20
-209.16828342013886
 30
0.0
 10
-46.577518717447916
 20
-215.87106119791665
 30
0.0
 10
-46.577518717447916
 20
-217.75242784288193
 30
0.0
 10
-45.754829915364581
 20
-222.39745008680555
 30
0.0
 10
-47.165941026475693
 20
-223.80856119791665
 30
0.0
 10
-49.870340983072914
 20
-226.51330566406247
 30
0.0
 10
-56.690941026475691
 20
-222.75022786458331
 30
0.0
 10
-59.924507649739574
 20
-225.04328342013886
 30
0.0
 10
-62.158996582031243
 20
-226.57187228732636
 30
0.0
 10
-61.394185384114579
 20
-230.51133897569443
 30
0.0
 10
-61.394185384114579
 20
-232.80439453124998
 30
0.0
 10
-61.394185384114579
 20
-240.2716389973958
 30
0.0
 10
-61.746963161892353
 20
-247.67997233072916
 30
0.0
 10
-61.746963161892353
 20
-255.02939453124998
 30
0.0
 10
-61.806218804253469
 20
-257.26353895399302
 30
0.0
 10
-62.628907606336803
 20
-261.73217230902776
 30
0.0
 10
-60.63006320529513
 20
-263.26076117621523
 30
0.0
 10
-58.92474093967013
 20
-264.55439453124995
 30
0.0
 10
-54.338629828559021
 20
-264.20161675347219
 30
0.0
 10
-52.221963161892354
 20
-264.20161675347219
 30
0.0
 10
-44.813629828559023
 20
-264.26052788628471
 30
0.0
 10
-37.4645521375868
 20
-265.20103895399302
 30
0.0
 10
-32.466407606336801
 20
-258.55717230902775
 30
0.0
 10
-29.350663248697913
 20
-254.50022786458331
 30
0.0
 10
-27.116174316406248
 20
-249.56133897569441
 30
0.0
 10
-24.470340983072916
 20
-245.15161675347221
 30
0.0
 10
-18.473118760850692
 20
-235.21492784288193
 30
0.0
 10
-12.652285427517359
 20
-225.16076117621526
 30
0.0
 10
-6.6550632052951384
 20
-215.1655056423611
 30
0.0
 10
-4.4205742730034716
 20
-211.46133897569442
 30
0.0
 10
-2.3039076063368054
 20
-207.69826117621525
 30
0.0
 10
-0.12867431640625
 20
-203.87661675347221
 30
0.0
 10
0.7532701280381944
 20
-202.4065945095486
 30
0.0
 10
1.6352145724826388
 20
-199.87858344184025
 30
0.0
 10
3.2227145724826385
 20
-198.99663899739582
 30
0.0
 10
5.9271145290798604
 20
-197.40913899739581
 30
0.0
 10
12.33637017144097
 20
-198.58495008680555
 30
0.0
 10
15.511370171440971
 20
-198.58495008680555
 30
0.0
 10
26.035447862413193
 20
-198.58495008680555
 30
0.0
 10
37.089381239149304
 20
-199.52580566406249
 30
0.0
 10
47.614147949218747
 20
-198.52603895399304
 30
0.0
 10
50.318547905815969
 20
-198.29108344184027
 30
0.0
 10
55.022481282552079
 20
-199.1730278862847
 30
0.0
 10
57.432670084635411
 20
-197.82048339843749
 30
0.0
 10
59.372947862413191
 20
-196.82106119791666
 30
0.0
 10
59.725725640190966
 20
-193.52858344184025
 30
0.0
 10
57.7268812391493
 20
-192.35242784288192
 30
0.0
 10
56.43359239366319
 20
-191.52939453124998
 30
0.0
 10
54.316925726996523
 20
-191.88217230902777
 30
0.0
 10
52.905814615885411
 20
-191.88217230902777
 30
0.0
  0
SPLINE
  5
3F
100
AcDbEntity
  8
LAYER_1
 62
     7
100
AcDbSpline
210
0.0
220
0.0
230
1.0
 70
     8
 71
     3
 72
    47
 73
    43
 74
     0
 42
0.00000001
 43
0.00000001
 40
0.0
 40
0.0
 40
0.0
 40
0.0
 40
1.0
 40
1.0
 40
1.0
 40
2.0
 40
2.0
 40
2.0
 40
3.0
 40
3.0
 40
3.0
 40
4.0
 40
4.0
 40
4.0
 40
5.0
 40
5.0
 40
5.0
 40
6.0
 40
6.0
 40
6.0
 40
7.0
 40
7.0
 40
7.0
 40
8.0
 40
8.0
 40
8.0
 40
9.0
 40
9.0
 40
9.0
 40
10.0
 40
10.0
 40
10.0
 40
11.0
 40
11.0
 40
11.0
 40
12.0
 40
12.0
 40
12.0
 40
13.0
 40
13.0
 40
13.0
 40
14.0
 40
14.0
 40
14.0
 40
14.0
 10
-9.7122409396701386
 20
229.62836100260415
 30
0.0
 10
-10.77057427300347
 20
228.80532769097221
 30
0.0
 10
-10.241407606336805
 20
226.21840549045137
 30
0.0
 10
-10.241407606336805
 20
225.10116102430553
 30
0.0
 10
-10.241407606336805
 20
220.92673882378469
 30
0.0
 10
-10.300663248697916
 20
216.81088324652777
 30
0.0
 10
-10.300663248697916
 20
212.75393880208333
 30
0.0
 10
-10.241407606336805
 20
207.10949435763888
 30
0.0
 10
-11.770340983072916
 20
198.8781277126736
 30
0.0
 10
-9.4772854275173604
 20
193.70393880208331
 30
0.0
 10
-8.1247409396701382
 20
190.47002766927082
 30
0.0
 10
-5.1261298285590273
 20
188.17697211371527
 30
0.0
 10
-2.4802964952256943
 20
186.00173882378471
 30
0.0
 10
0.9296590169270833
 20
183.17951660156248
 30
0.0
 10
4.3396145290798609
 20
179.53391655815972
 30
0.0
 10
8.8085923936631936
 20
178.41701660156249
 30
0.0
 10
11.865770128038193
 20
177.65254991319443
 30
0.0
 10
15.511370171440971
 20
178.06423882378471
 30
0.0
 10
18.68637017144097
 20
178.12280544704859
 30
0.0
 10
20.861603461371526
 20
178.1817165798611
 30
0.0
 10
25.447714572482635
 20
177.24086100260416
 30
0.0
 10
27.387992350260415
 20
178.53449435763886
 30
0.0
 10
28.799103461371526
 20
179.4753499348958
 30
0.0
 10
28.211370171440969
 20
182.7089165581597
 30
0.0
 10
28.211370171440969
 20
184.17893880208331
 30
0.0
 10
28.211370171440969
 20
184.17893880208331
 30
0.0
 10
28.211370171440969
 20
200.4067165798611
 30
0.0
 10
28.211370171440969
 20
200.4067165798611
 30
0.0
 10
28.211370171440969
 20
207.16840549045136
 30
0.0
 10
27.740770128038193
 20
214.10613878038191
 30
0.0
 10
28.211370171440969
 20
220.86782769097221
 30
0.0
 10
28.387759060329859
 20
222.6906277126736
 30
0.0
 10
28.975492350260414
 20
227.98229437934026
 30
0.0
 10
27.799336751302082
 20
229.45197211371524
 30
0.0
 10
26.682436794704859
 20
230.92199435763888
 30
0.0
 10
21.096558973524303
 20
230.04004991319442
 30
0.0
 10
19.391925726996526
 20
230.04004991319442
 30
0.0
 10
19.391925726996526
 20
230.04004991319442
 30
0.0
 10
-1.7747409396701388
 20
230.04004991319442
 30
0.0
 10
-1.7747409396701388
 20
230.04004991319442
 30
0.0
 10
-3.6564520941840275
 20
230.04004991319442
 30
0.0
 10
-8.1839965820312486
 20
230.86308322482637
 30
0.0
 10
-9.7122409396701386
 20
229.62836100260415
 30
0.0
  0
SPLINE
  5
3E
100
AcDbEntity
  8
LAYER_1
 62
     7
100
AcDbSpline
210
0.0
220
0.0
230
1.0
 70
     8
 71
     3
 72
    11
 73
     7
 74
     0
 42
0.00000001
 43
0.00000001
 40
0.0
 40
0.0
 40
0.0
 40
0.0
 40
1.0
 40
1.0
 40
1.0
 40
2.0
 40
2.0
 40
2.0
 40
2.0
 10
-37.640941026475694
 20
186.58947211371526
 30
0.0
 10
-39.40482991536458
 20
185.47257215711804
 30
0.0
 10
-37.640941026475694
 20
182.35613878038194
 30
0.0
 10
-35.7592298719618
 20
183.53229437934027
 30
0.0
 10
-33.936774359809021
 20
184.64919433593749
 30
0.0
 10
-35.700663248697914
 20
187.82419433593748
 30
0.0
 10
-37.640941026475694
 20
186.58947211371526
 30
0.0
  0
SPLINE
  5
3D
100
AcDbEntity
  8
LAYER_1
 62
     7
100
AcDbSpline
210
0.0
220
0.0
230
1.0
 70
     8
 71
     3
 72
    11
 73
     7
 74
     0
 42
0.00000001
 43
0.00000001
 40
0.0
 40
0.0
 40
0.0
 40
0.0
 40
1.0
 40
1.0
 40
1.0
 40
2.0
 40
2.0
 40
2.0
 40
2.0
 10
53.669936794704853
 20
186.23669433593747
 30
0.0
 10
51.847481282552081
 20
185.06088324652777
 30
0.0
 10
53.611370171440967
 20
181.94479437934027
 30
0.0
 10
55.610214572482633
 20
183.12060546874997
 30
0.0
 10
57.785447862413186
 20
184.35532769097222
 30
0.0
 10
55.728036838107634
 20
187.5303276909722
 30
0.0
 10
53.669936794704853
 20
186.23669433593747
 30
0.0
  0
SPLINE
  5
3C
100
AcDbEntity
  8
LAYER_1
 62
     7
100
AcDbSpline
210
0.0
220
0.0
230
1.0
 70
     8
 71
     3
 72
    56
 73
    52
 74
     0
 42
0.00000001
 43
0.00000001
 40
0.0
 40
0.0
 40
0.0
 40
0.0
 40
1.0
 40
1.0
 40
1.0
 40
2.0
 40
2.0
 40
2.0
 40
3.0
 40
3.0
 40
3.0
 40
4.0
 40
4.0
 40
4.0
 40
5.0
 40
5.0
 40
5.0
 40
6.0
 40
6.0
 40
6.0
 40
7.0
 40
7.0
 40
7.0
 40
8.0
 40
8.0
 40
8.0
 40
9.0
 40
9.0
 40
9.0
 40
10.0
 40
10.0
 40
10.0
 40
11.0
 40
11.0
 40
11.0
 40
12.0
 40
12.0
 40
12.0
 40
13.0
 40
13.0
 40
13.0
 40
14.0
 40
14.0
 40
14.0
 40
15.0
 40
15.0
 40
15.0
 40
16.0
 40
16.0
 40
16.0
 40
17.0
 40
17.0
 40
17.0
 40
17.0
 10
-8.4775187174479161
 20
180.65116102430554
 30
0.0
 10
-10.653441026475694
 20
180.00451660156247
 30
0.0
 10
-10.417796495225694
 20
176.77060546874998
 30
0.0
 10
-10.535618760850694
 20
175.00671657986109
 30
0.0
 10
-11.123352050781248
 20
168.83310546874998
 30
0.0
 10
-10.594185384114583
 20
162.42419433593747
 30
0.0
 10
-10.594185384114583
 20
156.30949435763887
 30
0.0
 10
-10.594185384114583
 20
156.30949435763887
 30
0.0
 10
-10.594185384114583
 20
138.31782769097222
 30
0.0
 10
-10.594185384114583
 20
138.31782769097222
 30
0.0
 10
-10.594185384114583
 20
135.0839165581597
 30
0.0
 10
-11.123352050781248
 20
131.49757215711804
 30
0.0
 10
-10.006452094184027
 20
128.44004991319443
 30
0.0
 10
-8.7131632486979154
 20
124.67697211371527
 30
0.0
 10
-5.4789076063368052
 20
122.14896104600693
 30
0.0
 10
-2.4802964952256943
 20
119.73808322482638
 30
0.0
 10
0.5183146158854166
 20
117.26863878038193
 30
0.0
 10
3.6340589735243052
 20
113.91724989149304
 30
0.0
 10
7.397481282552083
 20
112.56504991319443
 30
0.0
 10
10.748870171440972
 20
111.33032769097221
 30
0.0
 10
14.746558973524305
 20
111.85949435763888
 30
0.0
 10
18.333592393663192
 20
111.85949435763888
 30
0.0
 10
20.685214572482636
 20
111.85949435763888
 30
0.0
 10
24.565770128038192
 20
111.09502766927082
 30
0.0
 10
26.741003417968749
 20
112.03588324652777
 30
0.0
 10
27.975725640190969
 20
112.56504991319443
 30
0.0
 10
27.622947862413191
 20
113.91724989149304
 30
0.0
 10
27.799336751302082
 20
115.03449435763888
 30
0.0
 10
28.328503417968747
 20
118.38588324652777
 30
0.0
 10
28.211370171440969
 20
121.79618326822916
 30
0.0
 10
28.211370171440969
 20
125.26504991319443
 30
0.0
 10
28.211370171440969
 20
125.26504991319443
 30
0.0
 10
28.211370171440969
 20
157.72060546874999
 30
0.0
 10
28.211370171440969
 20
157.72060546874999
 30
0.0
 10
28.211370171440969
 20
160.6017388237847
 30
0.0
 10
29.446092393663193
 20
167.48090549045136
 30
0.0
 10
27.799336751302082
 20
169.95034993489583
 30
0.0
 10
26.800259060329857
 20
171.47893880208332
 30
0.0
 10
19.861836751302082
 20
171.71423882378471
 30
0.0
 10
19.097714572482637
 20
169.95034993489583
 30
0.0
 10
17.745170084635415
 20
167.06921657986109
 30
0.0
 10
25.389147949218749
 20
165.30532769097221
 30
0.0
 10
24.036603461371527
 20
161.60116102430555
 30
0.0
 10
22.154892306857636
 20
156.42697211371527
 30
0.0
 10
17.392392306857637
 20
161.24838324652777
 30
0.0
 10
15.158592393663193
 20
163.12974989149305
 30
0.0
 10
9.5141479492187493
 20
167.77477213541664
 30
0.0
 10
3.9282701280381942
 20
172.47836100260415
 30
0.0
 10
-1.7747409396701388
 20
176.94699435763889
 30
0.0
 10
-3.4214965820312497
 20
178.24062771267359
 30
0.0
 10
-6.1258965386284716
 20
181.4156277126736
 30
0.0
 10
-8.4775187174479161
 20
180.65116102430554
 30
0.0
  0
SPLINE
  5
3B
100
AcDbEntity
  8
LAYER_1
 62
     7
100
AcDbSpline
210
0.0
220
0.0
230
1.0
 70
     8
 71
     3
 72
    11
 73
     7
 74
     0
 42
0.00000001
 43
0.00000001
 40
0.0
 40
0.0
 40
0.0
 40
0.0
 40
1.0
 40
1.0
 40
1.0
 40
2.0
 40
2.0
 40
2.0
 40
2.0
 10
53.611370171440967
 20
149.90058322482636
 30
0.0
 10
51.435447862413191
 20
148.66586100260415
 30
0.0
 10
53.43498128255208
 20
145.31447211371525
 30
0.0
 10
55.551647949218747
 20
146.78449435763886
 30
0.0
 10
57.374103461371526
 20
148.01921657986111
 30
0.0
 10
55.668781195746526
 20
151.07673882378469
 30
0.0
 10
53.611370171440967
 20
149.90058322482636
 30
0.0
  0
SPLINE
  5
3A
100
AcDbEntity
  8
LAYER_1
 62
     7
100
AcDbSpline
210
0.0
220
0.0
230
1.0
 70
     8
 71
     3
 72
    11
 73
     7
 74
     0
 42
0.00000001
 43
0.00000001
 40
0.0
 40
0.0
 40
0.0
 40
0.0
 40
1.0
 40
1.0
 40
1.0
 40
2.0
 40
2.0
 40
2.0
 40
2.0
 10
-37.405296495225691
 20
120.73784993489582
 30
0.0
 10
-39.228441026475693
 20
120.09086100260416
 30
0.0
 10
-38.463629828559021
 20
116.68090549045138
 30
0.0
 10
-36.40621880425347
 20
117.32754991319443
 30
0.0
 10
-34.230296495225694
 20
118.03310546874999
 30
0.0
 10
-35.288629828559024
 20
121.44340549045138
 30
0.0
 10
-37.405296495225691
 20
120.73784993489582
 30
0.0
  0
SPLINE
  5
39
100
AcDbEntity
  8
LAYER_1
 62
     7
100
AcDbSpline
210
0.0
220
0.0
230
1.0
 70
     8
 71
     3
 72
    56
 73
    52
 74
     0
 42
0.00000001
 43
0.00000001
 40
0.0
 40
0.0
 40
0.0
 40
0.0
 40
1.0
 40
1.0
 40
1.0
 40
2.0
 40
2.0
 40
2.0
 40
3.0
 40
3.0
 40
3.0
 40
4.0
 40
4.0
 40
4.0
 40
5.0
 40
5.0
 40
5.0
 40
6.0
 40
6.0
 40
6.0
 40
7.0
 40
7.0
 40
7.0
 40
8.0
 40
8.0
 40
8.0
 40
9.0
 40
9.0
 40
9.0
 40
10.0
 40
10.0
 40
10.0
 40
11.0
 40
11.0
 40
11.0
 40
12.0
 40
12.0
 40
12.0
 40
13.0
 40
13.0
 40
13.0
 40
14.0
 40
14.0
 40
14.0
 40
15.0
 40
15.0
 40
15.0
 40
16.0
 40
16.0
 40
16.0
 40
17.0
 40
17.0
 40
17.0
 40
17.0
 10
-9.1830742730034718
 20
114.32893880208333
 30
0.0
 10
-11.24117431640625
 20
113.38808322482637
 30
0.0
 10
-10.594185384114583
 20
110.15451660156249
 30
0.0
 10
-10.594185384114583
 20
108.33171657986109
 30
0.0
 10
-10.594185384114583
 20
102.39340549045139
 30
0.0
 10
-10.946963161892359
 20
96.572572157118046
 30
0.0
 10
-10.946963161892359
 20
90.692827690972209
 30
0.0
 10
-10.946963161892359
 20
90.692827690972209
 30
0.0
 10
-10.946963161892359
 20
72.348383246527774
 30
0.0
 10
-10.946963161892359
 20
72.348383246527774
 30
0.0
 10
-10.946963161892359
 20
69.29086100260416
 30
0.0
 10
-11.476129828559026
 20
65.704516601562489
 30
0.0
 10
-10.417796495225694
 20
62.823383246527769
 30
0.0
 10
-9.0659410264756932
 20
58.942827690972216
 30
0.0
 10
-5.8909410264756943
 20
56.532294379340271
 30
0.0
 10
-2.8330742730034721
 20
54.003938802083326
 30
0.0
 10
0.2826700846354167
 20
51.417016601562494
 30
0.0
 10
3.4576700846354163
 20
48.06562771267361
 30
0.0
 10
7.397481282552083
 20
46.713083224826384
 30
0.0
 10
11.160214572482637
 20
45.360883246527777
 30
0.0
 10
15.804892306857637
 20
45.890049913194439
 30
0.0
 10
19.744703504774304
 20
46.183916558159716
 30
0.0
 10
21.68498128255208
 20
46.301738823784717
 30
0.0
 10
24.859981282552081
 20
45.537272135416664
 30
0.0
 10
26.682436794704859
 20
46.419216579861107
 30
0.0
 10
27.799336751302082
 20
46.948383246527776
 30
0.0
 10
27.446558973524304
 20
48.712272135416661
 30
0.0
 10
27.505814615885413
 20
49.770605468749999
 30
0.0
 10
27.505814615885413
 20
49.770605468749999
 30
0.0
 10
27.505814615885413
 20
59.648383246527771
 30
0.0
 10
27.505814615885413
 20
59.648383246527771
 30
0.0
 10
27.505814615885413
 20
70.584494357638889
 30
0.0
 10
27.858592393663191
 20
81.461694335937494
 30
0.0
 10
27.858592393663191
 20
92.456716579861109
 30
0.0
 10
27.858592393663191
 20
95.337849934895829
 30
0.0
 10
29.093314615885415
 20
102.21701660156249
 30
0.0
 10
27.446558973524304
 20
104.68646104600694
 30
0.0
 10
26.506047905815969
 20
106.09757215711805
 30
0.0
 10
19.509058973524304
 20
106.15613878038194
 30
0.0
 10
18.862759060329861
 20
104.33368326822915
 30
0.0
 10
17.745170084635415
 20
101.04086100260416
 30
0.0
 10
24.977114529079859
 20
99.806138780381929
 30
0.0
 10
23.860214572482636
 20
96.337272135416654
 30
0.0
 10
22.037759060329858
 20
90.575349934895826
 30
0.0
 10
17.275259060329859
 20
95.572805447048609
 30
0.0
 10
14.805814615885415
 20
97.630905490451383
 30
0.0
 10
9.27850341796875
 20
102.21701660156249
 30
0.0
 10
3.6933146158854164
 20
106.68530544704861
 30
0.0
 10
-1.7747409396701388
 20
111.27141655815971
 30
0.0
 10
-3.7742743598090276
 20
112.91782769097222
 30
0.0
 10
-6.3608520507812498
 20
115.62257215711804
 30
0.0
 10
-9.1830742730034718
 20
114.32893880208333
 30
0.0
  0
SPLINE
  5
38
100
AcDbEntity
  8
LAYER_1
 62
     7
100
AcDbSpline
210
0.0
220
0.0
230
1.0
 70
     8
 71
     3
 72
    11
 73
     7
 74
     0
 42
0.00000001
 43
0.00000001
 40
0.0
 40
0.0
 40
0.0
 40
0.0
 40
1.0
 40
1.0
 40
1.0
 40
2.0
 40
2.0
 40
2.0
 40
2.0
 10
-37.993718804253469
 20
54.650583224826384
 30
0.0
 10
-39.581218804253467
 20
53.651161024305551
 30
0.0
 10
-38.405063205295136
 20
50.41724989149305
 30
0.0
 10
-36.464785427517356
 20
51.534494357638884
 30
0.0
 10
-34.642329915364577
 20
52.592827690972214
 30
0.0
 10
-36.112007649739581
 20
55.826738823784716
 30
0.0
 10
-37.993718804253469
 20
54.650583224826384
 30
0.0
  0
SPLINE
  5
37
100
AcDbEntity
  8
LAYER_1
 62
     7
100
AcDbSpline
210
0.0
220
0.0
230
1.0
 70
     8
 71
     3
 72
    11
 73
     7
 74
     0
 42
0.00000001
 43
0.00000001
 40
0.0
 40
0.0
 40
0.0
 40
0.0
 40
1.0
 40
1.0
 40
1.0
 40
2.0
 40
2.0
 40
2.0
 40
2.0
 10
53.02294786241319
 20
54.297805447048603
 30
0.0
 10
51.200492350260411
 20
53.121994357638883
 30
0.0
 10
52.846558973524303
 20
49.946994357638886
 30
0.0
 10
54.904659016927077
 20
51.18171657986111
 30
0.0
 10
56.962759060329859
 20
52.416438802083327
 30
0.0
 10
54.96322564019097
 20
55.591438802083331
 30
0.0
 10
53.02294786241319
 20
54.297805447048603
 30
0.0
  0
SPLINE
  5
36
100
AcDbEntity
  8
LAYER_1
 62
     7
100
AcDbSpline
210
0.0
220
0.0
230
1.0
 70
     8
 71
     3
 72
    62
 73
    58
 74
     0
 42
0.00000001
 43
0.00000001
 40
0.0
 40
0.0
 40
0.0
 40
0.0
 40
1.0
 40
1.0
 40
1.0
 40
2.0
 40
2.0
 40
2.0
 40
3.0
 40
3.0
 40
3.0
 40
4.0
 40
4.0
 40
4.0
 40
5.0
 40
5.0
 40
5.0
 40
6.0
 40
6.0
 40
6.0
 40
7.0
 40
7.0
 40
7.0
 40
8.0
 40
8.0
 40
8.0
 40
9.0
 40
9.0
 40
9.0
 40
10.0
 40
10.0
 40
10.0
 40
11.0
 40
11.0
 40
11.0
 40
12.0
 40
12.0
 40
12.0
 40
13.0
 40
13.0
 40
13.0
 40
14.0
 40
14.0
 40
14.0
 40
15.0
 40
15.0
 40
15.0
 40
16.0
 40
16.0
 40
16.0
 40
17.0
 40
17.0
 40
17.0
 40
18.0
 40
18.0
 40
18.0
 40
19.0
 40
19.0
 40
19.0
 40
19.0
 10
27.505814615885413
 20
18.726161024305554
 30
0.0
 10
27.505814615885413
 20
18.726161024305554
 30
0.0
 10
27.505814615885413
 20
33.190049913194443
 30
0.0
 10
27.505814615885413
 20
33.190049913194443
 30
0.0
 10
27.505814615885413
 20
34.601161024305554
 30
0.0
 10
28.034981282552081
 20
37.482294379340274
 30
0.0
 10
26.917392306857636
 20
38.599194335937497
 30
0.0
 10
25.741925726996527
 20
39.775349934895829
 30
0.0
 10
17.745170084635415
 20
39.892827690972219
 30
0.0
 10
18.215770128038194
 20
37.364472113715273
 30
0.0
 10
18.803503417968749
 20
34.660072157118051
 30
0.0
 10
22.919703504774304
 20
34.013083224826389
 30
0.0
 10
23.62525906032986
 20
31.367249891493053
 30
0.0
 10
24.212992350260414
 20
29.192016601562496
 30
0.0
 10
21.449336751302081
 20
26.604749891493054
 30
0.0
 10
19.391925726996526
 20
27.604516601562498
 30
0.0
 10
15.922714572482638
 20
29.133105468749996
 30
0.0
 10
12.571325683593749
 20
32.660883246527774
 30
0.0
 10
9.7491034613715275
 20
35.18923882378472
 30
0.0
 10
6.2798923068576382
 20
38.30532769097222
 30
0.0
 10
2.5171590169270832
 20
41.245027669270833
 30
0.0
 10
-1.0691853841145833
 20
44.243638780381943
 30
0.0
 10
-3.1272854275173607
 20
45.948961046006943
 30
0.0
 10
-6.5372409396701379
 20
49.888083224826381
 30
0.0
 10
-9.5358520507812496
 20
48.242016601562497
 30
0.0
 10
-11.299740939670137
 20
47.30116102430555
 30
0.0
 10
-10.946963161892359
 20
45.125583224826386
 30
0.0
 10
-10.946963161892359
 20
43.420605468749997
 30
0.0
 10
-10.946963161892359
 20
39.128361002604166
 30
0.0
 10
-10.594185384114583
 20
34.601161024305554
 30
0.0
 10
-11.064785427517361
 20
30.36782769097222
 30
0.0
 10
-11.946729871961804
 20
22.724194335937497
 30
0.0
 10
-11.299740939670137
 20
14.72812771267361
 30
0.0
 10
-11.299740939670137
 20
7.0844943576388886
 30
0.0
 10
-11.299740939670137
 20
3.4392388237847218
 30
0.0
 10
-11.946729871961804
 20
-0.853005642361111
 30
0.0
 10
-10.417796495225694
 20
-4.2043945312499993
 30
0.0
 10
-8.3603854709201375
 20
-8.6141167534722207
 30
0.0
 10
-4.0677964952256938
 20
-11.553816731770832
 30
0.0
 10
-0.3636298285590278
 20
-14.434950086805554
 30
0.0
 10
2.8113701714409718
 20
-16.963305664062499
 30
0.0
 10
5.5743367513020825
 20
-19.609138997395831
 30
0.0
 10
9.8669257269965271
 20
-20.020483398437499
 30
0.0
 10
13.86461452907986
 20
-20.491083441840274
 30
0.0
 10
18.157203504774305
 20
-20.079394531249999
 30
0.0
 10
22.214147949218749
 20
-20.079394531249999
 30
0.0
 10
23.448870171440969
 20
-20.079394531249999
 30
0.0
 10
25.565536838107636
 20
-20.491083441840274
 30
0.0
 10
26.564614529079858
 20
-19.49131673177083
 30
0.0
 10
27.91715901692708
 20
-18.139116753472219
 30
0.0
 10
27.153036838107635
 20
-13.788305664062499
 30
0.0
 10
27.153036838107635
 20
-11.96550564236111
 30
0.0
 10
27.153036838107635
 20
-5.8508056640624995
 30
0.0
 10
27.446558973524304
 20
0.2642388237847222
 30
0.0
 10
27.505814615885413
 20
6.3789388020833329
 30
0.0
 10
27.505814615885413
 20
8.6719943576388889
 30
0.0
 10
27.505814615885413
 20
16.962272135416665
 30
0.0
 10
27.505814615885413
 20
18.726161024305554
 30
0.0
  0
SPLINE
  5
35
100
AcDbEntity
  8
LAYER_1
 62
     7
100
AcDbSpline
210
0.0
220
0.0
230
1.0
 70
     8
 71
     3
 72
    11
 73
     7
 74
     0
 42
0.00000001
 43
0.00000001
 40
0.0
 40
0.0
 40
0.0
 40
0.0
 40
1.0
 40
1.0
 40
1.0
 40
2.0
 40
2.0
 40
2.0
 40
2.0
 10
53.258592393663193
 20
17.961694335937498
 30
0.0
 10
50.906281195746523
 20
16.962272135416665
 30
0.0
 10
52.317392306857634
 20
13.375583224826388
 30
0.0
 10
54.610447862413189
 20
14.551738823784721
 30
0.0
 10
56.492159016927076
 20
15.551161024305554
 30
0.0
 10
55.316003417968744
 20
18.843638780381944
 30
0.0
 10
53.258592393663193
 20
17.961694335937498
 30
0.0
  0
SPLINE
  5
34
100
AcDbEntity
  8
LAYER_1
 62
     7
100
AcDbSpline
210
0.0
220
0.0
230
1.0
 70
     8
 71
     3
 72
    11
 73
     7
 74
     0
 42
0.00000001
 43
0.00000001
 40
0.0
 40
0.0
 40
0.0
 40
0.0
 40
1.0
 40
1.0
 40
1.0
 40
2.0
 40
2.0
 40
2.0
 40
2.0
 10
-38.110852050781247
 20
-11.318861219618055
 30
0.0
 10
-39.992563205295134
 20
-12.259372287326388
 30
0.0
 10
-38.816407606336803
 20
-15.669672309027776
 30
0.0
 10
-36.817563205295137
 20
-14.434950086805554
 30
0.0
 10
-35.347885470920133
 20
-13.553005642361111
 30
0.0
 10
-36.229829915364583
 20
-10.436916775173611
 30
0.0
 10
-38.110852050781247
 20
-11.318861219618055
 30
0.0
  0
SPLINE
  5
33
100
AcDbEntity
  8
LAYER_1
 62
     7
100
AcDbSpline
210
0.0
220
0.0
230
1.0
 70
     8
 71
     3
 72
    56
 73
    52
 74
     0
 42
0.00000001
 43
0.00000001
 40
0.0
 40
0.0
 40
0.0
 40
0.0
 40
1.0
 40
1.0
 40
1.0
 40
2.0
 40
2.0
 40
2.0
 40
3.0
 40
3.0
 40
3.0
 40
4.0
 40
4.0
 40
4.0
 40
5.0
 40
5.0
 40
5.0
 40
6.0
 40
6.0
 40
6.0
 40
7.0
 40
7.0
 40
7.0
 40
8.0
 40
8.0
 40
8.0
 40
9.0
 40
9.0
 40
9.0
 40
10.0
 40
10.0
 40
10.0
 40
11.0
 40
11.0
 40
11.0
 40
12.0
 40
12.0
 40
12.0
 40
13.0
 40
13.0
 40
13.0
 40
14.0
 40
14.0
 40
14.0
 40
15.0
 40
15.0
 40
15.0
 40
16.0
 40
16.0
 40
16.0
 40
17.0
 40
17.0
 40
17.0
 40
17.0
 10
-9.5358520507812496
 20
-17.198261176215276
 30
0.0
 10
-12.064552137586805
 20
-18.139116753472219
 30
0.0
 10
-11.652518717447915
 20
-21.078816731770832
 30
0.0
 10
-11.652518717447915
 20
-23.254394531249996
 30
0.0
 10
-11.652518717447915
 20
-23.254394531249996
 30
0.0
 10
-11.652518717447915
 20
-41.598838975694441
 30
0.0
 10
-11.652518717447915
 20
-41.598838975694441
 30
0.0
 10
-11.652518717447915
 20
-41.598838975694441
 30
0.0
 10
-11.652518717447915
 20
-59.590505642361109
 30
0.0
 10
-11.652518717447915
 20
-59.590505642361109
 30
0.0
 10
-11.652518717447915
 20
-62.530205620659714
 30
0.0
 10
-12.240941026475694
 20
-65.9994167751736
 30
0.0
 10
-11.358996582031249
 20
-68.762727864583326
 30
0.0
 10
-10.124274359809027
 20
-72.878583441840277
 30
0.0
 10
-6.7136298285590268
 20
-75.406594509548597
 30
0.0
 10
-3.5386298285590274
 20
-78.05242784288194
 30
0.0
 10
-0.5992743598090278
 20
-80.521872287326389
 30
0.0
 10
2.3407701280381943
 20
-83.520483398437491
 30
0.0
 10
5.9863701714409716
 20
-85.049416775173597
 30
0.0
 10
10.043314615885416
 20
-86.754394531249986
 30
0.0
 10
16.451881239149305
 20
-86.460527886284709
 30
0.0
 10
20.803036838107637
 20
-85.872450086805543
 30
0.0
 10
22.272714572482638
 20
-85.696061197916663
 30
0.0
 10
24.271558973524304
 20
-86.107750108506934
 30
0.0
 10
25.682670084635415
 20
-85.519672309027769
 30
0.0
 10
26.976647949218748
 20
-84.931594509548603
 30
0.0
 10
26.741003417968749
 20
-83.344094509548597
 30
0.0
 10
26.800259060329857
 20
-82.168283420138877
 30
0.0
 10
26.800259060329857
 20
-82.168283420138877
 30
0.0
 10
26.800259060329857
 20
-72.290505642361111
 30
0.0
 10
26.800259060329857
 20
-72.290505642361111
 30
0.0
 10
26.800259060329857
 20
-61.413305664062491
 30
0.0
 10
27.153036838107635
 20
-50.418283420138884
 30
0.0
 10
27.153036838107635
 20
-39.482172309027774
 30
0.0
 10
27.153036838107635
 20
-36.601038953993054
 30
0.0
 10
28.387759060329859
 20
-29.721872287326388
 30
0.0
 10
26.741003417968749
 20
-27.252427842881943
 30
0.0
 10
25.741925726996527
 20
-25.782750108506942
 30
0.0
 10
18.803503417968749
 20
-25.841316731770831
 30
0.0
 10
17.980814615885414
 20
-27.546638997395831
 30
0.0
 10
16.569703504774303
 20
-30.662727864583331
 30
0.0
 10
24.095170084635413
 20
-32.073838975694443
 30
0.0
 10
22.978270128038194
 20
-35.601616753472221
 30
0.0
 10
21.214381239149304
 20
-41.010761176215276
 30
0.0
 10
16.393314615885416
 20
-35.954394531249996
 30
0.0
 10
14.10025906032986
 20
-34.249416775173607
 30
0.0
 10
8.3379923502604161
 20
-30.016083441840276
 30
0.0
 10
2.9877590603298607
 20
-25.194672309027776
 30
0.0
 10
-2.4802964952256943
 20
-20.608561197916664
 30
0.0
 10
-4.3034410264756939
 20
-19.138538953993052
 30
0.0
 10
-6.949274359809027
 20
-16.198838975694443
 30
0.0
 10
-9.5358520507812496
 20
-17.198261176215276
 30
0.0
  0
SPLINE
  5
32
100
AcDbEntity
  8
LAYER_1
 62
     7
100
AcDbSpline
210
0.0
220
0.0
230
1.0
 70
     8
 71
     3
 72
    11
 73
     7
 74
     0
 42
0.00000001
 43
0.00000001
 40
0.0
 40
0.0
 40
0.0
 40
0.0
 40
1.0
 40
1.0
 40
1.0
 40
2.0
 40
2.0
 40
2.0
 40
2.0
 10
-38.816407606336803
 20
-77.288305664062491
 30
0.0
 10
-40.69811876085069
 20
-78.22881673177082
 30
0.0
 10
-39.698352050781246
 20
-81.8744167751736
 30
0.0
 10
-37.4645521375868
 20
-80.698261176215269
 30
0.0
 10
-35.641407606336806
 20
-79.75775010850694
 30
0.0
 10
-36.758996582031244
 20
-76.288538953993054
 30
0.0
 10
-38.816407606336803
 20
-77.288305664062491
 30
0.0
  0
SPLINE
  5
31
100
AcDbEntity
  8
LAYER_1
 62
     7
100
AcDbSpline
210
0.0
220
0.0
230
1.0
 70
     8
 71
     3
 72
    11
 73
     7
 74
     0
 42
0.00000001
 43
0.00000001
 40
0.0
 40
0.0
 40
0.0
 40
0.0
 40
1.0
 40
1.0
 40
1.0
 40
2.0
 40
2.0
 40
2.0
 40
2.0
 10
52.905814615885411
 20
-77.582172309027769
 30
0.0
 10
50.553503417968749
 20
-78.111338975694437
 30
0.0
 10
51.200492350260411
 20
-81.991894531249997
 30
0.0
 10
53.552114529079859
 20
-81.286338975694434
 30
0.0
 10
55.551647949218747
 20
-80.639694552951383
 30
0.0
 10
55.081047905815964
 20
-77.111916775173597
 30
0.0
 10
52.905814615885411
 20
-77.582172309027769
 30
0.0
  0
SPLINE
  5
30
100
AcDbEntity
  8
LAYER_1
 62
     7
100
AcDbSpline
210
0.0
220
0.0
230
1.0
 70
     8
 71
     3
 72
    50
 73
    46
 74
     0
 42
0.00000001
 43
0.00000001
 40
0.0
 40
0.0
 40
0.0
 40
0.0
 40
1.0
 40
1.0
 40
1.0
 40
2.0
 40
2.0
 40
2.0
 40
3.0
 40
3.0
 40
3.0
 40
4.0
 40
4.0
 40
4.0
 40
5.0
 40
5.0
 40
5.0
 40
6.0
 40
6.0
 40
6.0
 40
7.0
 40
7.0
 40
7.0
 40
8.0
 40
8.0
 40
8.0
 40
9.0
 40
9.0
 40
9.0
 40
10.0
 40
10.0
 40
10.0
 40
11.0
 40
11.0
 40
11.0
 40
12.0
 40
12.0
 40
12.0
 40
13.0
 40
13.0
 40
13.0
 40
14.0
 40
14.0
 40
14.0
 40
15.0
 40
15.0
 40
15.0
 40
15.0
 10
-10.241407606336805
 20
-83.873261176215266
 30
0.0
 10
-12.417329915364583
 20
-84.755205620659709
 30
0.0
 10
-12.005296495225693
 20
-87.342472330729166
 30
0.0
 10
-12.005296495225693
 20
-89.223838975694434
 30
0.0
 10
-12.005296495225693
 20
-94.398027886284709
 30
0.0
 10
-11.711774359809027
 20
-99.630783420138883
 30
0.0
 10
-12.064552137586805
 20
-104.74606119791666
 30
0.0
 10
-12.53446316189236
 20
-111.9780056423611
 30
0.0
 10
-14.18121880425347
 20
-122.62025010850694
 30
0.0
 10
-11.593952094184028
 20
-129.4405056423611
 30
0.0
 10
-10.182840983072916
 20
-133.02719455295139
 30
0.0
 10
-7.0664076063368046
 20
-135.26133897569443
 30
0.0
 10
-4.2441853841145827
 20
-137.61330566406249
 30
0.0
 10
-1.3048299153645833
 20
-140.08275010850693
 30
0.0
 10
1.6352145724826388
 20
-143.13992784288192
 30
0.0
 10
5.2808146158854159
 20
-144.60995008680555
 30
0.0
 10
8.8085923936631936
 20
-146.07997233072916
 30
0.0
 10
13.100492350260415
 20
-145.66828342013886
 30
0.0
 10
16.922481282552081
 20
-145.66828342013886
 30
0.0
 10
19.156281195746526
 20
-145.66828342013886
 30
0.0
 10
22.860447862413192
 20
-146.37383897569444
 30
0.0
 10
24.977114529079859
 20
-145.4329833984375
 30
0.0
 10
27.446558973524304
 20
-144.31608344184028
 30
0.0
 10
26.447481282552079
 20
-136.02580566406249
 30
0.0
 10
26.447481282552079
 20
-133.67383897569442
 30
0.0
 10
26.447481282552079
 20
-133.67383897569442
 30
0.0
 10
26.447481282552079
 20
-104.39328342013889
 30
0.0
 10
26.447481282552079
 20
-104.39328342013889
 30
0.0
 10
26.447481282552079
 20
-101.80636121961804
 30
0.0
 10
27.564381239149302
 20
-95.80913899739582
 30
0.0
 10
26.035447862413193
 20
-93.574650065104152
 30
0.0
 10
25.036370171440971
 20
-92.104972330729154
 30
0.0
 10
18.450725640190971
 20
-92.16353895399304
 30
0.0
 10
17.628036838107636
 20
-93.86886121961804
 30
0.0
 10
16.040536838107638
 20
-97.161338975694434
 30
0.0
 10
24.271558973524304
 20
-98.454972330729163
 30
0.0
 10
22.449103461371525
 20
-102.27661675347221
 30
0.0
 10
20.097481282552081
 20
-107.27441677517361
 30
0.0
 10
15.922714572482638
 20
-102.39409450954861
 30
0.0
 10
13.394703504774304
 20
-100.39525010850693
 30
0.0
 10
7.8088256835937493
 20
-96.103005642361097
 30
0.0
 10
2.5171590169270832
 20
-91.516894531249989
 30
0.0
 10
-2.8330742730034721
 20
-87.048261176215263
 30
0.0
 10
-4.8326076931423607
 20
-85.460761176215271
 30
0.0
 10
-7.4784410264756938
 20
-82.756361219618043
 30
0.0
 10
-10.241407606336805
 20
-83.873261176215266
 30
0.0
  0
SPLINE
  5
2F
100
AcDbEntity
  8
LAYER_1
 62
     7
100
AcDbSpline
210
0.0
220
0.0
230
1.0
 70
     8
 71
     3
 72
    11
 73
     7
 74
     0
 42
0.00000001
 43
0.00000001
 40
0.0
 40
0.0
 40
0.0
 40
0.0
 40
1.0
 40
1.0
 40
1.0
 40
2.0
 40
2.0
 40
2.0
 40
2.0
 10
51.964614529079853
 20
-114.32997233072916
 30
0.0
 10
49.847947862413193
 20
-115.56469455295138
 30
0.0
 10
51.788225640190966
 20
-118.68078342013888
 30
0.0
 10
53.846325683593747
 20
-117.38715006510415
 30
0.0
 10
55.904425726996521
 20
-116.15242784288193
 30
0.0
 10
53.964147949218749
 20
-113.09525010850693
 30
0.0
 10
51.964614529079853
 20
-114.32997233072916
 30
0.0
  0
SPLINE
  5
2E
100
AcDbEntity
  8
LAYER_1
 62
     7
100
AcDbSpline
210
0.0
220
0.0
230
1.0
 70
     8
 71
     3
 72
    11
 73
     7
 74
     0
 42
0.00000001
 43
0.00000001
 40
0.0
 40
0.0
 40
0.0
 40
0.0
 40
1.0
 40
1.0
 40
1.0
 40
2.0
 40
2.0
 40
2.0
 40
2.0
 10
-39.757607693142354
 20
-143.6105278862847
 30
0.0
 10
-41.521496582031247
 20
-144.72742784288192
 30
0.0
 10
-40.110385470920136
 20
-147.60856119791666
 30
0.0
 10
-38.170107693142356
 20
-146.66770562065972
 30
0.0
 10
-36.112007649739581
 20
-145.66828342013886
 30
0.0
 10
-37.69950764973958
 20
-142.31689453125
 30
0.0
 10
-39.757607693142354
 20
-143.6105278862847
 30
0.0
  0
SPLINE
  5
2D
100
AcDbEntity
  8
LAYER_1
 62
     7
100
AcDbSpline
210
0.0
220
0.0
230
1.0
 70
     8
 71
     3
 72
    47
 73
    43
 74
     0
 42
0.00000001
 43
0.00000001
 40
0.0
 40
0.0
 40
0.0
 40
0.0
 40
1.0
 40
1.0
 40
1.0
 40
2.0
 40
2.0
 40
2.0
 40
3.0
 40
3.0
 40
3.0
 40
4.0
 40
4.0
 40
4.0
 40
5.0
 40
5.0
 40
5.0
 40
6.0
 40
6.0
 40
6.0
 40
7.0
 40
7.0
 40
7.0
 40
8.0
 40
8.0
 40
8.0
 40
9.0
 40
9.0
 40
9.0
 40
10.0
 40
10.0
 40
10.0
 40
11.0
 40
11.0
 40
11.0
 40
12.0
 40
12.0
 40
12.0
 40
13.0
 40
13.0
 40
13.0
 40
14.0
 40
14.0
 40
14.0
 40
14.0
 10
-10.241407606336805
 20
-149.78413899739581
 30
0.0
 10
-13.475663248697915
 20
-150.54826117621528
 30
0.0
 10
-12.710852050781249
 20
-154.48772786458332
 30
0.0
 10
-12.710852050781249
 20
-156.95717230902775
 30
0.0
 10
-12.710852050781249
 20
-163.83633897569442
 30
0.0
 10
-13.063629828559026
 20
-170.6565945095486
 30
0.0
 10
-13.063629828559026
 20
-177.41828342013886
 30
0.0
 10
-13.063629828559026
 20
-179.18217230902775
 30
0.0
 10
-13.828441026475693
 20
-183.23911675347222
 30
0.0
 10
-12.710852050781249
 20
-184.65022786458331
 30
0.0
 10
-11.535385470920138
 20
-186.12025010850692
 30
0.0
 10
-5.7145521375868054
 20
-185.17939453124998
 30
0.0
 10
-3.8914076063368053
 20
-185.17939453124998
 30
0.0
 10
-3.8914076063368053
 20
-185.17939453124998
 30
0.0
 10
16.922481282552081
 20
-185.17939453124998
 30
0.0
 10
16.922481282552081
 20
-185.17939453124998
 30
0.0
 10
19.156281195746526
 20
-185.17939453124998
 30
0.0
 10
23.21322564019097
 20
-186.00242784288193
 30
0.0
 10
25.271325683593748
 20
-185.0030056423611
 30
0.0
 10
26.741003417968749
 20
-184.29745008680553
 30
0.0
 10
26.094703504774301
 20
-180.59328342013887
 30
0.0
 10
26.094703504774301
 20
-179.18217230902775
 30
0.0
 10
26.094703504774301
 20
-179.18217230902775
 30
0.0
 10
26.094703504774301
 20
-164.36550564236109
 30
0.0
 10
26.094703504774301
 20
-164.36550564236109
 30
0.0
 10
26.094703504774301
 20
-162.89548339843748
 30
0.0
 10
26.62387017144097
 20
-160.13217230902777
 30
0.0
 10
24.977114529079859
 20
-159.36770562065971
 30
0.0
 10
23.683825683593749
 20
-158.77997233072915
 30
0.0
 10
17.157436794704861
 20
-158.42719455295136
 30
0.0
 10
16.863225640190972
 20
-160.24965006510416
 30
0.0
 10
16.451881239149305
 20
-163.18969455295138
 30
0.0
 10
22.625492350260416
 20
-164.3065945095486
 30
0.0
 10
22.214147949218749
 20
-167.5405056423611
 30
0.0
 10
21.449336751302081
 20
-173.83159450954861
 30
0.0
 10
15.746325683593749
 20
-169.18691677517359
 30
0.0
 10
13.394703504774304
 20
-167.36411675347222
 30
0.0
 10
7.75025906032986
 20
-162.89548339843748
 30
0.0
 10
2.3407701280381943
 20
-158.13298339843749
 30
0.0
 10
-3.1858520507812496
 20
-153.60578342013886
 30
0.0
 10
-5.0089965820312496
 20
-152.13576117621525
 30
0.0
 10
-7.6548299153645827
 20
-149.19606119791666
 30
0.0
 10
-10.241407606336805
 20
-149.78413899739581
 30
0.0
  0
SPLINE
  5
2C
100
AcDbEntity
  8
LAYER_1
 62
     7
100
AcDbSpline
210
0.0
220
0.0
230
1.0
 70
     8
 71
     3
 72
    11
 73
     7
 74
     0
 42
0.00000001
 43
0.00000001
 40
0.0
 40
0.0
 40
0.0
 40
0.0
 40
1.0
 40
1.0
 40
1.0
 40
2.0
 40
2.0
 40
2.0
 40
2.0
 10
6.6919257269965273
 20
-153.07661675347219
 30
0.0
 10
4.1046590169270827
 20
-153.60578342013886
 30
0.0
 10
4.6338256835937495
 20
-158.19189453124997
 30
0.0
 10
7.3382256401909718
 20
-157.36886121961805
 30
0.0
 10
9.7491034613715275
 20
-156.72187228732636
 30
0.0
 10
9.27850341796875
 20
-152.54745008680555
 30
0.0
 10
6.6919257269965273
 20
-153.07661675347219
 30
0.0
  0
ENDBLK
  5
41
100
AcDbEntity
  8
LAYER_1
100
AcDbBlockEnd
  0
BLOCK
  5
44
100
AcDbEntity
  8
LAYER_1
 62
     7
100
AcDbBlockBegin
  2
AI9-BLK2
 70
     0
 10
0.0
 20
0.0
 30
0.0
  3
AI9-BLK2
  1

  0
SPLINE
  5
4C
100
AcDbEntity
  8
LAYER_1
 62
     7
100
AcDbSpline
210
0.0
220
0.0
230
1.0
 70
     8
 71
     3
 72
   272
 73
   268
 74
     0
 42
0.00000001
 43
0.00000001
 40
0.0
 40
0.0
 40
0.0
 40
0.0
 40
1.0
 40
1.0
 40
1.0
 40
2.0
 40
2.0
 40
2.0
 40
3.0
 40
3.0
 40
3.0
 40
4.0
 40
4.0
 40
4.0
 40
5.0
 40
5.0
 40
5.0
 40
6.0
 40
6.0
 40
6.0
 40
7.0
 40
7.0
 40
7.0
 40
8.0
 40
8.0
 40
8.0
 40
9.0
 40
9.0
 40
9.0
 40
10.0
 40
10.0
 40
10.0
 40
11.0
 40
11.0
 40
11.0
 40
12.0
 40
12.0
 40
12.0
 40
13.0
 40
13.0
 40
13.0
 40
14.0
 40
14.0
 40
14.0
 40
15.0
 40
15.0
 40
15.0
 40
16.0
 40
16.0
 40
16.0
 40
17.0
 40
17.0
 40
17.0
 40
18.0
 40
18.0
 40
18.0
 40
19.0
 40
19.0
 40
19.0
 40
20.0
 40
20.0
 40
20.0
 40
21.0
 40
21.0
 40
21.0
 40
22.0
 40
22.0
 40
22.0
 40
23.0
 40
23.0
 40
23.0
 40
24.0
 40
24.0
 40
24.0
 40
25.0
 40
25.0
 40
25.0
 40
26.0
 40
26.0
 40
26.0
 40
27.0
 40
27.0
 40
27.0
 40
28.0
 40
28.0
 40
28.0
 40
29.0
 40
29.0
 40
29.0
 40
30.0
 40
30.0
 40
30.0
 40
31.0
 40
31.0
 40
31.0
 40
32.0
 40
32.0
 40
32.0
 40
33.0
 40
33.0
 40
33.0
 40
34.0
 40
34.0
 40
34.0
 40
35.0
 40
35.0
 40
35.0
 40
36.0
 40
36.0
 40
36.0
 40
37.0
 40
37.0
 40
37.0
 40
38.0
 40
38.0
 40
38.0
 40
39.0
 40
39.0
 40
39.0
 40
40.0
 40
40.0
 40
40.0
 40
41.0
 40
41.0
 40
41.0
 40
42.0
 40
42.0
 40
42.0
 40
43.0
 40
43.0
 40
43.0
 40
44.0
 40
44.0
 40
44.0
 40
45.0
 40
45.0
 40
45.0
 40
46.0
 40
46.0
 40
46.0
 40
47.0
 40
47.0
 40
47.0
 40
48.0
 40
48.0
 40
48.0
 40
49.0
 40
49.0
 40
49.0
 40
50.0
 40
50.0
 40
50.0
 40
51.0
 40
51.0
 40
51.0
 40
52.0
 40
52.0
 40
52.0
 40
53.0
 40
53.0
 40
53.0
 40
54.0
 40
54.0
 40
54.0
 40
55.0
 40
55.0
 40
55.0
 40
56.0
 40
56.0
 40
56.0
 40
57.0
 40
57.0
 40
57.0
 40
58.0
 40
58.0
 40
58.0
 40
59.0
 40
59.0
 40
59.0
 40
60.0
 40
60.0
 40
60.0
 40
61.0
 40
61.0
 40
61.0
 40
62.0
 40
62.0
 40
62.0
 40
63.0
 40
63.0
 40
63.0
 40
64.0
 40
64.0
 40
64.0
 40
65.0
 40
65.0
 40
65.0
 40
66.0
 40
66.0
 40
66.0
 40
67.0
 40
67.0
 40
67.0
 40
68.0
 40
68.0
 40
68.0
 40
69.0
 40
69.0
 40
69.0
 40
70.0
 40
70.0
 40
70.0
 40
71.0
 40
71.0
 40
71.0
 40
72.0
 40
72.0
 40
72.0
 40
73.0
 40
73.0
 40
73.0
 40
74.0
 40
74.0
 40
74.0
 40
75.0
 40
75.0
 40
75.0
 40
76.0
 40
76.0
 40
76.0
 40
77.0
 40
77.0
 40
77.0
 40
78.0
 40
78.0
 40
78.0
 40
79.0
 40
79.0
 40
79.0
 40
80.0
 40
80.0
 40
80.0
 40
81.0
 40
81.0
 40
81.0
 40
82.0
 40
82.0
 40
82.0
 40
83.0
 40
83.0
 40
83.0
 40
84.0
 40
84.0
 40
84.0
 40
85.0
 40
85.0
 40
85.0
 40
86.0
 40
86.0
 40
86.0
 40
87.0
 40
87.0
 40
87.0
 40
88.0
 40
88.0
 40
88.0
 40
89.0
 40
89.0
 40
89.0
 40
89.0
 10
40.064565700954859
 20
320.30525512695311
 30
0.0
 10
35.067110188802083
 20
319.48222181532117
 30
0.0
 10
34.067343478732639
 20
315.30745510525173
 30
0.0
 10
34.067343478732639
 20
310.95664401584196
 30
0.0
 10
34.008776855468746
 20
304.72412177191836
 30
0.0
 10
36.419654676649301
 20
293.0238884819878
 30
0.0
 10
30.833776855468749
 20
288.84912177191836
 30
0.0
 10
28.129376898871524
 20
286.7913662380642
 30
0.0
 10
23.543265787760415
 20
287.67331068250866
 30
0.0
 10
20.309010145399302
 20
287.67331068250866
 30
0.0
 10
20.309010145399302
 20
287.67331068250866
 30
0.0
 10
-5.4437676323784716
 20
287.67331068250866
 30
0.0
 10
-5.4437676323784716
 20
287.67331068250866
 30
0.0
 10
-8.5009453667534718
 20
287.67331068250866
 30
0.0
 10
-15.967845323350693
 20
289.02551066080724
 30
0.0
 10
-17.908123101128471
 20
286.20328843858505
 30
0.0
 10
-19.43705647786458
 20
284.02805514865452
 30
0.0
 10
-18.496545410156248
 20
279.26555514865447
 30
0.0
 10
-18.496545410156248
 20
276.73719957139753
 30
0.0
 10
-18.496545410156248
 20
276.73719957139753
 30
0.0
 10
-18.496545410156248
 20
252.74831068250865
 30
0.0
 10
-18.496545410156248
 20
252.74831068250865
 30
0.0
 10
-18.496545410156248
 20
250.5141662597656
 30
0.0
 10
-17.378956434461806
 20
243.16439954969616
 30
0.0
 10
-19.319234212239582
 20
241.87111070421005
 30
0.0
 10
-21.671545410156249
 20
240.28361070421005
 30
0.0
 10
-27.785900878906247
 20
241.45942179361978
 30
0.0
 10
-30.490989854600691
 20
241.45942179361978
 30
0.0
 10
-30.490989854600691
 20
241.45942179361978
 30
0.0
 10
-40.368767632378471
 20
241.45942179361978
 30
0.0
 10
-40.368767632378471
 20
241.45942179361978
 30
0.0
 10
-41.54423421223958
 20
241.45942179361978
 30
0.0
 10
-43.48451199001736
 20
241.10664401584199
 30
0.0
 10
-44.425712076822911
 20
241.98858846028642
 30
0.0
 10
-46.189600965711804
 20
243.75247734917534
 30
0.0
 10
-44.95487874348958
 20
250.69055514865448
 30
0.0
 10
-44.95487874348958
 20
253.10108846028643
 30
0.0
 10
-44.95487874348958
 20
260.27412177191837
 30
0.0
 10
-45.072011990017359
 20
267.38858846028643
 30
0.0
 10
-44.95487874348958
 20
274.62053290473085
 30
0.0
 10
-44.95487874348958
 20
277.73662177191835
 30
0.0
 10
-44.131500922309023
 20
281.79356621636282
 30
0.0
 10
-44.778489854600693
 20
284.85108846028641
 30
0.0
 10
-45.072011990017359
 20
286.20328843858505
 30
0.0
 10
-46.071778700086803
 20
287.43801066080727
 30
0.0
 10
-47.482889811197914
 20
287.84969957139754
 30
0.0
 10
-51.18705647786458
 20
288.84912177191836
 30
0.0
 10
-56.302334255642357
 20
288.02608846028642
 30
0.0
 10
-60.124323187934024
 20
288.02608846028642
 30
0.0
 10
-61.770389811197909
 20
287.96717732747391
 30
0.0
 10
-63.652100965711803
 20
288.14356621636284
 30
0.0
 10
-65.003956434461799
 20
287.02666625976559
 30
0.0
 10
-66.532889811197904
 20
285.79194403754337
 30
0.0
 10
-66.18011203342013
 20
283.43997734917531
 30
0.0
 10
-66.121545410156244
 20
281.67608846028645
 30
0.0
 10
-66.121545410156244
 20
279.32412177191839
 30
0.0
 10
-65.121778700086793
 20
277.85444403754337
 30
0.0
 10
-64.769000922309019
 20
275.67886623806419
 30
0.0
 10
-64.29840087890625
 20
272.44495510525172
 30
0.0
 10
-64.945389811197913
 20
269.03499959309892
 30
0.0
 10
-64.769000922309019
 20
265.80108846028645
 30
0.0
 10
-63.769234212239574
 20
245.63384399414059
 30
0.0
 10
-65.063212076822907
 20
224.93777737087672
 30
0.0
 10
-65.063212076822907
 20
204.77053290473089
 30
0.0
 10
-65.063212076822907
 20
121.04472181532117
 30
0.0
 10
-66.827100965711793
 20
37.259999593098954
 30
0.0
 10
-66.827100965711793
 20
-46.407244873046871
 30
0.0
 10
-66.827100965711793
 20
-91.445322672526032
 30
0.0
 10
-67.532656521267356
 20
-136.48305596245658
 30
0.0
 10
-67.532656521267356
 20
-181.52113376193574
 30
0.0
 10
-67.532656521267356
 20
-194.51500040690104
 30
0.0
 10
-67.88543429904513
 20
-207.39138929578991
 30
0.0
 10
-67.88543429904513
 20
-220.32668931749129
 30
0.0
 10
-67.88543429904513
 20
-225.26557820638018
 30
0.0
 10
-69.472934299045136
 20
-231.90944485134546
 30
0.0
 10
-67.649789767795127
 20
-236.55446709526908
 30
0.0
 10
-65.474556477864581
 20
-242.25782267252603
 30
0.0
 10
-58.24261203342013
 20
-240.7878004286024
 30
0.0
 10
-53.421545410156249
 20
-240.7878004286024
 30
0.0
 10
-51.304878743489581
 20
-240.7878004286024
 30
0.0
 10
-48.129878743489577
 20
-240.14115600585936
 30
0.0
 10
-47.247934299045134
 20
-242.61060045030379
 30
0.0
 10
-44.778489854600693
 20
-249.19555596245658
 30
0.0
 10
-43.543767632378469
 20
-256.60388929578988
 30
0.0
 10
-41.838445366753469
 20
-263.36557820638018
 30
0.0
 10
-38.898400878906244
 20
-275.18363376193577
 30
0.0
 10
-35.841223144531249
 20
-286.94277818467879
 30
0.0
 10
-32.666223144531244
 20
-298.64335598415795
 30
0.0
 10
-31.431500922309024
 20
-303.22946709526906
 30
0.0
 10
-30.196778700086803
 20
-307.81557820638017
 30
0.0
 10
-29.07987874348958
 20
-312.40168931749128
 30
0.0
 10
-28.432889811197914
 20
-314.93004489474822
 30
0.0
 10
-28.138678656684025
 20
-317.57587822808159
 30
0.0
 10
-25.904878743489579
 20
-319.28085598415794
 30
0.0
 10
-23.376178656684026
 20
-321.16222262912322
 30
0.0
 10
-19.67201199001736
 20
-320.51557820638016
 30
0.0
 10
-16.732656521267359
 20
-320.51557820638016
 30
0.0
 10
-9.5007120768229161
 20
-320.51557820638016
 30
0.0
 10
-1.3868231879340276
 20
-321.57391153971349
 30
0.0
 10
5.8451212565104163
 20
-320.4566670735677
 30
0.0
 10
12.665721299913193
 20
-319.39833374023436
 30
0.0
 10
13.136321343315972
 20
-308.16835598415798
 30
0.0
 10
14.66456570095486
 20
-302.8766893174913
 30
0.0
 10
20.309010145399302
 20
-284.00307820638017
 30
0.0
 10
25.012943522135416
 20
-264.77668931749128
 30
0.0
 10
30.30461018880208
 20
-245.72668931749129
 30
0.0
 10
30.657387966579858
 20
-244.49196709526908
 30
0.0
 10
30.833776855468749
 20
-242.31638929578992
 30
0.0
 10
32.00993245442708
 20
-241.55226711697046
 30
0.0
 10
33.53817681206597
 20
-240.55250040690103
 30
0.0
 10
36.830999077690969
 20
-241.14057820638018
 30
0.0
 10
38.653454589843747
 20
-241.14057820638018
 30
0.0
 10
44.004376898871527
 20
-241.14057820638018
 30
0.0
 10
49.472432454427079
 20
-241.08166707356767
 30
0.0
 10
54.881232367621521
 20
-241.1994893391927
 30
0.0
 10
57.879843478732631
 20
-241.1994893391927
 30
0.0
 10
60.525676812065967
 20
-241.84613376193573
 30
0.0
 10
62.87798800998263
 20
-239.3766893174913
 30
0.0
 10
66.875676812065961
 20
-235.14335598415798
 30
0.0
 10
64.759010145399301
 20
-225.03027818467879
 30
0.0
 10
64.759010145399301
 20
-219.62113376193574
 30
0.0
 10
64.759010145399301
 20
-204.3927781846788
 30
0.0
 10
65.46456570095485
 20
-189.04694485134547
 30
0.0
 10
65.46456570095485
 20
-173.76002265082462
 30
0.0
 10
65.46456570095485
 20
-168.76222262912324
 30
0.0
 10
67.052065700954856
 20
-160.29555596245658
 30
0.0
 10
64.759010145399301
 20
-155.82726711697046
 30
0.0
 10
63.465721299913191
 20
-153.35782267252603
 30
0.0
 10
60.878454589843741
 20
-152.59335598415797
 30
0.0
 10
58.761787923177081
 20
-151.12333374023436
 30
0.0
 10
55.234010145399303
 20
-148.71280042860241
 30
0.0
 10
50.530765787760409
 20
-143.48004489474826
 30
0.0
 10
50.647899034288187
 20
-138.89393378363715
 30
0.0
 10
50.707154676649303
 20
-136.1891893174913
 30
0.0
 10
53.999287923177079
 20
-135.66002265082463
 30
0.0
 10
55.939565700954859
 20
-134.6606004503038
 30
0.0
 10
58.82104356553819
 20
-133.13166707356768
 30
0.0
 10
61.466876898871526
 20
-130.42726711697048
 30
0.0
 10
63.054376898871524
 20
-127.54613376193575
 30
0.0
 10
67.581232367621524
 20
-119.78502265082464
 30
0.0
 10
66.170121256510413
 20
-108.73143378363714
 30
0.0
 10
65.817343478732639
 20
-100.02946709526908
 30
0.0
 10
65.640954589843744
 20
-97.030855984157981
 30
0.0
 10
66.405765787760416
 20
-93.444167073567698
 30
0.0
 10
65.523821343315973
 20
-90.504467095269092
 30
0.0
 10
64.582621256510407
 20
-87.505855984157975
 30
0.0
 10
61.466876898871526
 20
-86.447522650824638
 30
0.0
 10
59.114565700954856
 20
-84.801111518012149
 30
0.0
 10
55.646043565538193
 20
-82.390578206380198
 30
0.0
 10
50.88354356553819
 20
-77.157822672526038
 30
0.0
 10
51.059932454427077
 20
-72.571711561414929
 30
0.0
 10
51.236321343315964
 20
-69.866967095269089
 30
0.0
 10
54.764099121093743
 20
-69.396711561414918
 30
0.0
 10
56.645121256510414
 20
-68.279467095269098
 30
0.0
 10
59.87937689887152
 20
-66.339189317491318
 30
0.0
 10
62.348821343315969
 20
-63.516967095269088
 30
0.0
 10
64.112710232204861
 20
-60.165578206380204
 30
0.0
 10
67.40484347873263
 20
-53.815578206380202
 30
0.0
 10
66.170121256510413
 20
-45.642778184678818
 30
0.0
 10
66.170121256510413
 20
-38.646133761935758
 30
0.0
 10
66.170121256510413
 20
-34.353889295789926
 30
0.0
 10
66.699287923177081
 20
-29.532822672526038
 30
0.0
 10
66.052988009982627
 20
-25.240578206380206
 30
0.0
 10
65.523821343315973
 20
-21.712800428602428
 30
0.0
 10
62.407387966579854
 20
-20.654467095269094
 30
0.0
 10
59.820121256510411
 20
-18.890578206380205
 30
0.0
 10
56.292343478732633
 20
-16.597522650824651
 30
0.0
 10
51.059932454427077
 20
-11.305855984157985
 30
0.0
 10
51.412710232204859
 20
-6.5433559841579854
 30
0.0
 10
51.647665744357631
 20
-3.4272671169704858
 30
0.0
 10
58.938176812065969
 20
-1.0163892957899305
 30
0.0
 10
61.054843478732636
 20
1.2766662597656249
 30
0.0
 10
65.700210232204853
 20
6.156644015842013
 30
0.0
 10
66.75854356553819
 20
12.683032904730903
 30
0.0
 10
66.817110188802076
 20
19.209421793619789
 30
0.0
 10
66.934932454427084
 20
24.383610704210067
 30
0.0
 10
66.522899034288187
 20
29.498888481987844
 30
0.0
 10
66.522899034288187
 20
34.731644015842008
 30
0.0
 10
66.522899034288187
 20
37.318566216362846
 30
0.0
 10
66.99349907769097
 20
40.434999593098958
 30
0.0
 10
65.582387966579859
 20
42.786621771918398
 30
0.0
 10
64.347665744357627
 20
44.903288438585065
 30
0.0
 10
62.05461018880208
 20
45.608843994140621
 30
0.0
 10
60.172899034288186
 20
46.902477349175342
 30
0.0
 10
56.645121256510414
 20
49.371921793619791
 30
0.0
 10
51.000676812065969
 20
55.251666259765621
 30
0.0
 10
51.882621256510411
 20
60.072732883029509
 30
0.0
 10
52.353221299913187
 20
62.601088460286455
 30
0.0
 10
57.233543565538191
 20
63.659421793619785
 30
0.0
 10
59.114565700954856
 20
65.070532904730896
 30
0.0
 10
63.230765787760411
 20
68.304444037543391
 30
0.0
 10
65.817343478732639
 20
72.596343994140625
 30
0.0
 10
66.75854356553819
 20
77.770532904730899
 30
0.0
 10
68.051832411024293
 20
84.649699571397562
 30
0.0
 10
67.22845458984375
 20
92.234421793619788
 30
0.0
 10
67.22845458984375
 20
99.289977349175345
 30
0.0
 10
67.22845458984375
 20
102.34749959309895
 30
0.0
 10
67.757621256510404
 20
105.99275512695311
 30
0.0
 10
66.287943522135407
 20
108.75606621636284
 30
0.0
 10
64.994654676649304
 20
111.22551066080729
 30
0.0
 10
62.230999077690967
 20
112.10745510525173
 30
0.0
 10
60.172899034288186
 20
113.63638848198784
 30
0.0
 10
57.35067681206597
 20
115.7530551486545
 30
0.0
 10
54.881232367621521
 20
118.57527737087672
 30
0.0
 10
53.529376898871526
 20
121.86775512695311
 30
0.0
 10
53.000210232204857
 20
122.98499959309895
 30
0.0
 10
52.118265787760414
 20
124.74888848198783
 30
0.0
 10
52.41178792317708
 20
126.04217732747395
 30
0.0
 10
52.940954589843749
 20
128.51162177191839
 30
0.0
 10
56.233776855468747
 20
129.09969957139757
 30
0.0
 10
58.056232367621526
 20
130.21694403754339
 30
0.0
 10
61.114099121093744
 20
132.09831068250867
 30
0.0
 10
63.642110188802079
 20
134.80305514865449
 30
0.0
 10
65.28817681206597
 20
138.0955329047309
 30
0.0
 10
69.168732367621516
 20
145.79773288302951
 30
0.0
 10
67.581232367621524
 20
156.49888848198782
 30
0.0
 10
67.581232367621524
 20
164.90664401584201
 30
0.0
 10
67.581232367621524
 20
168.1405551486545
 30
0.0
 10
68.169654676649301
 20
172.13858846028646
 30
0.0
 10
66.405765787760416
 20
175.07828843858505
 30
0.0
 10
65.111787923177076
 20
177.31277737087672
 30
0.0
 10
62.818732367621521
 20
177.95942179361978
 30
0.0
 10
60.878454589843741
 20
179.37053290473088
 30
0.0
 10
57.644887966579859
 20
181.60467732747395
 30
0.0
 10
51.824054633246526
 20
187.54333292643227
 30
0.0
 10
52.588176812065967
 20
192.01162177191839
 30
0.0
 10
52.940954589843749
 20
194.18719957139754
 30
0.0
 10
55.646043565538193
 20
194.83384399414061
 30
0.0
 10
57.35067681206597
 20
195.65722181532115
 30
0.0
 10
60.172899034288186
 20
197.12689954969616
 30
0.0
 10
62.583776855468741
 20
199.24356621636284
 30
0.0
 10
64.347665744357627
 20
201.94831068250866
 30
0.0
 10
69.227988009982639
 20
209.2391662597656
 30
0.0
 10
67.934010145399299
 20
218.58777737087672
 30
0.0
 10
67.934010145399299
 20
226.99553290473088
 30
0.0
 10
67.934010145399299
 20
243.92886623806422
 30
0.0
 10
68.286787923177073
 20
260.86219957139753
 30
0.0
 10
68.286787923177073
 20
277.79553290473086
 30
0.0
 10
68.286787923177073
 20
277.79553290473086
 30
0.0
 10
68.286787923177073
 20
294.37608846028644
 30
0.0
 10
68.286787923177073
 20
294.37608846028644
 30
0.0
 10
68.286787923177073
 20
296.31636623806423
 30
0.0
 10
68.87521023220485
 20
299.60884399414061
 30
0.0
 10
67.875443522135413
 20
301.37273288302947
 30
0.0
 10
67.052065700954856
 20
302.96023288302951
 30
0.0
 10
65.229610188802084
 20
302.78384399414062
 30
0.0
 10
63.700676812065964
 20
302.84275512695308
 30
0.0
 10
59.937943522135413
 20
302.84275512695308
 30
0.0
 10
56.057387966579853
 20
303.13662177191839
 30
0.0
 10
52.41178792317708
 20
302.96023288302951
 30
0.0
 10
50.412943522135414
 20
302.78384399414062
 30
0.0
 10
47.296510145399303
 20
302.72527737087671
 30
0.0
 10
46.767343478732634
 20
305.25328843858506
 30
0.0
 10
46.17961018880208
 20
308.31081068250865
 30
0.0
 10
52.1768324110243
 20
307.36995510525173
 30
0.0
 10
53.822899034288191
 20
307.42886623806419
 30
0.0
 10
56.997899034288189
 20
307.4877773708767
 30
0.0
 10
64.053454589843739
 20
306.54692179361979
 30
0.0
 10
66.817110188802076
 20
308.13442179361977
 30
0.0
 10
68.992343478732636
 20
309.31023288302947
 30
0.0
 10
68.639565700954861
 20
314.54333292643224
 30
0.0
 10
67.934010145399299
 20
316.60108846028641
 30
0.0
 10
67.052065700954856
 20
319.24692179361978
 30
0.0
 10
64.524054633246521
 20
320.2463439941406
 30
0.0
 10
61.936787923177079
 20
320.42273288302948
 30
0.0
 10
55.116876898871524
 20
320.89333292643227
 30
0.0
 10
46.767343478732634
 20
321.36358846028645
 30
0.0
 10
40.064565700954859
 20
320.30525512695311
 30
0.0
  0
SPLINE
  5
4B
100
AcDbEntity
  8
LAYER_1
 62
     7
100
AcDbSpline
210
0.0
220
0.0
230
1.0
 70
     8
 71
     3
 72
    32
 73
    28
 74
     0
 42
0.00000001
 43
0.00000001
 40
0.0
 40
0.0
 40
0.0
 40
0.0
 40
1.0
 40
1.0
 40
1.0
 40
2.0
 40
2.0
 40
2.0
 40
3.0
 40
3.0
 40
3.0
 40
4.0
 40
4.0
 40
4.0
 40
5.0
 40
5.0
 40
5.0
 40
6.0
 40
6.0
 40
6.0
 40
7.0
 40
7.0
 40
7.0
 40
8.0
 40
8.0
 40
8.0
 40
9.0
 40
9.0
 40
9.0
 40
9.0
 10
17.486787923177083
 20
245.6927551269531
 30
0.0
 10
16.075676812065971
 20
246.04553290473089
 30
0.0
 10
11.78377685546875
 20
246.80999959309892
 30
0.0
 10
10.960399034288194
 20
245.22249959309895
 30
0.0
 10
9.5492879231770829
 20
242.34136623806421
 30
0.0
 10
10.784010145399305
 20
235.81497734917534
 30
0.0
 10
10.784010145399305
 20
232.63997734917533
 30
0.0
 10
10.784010145399305
 20
232.63997734917533
 30
0.0
 10
10.784010145399305
 20
200.88997734917533
 30
0.0
 10
10.784010145399305
 20
200.88997734917533
 30
0.0
 10
10.784010145399305
 20
197.24472181532116
 30
0.0
 10
9.3728990342881939
 20
190.1302551269531
 30
0.0
 10
10.960399034288194
 20
186.83777737087672
 30
0.0
 10
11.607387966579861
 20
185.54414401584199
 30
0.0
 10
16.252065700954859
 20
185.54414401584199
 30
0.0
 10
16.899054633246525
 20
186.83777737087672
 30
0.0
 10
18.133776855468749
 20
189.36578843858504
 30
0.0
 10
17.134010145399305
 20
194.53997734917533
 30
0.0
 10
17.134010145399305
 20
197.36219957139755
 30
0.0
 10
17.134010145399305
 20
197.36219957139755
 30
0.0
 10
17.134010145399305
 20
206.18164401584198
 30
0.0
 10
17.134010145399305
 20
206.18164401584198
 30
0.0
 10
17.134010145399305
 20
206.18164401584198
 30
0.0
 10
17.134010145399305
 20
221.70386623806422
 30
0.0
 10
17.134010145399305
 20
221.70386623806422
 30
0.0
 10
17.134010145399305
 20
229.22967732747395
 30
0.0
 10
15.722899034288194
 20
238.34333292643228
 30
0.0
 10
17.486787923177083
 20
245.6927551269531
 30
0.0
  0
SPLINE
  5
4A
100
AcDbEntity
  8
LAYER_1
 62
     7
100
AcDbSpline
210
0.0
220
0.0
230
1.0
 70
     8
 71
     3
 72
    47
 73
    43
 74
     0
 42
0.00000001
 43
0.00000001
 40
0.0
 40
0.0
 40
0.0
 40
0.0
 40
1.0
 40
1.0
 40
1.0
 40
2.0
 40
2.0
 40
2.0
 40
3.0
 40
3.0
 40
3.0
 40
4.0
 40
4.0
 40
4.0
 40
5.0
 40
5.0
 40
5.0
 40
6.0
 40
6.0
 40
6.0
 40
7.0
 40
7.0
 40
7.0
 40
8.0
 40
8.0
 40
8.0
 40
9.0
 40
9.0
 40
9.0
 40
10.0
 40
10.0
 40
10.0
 40
11.0
 40
11.0
 40
11.0
 40
12.0
 40
12.0
 40
12.0
 40
13.0
 40
13.0
 40
13.0
 40
14.0
 40
14.0
 40
14.0
 40
14.0
 10
-49.89376763237847
 20
220.82192179361977
 30
0.0
 10
-59.94793429904513
 20
219.17551066080728
 30
0.0
 10
-58.360434299045131
 20
208.00444403754338
 30
0.0
 10
-58.360434299045131
 20
200.53719957139757
 30
0.0
 10
-58.360434299045131
 20
186.60247734917533
 30
0.0
 10
-58.713212076822913
 20
172.78523288302949
 30
0.0
 10
-58.713212076822913
 20
158.90942179361977
 30
0.0
 10
-58.713212076822913
 20
158.90942179361977
 30
0.0
 10
-58.713212076822913
 20
148.32608846028646
 30
0.0
 10
-58.713212076822913
 20
148.32608846028646
 30
0.0
 10
-58.713212076822913
 20
146.73858846028645
 30
0.0
 10
-59.065989854600687
 20
144.73939954969617
 30
0.0
 10
-58.066223144531243
 20
143.44611070421004
 30
0.0
 10
-56.12594536675347
 20
140.80027737087673
 30
0.0
 10
-48.599789767795137
 20
141.62331068250867
 30
0.0
 10
-45.660434299045136
 20
142.03499959309895
 30
0.0
 10
-42.309045410156244
 20
142.44634399414062
 30
0.0
 10
-42.191223144531243
 20
145.15108846028645
 30
0.0
 10
-42.132656521267357
 20
147.97331068250867
 30
0.0
 10
-42.132656521267357
 20
152.08916625976562
 30
0.0
 10
-42.485434299045139
 20
156.20467732747395
 30
0.0
 10
-39.6039564344618
 20
159.55606621636284
 30
0.0
 10
-37.957889811197916
 20
161.43777737087672
 30
0.0
 10
-35.488445366753467
 20
162.84888848198784
 30
0.0
 10
-32.960434299045133
 20
163.08384399414061
 30
0.0
 10
-30.784511990017357
 20
163.26023288302949
 30
0.0
 10
-27.60951199001736
 20
162.49611070421005
 30
0.0
 10
-26.316223144531246
 20
164.90664401584201
 30
0.0
 10
-24.728723144531248
 20
167.78777737087671
 30
0.0
 10
-25.904878743489579
 20
173.96138848198783
 30
0.0
 10
-25.904878743489579
 20
177.25386623806423
 30
0.0
 10
-25.904878743489579
 20
187.2491217719184
 30
0.0
 10
-25.552100965711805
 20
197.18581068250867
 30
0.0
 10
-25.552100965711805
 20
207.23997734917532
 30
0.0
 10
-25.552100965711805
 20
210.00328843858506
 30
0.0
 10
-24.199556477864583
 20
218.11717732747394
 30
0.0
 10
-26.374789767795136
 20
219.99888848198782
 30
0.0
 10
-28.021545410156246
 20
221.46856621636283
 30
0.0
 10
-31.02015652126736
 20
220.99831068250867
 30
0.0
 10
-32.960434299045133
 20
220.99831068250867
 30
0.0
 10
-38.487056477864577
 20
220.99831068250867
 30
0.0
 10
-44.484278700086804
 20
221.70386623806422
 30
0.0
 10
-49.89376763237847
 20
220.82192179361977
 30
0.0
  0
SPLINE
  5
49
100
AcDbEntity
  8
LAYER_1
 62
     7
100
AcDbSpline
210
0.0
220
0.0
230
1.0
 70
     8
 71
     3
 72
    50
 73
    46
 74
     0
 42
0.00000001
 43
0.00000001
 40
0.0
 40
0.0
 40
0.0
 40
0.0
 40
1.0
 40
1.0
 40
1.0
 40
2.0
 40
2.0
 40
2.0
 40
3.0
 40
3.0
 40
3.0
 40
4.0
 40
4.0
 40
4.0
 40
5.0
 40
5.0
 40
5.0
 40
6.0
 40
6.0
 40
6.0
 40
7.0
 40
7.0
 40
7.0
 40
8.0
 40
8.0
 40
8.0
 40
9.0
 40
9.0
 40
9.0
 40
10.0
 40
10.0
 40
10.0
 40
11.0
 40
11.0
 40
11.0
 40
12.0
 40
12.0
 40
12.0
 40
13.0
 40
13.0
 40
13.0
 40
14.0
 40
14.0
 40
14.0
 40
15.0
 40
15.0
 40
15.0
 40
15.0
 10
-29.785434299045136
 20
151.55999959309895
 30
0.0
 10
-34.782889811197911
 20
150.14888848198783
 30
0.0
 10
-32.724789767795137
 20
140.85884399414061
 30
0.0
 10
-36.546778700086804
 20
137.91914401584199
 30
0.0
 10
-40.721545410156246
 20
134.74414401584201
 30
0.0
 10
-46.424556477864577
 20
135.27331068250868
 30
0.0
 10
-51.304878743489581
 20
135.27331068250868
 30
0.0
 10
-53.303723144531247
 20
135.27331068250868
 30
0.0
 10
-56.713678656684024
 20
135.91995510525172
 30
0.0
 10
-58.066223144531243
 20
134.09749959309895
 30
0.0
 10
-59.418767632378469
 20
132.27469957139755
 30
0.0
 10
-58.713212076822913
 20
128.5705329047309
 30
0.0
 10
-58.713212076822913
 20
126.45386623806422
 30
0.0
 10
-58.713212076822913
 20
124.74888848198783
 30
0.0
 10
-59.300945366753467
 20
121.92666625976561
 30
0.0
 10
-58.184045410156244
 20
120.5155551486545
 30
0.0
 10
-56.302334255642357
 20
118.10467732747395
 30
0.0
 10
-47.777100965711803
 20
119.16301066080729
 30
0.0
 10
-44.95487874348958
 20
119.39831068250867
 30
0.0
 10
-43.425945366753467
 20
119.57469957139756
 30
0.0
 10
-41.897011990017354
 20
120.69194403754339
 30
0.0
 10
-40.485900878906243
 20
119.45722181532118
 30
0.0
 10
-38.722011990017357
 20
118.04611070421007
 30
0.0
 10
-39.310434299045134
 20
114.69472181532117
 30
0.0
 10
-39.310434299045134
 20
112.6955329047309
 30
0.0
 10
-39.310434299045134
 20
112.6955329047309
 30
0.0
 10
-39.310434299045134
 20
100.34831068250867
 30
0.0
 10
-39.310434299045134
 20
100.34831068250867
 30
0.0
 10
-39.310434299045134
 20
98.819721815321174
 30
0.0
 10
-39.663212076822916
 20
96.703055148654499
 30
0.0
 10
-38.487056477864577
 20
95.526899549696168
 30
0.0
 10
-37.310900878906246
 20
94.351088460286448
 30
0.0
 10
-34.900712076822913
 20
94.586388481987839
 30
0.0
 10
-33.313212076822914
 20
94.409999593098945
 30
0.0
 10
-31.842845323350691
 20
94.233610704210065
 30
0.0
 10
-30.196778700086803
 20
94.233610704210065
 30
0.0
 10
-28.785667588975691
 20
94.644955105251725
 30
0.0
 10
-24.846545410156249
 20
95.879677327473956
 30
0.0
 10
-26.257656521267357
 20
102.75884399414062
 30
0.0
 10
-26.257656521267357
 20
105.99275512695311
 30
0.0
 10
-26.257656521267357
 20
117.63442179361978
 30
0.0
 10
-26.434045410156248
 20
129.27608846028645
 30
0.0
 10
-25.963445366753469
 20
140.91775512695312
 30
0.0
 10
-25.845623101128471
 20
143.68106621636284
 30
0.0
 10
-24.610900878906246
 20
153.08858846028645
 30
0.0
 10
-29.785434299045136
 20
151.55999959309895
 30
0.0
  0
SPLINE
  5
48
100
AcDbEntity
  8
LAYER_1
 62
     7
100
AcDbSpline
210
0.0
220
0.0
230
1.0
 70
     8
 71
     3
 72
    44
 73
    40
 74
     0
 42
0.00000001
 43
0.00000001
 40
0.0
 40
0.0
 40
0.0
 40
0.0
 40
1.0
 40
1.0
 40
1.0
 40
2.0
 40
2.0
 40
2.0
 40
3.0
 40
3.0
 40
3.0
 40
4.0
 40
4.0
 40
4.0
 40
5.0
 40
5.0
 40
5.0
 40
6.0
 40
6.0
 40
6.0
 40
7.0
 40
7.0
 40
7.0
 40
8.0
 40
8.0
 40
8.0
 40
9.0
 40
9.0
 40
9.0
 40
10.0
 40
10.0
 40
10.0
 40
11.0
 40
11.0
 40
11.0
 40
12.0
 40
12.0
 40
12.0
 40
13.0
 40
13.0
 40
13.0
 40
13.0
 10
-50.599323187934026
 20
88.883032904730896
 30
0.0
 10
-60.477100965711799
 20
87.295532904730891
 30
0.0
 10
-59.418767632378469
 20
76.535810682508668
 30
0.0
 10
-59.418767632378469
 20
68.951088460286456
 30
0.0
 10
-59.418767632378469
 20
54.781066216362845
 30
0.0
 10
-60.124323187934024
 20
40.728866238064235
 30
0.0
 10
-60.124323187934024
 20
26.617755126953124
 30
0.0
 10
-60.124323187934024
 20
22.678288438585067
 30
0.0
 10
-61.535434299045136
 20
14.388010660807291
 30
0.0
 10
-59.12455647786458
 20
11.154444037543401
 30
0.0
 10
-57.1842787000868
 20
8.5086107042100689
 30
0.0
 10
-48.952567545572911
 20
9.2727328830295139
 30
0.0
 10
-46.01321207682291
 20
9.7433329264322914
 30
0.0
 10
-43.0146009657118
 20
10.213588460286458
 30
0.0
 10
-42.896778700086799
 20
12.741944037543401
 30
0.0
 10
-42.838212076822913
 20
15.328866238064235
 30
0.0
 10
-42.838212076822913
 20
19.444721815321177
 30
0.0
 10
-42.955345323350691
 20
23.971921793619789
 30
0.0
 10
-39.956734212239581
 20
27.20583292643229
 30
0.0
 10
-37.663678656684027
 20
29.675277370876735
 30
0.0
 10
-35.0771009657118
 20
30.263010660807289
 30
0.0
 10
-31.902100965711803
 20
30.674699571397568
 30
0.0
 10
-30.255345323350692
 20
30.909999593098956
 30
0.0
 10
-27.962289767795138
 20
30.498310682508677
 30
0.0
 10
-27.021778700086802
 20
32.262199571397566
 30
0.0
 10
-25.492845323350693
 20
34.908032904730902
 30
0.0
 10
-26.257656521267357
 20
41.493332926432288
 30
0.0
 10
-26.257656521267357
 20
44.609421793619788
 30
0.0
 10
-26.257656521267357
 20
54.722499593098952
 30
0.0
 10
-26.610434299045135
 20
64.835232883029505
 30
0.0
 10
-26.610434299045135
 20
74.948310682508676
 30
0.0
 10
-26.610434299045135
 20
78.064399549696176
 30
0.0
 10
-24.905112033420135
 20
85.766944037543396
 30
0.0
 10
-27.433123101128469
 20
88.118566216362836
 30
0.0
 10
-29.31483425564236
 20
89.823888481987836
 30
0.0
 10
-32.195623101128469
 20
88.706644015842002
 30
0.0
 10
-34.371545410156244
 20
88.706644015842002
 30
0.0
 10
-39.721778700086801
 20
88.706644015842002
 30
0.0
 10
-45.307656521267354
 20
89.706066216362842
 30
0.0
 10
-50.599323187934026
 20
88.883032904730896
 30
0.0
  0
SPLINE
  5
47
100
AcDbEntity
  8
LAYER_1
 62
     7
100
AcDbSpline
210
0.0
220
0.0
230
1.0
 70
     8
 71
     3
 72
    50
 73
    46
 74
     0
 42
0.00000001
 43
0.00000001
 40
0.0
 40
0.0
 40
0.0
 40
0.0
 40
1.0
 40
1.0
 40
1.0
 40
2.0
 40
2.0
 40
2.0
 40
3.0
 40
3.0
 40
3.0
 40
4.0
 40
4.0
 40
4.0
 40
5.0
 40
5.0
 40
5.0
 40
6.0
 40
6.0
 40
6.0
 40
7.0
 40
7.0
 40
7.0
 40
8.0
 40
8.0
 40
8.0
 40
9.0
 40
9.0
 40
9.0
 40
10.0
 40
10.0
 40
10.0
 40
11.0
 40
11.0
 40
11.0
 40
12.0
 40
12.0
 40
12.0
 40
13.0
 40
13.0
 40
13.0
 40
14.0
 40
14.0
 40
14.0
 40
15.0
 40
15.0
 40
15.0
 40
15.0
 10
-30.843767632378469
 20
19.621110704210068
 30
0.0
 10
-35.899789767795134
 20
18.209999593098956
 30
0.0
 10
-34.25372314453125
 20
9.0377773708767357
 30
0.0
 10
-37.957889811197916
 20
5.9213439941406243
 30
0.0
 10
-41.779878743489583
 20
2.569955105251736
 30
0.0
 10
-47.717845323350687
 20
3.3344217936197915
 30
0.0
 10
-52.363212076822911
 20
3.3344217936197915
 30
0.0
 10
-54.597011990017357
 20
3.3344217936197915
 30
0.0
 10
-57.772011990017354
 20
3.9224995930989581
 30
0.0
 10
-59.242378743489581
 20
1.8643995496961805
 30
0.0
 10
-60.477100965711799
 20
0.1005106608072917
 30
0.0
 10
-59.771545410156243
 20
-3.4858337402343746
 30
0.0
 10
-59.771545410156243
 20
-5.4850226508246527
 30
0.0
 10
-59.771545410156243
 20
-7.2489115397135411
 30
0.0
 10
-60.300712076822911
 20
-9.9536560058593739
 30
0.0
 10
-59.242378743489581
 20
-11.482244873046874
 30
0.0
 10
-57.302100965711801
 20
-14.186989339192706
 30
0.0
 10
-48.717612033420131
 20
-13.246133761935763
 30
0.0
 10
-45.660434299045136
 20
-12.893355984157985
 30
0.0
 10
-44.249323187934024
 20
-12.716967095269096
 30
0.0
 10
-42.838212076822913
 20
-11.658633761935763
 30
0.0
 10
-41.54423421223958
 20
-12.716967095269096
 30
0.0
 10
-39.545389811197914
 20
-14.421944851345485
 30
0.0
 10
-40.133123101128469
 20
-18.420322672526041
 30
0.0
 10
-40.309511990017356
 20
-20.654467095269094
 30
0.0
 10
-40.662289767795137
 20
-24.417544894748261
 30
0.0
 10
-40.427334255642357
 20
-28.239189317491316
 30
0.0
 10
-40.368767632378471
 20
-31.943355984157982
 30
0.0
 10
-40.368767632378471
 20
-33.648333740234371
 30
0.0
 10
-40.545156521267359
 20
-35.530044894748258
 30
0.0
 10
-39.251178656684026
 20
-36.823333740234375
 30
0.0
 10
-37.899323187934023
 20
-38.058055962456592
 30
0.0
 10
-35.723400878906247
 20
-37.528889295789924
 30
0.0
 10
-34.01876763237847
 20
-37.646711561414925
 30
0.0
 10
-32.607656521267359
 20
-37.764189317491315
 30
0.0
 10
-31.255112033420136
 20
-38.058055962456592
 30
0.0
 10
-29.844000922309025
 20
-37.646711561414925
 30
0.0
 10
-25.904878743489579
 20
-36.470555962456594
 30
0.0
 10
-27.315989854600691
 20
-29.532822672526038
 30
0.0
 10
-27.315989854600691
 20
-26.29891153971354
 30
0.0
 10
-27.315989854600691
 20
-14.716156005859373
 30
0.0
 10
-26.963212076822913
 20
-3.0744893391927079
 30
0.0
 10
-26.963212076822913
 20
8.6260884602864571
 30
0.0
 10
-26.963212076822913
 20
11.507221815321179
 30
0.0
 10
-25.434278700086804
 20
21.267177327473956
 30
0.0
 10
-30.843767632378469
 20
19.621110704210068
 30
0.0
  0
SPLINE
  5
46
100
AcDbEntity
  8
LAYER_1
 62
     7
100
AcDbSpline
210
0.0
220
0.0
230
1.0
 70
     8
 71
     3
 72
    47
 73
    43
 74
     0
 42
0.00000001
 43
0.00000001
 40
0.0
 40
0.0
 40
0.0
 40
0.0
 40
1.0
 40
1.0
 40
1.0
 40
2.0
 40
2.0
 40
2.0
 40
3.0
 40
3.0
 40
3.0
 40
4.0
 40
4.0
 40
4.0
 40
5.0
 40
5.0
 40
5.0
 40
6.0
 40
6.0
 40
6.0
 40
7.0
 40
7.0
 40
7.0
 40
8.0
 40
8.0
 40
8.0
 40
9.0
 40
9.0
 40
9.0
 40
10.0
 40
10.0
 40
10.0
 40
11.0
 40
11.0
 40
11.0
 40
12.0
 40
12.0
 40
12.0
 40
13.0
 40
13.0
 40
13.0
 40
14.0
 40
14.0
 40
14.0
 40
14.0
 10
-51.657656521267356
 20
-43.055855984157979
 30
0.0
 10
-61.828956434461801
 20
-44.643355984157985
 30
0.0
 10
-60.124323187934024
 20
-55.814767116970479
 30
0.0
 10
-60.124323187934024
 20
-63.340578206380201
 30
0.0
 10
-60.124323187934024
 20
-77.510600450303812
 30
0.0
 10
-60.477100965711799
 20
-91.562800428602429
 30
0.0
 10
-60.477100965711799
 20
-105.67391153971353
 30
0.0
 10
-60.477100965711799
 20
-105.67391153971353
 30
0.0
 10
-60.477100965711799
 20
-116.25724487304686
 30
0.0
 10
-60.477100965711799
 20
-116.25724487304686
 30
0.0
 10
-60.477100965711799
 20
-117.78583374023437
 30
0.0
 10
-60.770623101128464
 20
-119.54972262912325
 30
0.0
 10
-59.653723144531241
 20
-120.78444485134547
 30
0.0
 10
-57.595623101128467
 20
-123.01893378363714
 30
0.0
 10
-49.952334255642356
 20
-122.25446709526909
 30
0.0
 10
-47.071545410156247
 20
-121.84277818467881
 30
0.0
 10
-44.131500922309023
 20
-121.43143378363715
 30
0.0
 10
-43.955112033420136
 20
-119.13837822808159
 30
0.0
 10
-43.896545410156243
 20
-116.61002265082465
 30
0.0
 10
-43.896545410156243
 20
-112.4941670735677
 30
0.0
 10
-44.30788981119791
 20
-107.96696709526908
 30
0.0
 10
-41.367845323350693
 20
-104.6744893391927
 30
0.0
 10
-39.545389811197914
 20
-102.55782267252603
 30
0.0
 10
-37.25233425564236
 20
-101.14671156141492
 30
0.0
 10
-34.371545410156244
 20
-100.85250040690103
 30
0.0
 10
-32.431267632378471
 20
-100.61754489474825
 30
0.0
 10
-29.256267632378471
 20
-101.4405782063802
 30
0.0
 10
-28.080112033420136
 20
-99.323911539713535
 30
0.0
 10
-26.492612033420137
 20
-96.501689317491312
 30
0.0
 10
-27.668767632378469
 20
-90.210600450303815
 30
0.0
 10
-27.668767632378469
 20
-86.976689317491306
 30
0.0
 10
-27.668767632378469
 20
-76.863611518012149
 30
0.0
 10
-27.315989854600691
 20
-66.809444851345475
 30
0.0
 10
-27.315989854600691
 20
-56.637800428602425
 30
0.0
 10
-27.315989854600691
 20
-53.874489339192706
 30
0.0
 10
-25.963445366753469
 20
-45.760600450303812
 30
0.0
 10
-28.138678656684025
 20
-43.878889295789925
 30
0.0
 10
-29.961823187934026
 20
-42.291389295789926
 30
0.0
 10
-32.666223144531244
 20
-43.114767116970484
 30
0.0
 10
-34.724323187934026
 20
-43.114767116970484
 30
0.0
 10
-40.309511990017356
 20
-43.114767116970484
 30
0.0
 10
-46.189600965711804
 20
-42.173911539713536
 30
0.0
 10
-51.657656521267356
 20
-43.055855984157979
 30
0.0
  0
SPLINE
  5
45
100
AcDbEntity
  8
LAYER_1
 62
     7
100
AcDbSpline
210
0.0
220
0.0
230
1.0
 70
     8
 71
     3
 72
    50
 73
    46
 74
     0
 42
0.00000001
 43
0.00000001
 40
0.0
 40
0.0
 40
0.0
 40
0.0
 40
1.0
 40
1.0
 40
1.0
 40
2.0
 40
2.0
 40
2.0
 40
3.0
 40
3.0
 40
3.0
 40
4.0
 40
4.0
 40
4.0
 40
5.0
 40
5.0
 40
5.0
 40
6.0
 40
6.0
 40
6.0
 40
7.0
 40
7.0
 40
7.0
 40
8.0
 40
8.0
 40
8.0
 40
9.0
 40
9.0
 40
9.0
 40
10.0
 40
10.0
 40
10.0
 40
11.0
 40
11.0
 40
11.0
 40
12.0
 40
12.0
 40
12.0
 40
13.0
 40
13.0
 40
13.0
 40
14.0
 40
14.0
 40
14.0
 40
15.0
 40
15.0
 40
15.0
 40
15.0
 10
-32.254878743489577
 20
-112.78837822808158
 30
0.0
 10
-36.546778700086804
 20
-115.08143378363714
 30
0.0
 10
-34.547934299045139
 20
-122.96002265082464
 30
0.0
 10
-38.31066758897569
 20
-126.01754489474826
 30
0.0
 10
-42.309045410156244
 20
-129.25111151801215
 30
0.0
 10
-48.306267632378464
 20
-128.60446709526909
 30
0.0
 10
-53.068767632378467
 20
-128.60446709526909
 30
0.0
 10
-55.773167588975689
 20
-128.60446709526909
 30
0.0
 10
-58.8896009657118
 20
-128.01638929578991
 30
0.0
 10
-60.41784532335069
 20
-130.83861151801213
 30
0.0
 10
-61.359045410156241
 20
-132.66141153971353
 30
0.0
 10
-60.82987874348958
 20
-135.48363376193575
 30
0.0
 10
-60.82987874348958
 20
-137.42391153971352
 30
0.0
 10
-60.82987874348958
 20
-139.48166707356771
 30
0.0
 10
-61.359045410156241
 20
-142.48027818467881
 30
0.0
 10
-59.712289767795134
 20
-144.00921156141493
 30
0.0
 10
-57.478489854600689
 20
-146.06696709526909
 30
0.0
 10
-49.305345323350693
 20
-145.12611151801215
 30
0.0
 10
-46.365989854600691
 20
-144.83224487304688
 30
0.0
 10
-45.131267632378467
 20
-144.65585598415797
 30
0.0
 10
-43.778723144531249
 20
-143.77391153971354
 30
0.0
 10
-42.544000922309024
 20
-144.47946709526909
 30
0.0
 10
-40.368767632378471
 20
-145.7141893174913
 30
0.0
 10
-41.074323187934027
 20
-149.47726711697047
 30
0.0
 10
-41.074323187934027
 20
-151.53502265082463
 30
0.0
 10
-41.074323187934027
 20
-151.53502265082463
 30
0.0
 10
-41.074323187934027
 20
-163.52946709526907
 30
0.0
 10
-41.074323187934027
 20
-163.52946709526907
 30
0.0
 10
-41.074323187934027
 20
-165.29335598415798
 30
0.0
 10
-41.427100965711801
 20
-167.41002265082463
 30
0.0
 10
-39.956734212239581
 20
-168.76222262912324
 30
0.0
 10
-38.722011990017357
 20
-169.87946709526909
 30
0.0
 10
-36.017612033420136
 20
-169.87946709526909
 30
0.0
 10
-34.371545410156244
 20
-169.87946709526909
 30
0.0
 10
-32.901178656684024
 20
-169.93837822808158
 30
0.0
 10
-31.196545410156247
 20
-169.99694485134546
 30
0.0
 10
-29.844000922309025
 20
-169.35030042860242
 30
0.0
 10
-26.669000922309024
 20
-167.82171156141493
 30
0.0
 10
-28.021545410156246
 20
-160.47194485134548
 30
0.0
 10
-28.021545410156246
 20
-157.53224487304686
 30
0.0
 10
-28.021545410156246
 20
-145.65527818467879
 30
0.0
 10
-28.021545410156246
 20
-133.77865600585937
 30
0.0
 10
-27.727334255642358
 20
-121.9016893174913
 30
0.0
 10
-27.60951199001736
 20
-119.25585598415798
 30
0.0
 10
-26.727567545572914
 20
-109.78976711697048
 30
0.0
 10
-32.254878743489577
 20
-112.78837822808158
 30
0.0
  0
ENDBLK
  5
4D
100
AcDbEntity
  8
LAYER_1
100
AcDbBlockEnd
  0
BLOCK
  5
50
100
AcDbEntity
  8
LAYER_1
 62
     7
100
AcDbBlockBegin
  2
AI9-BLK3
 70
     0
 10
0.0
 20
0.0
 30
0.0
  3
AI9-BLK3
  1

  0
SPLINE
  5
58
100
AcDbEntity
  8
LAYER_1
 62
     7
100
AcDbSpline
210
0.0
220
0.0
230
1.0
 70
     8
 71
     3
 72
   131
 73
   127
 74
     0
 42
0.00000001
 43
0.00000001
 40
0.0
 40
0.0
 40
0.0
 40
0.0
 40
1.0
 40
1.0
 40
1.0
 40
2.0
 40
2.0
 40
2.0
 40
3.0
 40
3.0
 40
3.0
 40
4.0
 40
4.0
 40
4.0
 40
5.0
 40
5.0
 40
5.0
 40
6.0
 40
6.0
 40
6.0
 40
7.0
 40
7.0
 40
7.0
 40
8.0
 40
8.0
 40
8.0
 40
9.0
 40
9.0
 40
9.0
 40
10.0
 40
10.0
 40
10.0
 40
11.0
 40
11.0
 40
11.0
 40
12.0
 40
12.0
 40
12.0
 40
13.0
 40
13.0
 40
13.0
 40
14.0
 40
14.0
 40
14.0
 40
15.0
 40
15.0
 40
15.0
 40
16.0
 40
16.0
 40
16.0
 40
17.0
 40
17.0
 40
17.0
 40
18.0
 40
18.0
 40
18.0
 40
19.0
 40
19.0
 40
19.0
 40
20.0
 40
20.0
 40
20.0
 40
21.0
 40
21.0
 40
21.0
 40
22.0
 40
22.0
 40
22.0
 40
23.0
 40
23.0
 40
23.0
 40
24.0
 40
24.0
 40
24.0
 40
25.0
 40
25.0
 40
25.0
 40
26.0
 40
26.0
 40
26.0
 40
27.0
 40
27.0
 40
27.0
 40
28.0
 40
28.0
 40
28.0
 40
29.0
 40
29.0
 40
29.0
 40
30.0
 40
30.0
 40
30.0
 40
31.0
 40
31.0
 40
31.0
 40
32.0
 40
32.0
 40
32.0
 40
33.0
 40
33.0
 40
33.0
 40
34.0
 40
34.0
 40
34.0
 40
35.0
 40
35.0
 40
35.0
 40
36.0
 40
36.0
 40
36.0
 40
37.0
 40
37.0
 40
37.0
 40
38.0
 40
38.0
 40
38.0
 40
39.0
 40
39.0
 40
39.0
 40
40.0
 40
40.0
 40
40.0
 40
41.0
 40
41.0
 40
41.0
 40
42.0
 40
42.0
 40
42.0
 40
42.0
 10
-44.273611111111109
 20
272.11026407877603
 30
0.0
 10
-46.507755533854166
 20
271.81639743381072
 30
0.0
 10
-48.624422200520826
 20
271.81639743381072
 30
0.0
 10
-50.62361111111111
 20
270.8166307237413
 30
0.0
 10
-59.560533311631936
 20
266.40690850151907
 30
0.0
 10
-57.385300021701383
 20
255.58861965603296
 30
0.0
 10
-57.738077799479164
 20
247.59220852322045
 30
0.0
 10
-57.973033311631937
 20
242.47693074544267
 30
0.0
 10
-58.796411132812494
 20
236.77357516818574
 30
0.0
 10
-58.031944444444441
 20
231.71720852322048
 30
0.0
 10
-57.79664442274305
 20
230.36500854492186
 30
0.0
 10
-56.561922200520826
 20
229.54163072374129
 30
0.0
 10
-56.326966688368053
 20
228.1305196126302
 30
0.0
 10
-55.797800021701384
 20
224.66165296766491
 30
0.0
 10
-56.268055555555549
 20
220.72218627929686
 30
0.0
 10
-56.268055555555549
 20
217.25331963433158
 30
0.0
 10
-56.268055555555549
 20
158.80968627929687
 30
0.0
 10
-57.326388888888886
 20
100.36639743381076
 30
0.0
 10
-57.326388888888886
 20
41.922764078776041
 30
0.0
 10
-57.326388888888886
 20
-37.687363688151038
 30
0.0
 10
-59.090277777777771
 20
-117.35657484266493
 30
0.0
 10
-59.090277777777771
 20
-196.90796373155379
 30
0.0
 10
-59.090277777777771
 20
-215.8987080891927
 30
0.0
 10
-59.443055555555553
 20
-234.7723192003038
 30
0.0
 10
-59.443055555555553
 20
-253.70518595377601
 30
0.0
 10
-59.443055555555553
 20
-253.70518595377601
 30
0.0
 10
-59.443055555555553
 20
-266.75796373155379
 30
0.0
 10
-59.443055555555553
 20
-266.75796373155379
 30
0.0
 10
-59.443055555555553
 20
-268.40403035481768
 30
0.0
 10
-59.854744466145831
 20
-270.75565253363715
 30
0.0
 10
-58.031944444444441
 20
-271.52046373155378
 30
0.0
 10
-55.85636664496527
 20
-272.40240817599823
 30
0.0
 10
-47.977777777777774
 20
-272.519541422526
 30
0.0
 10
-46.801966688368054
 20
-270.28574150933156
 30
0.0
 10
-45.68472222222222
 20
-268.28620808919271
 30
0.0
 10
-46.390277777777776
 20
-264.46490817599823
 30
0.0
 10
-46.390277777777776
 20
-262.17185262044268
 30
0.0
 10
-46.390277777777776
 20
-262.17185262044268
 30
0.0
 10
-46.390277777777776
 20
-242.41629706488712
 30
0.0
 10
-46.390277777777776
 20
-242.41629706488712
 30
0.0
 10
-46.390277777777776
 20
-240.41676364474824
 30
0.0
 10
-47.448611111111106
 20
-234.18458591037324
 30
0.0
 10
-45.625811089409716
 20
-233.00843031141491
 30
0.0
 10
-44.097222222222221
 20
-232.00935262044268
 30
0.0
 10
-41.098611111111104
 20
-232.53851928710935
 30
0.0
 10
-39.334722222222219
 20
-232.53851928710935
 30
0.0
 10
-39.334722222222219
 20
-232.53851928710935
 30
0.0
 10
-23.812499999999996
 20
-232.53851928710935
 30
0.0
 10
-23.812499999999996
 20
-232.53851928710935
 30
0.0
 10
-23.812499999999996
 20
-232.53851928710935
 30
0.0
 10
20.637499999999999
 20
-232.53851928710935
 30
0.0
 10
20.637499999999999
 20
-232.53851928710935
 30
0.0
 10
26.752199978298609
 20
-232.53851928710935
 30
0.0
 10
35.160300021701389
 20
-231.06815253363712
 30
0.0
 10
41.039699978298607
 20
-232.77347479926212
 30
0.0
 10
44.802777777777777
 20
-233.89037475585934
 30
0.0
 10
42.862499999999997
 20
-240.65240817599823
 30
0.0
 10
42.862499999999997
 20
-243.47463039822046
 30
0.0
 10
42.862499999999997
 20
-243.47463039822046
 30
0.0
 10
42.862499999999997
 20
-263.93574150933159
 30
0.0
 10
42.862499999999997
 20
-263.93574150933159
 30
0.0
 10
42.862499999999997
 20
-265.93458591037324
 30
0.0
 10
41.980555555555554
 20
-269.69731920030381
 30
0.0
 10
43.391666666666666
 20
-271.28481920030379
 30
0.0
 10
45.096644422743054
 20
-273.10796373155381
 30
0.0
 10
51.505555555555553
 20
-272.46097479926215
 30
0.0
 10
53.739699978298603
 20
-272.04963039822047
 30
0.0
 10
57.267477756076381
 20
-271.40264146592881
 30
0.0
 10
55.915277777777774
 20
-263.81791924370657
 30
0.0
 10
55.915277777777774
 20
-261.11351928710934
 30
0.0
 10
55.915277777777774
 20
-249.41259697808158
 30
0.0
 10
56.268055555555549
 20
-237.65379706488713
 30
0.0
 10
56.268055555555549
 20
-225.83574150933157
 30
0.0
 10
56.268055555555549
 20
-175.91768595377602
 30
0.0
 10
57.326388888888886
 20
-125.94037475585937
 30
0.0
 10
57.326388888888886
 20
-75.905185953776041
 30
0.0
 10
57.326388888888886
 20
-31.455185953776038
 30
0.0
 10
58.325811089409719
 20
12.936075168185763
 30
0.0
 10
58.325811089409719
 20
57.444986300998259
 30
0.0
 10
58.325811089409719
 20
87.548575168185749
 30
0.0
 10
57.443866644965276
 20
118.00528632269965
 30
0.0
 10
58.737499999999997
 20
148.10887518988713
 30
0.0
 10
59.678355577256937
 20
168.74637518988715
 30
0.0
 10
58.796411132812494
 20
189.50135294596353
 30
0.0
 10
59.090277777777771
 20
210.19776407877603
 30
0.0
 10
59.149188910590276
 20
215.60690850151909
 30
0.0
 10
59.443055555555553
 20
220.95748630099826
 30
0.0
 10
59.443055555555553
 20
226.42554185655379
 30
0.0
 10
59.443055555555553
 20
228.77750854492186
 30
0.0
 10
59.678355577256937
 20
231.4233418782552
 30
0.0
 10
58.149422200520831
 20
233.42218627929685
 30
0.0
 10
55.268633355034716
 20
237.18526407877602
 30
0.0
 10
45.449422200520829
 20
235.9505418565538
 30
0.0
 10
41.098611111111104
 20
235.9505418565538
 30
0.0
 10
25.282522243923609
 20
235.9505418565538
 30
0.0
 10
8.8194444444444429
 20
234.59834187825518
 30
0.0
 10
-6.8791666666666664
 20
235.9505418565538
 30
0.0
 10
-12.40613335503472
 20
236.42079739040796
 30
0.0
 10
-10.406944444444443
 20
246.12218627929684
 30
0.0
 10
-10.406944444444443
 20
250.06165296766491
 30
0.0
 10
-10.406944444444443
 20
251.41385294596353
 30
0.0
 10
-10.113077799479166
 20
253.4130418565538
 30
0.0
 10
-11.229977756076387
 20
254.41246405707463
 30
0.0
 10
-12.40613335503472
 20
255.41223076714408
 30
0.0
 10
-14.699188910590276
 20
255.00054185655381
 30
0.0
 10
-16.051388888888887
 20
255.00054185655381
 30
0.0
 10
-19.814466688368054
 20
255.00054185655381
 30
0.0
 10
-29.456944444444442
 20
253.35413072374129
 30
0.0
 10
-32.161688910590271
 20
256.47056410047742
 30
0.0
 10
-34.043055555555554
 20
258.64579739040795
 30
0.0
 10
-31.044444444444441
 20
260.17473076714407
 30
0.0
 10
-29.104166666666664
 20
260.23329739040798
 30
0.0
 10
-24.576966688368053
 20
260.46859741210937
 30
0.0
 10
-19.931944444444444
 20
260.29220852322044
 30
0.0
 10
-15.345833333333331
 20
260.29220852322044
 30
0.0
 10
-13.993633355034721
 20
260.29220852322044
 30
0.0
 10
-11.347800021701389
 20
259.7630418565538
 30
0.0
 10
-10.642244466145833
 20
261.35054185655378
 30
0.0
 10
-9.8777777777777764
 20
263.1733418782552
 30
0.0
 10
-9.3486111111111097
 20
270.34637518988711
 30
0.0
 10
-11.229977756076387
 20
271.46361965603296
 30
0.0
 10
-13.346644422743054
 20
272.75690850151909
 30
0.0
 10
-17.874188910590277
 20
271.93387518988715
 30
0.0
 10
-20.284722222222221
 20
271.93387518988715
 30
0.0
 10
-28.045833333333331
 20
271.93387518988715
 30
0.0
 10
-36.747800021701387
 20
273.10968627929685
 30
0.0
 10
-44.273611111111109
 20
272.11026407877603
 30
0.0
  0
SPLINE
  5
57
100
AcDbEntity
  8
LAYER_1
 62
     7
100
AcDbSpline
210
0.0
220
0.0
230
1.0
 70
     8
 71
     3
 72
    35
 73
    31
 74
     0
 42
0.00000001
 43
0.00000001
 40
0.0
 40
0.0
 40
0.0
 40
0.0
 40
1.0
 40
1.0
 40
1.0
 40
2.0
 40
2.0
 40
2.0
 40
3.0
 40
3.0
 40
3.0
 40
4.0
 40
4.0
 40
4.0
 40
5.0
 40
5.0
 40
5.0
 40
6.0
 40
6.0
 40
6.0
 40
7.0
 40
7.0
 40
7.0
 40
8.0
 40
8.0
 40
8.0
 40
9.0
 40
9.0
 40
9.0
 40
10.0
 40
10.0
 40
10.0
 40
10.0
 10
18.87361111111111
 20
138.93665296766491
 30
0.0
 10
20.225811089409721
 20
138.93665296766491
 30
0.0
 10
23.871411132812497
 20
138.23109741210936
 30
0.0
 10
24.811922200520829
 20
139.46581963433158
 30
0.0
 10
26.399422200520831
 20
141.46500854492186
 30
0.0
 10
25.223611111111108
 20
148.40274183485241
 30
0.0
 10
25.223611111111108
 20
150.93109741210935
 30
0.0
 10
25.223611111111108
 20
161.10274183485242
 30
0.0
 10
24.282755533854164
 20
171.80389743381076
 30
0.0
 10
25.282522243923609
 20
181.9755418565538
 30
0.0
 10
25.635300021701386
 20
185.91500854492185
 30
0.0
 10
25.576388888888886
 20
189.9130418565538
 30
0.0
 10
25.576388888888886
 20
193.96998630099824
 30
0.0
 10
25.576388888888886
 20
195.08723076714409
 30
0.0
 10
25.988077799479164
 20
197.32137518988714
 30
0.0
 10
25.164699978298607
 20
198.32079739040796
 30
0.0
 10
24.282755533854164
 20
199.49695298936629
 30
0.0
 10
19.402777777777775
 20
199.32056410047741
 30
0.0
 10
18.932522243923611
 20
197.79163072374129
 30
0.0
 10
18.403355577256942
 20
195.91026407877604
 30
0.0
 10
18.87361111111111
 20
193.38190850151909
 30
0.0
 10
18.87361111111111
 20
191.50054185655381
 30
0.0
 10
18.87361111111111
 20
191.50054185655381
 30
0.0
 10
18.87361111111111
 20
178.09498630099824
 30
0.0
 10
18.87361111111111
 20
178.09498630099824
 30
0.0
 10
18.87361111111111
 20
178.09498630099824
 30
0.0
 10
18.87361111111111
 20
162.21998630099824
 30
0.0
 10
18.87361111111111
 20
162.21998630099824
 30
0.0
 10
18.87361111111111
 20
162.21998630099824
 30
0.0
 10
18.87361111111111
 20
138.93665296766491
 30
0.0
 10
18.87361111111111
 20
138.93665296766491
 30
0.0
  0
SPLINE
  5
56
100
AcDbEntity
  8
LAYER_1
 62
     7
100
AcDbSpline
210
0.0
220
0.0
230
1.0
 70
     8
 71
     3
 72
    50
 73
    46
 74
     0
 42
0.00000001
 43
0.00000001
 40
0.0
 40
0.0
 40
0.0
 40
0.0
 40
1.0
 40
1.0
 40
1.0
 40
2.0
 40
2.0
 40
2.0
 40
3.0
 40
3.0
 40
3.0
 40
4.0
 40
4.0
 40
4.0
 40
5.0
 40
5.0
 40
5.0
 40
6.0
 40
6.0
 40
6.0
 40
7.0
 40
7.0
 40
7.0
 40
8.0
 40
8.0
 40
8.0
 40
9.0
 40
9.0
 40
9.0
 40
10.0
 40
10.0
 40
10.0
 40
11.0
 40
11.0
 40
11.0
 40
12.0
 40
12.0
 40
12.0
 40
13.0
 40
13.0
 40
13.0
 40
14.0
 40
14.0
 40
14.0
 40
15.0
 40
15.0
 40
15.0
 40
15.0
 10
-28.398611111111109
 20
174.62611965603298
 30
0.0
 10
-30.926966688368054
 20
173.62635294596353
 30
0.0
 10
-30.515277777777776
 20
170.39278632269964
 30
0.0
 10
-30.515277777777776
 20
168.21720852322048
 30
0.0
 10
-30.515277777777776
 20
168.21720852322048
 30
0.0
 10
-30.515277777777776
 20
156.22276407877604
 30
0.0
 10
-30.515277777777776
 20
156.22276407877604
 30
0.0
 10
-30.515277777777776
 20
154.51778632269964
 30
0.0
 10
-30.221411132812499
 20
152.40111965603296
 30
0.0
 10
-31.220833333333331
 20
150.93109741210935
 30
0.0
 10
-32.573033311631939
 20
148.7555196126302
 30
0.0
 10
-34.278355577256939
 20
150.28445298936632
 30
0.0
 10
-36.159722222222221
 20
150.51940850151908
 30
0.0
 10
-39.275811089409721
 20
150.87218627929687
 30
0.0
 10
-45.743633355034717
 20
151.51917521158853
 30
0.0
 10
-48.506944444444443
 20
150.10806410047741
 30
0.0
 10
-51.093866644965274
 20
148.7555196126302
 30
0.0
 10
-50.270833333333329
 20
144.81639743381075
 30
0.0
 10
-50.270833333333329
 20
142.46443074544268
 30
0.0
 10
-50.329744466145826
 20
140.34776407877604
 30
0.0
 10
-50.976388888888884
 20
137.23167521158854
 30
0.0
 10
-49.682755533854163
 20
135.40887518988714
 30
0.0
 10
-48.271644422743051
 20
133.46859741210937
 30
0.0
 10
-45.331944444444439
 20
133.99776407877604
 30
0.0
 10
-43.215277777777771
 20
133.99776407877604
 30
0.0
 10
-38.335300021701386
 20
133.99776407877604
 30
0.0
 10
-33.572800021701383
 20
134.40945298936632
 30
0.0
 10
-29.163077799479165
 20
131.94000854492185
 30
0.0
 10
-25.399999999999999
 20
129.94081963433158
 30
0.0
 10
-25.458911132812499
 20
123.82611965603297
 30
0.0
 10
-24.224188910590275
 20
120.2394307454427
 30
0.0
 10
-23.518633355034719
 20
118.29915296766492
 30
0.0
 10
-21.695833333333333
 20
116.82913072374132
 30
0.0
 10
-19.638077799479166
 20
117.65250854492186
 30
0.0
 10
-15.75752224392361
 20
119.12218627929687
 30
0.0
 10
-17.462499999999999
 20
129.47056410047742
 30
0.0
 10
-17.462499999999999
 20
132.93943074544271
 30
0.0
 10
-17.462499999999999
 20
142.69973076714408
 30
0.0
 10
-17.109722222222221
 20
152.40111965603296
 30
0.0
 10
-17.109722222222221
 20
162.21998630099824
 30
0.0
 10
-17.109722222222221
 20
165.21859741210935
 30
0.0
 10
-16.051388888888887
 20
170.80413072374131
 30
0.0
 10
-17.579977756076389
 20
173.44996405707462
 30
0.0
 10
-18.87361111111111
 20
175.68445298936629
 30
0.0
 10
-26.223033311631941
 20
175.50806410047741
 30
0.0
 10
-28.398611111111109
 20
174.62611965603298
 30
0.0
  0
SPLINE
  5
55
100
AcDbEntity
  8
LAYER_1
 62
     7
100
AcDbSpline
210
0.0
220
0.0
230
1.0
 70
     8
 71
     3
 72
    47
 73
    43
 74
     0
 42
0.00000001
 43
0.00000001
 40
0.0
 40
0.0
 40
0.0
 40
0.0
 40
1.0
 40
1.0
 40
1.0
 40
2.0
 40
2.0
 40
2.0
 40
3.0
 40
3.0
 40
3.0
 40
4.0
 40
4.0
 40
4.0
 40
5.0
 40
5.0
 40
5.0
 40
6.0
 40
6.0
 40
6.0
 40
7.0
 40
7.0
 40
7.0
 40
8.0
 40
8.0
 40
8.0
 40
9.0
 40
9.0
 40
9.0
 40
10.0
 40
10.0
 40
10.0
 40
11.0
 40
11.0
 40
11.0
 40
12.0
 40
12.0
 40
12.0
 40
13.0
 40
13.0
 40
13.0
 40
14.0
 40
14.0
 40
14.0
 40
14.0
 10
-47.801388888888887
 20
127.41246405707464
 30
0.0
 10
-51.152777777777771
 20
126.47195298936632
 30
0.0
 10
-50.62361111111111
 20
122.94417521158853
 30
0.0
 10
-50.62361111111111
 20
120.2394307454427
 30
0.0
 10
-50.62361111111111
 20
112.77218627929686
 30
0.0
 10
-50.976388888888884
 20
105.36385294596353
 30
0.0
 10
-50.976388888888884
 20
98.014430745442695
 30
0.0
 10
-50.976388888888884
 20
98.014430745442695
 30
0.0
 10
-50.976388888888884
 20
64.853319634331598
 30
0.0
 10
-50.976388888888884
 20
64.853319634331598
 30
0.0
 10
-50.976388888888884
 20
60.090819634331595
 30
0.0
 10
-51.975811089409717
 20
54.681675211588534
 30
0.0
 10
-48.154166666666661
 20
51.153897433810762
 30
0.0
 10
-43.920833333333327
 20
47.155519612630201
 30
0.0
 10
-36.277199978298604
 20
48.272764078776035
 30
0.0
 10
-30.868055555555554
 20
48.272764078776035
 30
0.0
 10
-27.751966688368054
 20
48.272764078776035
 30
0.0
 10
-23.69502224392361
 20
47.567208523220479
 30
0.0
 10
-20.696411132812496
 20
48.449152967664929
 30
0.0
 10
-17.462499999999999
 20
49.390008544921869
 30
0.0
 10
-18.285533311631944
 20
52.741397433810761
 30
0.0
 10
-18.168055555555554
 20
55.328319634331592
 30
0.0
 10
-17.932755533854166
 20
61.854708523220481
 30
0.0
 10
-17.815277777777776
 20
68.440008544921866
 30
0.0
 10
-17.815277777777776
 20
75.083875189887152
 30
0.0
 10
-17.815277777777776
 20
75.083875189887152
 30
0.0
 10
-17.815277777777776
 20
96.956097412109372
 30
0.0
 10
-17.815277777777776
 20
96.956097412109372
 30
0.0
 10
-17.815277777777776
 20
99.131675211588529
 30
0.0
 10
-17.05081108940972
 20
103.24718627929687
 30
0.0
 10
-18.638311089409722
 20
104.95250854492187
 30
0.0
 10
-20.343633355034722
 20
106.71639743381076
 30
0.0
 10
-23.106944444444441
 20
105.8930196126302
 30
0.0
 10
-25.223611111111108
 20
106.18723076714409
 30
0.0
 10
-28.045833333333331
 20
106.54000854492186
 30
0.0
 10
-30.632755533854162
 20
108.36246405707465
 30
0.0
 10
-32.102777777777774
 20
110.7144307454427
 30
0.0
 10
-35.101388888888884
 20
115.4180196126302
 30
0.0
 10
-32.279166666666661
 20
120.59220852322048
 30
0.0
 10
-34.043055555555554
 20
125.11940850151909
 30
0.0
 10
-35.336688910590276
 20
128.58861965603296
 30
0.0
 10
-44.861688910590274
 20
128.29440850151909
 30
0.0
 10
-47.801388888888887
 20
127.41246405707464
 30
0.0
  0
SPLINE
  5
54
100
AcDbEntity
  8
LAYER_1
 62
     7
100
AcDbSpline
210
0.0
220
0.0
230
1.0
 70
     8
 71
     3
 72
    53
 73
    49
 74
     0
 42
0.00000001
 43
0.00000001
 40
0.0
 40
0.0
 40
0.0
 40
0.0
 40
1.0
 40
1.0
 40
1.0
 40
2.0
 40
2.0
 40
2.0
 40
3.0
 40
3.0
 40
3.0
 40
4.0
 40
4.0
 40
4.0
 40
5.0
 40
5.0
 40
5.0
 40
6.0
 40
6.0
 40
6.0
 40
7.0
 40
7.0
 40
7.0
 40
8.0
 40
8.0
 40
8.0
 40
9.0
 40
9.0
 40
9.0
 40
10.0
 40
10.0
 40
10.0
 40
11.0
 40
11.0
 40
11.0
 40
12.0
 40
12.0
 40
12.0
 40
13.0
 40
13.0
 40
13.0
 40
14.0
 40
14.0
 40
14.0
 40
15.0
 40
15.0
 40
15.0
 40
16.0
 40
16.0
 40
16.0
 40
16.0
 10
-28.751388888888886
 20
42.687230767144094
 30
0.0
 10
-31.691088867187496
 20
41.569986300998259
 30
0.0
 10
-31.220833333333331
 20
38.394986300998262
 30
0.0
 10
-31.220833333333331
 20
35.925541856553814
 30
0.0
 10
-31.220833333333331
 20
31.868597412109374
 30
0.0
 10
-31.573611111111109
 20
27.929130723741316
 30
0.0
 10
-31.573611111111109
 20
23.931097412109374
 30
0.0
 10
-31.573611111111109
 20
22.284686279296874
 30
0.0
 10
-31.220833333333331
 20
20.050541856553817
 30
0.0
 10
-32.220255533854164
 20
18.639430745442706
 30
0.0
 10
-33.572800021701383
 20
16.699152967664929
 30
0.0
 10
-35.395255533854161
 20
18.110264078776041
 30
0.0
 10
-37.218055555555551
 20
18.227741834852427
 30
0.0
 10
-40.510533311631939
 20
18.463041856553819
 30
0.0
 10
-46.213888888888881
 20
19.227508544921875
 30
0.0
 10
-49.212499999999999
 20
17.992786322699651
 30
0.0
 10
-50.564699978298606
 20
17.463619656032986
 30
0.0
 10
-51.035300021701381
 20
16.052508544921874
 30
0.0
 10
-51.270255533854161
 20
14.758875189887151
 30
0.0
 10
-51.740855577256937
 20
11.642786322699651
 30
0.0
 10
-52.504977756076386
 20
4.2344529893663188
 30
0.0
 10
-49.565277777777773
 20
2.2941752115885414
 30
0.0
 10
-47.860300021701384
 20
1.1180196126302082
 30
0.0
 10
-44.861688910590274
 20
1.7060974121093748
 30
0.0
 10
-42.862499999999997
 20
1.7060974121093748
 30
0.0
 10
-38.511688910590273
 20
1.7060974121093748
 30
0.0
 10
-34.572222222222216
 20
1.7650085449218749
 30
0.0
 10
-30.574188910590276
 20
-0.1752692328559028
 30
0.0
 10
-26.281944444444441
 20
-2.2333692762586805
 30
0.0
 10
-26.69363335503472
 20
-8.2305914984809014
 30
0.0
 10
-25.106133355034721
 20
-12.052235921223957
 30
0.0
 10
-24.282755533854164
 20
-13.992513699001735
 30
0.0
 10
-22.460300021701386
 20
-15.521102566189235
 30
0.0
 10
-20.343633355034722
 20
-14.580591498480901
 30
0.0
 10
-18.697222222222219
 20
-13.933602566189235
 30
0.0
 10
-18.461922200520831
 20
-12.228624810112846
 30
0.0
 10
-18.403355577256942
 20
-10.641124810112846
 30
0.0
 10
-18.226966688368055
 20
-6.93695814344618
 30
0.0
 10
-18.520833333333332
 20
-3.1153137207031247
 30
0.0
 10
-18.520833333333332
 20
0.6477640787760416
 30
0.0
 10
-18.520833333333332
 20
10.231675211588541
 30
0.0
 10
-18.168055555555554
 20
19.87415296766493
 30
0.0
 10
-18.168055555555554
 20
29.575541856553816
 30
0.0
 10
-18.168055555555554
 20
32.633064100477426
 30
0.0
 10
-17.109722222222221
 20
38.453897433810759
 30
0.0
 10
-18.579744466145833
 20
41.158297390407981
 30
0.0
 10
-19.931944444444444
 20
43.627741834852429
 30
0.0
 10
-26.458333333333332
 20
43.569175211588536
 30
0.0
 10
-28.751388888888886
 20
42.687230767144094
 30
0.0
  0
SPLINE
  5
53
100
AcDbEntity
  8
LAYER_1
 62
     7
100
AcDbSpline
210
0.0
220
0.0
230
1.0
 70
     8
 71
     3
 72
    53
 73
    49
 74
     0
 42
0.00000001
 43
0.00000001
 40
0.0
 40
0.0
 40
0.0
 40
0.0
 40
1.0
 40
1.0
 40
1.0
 40
2.0
 40
2.0
 40
2.0
 40
3.0
 40
3.0
 40
3.0
 40
4.0
 40
4.0
 40
4.0
 40
5.0
 40
5.0
 40
5.0
 40
6.0
 40
6.0
 40
6.0
 40
7.0
 40
7.0
 40
7.0
 40
8.0
 40
8.0
 40
8.0
 40
9.0
 40
9.0
 40
9.0
 40
10.0
 40
10.0
 40
10.0
 40
11.0
 40
11.0
 40
11.0
 40
12.0
 40
12.0
 40
12.0
 40
13.0
 40
13.0
 40
13.0
 40
14.0
 40
14.0
 40
14.0
 40
15.0
 40
15.0
 40
15.0
 40
16.0
 40
16.0
 40
16.0
 40
16.0
 10
-49.212499999999999
 20
-4.937769232855902
 30
0.0
 10
-51.975811089409717
 20
-5.9961025661892355
 30
0.0
 10
-51.68194444444444
 20
-9.7002692328559021
 30
0.0
 10
-51.68194444444444
 20
-12.052235921223957
 30
0.0
 10
-51.68194444444444
 20
-12.052235921223957
 30
0.0
 10
-51.68194444444444
 20
-33.219074842664931
 30
0.0
 10
-51.68194444444444
 20
-33.219074842664931
 30
0.0
 10
-51.68194444444444
 20
-44.566530354817701
 30
0.0
 10
-52.034722222222214
 20
-55.796852620442706
 30
0.0
 10
-52.034722222222214
 20
-67.085741509331598
 30
0.0
 10
-52.034722222222214
 20
-72.494541422526041
 30
0.0
 10
-52.975577799479161
 20
-78.021852620442701
 30
0.0
 10
-48.154166666666661
 20
-81.784585910373252
 30
0.0
 10
-44.038311089409717
 20
-85.018152533637149
 30
0.0
 10
-36.865277777777777
 20
-83.666297064887146
 30
0.0
 10
-31.926388888888887
 20
-83.666297064887146
 30
0.0
 10
-28.810300021701387
 20
-83.666297064887146
 30
0.0
 10
-23.988888888888887
 20
-84.606808132595475
 30
0.0
 10
-21.049188910590274
 20
-83.430652533637144
 30
0.0
 10
-18.403355577256942
 20
-82.372319200303806
 30
0.0
 10
-18.87361111111111
 20
-79.256574842664918
 30
0.0
 10
-18.87361111111111
 20
-76.963519287109364
 30
0.0
 10
-18.87361111111111
 20
-76.963519287109364
 30
0.0
 10
-18.87361111111111
 20
-57.913519287109366
 30
0.0
 10
-18.87361111111111
 20
-57.913519287109366
 30
0.0
 10
-18.87361111111111
 20
-50.681574842664929
 30
0.0
 10
-19.226388888888888
 20
-43.331808132595484
 30
0.0
 10
-18.87361111111111
 20
-36.041297064887146
 30
0.0
 10
-18.814699978298609
 20
-33.748241509331592
 30
0.0
 10
-17.932755533854166
 20
-29.338519287109371
 30
0.0
 10
-19.461688910590276
 20
-27.338985866970482
 30
0.0
 10
-20.813888888888886
 20
-25.575096978081596
 30
0.0
 10
-23.69502224392361
 20
-26.339908175998261
 30
0.0
 10
-25.576388888888886
 20
-26.104263644748261
 30
0.0
 10
-28.633911132812496
 20
-25.751485866970484
 30
0.0
 10
-31.456133355034719
 20
-23.811380343967013
 30
0.0
 10
-33.102199978298607
 20
-21.224458143446178
 30
0.0
 10
-35.042477756076387
 20
-18.108369276258678
 30
0.0
 10
-34.74861111111111
 20
-14.580591498480901
 30
0.0
 10
-34.74861111111111
 20
-10.993902587890624
 30
0.0
 10
-34.74861111111111
 20
-9.2300136990017361
 30
0.0
 10
-34.395833333333329
 20
-6.8780470106336802
 30
0.0
 10
-35.92442220052083
 20
-5.5847581651475693
 30
0.0
 10
-37.923611111111107
 20
-3.9383470323350691
 30
0.0
 10
-41.863077799479164
 20
-4.6439025878906248
 30
0.0
 10
-44.273611111111109
 20
-4.6439025878906248
 30
0.0
 10
-45.80219997829861
 20
-4.6439025878906248
 30
0.0
 10
-47.801388888888887
 20
-4.3500359429253468
 30
0.0
 10
-49.212499999999999
 20
-4.937769232855902
 30
0.0
  0
SPLINE
  5
52
100
AcDbEntity
  8
LAYER_1
 62
     7
100
AcDbSpline
210
0.0
220
0.0
230
1.0
 70
     8
 71
     3
 72
    47
 73
    43
 74
     0
 42
0.00000001
 43
0.00000001
 40
0.0
 40
0.0
 40
0.0
 40
0.0
 40
1.0
 40
1.0
 40
1.0
 40
2.0
 40
2.0
 40
2.0
 40
3.0
 40
3.0
 40
3.0
 40
4.0
 40
4.0
 40
4.0
 40
5.0
 40
5.0
 40
5.0
 40
6.0
 40
6.0
 40
6.0
 40
7.0
 40
7.0
 40
7.0
 40
8.0
 40
8.0
 40
8.0
 40
9.0
 40
9.0
 40
9.0
 40
10.0
 40
10.0
 40
10.0
 40
11.0
 40
11.0
 40
11.0
 40
12.0
 40
12.0
 40
12.0
 40
13.0
 40
13.0
 40
13.0
 40
14.0
 40
14.0
 40
14.0
 40
14.0
 10
-30.515277777777776
 20
-89.722085910373252
 30
0.0
 10
-32.514466688368053
 20
-90.838985866970475
 30
0.0
 10
-31.926388888888887
 20
-94.131808132595481
 30
0.0
 10
-31.926388888888887
 20
-96.013519287109361
 30
0.0
 10
-31.926388888888887
 20
-100.65819702148437
 30
0.0
 10
-30.338888888888885
 20
-109.3598192003038
 30
0.0
 10
-32.92581108940972
 20
-113.29963039822047
 30
0.0
 10
-34.513311089409719
 20
-115.76907484266492
 30
0.0
 10
-36.159722222222221
 20
-113.94593031141493
 30
0.0
 10
-38.276388888888889
 20
-113.71097479926215
 30
0.0
 10
-41.392477756076389
 20
-113.41676364474826
 30
0.0
 10
-47.036922200520827
 20
-112.8290303548177
 30
0.0
 10
-49.918055555555554
 20
-114.00518595377604
 30
0.0
 10
-53.210533311631941
 20
-115.35704142252604
 30
0.0
 10
-53.269444444444439
 20
-127.41074150933159
 30
0.0
 10
-50.62361111111111
 20
-129.29176364474824
 30
0.0
 10
-49.153588867187494
 20
-130.35009697808158
 30
0.0
 10
-46.684144422743053
 20
-129.88018595377602
 30
0.0
 10
-44.979166666666664
 20
-129.88018595377602
 30
0.0
 10
-41.274999999999999
 20
-129.88018595377602
 30
0.0
 10
-36.924188910590274
 20
-129.70379706488714
 30
0.0
 10
-33.337499999999999
 20
-131.11490817599824
 30
0.0
 10
-26.634722222222219
 20
-133.76074150933158
 30
0.0
 10
-28.163311089409721
 20
-139.16954142252604
 30
0.0
 10
-25.399999999999999
 20
-144.69685262044268
 30
0.0
 10
-24.576966688368053
 20
-146.40148586697046
 30
0.0
 10
-22.401388888888889
 20
-147.04847479926215
 30
0.0
 10
-20.754977756076386
 20
-146.0487080891927
 30
0.0
 10
-19.226388888888888
 20
-145.16676364474824
 30
0.0
 10
-19.285300021701389
 20
-143.46213039822047
 30
0.0
 10
-19.226388888888888
 20
-141.87463039822046
 30
0.0
 10
-19.226388888888888
 20
-141.87463039822046
 30
0.0
 10
-19.226388888888888
 20
-131.29129706488715
 30
0.0
 10
-19.226388888888888
 20
-131.29129706488715
 30
0.0
 10
-19.226388888888888
 20
-131.29129706488715
 30
0.0
 10
-19.226388888888888
 20
-103.06907484266492
 30
0.0
 10
-19.226388888888888
 20
-103.06907484266492
 30
0.0
 10
-19.226388888888888
 20
-99.717685953776027
 30
0.0
 10
-18.226966688368055
 20
-94.308197021484361
 30
0.0
 10
-19.461688910590276
 20
-91.133197021484364
 30
0.0
 10
-20.461111111111109
 20
-88.605185953776029
 30
0.0
 10
-28.457522243923609
 20
-88.487363688151035
 30
0.0
 10
-30.515277777777776
 20
-89.722085910373252
 30
0.0
  0
SPLINE
  5
51
100
AcDbEntity
  8
LAYER_1
 62
     7
100
AcDbSpline
210
0.0
220
0.0
230
1.0
 70
     8
 71
     3
 72
    53
 73
    49
 74
     0
 42
0.00000001
 43
0.00000001
 40
0.0
 40
0.0
 40
0.0
 40
0.0
 40
1.0
 40
1.0
 40
1.0
 40
2.0
 40
2.0
 40
2.0
 40
3.0
 40
3.0
 40
3.0
 40
4.0
 40
4.0
 40
4.0
 40
5.0
 40
5.0
 40
5.0
 40
6.0
 40
6.0
 40
6.0
 40
7.0
 40
7.0
 40
7.0
 40
8.0
 40
8.0
 40
8.0
 40
9.0
 40
9.0
 40
9.0
 40
10.0
 40
10.0
 40
10.0
 40
11.0
 40
11.0
 40
11.0
 40
12.0
 40
12.0
 40
12.0
 40
13.0
 40
13.0
 40
13.0
 40
14.0
 40
14.0
 40
14.0
 40
15.0
 40
15.0
 40
15.0
 40
16.0
 40
16.0
 40
16.0
 40
16.0
 10
-49.565277777777773
 20
-136.8179192437066
 30
0.0
 10
-52.85775553385416
 20
-137.75843031141491
 30
0.0
 10
-51.858333333333327
 20
-141.46259697808159
 30
0.0
 10
-52.152199978298604
 20
-143.99129706488714
 30
0.0
 10
-53.034144422743047
 20
-151.28180813259547
 30
0.0
 10
-52.387499999999996
 20
-158.92509697808157
 30
0.0
 10
-52.387499999999996
 20
-166.21629706488713
 30
0.0
 10
-52.387499999999996
 20
-177.38736368815103
 30
0.0
 10
-52.74027777777777
 20
-188.55843031141492
 30
0.0
 10
-52.74027777777777
 20
-199.73018595377602
 30
0.0
 10
-52.74027777777777
 20
-204.6098192003038
 30
0.0
 10
-53.445833333333326
 20
-210.19569702148436
 30
0.0
 10
-49.212499999999999
 20
-213.60565253363714
 30
0.0
 10
-44.92025553385416
 20
-217.01629706488714
 30
0.0
 10
-37.806133355034717
 20
-215.60518595377602
 30
0.0
 10
-32.631944444444443
 20
-215.60518595377602
 30
0.0
 10
-29.633333333333329
 20
-215.60518595377602
 30
0.0
 10
-25.693866644965276
 20
-216.60426364474824
 30
0.0
 10
-22.754166666666663
 20
-215.78157484266492
 30
0.0
 10
-19.520255533854165
 20
-214.84037475585936
 30
0.0
 10
-19.931944444444444
 20
-211.60680813259546
 30
0.0
 10
-19.931944444444444
 20
-208.90240817599823
 30
0.0
 10
-19.931944444444444
 20
-208.90240817599823
 30
0.0
 10
-19.931944444444444
 20
-189.1468526204427
 30
0.0
 10
-19.931944444444444
 20
-189.1468526204427
 30
0.0
 10
-19.931944444444444
 20
-182.03204142252602
 30
0.0
 10
-19.579166666666666
 20
-174.85935262044271
 30
0.0
 10
-19.579166666666666
 20
-167.62740817599826
 30
0.0
 10
-19.579166666666666
 20
-165.45148586697047
 30
0.0
 10
-18.814699978298609
 20
-161.45379706488714
 30
0.0
 10
-20.225811089409721
 20
-159.63065253363715
 30
0.0
 10
-21.636922200520832
 20
-157.80819702148435
 30
0.0
 10
-24.98831108940972
 20
-158.27879706488713
 30
0.0
 10
-26.987499999999997
 20
-158.04315253363714
 30
0.0
 10
-29.868633355034721
 20
-157.74963039822046
 30
0.0
 10
-32.455555555555556
 20
-155.92648586697047
 30
0.0
 10
-33.98414442274305
 20
-153.51629706488714
 30
0.0
 10
-36.042244466145831
 20
-150.22347479926214
 30
0.0
 10
-35.80694444444444
 20
-146.69569702148436
 30
0.0
 10
-35.80694444444444
 20
-142.9329637315538
 30
0.0
 10
-35.80694444444444
 20
-141.2276414659288
 30
0.0
 10
-35.395255533854161
 20
-138.81676364474825
 30
0.0
 10
-36.98275553385416
 20
-137.58204142252603
 30
0.0
 10
-38.92303331163194
 20
-136.05379706488714
 30
0.0
 10
-42.333333333333329
 20
-136.5829637315538
 30
0.0
 10
-44.626388888888883
 20
-136.5829637315538
 30
0.0
 10
-46.213888888888881
 20
-136.5829637315538
 30
0.0
 10
-48.036688910590271
 20
-136.34731920030382
 30
0.0
 10
-49.565277777777773
 20
-136.8179192437066
 30
0.0
  0
ENDBLK
  5
59
100
AcDbEntity
  8
LAYER_1
100
AcDbBlockEnd
  0
ENDSEC
  0
SECTION
  2
ENTITIES
  0
INSERT
  5
4F
100
AcDbEntity
  8
LAYER_1
 62
     7
100
AcDbBlockReference
  2
AI9-BLK3
 10
205.148201
 20
358.131542
 30
0.0
  0
INSERT
  5
43
100
AcDbEntity
  8
LAYER_1
 62
     7
100
AcDbBlockReference
  2
AI9-BLK2
 10
355.054125
 20
358.624535
 30
0.0
  0
INSERT
  5
2A
100
AcDbEntity
  8
LAYER_1
 62
     7
100
AcDbBlockReference
  2
AI9-BLK1
 10
63.523254
 20
339.382902
 30
0.0
  0
ENDSEC
  0
SECTION
  2
OBJECTS
  0
DICTIONARY
  5
19
100
AcDbDictionary
280
     0
281
     1
  3
ACAD_GROUP
350
1A
  3
ACAD_MLINESTYLE
350
1B
  3
ACAD_LAYOUT
350
1E
  3
ACAD_PLOTSETTINGS
350
22
  3
ACAD_PLOTSTYLENAME
350
1F
  3
ACAD_WIPEOUT_VARS
350
23
  0
DICTIONARY
  5
1A
102
{ACAD_REACTORS
330
19
102
}
100
AcDbDictionary
280
     0
281
     1
  0
DICTIONARY
  5
1B
102
{ACAD_REACTORS
330
19
102
}
100
AcDbDictionary
280
     0
281
     1
  3
Standard
350
1C
  0
MLINESTYLE
  5
1C
102
{ACAD_REACTORS
330
1B
102
}
100
AcDbMlineStyle
  2
Standard
 70
     0
  3

 62
     0
 51
90.0
 52
90.0
 71
     2
 49
0.5
 62
   256
  6
BYLAYER
 49
-0.5
 62
   256
  6
BYLAYER
  0
ACDBDICTIONARYWDFLT
  5
1F
102
{ACAD_REACTORS
330
19
102
}
100
AcDbDictionary
281
     1
  3
Normal
350
1D
100
AcDbDictionaryWithDefault
340
1D
  0
ACDBPLACEHOLDER
  5
1D
102
{ACAD_REACTORS
330
1F
102
}
  0
LAYOUT
  5
20
102
{ACAD_REACTORS
330
1E
102
}
100
AcDbPlotSettings
  1

  2

  4

  6

 40
0.0
 41
0.0
 42
0.0
 43
0.0
 44
0.0
 45
0.0
 46
0.0
 47
0.0
 48
0.0
 49
0.0
140
0.0
141
0.0
142
1.0
143
1.0
 70
  1024
 72
     0
 73
     0
 74
     0
  7

 75
     0
147
1.0
148
0.0
149
0.0
100
AcDbLayout
  1
Model
 70
     0
 71
     0
 10
0.0
 20
0.0
 11
0.0
 21
0.0
 12
0.0
 22
0.0
 32
0.0
 14
0.0
 24
0.0
 34
0.0
 15
0.0
 25
0.0
 35
0.0
146
0.0
 13
0.0
 23
0.0
 33
0.0
 16
0.0
 26
0.0
 36
0.0
 17
0.0
 27
0.0
 37
0.0
 76
     0
330
A
331
0
345
0
346
0
  0
LAYOUT
  5
21
102
{ACAD_REACTORS
330
1E
102
}
100
AcDbPlotSettings
  1

  2

  4

  6

 40
0.0
 41
0.0
 42
0.0
 43
0.0
 44
0.0
 45
0.0
 46
0.0
 47
0.0
 48
0.0
 49
0.0
140
0.0
141
0.0
142
1.0
143
1.0
 70
     0
 72
     0
 73
     0
 74
     0
  7

 75
     0
147
1.0
148
0.0
149
0.0
100
AcDbLayout
  1
Layout1
 70
     0
 71
     0
 10
0.0
 20
0.0
 11
0.0
 21
0.0
 12
0.0
 22
0.0
 32
0.0
 14
0.0
 24
0.0
 34
0.0
 15
0.0
 25
0.0
 35
0.0
146
0.0
 13
0.0
 23
0.0
 33
0.0
 16
0.0
 26
0.0
 36
0.0
 17
0.0
 27
0.0
 37
0.0
 76
     0
330
B
331
0
345
0
346
0
  0
DICTIONARY
  5
1E
102
{ACAD_REACTORS
330
19
102
}
100
AcDbDictionary
280
     0
281
     1
  3
Layout1
350
21
  3
Model
350
20
  0
DICTIONARY
  5
22
102
{ACAD_REACTORS
330
19
102
}
100
AcDbDictionary
280
     0
281
     1
  0
WIPEOUTVARIABLES
  5
23
100
AcDbWipeoutVariables
 70
     1
  0
ENDSEC
  0
EOF
