  0
SECTION
  2
HEADER
  9
$ACADVER
  1
AC1015
  9
$ACADMAINTVER
 70
     6
  9
$DWGCODEPAGE
  3
ANSI_932
  9
$INSBASE
 10
0.0
 20
0.0
 30
0.0
  9
$EXTMIN
 10
-93.159172
 20
-184.022187
 30
1.000000E+20
  9
$EXTMAX
 10
314.310875
 20
456.809326
 30
-1.000000E+20
  9
$LIMMIN
 10
-93.159172
 20
-184.022187
  9
$LIMMAX
 10
314.310875
 20
456.809326
  9
$ORTHOMODE
 70
     0
  9
$REGENMODE
 70
     1
  9
$FILLMODE
 70
     1
  9
$QTEXTMODE
 70
     0
  9
$MIRRTEXT
 70
     1
  9
$LTSCALE
 40
1.0
  9
$ATTMODE
 70
     1
  9
$TEXTSIZE
 40
0.2
  9
$TRACEWID
 40
0.05
  9
$TEXTSTYLE
  7
Standard
  9
$CLAYER
  8
0
  9
$CELTYPE
  6
Continuous
  9
$CECOLOR
 62
   256
  9
$CELTSCALE
 40
1.0
  9
$DISPSILH
 70
     0
  9
$DIMSCALE
 40
1.0
  9
$DIMASZ
 40
0.18
  9
$DIMEXO
 40
0.0625
  9
$DIMDLI
 40
0.38
  9
$DIMRND
 40
0.0
  9
$DIMDLE
 40
0.0
  9
$DIMEXE
 40
0.18
  9
$DIMTP
 40
0.0
  9
$DIMTM
 40
0.0
  9
$DIMTXT
 40
0.18
  9
$DIMCEN
 40
0.09
  9
$DIMTSZ
 40
0.0
  9
$DIMTOL
 70
     0
  9
$DIMLIM
 70
     0
  9
$DIMTIH
 70
     1
  9
$DIMTOH
 70
     1
  9
$DIMSE1
 70
     0
  9
$DIMSE2
 70
     0
  9
$DIMTAD
 70
     0
  9
$DIMZIN
 70
     0
  9
$DIMBLK
  1

  9
$DIMASO
 70
     1
  9
$DIMSHO
 70
     1
  9
$DIMPOST
  1

  9
$DIMAPOST
  1

  9
$DIMALT
 70
     0
  9
$DIMALTD
 70
     2
  9
$DIMALTF
 40
25.4
  9
$DIMLFAC
 40
1.0
  9
$DIMTOFL
 70
     0
  9
$DIMTVP
 40
0.0
  9
$DIMTIX
 70
     0
  9
$DIMSOXD
 70
     0
  9
$DIMSAH
 70
     0
  9
$DIMBLK1
  1

  9
$DIMBLK2
  1

  9
$DIMSTYLE
  2
Standard
  9
$DIMCLRD
 70
     0
  9
$DIMCLRE
 70
     0
  9
$DIMCLRT
 70
     0
  9
$DIMTFAC
 40
1.0
  9
$DIMGAP
 40
0.09
  9
$DIMJUST
 70
     0
  9
$DIMSD1
 70
     0
  9
$DIMSD2
 70
     0
  9
$DIMTOLJ
 70
     1
  9
$DIMTZIN
 70
     0
  9
$DIMALTZ
 70
     0
  9
$DIMALTTZ
 70
     0
  9
$DIMUPT
 70
     0
  9
$DIMDEC
 70
     4
  9
$DIMTDEC
 70
     4
  9
$DIMALTU
 70
     2
  9
$DIMALTTD
 70
     2
  9
$DIMTXSTY
  7
Standard
  9
$DIMAUNIT
 70
     0
  9
$DIMADEC
 70
     0
  9
$DIMALTRND
 40
0.0
  9
$DIMAZIN
 70
     0
  9
$DIMDSEP
 70
     0
  9
$DIMATFIT
 70
     3
  9
$DIMFRAC
 70
     0
  9
$DIMLDRBLK
  1

  9
$DIMLUNIT
 70
     2
  9
$DIMLWD
 70
     0
  9
$DIMLWE
 70
     0
  9
$DIMTMOVE
 70
     0
  9
$LUNITS
 70
     2
  9
$LUPREC
 70
     4
  9
$SKETCHINC
 40
0.1
  9
$FILLETRAD
 40
0.0
  9
$AUNITS
 70
     0
  9
$AUPREC
 70
     0
  9
$MENU
  1
acad
  9
$ELEVATION
 40
0.0
  9
$PELEVATION
 40
0.0
  9
$THICKNESS
 40
0.0
  9
$LIMCHECK
 70
     0
  9
$CHAMFERA
 40
0.0
  9
$CHAMFERB
 40
0.0
  9
$CHAMFERC
 40
0.0
  9
$CHAMFERD
 40
0.0
  9
$SKPOLY
 70
     0
  9
$TDCREATE
 40
0.000000000
  9
$TDUCREATE
 40
0.000000000
  9
$TDUPDATE
 40
0.000000000
  9
$TDUUPDATE
 40
0.000000000
  9
$TDINDWG
 40
0.0000000000
  9
$TDUSRTIMER
 40
0.0000000000
  9
$USRTIMER
 70
     1
  9
$ANGBASE
 50
0.0
  9
$ANGDIR
 70
     0
  9
$PDMODE
 70
     0
  9
$PDSIZE
 40
0.0
  9
$PLINEWID
 40
0.0
  9
$SPLFRAME
 70
     0
  9
$SPLINETYPE
 70
     6
  9
$SPLINESEGS
 70
     8
  9
$HANDSEED
  5
52
  9
$SURFTAB1
 70
     6
  9
$SURFTAB2
 70
     6
  9
$SURFTYPE
 70
     6
  9
$SURFU
 70
     6
  9
$SURFV
 70
     6
  9
$UCSBASE
  2

  9
$UCSNAME
  2

  9
$UCSORG
 10
0.0
 20
0.0
 30
0.0
  9
$UCSXDIR
 10
1.0
 20
0.0
 30
0.0
  9
$UCSYDIR
 10
0.0
 20
1.0
 30
0.0
  9
$UCSORTHOREF
  2

  9
$UCSORTHOVIEW
 70
     0
  9
$UCSORGTOP
 10
0.0
 20
0.0
 30
0.0
  9
$UCSORGBOTTOM
 10
0.0
 20
0.0
 30
0.0
  9
$UCSORGLEFT
 10
0.0
 20
0.0
 30
0.0
  9
$UCSORGRIGHT
 10
0.0
 20
0.0
 30
0.0
  9
$UCSORGFRONT
 10
0.0
 20
0.0
 30
0.0
  9
$UCSORGBACK
 10
0.0
 20
0.0
 30
0.0
  9
$PUCSBASE
  2

  9
$PUCSNAME
  2

  9
$PUCSORG
 10
0.0
 20
0.0
 30
0.0
  9
$PUCSXDIR
 10
1.0
 20
0.0
 30
0.0
  9
$PUCSYDIR
 10
0.0
 20
1.0
 30
0.0
  9
$PUCSORTHOREF
  2

  9
$PUCSORTHOVIEW
 70
     0
  9
$PUCSORGTOP
 10
0.0
 20
0.0
 30
0.0
  9
$PUCSORGBOTTOM
 10
0.0
 20
0.0
 30
0.0
  9
$PUCSORGLEFT
 10
0.0
 20
0.0
 30
0.0
  9
$PUCSORGRIGHT
 10
0.0
 20
0.0
 30
0.0
  9
$PUCSORGFRONT
 10
0.0
 20
0.0
 30
0.0
  9
$PUCSORGBACK
 10
0.0
 20
0.0
 30
0.0
  9
$USERI1
 70
     0
  9
$USERI2
 70
     0
  9
$USERI3
 70
     0
  9
$USERI4
 70
     0
  9
$USERI5
 70
     0
  9
$USERR1
 40
0.0
  9
$USERR2
 40
0.0
  9
$USERR3
 40
0.0
  9
$USERR4
 40
0.0
  9
$USERR5
 40
0.0
  9
$WORLDVIEW
 70
     1
  9
$SHADEDGE
 70
     3
  9
$SHADEDIF
 70
    70
  9
$TILEMODE
 70
     1
  9
$MAXACTVP
 70
    16
  9
$PINSBASE
 10
0.0
 20
0.0
 30
0.0
  9
$PLIMCHECK
 70
     0
  9
$PEXTMIN
 10
1.000000E+20
 20
1.000000E+20
 30
1.000000E+20
  9
$PEXTMAX
 10
-1.000000E+20
 20
-1.000000E+20
 30
-1.000000E+20
  9
$PLIMMIN
 10
0.0
 20
0.0
  9
$PLIMMAX
 10
12.0
 20
9.0
  9
$UNITMODE
 70
     0
  9
$VISRETAIN
 70
     0
  9
$PLINEGEN
 70
     1
  9
$PSLTSCALE
 70
     0
  9
$TREEDEPTH
 70
  3020
  9
$CMLSTYLE
  2
Standard
  9
$CMLJUST
 70
     0
  9
$CMLSCALE
 40
1.0
  9
$PROXYGRAPHICS
 70
     0
  9
$MEASUREMENT
 70
     0
  9
$CELWEIGHT
370
     0
  9
$ENDCAPS
280
     0
  9
$JOINSTYLE
280
     0
  9
$LWDISPLAY
290
     0
  9
$INSUNITS
 70
     0
  9
$HYPERLINKBASE
  1

  9
$XEDIT
290
     1
  9
$CEPSNTYPE
380
     0
  9
$PSTYLEMODE
290
     1
  9
$FINGERPRINTGUID
  2

  9
$VERSIONGUID
  2

  9
$EXTNAMES
290
     1
  9
$PSVPSCALE
 40
0.0
  0
ENDSEC
  0
SECTION
  2
CLASSES
  0
CLASS
  1
LWPOLYLINE
  2
AcDbPolyline
  3
"AutoCAD"
 90
        0
280
     0
281
     1
  0
CLASS
  1
IMAGE
  2
AcDbRasterImage
  3
ISM
 90
      127
280
     0
281
     1
  0
CLASS
  1
OLE2FRAME
  2
AcDbOle2Frame
  3
""
 90
        0
280
     0
281
     1
  0
CLASS
  1
HATCH
  2
AcDbHatch
  3
"ACAD_SEDONA"
 90
        0
280
     0
281
     1
  0
CLASS
  1
DICTIONARYVAR
  2
AcDbDictionaryVar
  3
"AutoCAD"
 90
        0
280
     0
281
     0
  0
CLASS
  1
RASTERVARIABLES
  2
AcDbRasterVariables
  3
ISM
 90
        0
280
     0
281
     0
  0
CLASS
  1
IMAGEDEF
  2
AcDbRasterImageDef
  3
ISM
 90
        0
280
     0
281
     0
  0
CLASS
  1
IMAGEDEF_REACTOR
  2
AcDbRasterImageDefReactor
  3
ISM
 90
        1
280
     0
281
     0
  0
CLASS
  1
IDBUFFER
  2
AcDbIdBuffer
  3
"Acad"
 90
        0
280
     0
281
     0
  0
CLASS
  1
SPATIAL_FILTER
  2
AcDbSpatialFilter
  3
"Acad"
 90
        0
280
     0
281
     0
  0
CLASS
  1
XRECORD
  2
AcDbXrecord
  3
"<Built In>"
 90
        0
280
     0
281
     0
  0
CLASS
  1
SORTENTSTABLE
  2
AcDbSortentsTable
  3
"AutoCAD"
 90
        0
280
     0
281
     0
  0
CLASS
  1
LAYER_INDEX
  2
AcDbLayerIndex
  3
"Acad"
 90
        0
280
     0
281
     0
  0
CLASS
  1
SPATIAL_INDEX
  2
AcDbSpatialIndex
  3
"Acad"
 90
        0
280
     0
281
     0
  0
CLASS
  1
OBJECT_PTR
  2
CAseDLPNTableRecord
  3
"ASE-LPNTableRecord"
 90
        1
280
     0
281
     0
  0
CLASS
  1
LAYOUT
  2
AcDbLayout
  3
"AutoCAD 2000"
 90
        1
280
     0
281
     0
  0
CLASS
  1
PLOTSETTINGS
  2
AcDbPlotSettings
  3
"AutoCAD 2000"
 90
        1
280
     0
281
     0
  0
CLASS
  1
ACDBDICTIONARYWDFLT
  2
AcDbDictionaryWithDefault
  3
"AutoCAD 2000"
 90
        1
280
     0
281
     0
  0
CLASS
  1
ACDBPLACEHOLDER
  2
AcDbPlaceHolder
  3
"AutoCAD 2000"
 90
        1
280
     0
281
     0
  0
CLASS
  1
VBA_PROJECT
  2
AcDbVbaProject
  3
"acadvba"
 90
        1
280
     0
281
     0
  0
CLASS
  1
WIPEOUT
  2
AcDbWipeout
  3
WipeOut|AutoCAD Express Tool|expresstools@autodesk.com
 90
      127
280
     0
281
     1
  0
CLASS
  1
WIPEOUTVARIABLES
  2
AcDbWipeoutVariables
  3
WipeOut|AutoCAD Express Tool|expresstools@autodesk.com
 90
        0
280
     0
281
     0
  0
CLASS
  1
RTEXT
  2
RText
  3
RText|AutoCAD Express Tool|expresstools@autodesk.com
 90
        0
280
     0
281
     1
  0
CLASS
  1
ARCALIGNEDTEXT
  2
AcDbArcAlignedText
  3
ATEXT|AutoCAD Express Tool|expresstools@autodesk.com
 90
        0
280
     0
281
     1
  0
ENDSEC
  0
SECTION
  2
TABLES
  0
TABLE
  2
VPORT
  5
7
100
AcDbSymbolTable
 70
     1
  0
VPORT
  5
15
100
AcDbSymbolTableRecord
100
AcDbViewportTableRecord
  2
*ACTIVE
 70
     0
 10
0.0
 20
0.0
 11
1.0
 21
1.0
 12
6.591288
 22
4.579184
 13
0.0
 23
0.0
 14
1.0
 24
1.0
 15
0.0
 25
0.0
 16
0.0
 26
0.0
 36
1.0
 17
0.0
 27
0.0
 37
0.0
 40
9.158369
 41
0.688564
 42
50.0
 43
0.0
 44
0.0
 50
0.0
 51
0.0
 71
     0
 72
   100
 73
     1
 74
     1
 75
     0
 76
     0
 77
     0
 78
     0
281
     0
 65
     0
110
0.0
120
0.0
130
0.0
111
1.0
121
0.0
131
0.0
112
0.0
122
1.0
132
0.0
345
0
346
0
 79
     0
146
0.0
  0
ENDTAB
  0
TABLE
  2
LTYPE
  5
4
100
AcDbSymbolTable
 70
     3
  0
LTYPE
  5
11
100
AcDbSymbolTableRecord
100
AcDbLinetypeTableRecord
  2
ByBlock
 70
    64
  3

 72
    65
 73
     0
 40
0.0
  0
LTYPE
  5
12
100
AcDbSymbolTableRecord
100
AcDbLinetypeTableRecord
  2
ByLayer
 70
    64
  3

 72
    65
 73
     0
 40
0.0
  0
LTYPE
  5
13
100
AcDbSymbolTableRecord
100
AcDbLinetypeTableRecord
  2
Continuous
 70
    64
  3
Solid line
 72
    65
 73
     0
 40
0.0
  0
ENDTAB
  0
TABLE
  2
LAYER
  5
2
100
AcDbSymbolTable
 70
     2
  0
LAYER
  5
14
100
AcDbSymbolTableRecord
100
AcDbLayerTableRecord
  2
0
 70
     0
 62
     7
  6
Continuous
290
     1
370
    -3
390
1D
  0
LAYER
  5
28
100
AcDbSymbolTableRecord
100
AcDbLayerTableRecord
  2
LAYER_1
 70
     0
 62
     5
  6
Continuous
290
     1
370
    -3
390
1F
  0
ENDTAB
  0
TABLE
  2
STYLE
  5
3
100
AcDbSymbolTable
 70
     5
  0
STYLE
  5
17
100
AcDbSymbolTableRecord
100
AcDbTextStyleTableRecord
  2
Standard
 70
     0
 40
0.0
 41
1.0
 50
0.0
 71
     0
 42
0.0
  3
txt
  4

  0
STYLE
  5
24
100
AcDbSymbolTableRecord
100
AcDbTextStyleTableRecord
  2
STD
 70
     0
 40
0.0
 41
1.0
 50
0.0
 71
     0
 42
0.0
  3
txt
  4

  0
STYLE
  5
25
100
AcDbSymbolTableRecord
100
AcDbTextStyleTableRecord
  2
TATESTD
 70
     4
 40
0.0
 41
1.0
 50
0.0
 71
     0
 42
0.0
  3
txt
  4

  0
STYLE
  5
26
100
AcDbSymbolTableRecord
100
AcDbTextStyleTableRecord
  2
KANJISTD
 70
     0
 40
0.0
 41
1.0
 50
0.0
 71
     0
 42
0.0
  3
txt
  4
extfont
  0
STYLE
  5
27
100
AcDbSymbolTableRecord
100
AcDbTextStyleTableRecord
  2
KANJITATE
 70
     4
 40
0.0
 41
1.0
 50
0.0
 71
     0
 42
0.0
  3
txt
  4
extfont
  0
ENDTAB
  0
TABLE
  2
VIEW
  5
5
100
AcDbSymbolTable
 70
     0
  0
ENDTAB
  0
TABLE
  2
UCS
  5
6
100
AcDbSymbolTable
 70
     0
  0
ENDTAB
  0
TABLE
  2
APPID
  5
8
100
AcDbSymbolTable
 70
     1
  0
APPID
  5
16
100
AcDbSymbolTableRecord
100
AcDbRegAppTableRecord
  2
ACAD
 70
     0
  0
ENDTAB
  0
TABLE
  2
DIMSTYLE
  5
9
100
AcDbSymbolTable
 70
     1
100
AcDbDimStyleTable
 71
     0
  0
DIMSTYLE
105
18
100
AcDbSymbolTableRecord
100
AcDbDimStyleTableRecord
  2
Standard
 70
     0
  3

  4

 40
1.0
 41
0.18
 42
0.0625
 43
0.38
 44
0.18
 45
0.0
 46
0.0
 47
0.0
 48
0.0
 71
     0
 72
     0
 73
     1
 74
     1
 75
     0
 76
     0
 77
     0
 78
     0
 79
     0
140
0.18
141
0.09
142
0.0
143
25.4
144
1.0
145
0.0
146
1.0
147
0.09
148
0.0
170
     0
171
     2
172
     0
173
     0
174
     0
175
     0
176
     0
177
     0
178
     0
179
     0
271
     4
272
     4
273
     2
274
     2
275
     0
276
     0
277
     2
278
    46
279
     0
280
     0
281
     0
282
     0
283
     1
284
     0
285
     0
286
     0
288
     0
340
17
341
0
342
0
343
0
344
0
371
    -2
372
    -2
  0
ENDTAB
  0
TABLE
  2
BLOCK_RECORD
  5
1
100
AcDbSymbolTable
 70
     0
  0
BLOCK_RECORD
  5
A
100
AcDbSymbolTableRecord
100
AcDbBlockTableRecord
  2
*MODEL_SPACE
340
20
  0
BLOCK_RECORD
  5
B
100
AcDbSymbolTableRecord
100
AcDbBlockTableRecord
  2
*PAPER_SPACE
340
21
  0
ENDTAB
  0
ENDSEC
  0
SECTION
  2
BLOCKS
  0
BLOCK
  5
D
100
AcDbEntity
  8
0
100
AcDbBlockBegin
  2
*MODEL_SPACE
 70
     0
 10
0.0
 20
0.0
 30
0.0
  3
*MODEL_SPACE
  1

  0
ENDBLK
  5
E
100
AcDbEntity
  8
0
100
AcDbBlockEnd
  0
BLOCK
  5
F
100
AcDbEntity
 67
     1
  8
0
100
AcDbBlockBegin
  2
*PAPER_SPACE
 70
     0
 10
0.0
 20
0.0
 30
0.0
  3
*PAPER_SPACE
  1

  0
ENDBLK
  5
10
100
AcDbEntity
 67
     1
  8
0
100
AcDbBlockEnd
  0
ENDSEC
  0
SECTION
  2
ENTITIES
  0
SPLINE
  5
51
100
AcDbEntity
  8
LAYER_1
 62
     7
100
AcDbSpline
210
0.0
220
0.0
230
1.0
 70
     8
 71
     3
 72
   335
 73
   331
 74
     0
 42
0.00000001
 43
0.00000001
 40
0.0
 40
0.0
 40
0.0
 40
0.0
 40
1.0
 40
1.0
 40
1.0
 40
2.0
 40
2.0
 40
2.0
 40
3.0
 40
3.0
 40
3.0
 40
4.0
 40
4.0
 40
4.0
 40
5.0
 40
5.0
 40
5.0
 40
6.0
 40
6.0
 40
6.0
 40
7.0
 40
7.0
 40
7.0
 40
8.0
 40
8.0
 40
8.0
 40
9.0
 40
9.0
 40
9.0
 40
10.0
 40
10.0
 40
10.0
 40
11.0
 40
11.0
 40
11.0
 40
12.0
 40
12.0
 40
12.0
 40
13.0
 40
13.0
 40
13.0
 40
14.0
 40
14.0
 40
14.0
 40
15.0
 40
15.0
 40
15.0
 40
16.0
 40
16.0
 40
16.0
 40
17.0
 40
17.0
 40
17.0
 40
18.0
 40
18.0
 40
18.0
 40
19.0
 40
19.0
 40
19.0
 40
20.0
 40
20.0
 40
20.0
 40
21.0
 40
21.0
 40
21.0
 40
22.0
 40
22.0
 40
22.0
 40
23.0
 40
23.0
 40
23.0
 40
24.0
 40
24.0
 40
24.0
 40
25.0
 40
25.0
 40
25.0
 40
26.0
 40
26.0
 40
26.0
 40
27.0
 40
27.0
 40
27.0
 40
28.0
 40
28.0
 40
28.0
 40
29.0
 40
29.0
 40
29.0
 40
30.0
 40
30.0
 40
30.0
 40
31.0
 40
31.0
 40
31.0
 40
32.0
 40
32.0
 40
32.0
 40
33.0
 40
33.0
 40
33.0
 40
34.0
 40
34.0
 40
34.0
 40
35.0
 40
35.0
 40
35.0
 40
36.0
 40
36.0
 40
36.0
 40
37.0
 40
37.0
 40
37.0
 40
38.0
 40
38.0
 40
38.0
 40
39.0
 40
39.0
 40
39.0
 40
40.0
 40
40.0
 40
40.0
 40
41.0
 40
41.0
 40
41.0
 40
42.0
 40
42.0
 40
42.0
 40
43.0
 40
43.0
 40
43.0
 40
44.0
 40
44.0
 40
44.0
 40
45.0
 40
45.0
 40
45.0
 40
46.0
 40
46.0
 40
46.0
 40
47.0
 40
47.0
 40
47.0
 40
48.0
 40
48.0
 40
48.0
 40
49.0
 40
49.0
 40
49.0
 40
50.0
 40
50.0
 40
50.0
 40
51.0
 40
51.0
 40
51.0
 40
52.0
 40
52.0
 40
52.0
 40
53.0
 40
53.0
 40
53.0
 40
54.0
 40
54.0
 40
54.0
 40
55.0
 40
55.0
 40
55.0
 40
56.0
 40
56.0
 40
56.0
 40
57.0
 40
57.0
 40
57.0
 40
58.0
 40
58.0
 40
58.0
 40
59.0
 40
59.0
 40
59.0
 40
60.0
 40
60.0
 40
60.0
 40
61.0
 40
61.0
 40
61.0
 40
62.0
 40
62.0
 40
62.0
 40
63.0
 40
63.0
 40
63.0
 40
64.0
 40
64.0
 40
64.0
 40
65.0
 40
65.0
 40
65.0
 40
66.0
 40
66.0
 40
66.0
 40
67.0
 40
67.0
 40
67.0
 40
68.0
 40
68.0
 40
68.0
 40
69.0
 40
69.0
 40
69.0
 40
70.0
 40
70.0
 40
70.0
 40
71.0
 40
71.0
 40
71.0
 40
72.0
 40
72.0
 40
72.0
 40
73.0
 40
73.0
 40
73.0
 40
74.0
 40
74.0
 40
74.0
 40
75.0
 40
75.0
 40
75.0
 40
76.0
 40
76.0
 40
76.0
 40
77.0
 40
77.0
 40
77.0
 40
78.0
 40
78.0
 40
78.0
 40
79.0
 40
79.0
 40
79.0
 40
80.0
 40
80.0
 40
80.0
 40
81.0
 40
81.0
 40
81.0
 40
82.0
 40
82.0
 40
82.0
 40
83.0
 40
83.0
 40
83.0
 40
84.0
 40
84.0
 40
84.0
 40
85.0
 40
85.0
 40
85.0
 40
86.0
 40
86.0
 40
86.0
 40
87.0
 40
87.0
 40
87.0
 40
88.0
 40
88.0
 40
88.0
 40
89.0
 40
89.0
 40
89.0
 40
90.0
 40
90.0
 40
90.0
 40
91.0
 40
91.0
 40
91.0
 40
92.0
 40
92.0
 40
92.0
 40
93.0
 40
93.0
 40
93.0
 40
94.0
 40
94.0
 40
94.0
 40
95.0
 40
95.0
 40
95.0
 40
96.0
 40
96.0
 40
96.0
 40
97.0
 40
97.0
 40
97.0
 40
98.0
 40
98.0
 40
98.0
 40
99.0
 40
99.0
 40
99.0
 40
100.0
 40
100.0
 40
100.0
 40
101.0
 40
101.0
 40
101.0
 40
102.0
 40
102.0
 40
102.0
 40
103.0
 40
103.0
 40
103.0
 40
104.0
 40
104.0
 40
104.0
 40
105.0
 40
105.0
 40
105.0
 40
106.0
 40
106.0
 40
106.0
 40
107.0
 40
107.0
 40
107.0
 40
108.0
 40
108.0
 40
108.0
 40
109.0
 40
109.0
 40
109.0
 40
110.0
 40
110.0
 40
110.0
 40
110.0
 10
-72.319444444444443
 20
172.15555555555554
 30
0.0
 10
-72.359235297309027
 20
174.62465549045137
 30
0.0
 10
-71.61388888888888
 20
177.44722222222219
 30
0.0
 10
-73.024999999999991
 20
179.21111111111111
 30
0.0
 10
-78.316666666666663
 20
179.56388888888887
 30
0.0
 10
-83.60833333333332
 20
178.50555555555553
 30
0.0
 10
-88.899999999999991
 20
179.56388888888887
 30
0.0
 10
-89.958333333333329
 20
179.91666666666666
 30
0.0
 10
-91.36944444444444
 20
180.97499999999999
 30
0.0
 10
-91.36944444444444
 20
182.0333333333333
 30
0.0
 10
-93.4861111111111
 20
190.49999999999997
 30
0.0
 10
-91.36944444444444
 20
198.61388888888888
 30
0.0
 10
-92.427777777777763
 20
207.08055555555555
 30
0.0
 10
-91.36944444444444
 20
216.25277777777777
 30
0.0
 10
-93.133333333333326
 20
225.07222222222219
 30
0.0
 10
-91.36944444444444
 20
234.5972222222222
 30
0.0
 10
-91.36944444444444
 20
235.30277777777775
 30
0.0
 10
-90.311111111111103
 20
236.36111111111109
 30
0.0
 10
-89.605555555555554
 20
236.71388888888887
 30
0.0
 10
-84.313888888888883
 20
238.47777777777776
 30
0.0
 10
-78.669444444444437
 20
236.71388888888887
 30
0.0
 10
-73.024999999999991
 20
237.41944444444442
 30
0.0
 10
-72.672222222222217
 20
237.41944444444442
 30
0.0
 10
-72.319444444444443
 20
237.77222222222221
 30
0.0
 10
-72.319444444444443
 20
238.12499999999997
 30
0.0
 10
-72.672222222222217
 20
262.46666666666664
 30
0.0
 10
-71.61388888888888
 20
286.45555555555552
 30
0.0
 10
-72.319444444444443
 20
310.79722222222222
 30
0.0
 10
-77.6111111111111
 20
311.85555555555555
 30
0.0
 10
-83.255555555555546
 20
310.09166666666664
 30
0.0
 10
-88.547222222222217
 20
311.85555555555555
 30
0.0
 10
-89.958333333333329
 20
312.20833333333331
 30
0.0
 10
-91.36944444444444
 20
313.26666666666665
 30
0.0
 10
-91.36944444444444
 20
314.67777777777775
 30
0.0
 10
-93.133333333333326
 20
331.96388888888885
 30
0.0
 10
-92.780555555555551
 20
348.54444444444442
 30
0.0
 10
-91.36944444444444
 20
365.83055555555552
 30
0.0
 10
-91.36944444444444
 20
367.59444444444443
 30
0.0
 10
-89.958333333333329
 20
369.00555555555553
 30
0.0
 10
-88.194444444444443
 20
369.00555555555553
 30
0.0
 10
-82.902777777777771
 20
369.71111111111105
 30
0.0
 10
-77.6111111111111
 20
369.35833333333329
 30
0.0
 10
-72.319444444444443
 20
369.71111111111105
 30
0.0
 10
-71.261111111111106
 20
381.35277777777776
 30
0.0
 10
-71.966666666666654
 20
392.99444444444441
 30
0.0
 10
-71.966666666666654
 20
404.63611111111106
 30
0.0
 10
-71.966666666666654
 20
404.98888888888888
 30
0.0
 10
-72.319444444444443
 20
405.34166666666664
 30
0.0
 10
-72.672222222222217
 20
405.34166666666664
 30
0.0
 10
-77.963888888888889
 20
405.6944444444444
 30
0.0
 10
-83.255555555555546
 20
404.63611111111106
 30
0.0
 10
-88.547222222222217
 20
405.6944444444444
 30
0.0
 10
-89.958333333333329
 20
406.39999999999998
 30
0.0
 10
-91.36944444444444
 20
407.81111111111107
 30
0.0
 10
-91.36944444444444
 20
409.22222222222217
 30
0.0
 10
-92.074999999999989
 20
414.1611111111111
 30
0.0
 10
-92.780555555555551
 20
418.74722222222221
 30
0.0
 10
-91.722222222222214
 20
423.68611111111107
 30
0.0
 10
-89.958333333333329
 20
425.09722222222217
 30
0.0
 10
-87.48888888888888
 20
424.03888888888883
 30
0.0
 10
-85.37222222222222
 20
425.09722222222217
 30
0.0
 10
-85.724999999999994
 20
426.50833333333327
 30
0.0
 10
-84.666666666666657
 20
428.27222222222218
 30
0.0
 10
-85.724999999999994
 20
428.62499999999994
 30
0.0
 10
-87.48888888888888
 20
429.68333333333328
 30
0.0
 10
-90.311111111111103
 20
428.27222222222218
 30
0.0
 10
-91.722222222222214
 20
430.38888888888886
 30
0.0
 10
-91.722222222222214
 20
430.74166666666662
 30
0.0
 10
-91.722222222222214
 20
431.09444444444438
 30
0.0
 10
-92.074999999999989
 20
431.44722222222219
 30
0.0
 10
-91.36944444444444
 20
432.15277777777771
 30
0.0
 10
-91.722222222222214
 20
433.21111111111105
 30
0.0
 10
-91.722222222222214
 20
433.91666666666663
 30
0.0
 10
-92.427777777777763
 20
434.97499999999997
 30
0.0
 10
-91.722222222222214
 20
435.68055555555554
 30
0.0
 10
-91.722222222222214
 20
436.38611111111106
 30
0.0
 10
-91.722222222222214
 20
437.09166666666664
 30
0.0
 10
-90.663888888888877
 20
437.4444444444444
 30
0.0
 10
-90.311111111111103
 20
437.4444444444444
 30
0.0
 10
-56.797222222222217
 20
437.79722222222216
 30
0.0
 10
-22.930555555555554
 20
437.4444444444444
 30
0.0
 10
10.583333333333332
 20
437.4444444444444
 30
0.0
 10
13.405555555555555
 20
436.0333333333333
 30
0.0
 10
11.994444444444444
 20
432.50555555555553
 30
0.0
 10
12.347222222222221
 20
430.0361111111111
 30
0.0
 10
10.93611111111111
 20
428.27222222222218
 30
0.0
 10
8.466666666666665
 20
429.68333333333328
 30
0.0
 10
6.7027777777777775
 20
428.97777777777776
 30
0.0
 10
5.6444444444444439
 20
428.27222222222218
 30
0.0
 10
5.6444444444444439
 20
426.15555555555551
 30
0.0
 10
6.3499999999999996
 20
424.74444444444441
 30
0.0
 10
8.466666666666665
 20
424.74444444444441
 30
0.0
 10
10.93611111111111
 20
425.09722222222217
 30
0.0
 10
12.347222222222221
 20
423.68611111111107
 30
0.0
 10
12.699999999999999
 20
419.80555555555554
 30
0.0
 10
11.994444444444444
 20
415.92499999999995
 30
0.0
 10
12.699999999999999
 20
411.69166666666661
 30
0.0
 10
12.699999999999999
 20
410.63333333333327
 30
0.0
 10
12.347222222222221
 20
409.92777777777775
 30
0.0
 10
12.347222222222221
 20
408.86944444444441
 30
0.0
 10
11.994444444444444
 20
407.81111111111107
 30
0.0
 10
11.288888888888888
 20
406.75277777777774
 30
0.0
 10
10.230555555555554
 20
406.04722222222216
 30
0.0
 10
9.1722222222222207
 20
405.34166666666664
 30
0.0
 10
8.1138888888888889
 20
405.34166666666664
 30
0.0
 10
7.0555555555555554
 20
404.98888888888888
 30
0.0
 10
3.1749999999999998
 20
404.98888888888888
 30
0.0
 10
-0.3527777777777778
 20
404.63611111111106
 30
0.0
 10
-4.2333333333333325
 20
405.34166666666664
 30
0.0
 10
-4.2333333333333325
 20
405.34166666666664
 30
0.0
 10
-4.5861111111111104
 20
404.98888888888888
 30
0.0
 10
-4.5861111111111104
 20
404.98888888888888
 30
0.0
 10
-5.6444444444444439
 20
405.6944444444444
 30
0.0
 10
-6.7027777777777775
 20
405.34166666666664
 30
0.0
 10
-7.0555555555555554
 20
404.63611111111106
 30
0.0
 10
-7.0555555555555554
 20
392.99444444444441
 30
0.0
 10
-7.7611111111111102
 20
381.70555555555552
 30
0.0
 10
-7.4083333333333323
 20
370.06388888888887
 30
0.0
 10
-1.0583333333333331
 20
367.24166666666662
 30
0.0
 10
8.1138888888888889
 20
372.5333333333333
 30
0.0
 10
12.347222222222221
 20
365.83055555555552
 30
0.0
 10
12.347222222222221
 20
357.01111111111106
 30
0.0
 10
12.699999999999999
 20
348.54444444444442
 30
0.0
 10
11.994444444444444
 20
339.72499999999997
 30
0.0
 10
11.994444444444444
 20
337.96111111111111
 30
0.0
 10
10.230555555555554
 20
336.54999999999995
 30
0.0
 10
8.466666666666665
 20
336.19722222222219
 30
0.0
 10
3.5277777777777777
 20
335.84444444444443
 30
0.0
 10
-1.411111111111111
 20
336.54999999999995
 30
0.0
 10
-6.3499999999999996
 20
336.19722222222219
 30
0.0
 10
-7.0555555555555554
 20
336.19722222222219
 30
0.0
 10
-7.4083333333333323
 20
335.13888888888886
 30
0.0
 10
-7.4083333333333323
 20
334.7861111111111
 30
0.0
 10
-7.4083333333333323
 20
324.20277777777773
 30
0.0
 10
-8.1138888888888889
 20
313.97222222222217
 30
0.0
 10
-7.0555555555555554
 20
303.38888888888886
 30
0.0
 10
-0.7055555555555555
 20
302.68333333333328
 30
0.0
 10
7.4083333333333323
 20
305.85833333333329
 30
0.0
 10
11.994444444444444
 20
300.21388888888885
 30
0.0
 10
13.052777777777777
 20
291.39444444444445
 30
0.0
 10
12.699999999999999
 20
282.92777777777775
 30
0.0
 10
11.994444444444444
 20
274.10833333333329
 30
0.0
 10
11.994444444444444
 20
272.34444444444443
 30
0.0
 10
10.583333333333332
 20
270.93333333333328
 30
0.0
 10
8.8194444444444429
 20
270.22777777777776
 30
0.0
 10
3.1749999999999998
 20
269.16944444444442
 30
0.0
 10
-2.1166666666666663
 20
270.58055555555552
 30
0.0
 10
-7.4083333333333323
 20
269.52222222222218
 30
0.0
 10
-7.0555555555555554
 20
258.93888888888887
 30
0.0
 10
-8.1138888888888889
 20
247.64999999999998
 30
0.0
 10
-7.0555555555555554
 20
237.41944444444442
 30
0.0
 10
-1.411111111111111
 20
237.06666666666663
 30
0.0
 10
3.8805555555555551
 20
238.47777777777776
 30
0.0
 10
9.5249999999999986
 20
236.71388888888887
 30
0.0
 10
11.288888888888888
 20
236.00833333333333
 30
0.0
 10
11.994444444444444
 20
234.5972222222222
 30
0.0
 10
11.994444444444444
 20
233.1861111111111
 30
0.0
 10
12.699999999999999
 20
224.71944444444443
 30
0.0
 10
12.699999999999999
 20
216.60555555555553
 30
0.0
 10
11.994444444444444
 20
208.13888888888886
 30
0.0
 10
11.994444444444444
 20
206.72777777777776
 30
0.0
 10
10.93611111111111
 20
205.31666666666663
 30
0.0
 10
9.5249999999999986
 20
204.61111111111109
 30
0.0
 10
4.2333333333333325
 20
202.8472222222222
 30
0.0
 10
-1.411111111111111
 20
204.25833333333333
 30
0.0
 10
-7.0555555555555554
 20
203.90555555555554
 30
0.0
 10
-8.1138888888888889
 20
199.67222222222222
 30
0.0
 10
-7.0555555555555554
 20
195.79166666666666
 30
0.0
 10
-7.4083333333333323
 20
191.55833333333331
 30
0.0
 10
-8.1138888888888889
 20
185.20833333333331
 30
0.0
 10
-8.1138888888888889
 20
178.50555555555553
 30
0.0
 10
-7.7611111111111102
 20
172.15555555555554
 30
0.0
 10
-7.7611111111111102
 20
171.80277777777775
 30
0.0
 10
-7.4083333333333323
 20
171.44999999999999
 30
0.0
 10
-7.0555555555555554
 20
171.44999999999999
 30
0.0
 10
-1.411111111111111
 20
171.0972222222222
 30
0.0
 10
4.2333333333333325
 20
172.50833333333333
 30
0.0
 10
9.5249999999999986
 20
170.39166666666665
 30
0.0
 10
10.583333333333332
 20
170.03888888888886
 30
0.0
 10
11.994444444444444
 20
168.98055555555555
 30
0.0
 10
11.994444444444444
 20
167.56944444444443
 30
0.0
 10
12.699999999999999
 20
158.74999999999997
 30
0.0
 10
13.052777777777777
 20
150.28333333333333
 30
0.0
 10
11.994444444444444
 20
141.46388888888887
 30
0.0
 10
11.641666666666666
 20
140.40555555555554
 30
0.0
 10
10.583333333333332
 20
139.3472222222222
 30
0.0
 10
9.5249999999999986
 20
138.64166666666665
 30
0.0
 10
4.2333333333333325
 20
136.87777777777777
 30
0.0
 10
-1.411111111111111
 20
138.28888888888886
 30
0.0
 10
-7.0555555555555554
 20
137.9361111111111
 30
0.0
 10
-8.466666666666665
 20
127.35277777777776
 30
0.0
 10
-7.7611111111111102
 20
116.76944444444443
 30
0.0
 10
-7.7611111111111102
 20
106.1861111111111
 30
0.0
 10
-7.7611111111111102
 20
105.83333333333333
 30
0.0
 10
-7.4083333333333323
 20
105.48055555555554
 30
0.0
 10
-7.0555555555555554
 20
105.48055555555554
 30
0.0
 10
-1.7638888888888888
 20
105.12777777777777
 30
0.0
 10
3.1749999999999998
 20
106.1861111111111
 30
0.0
 10
8.466666666666665
 20
105.12777777777777
 30
0.0
 10
10.583333333333332
 20
104.42222222222222
 30
0.0
 10
11.994444444444444
 20
102.30555555555554
 30
0.0
 10
11.994444444444444
 20
100.54166666666666
 30
0.0
 10
12.699999999999999
 20
93.838888888888874
 30
0.0
 10
12.699999999999999
 20
87.48888888888888
 30
0.0
 10
11.994444444444444
 20
80.786111111111097
 30
0.0
 10
11.994444444444444
 20
79.727777777777774
 30
0.0
 10
12.347222222222221
 20
78.316666666666663
 30
0.0
 10
11.994444444444444
 20
77.258333333333326
 30
0.0
 10
11.994444444444444
 20
75.141666666666666
 30
0.0
 10
10.93611111111111
 20
72.672222222222217
 30
0.0
 10
8.466666666666665
 20
72.672222222222217
 30
0.0
 10
3.1749999999999998
 20
71.966666666666654
 30
0.0
 10
-1.7638888888888888
 20
72.319444444444443
 30
0.0
 10
-7.0555555555555554
 20
71.966666666666654
 30
0.0
 10
-7.4083333333333323
 20
71.966666666666654
 30
0.0
 10
-7.7611111111111102
 20
71.61388888888888
 30
0.0
 10
-7.7611111111111102
 20
71.261111111111106
 30
0.0
 10
-7.7611111111111102
 20
60.67777777777777
 30
0.0
 10
-8.466666666666665
 20
50.094444444444441
 30
0.0
 10
-7.4083333333333323
 20
39.511111111111106
 30
0.0
 10
-2.1166666666666663
 20
39.158333333333331
 30
0.0
 10
2.822222222222222
 20
39.511111111111106
 30
0.0
 10
8.1138888888888889
 20
38.80555555555555
 30
0.0
 10
9.5249999999999986
 20
38.80555555555555
 30
0.0
 10
11.288888888888888
 20
38.099999999999994
 30
0.0
 10
11.641666666666666
 20
36.336111111111109
 30
0.0
 10
13.052777777777777
 20
19.755555555555553
 30
0.0
 10
11.994444444444444
 20
3.5277777777777777
 30
0.0
 10
11.641666666666666
 20
-12.699999999999999
 30
0.0
 10
11.641666666666666
 20
-12.699999999999999
 30
0.0
 10
11.994444444444444
 20
-13.758333333333333
 30
0.0
 10
11.288888888888888
 20
-13.758333333333333
 30
0.0
 10
9.8777777777777764
 20
-13.758333333333333
 30
0.0
 10
8.8194444444444429
 20
-14.111111111111111
 30
0.0
 10
7.4083333333333323
 20
-14.111111111111111
 30
0.0
 10
7.0555555555555554
 20
-14.111111111111111
 30
0.0
 10
6.3499999999999996
 20
-13.758333333333333
 30
0.0
 10
5.9972222222222218
 20
-14.111111111111111
 30
0.0
 10
5.2916666666666661
 20
-15.52222222222222
 30
0.0
 10
4.9388888888888882
 20
-17.638888888888886
 30
0.0
 10
5.9972222222222218
 20
-17.991666666666664
 30
0.0
 10
8.1138888888888889
 20
-18.697222222222219
 30
0.0
 10
11.641666666666666
 20
-17.638888888888886
 30
0.0
 10
11.641666666666666
 20
-20.108333333333331
 30
0.0
 10
12.699999999999999
 20
-30.338888888888885
 30
0.0
 10
11.288888888888888
 20
-40.569444444444443
 30
0.0
 10
12.347222222222221
 20
-50.799999999999997
 30
0.0
 10
16.580555555555556
 20
-51.505555555555553
 30
0.0
 10
20.813888888888886
 20
-50.799999999999997
 30
0.0
 10
25.047222222222221
 20
-51.152777777777771
 30
0.0
 10
25.399999999999999
 20
-51.152777777777771
 30
0.0
 10
26.458333333333332
 20
-51.505555555555553
 30
0.0
 10
26.458333333333332
 20
-52.211111111111109
 30
0.0
 10
26.81111111111111
 20
-64.205555555555549
 30
0.0
 10
26.81111111111111
 20
-75.847222222222214
 30
0.0
 10
26.458333333333332
 20
-87.841666666666654
 30
0.0
 10
26.458333333333332
 20
-88.194444444444443
 30
0.0
 10
25.399999999999999
 20
-89.252777777777766
 30
0.0
 10
25.047222222222221
 20
-89.252777777777766
 30
0.0
 10
17.991666666666664
 20
-89.252777777777766
 30
0.0
 10
10.583333333333332
 20
-90.663888888888877
 30
0.0
 10
3.5277777777777777
 20
-88.547222222222217
 30
0.0
 10
2.4694444444444441
 20
-88.194444444444443
 30
0.0
 10
1.7638888888888888
 20
-87.48888888888888
 30
0.0
 10
0.7055555555555555
 20
-86.783333333333331
 30
0.0
 10
-0.3527777777777778
 20
-86.077777777777769
 30
0.0
 10
-1.0583333333333331
 20
-85.019444444444431
 30
0.0
 10
-1.7638888888888888
 20
-83.961111111111109
 30
0.0
 10
-13.758333333333333
 20
-63.147222222222219
 30
0.0
 10
-24.694444444444443
 20
-43.74444444444444
 30
0.0
 10
-36.336111111111109
 20
-23.636111111111109
 30
0.0
 10
-54.327777777777776
 20
-23.636111111111109
 30
0.0
 10
-72.672222222222217
 20
-23.988888888888887
 30
0.0
 10
-90.663888888888877
 20
-23.283333333333331
 30
0.0
 10
-92.074999999999989
 20
-22.930555555555554
 30
0.0
 10
-92.427777777777763
 20
-21.519444444444442
 30
0.0
 10
-92.427777777777763
 20
-20.461111111111109
 30
0.0
 10
-92.780555555555551
 20
-19.402777777777775
 30
0.0
 10
-92.074999999999989
 20
-18.344444444444441
 30
0.0
 10
-91.016666666666652
 20
-17.991666666666664
 30
0.0
 10
-89.605555555555554
 20
-17.638888888888886
 30
0.0
 10
-88.194444444444443
 20
-17.991666666666664
 30
0.0
 10
-86.783333333333331
 20
-17.991666666666664
 30
0.0
 10
-86.430555555555543
 20
-17.991666666666664
 30
0.0
 10
-86.077777777777769
 20
-17.638888888888886
 30
0.0
 10
-86.077777777777769
 20
-17.286111111111108
 30
0.0
 10
-86.077777777777769
 20
-15.874999999999998
 30
0.0
 10
-85.37222222222222
 20
-14.111111111111111
 30
0.0
 10
-86.783333333333331
 20
-13.405555555555555
 30
0.0
 10
-88.899999999999991
 20
-12.699999999999999
 30
0.0
 10
-92.074999999999989
 20
-14.463888888888887
 30
0.0
 10
-92.427777777777763
 20
-11.994444444444444
 30
0.0
 10
-93.838888888888874
 20
-5.2916666666666661
 30
0.0
 10
-92.074999999999989
 20
1.0583333333333331
 30
0.0
 10
-92.427777777777763
 20
7.7611111111111102
 30
0.0
 10
-92.780555555555551
 20
10.230555555555554
 30
0.0
 10
-92.780555555555551
 20
12.699999999999999
 30
0.0
 10
-92.074999999999989
 20
14.816666666666665
 30
0.0
 10
-91.36944444444444
 20
16.227777777777778
 30
0.0
 10
-89.958333333333329
 20
17.638888888888886
 30
0.0
 10
-88.547222222222217
 20
17.638888888888886
 30
0.0
 10
-83.255555555555546
 20
18.697222222222219
 30
0.0
 10
-77.963888888888889
 20
16.93333333333333
 30
0.0
 10
-72.672222222222217
 20
18.697222222222219
 30
0.0
 10
-73.024999999999991
 20
28.222222222222221
 30
0.0
 10
-71.966666666666654
 20
37.74722222222222
 30
0.0
 10
-73.024999999999991
 20
47.272222222222219
 30
0.0
 10
-78.669444444444437
 20
47.624999999999993
 30
0.0
 10
-84.313888888888883
 20
46.213888888888881
 30
0.0
 10
-89.605555555555554
 20
47.977777777777774
 30
0.0
 10
-90.663888888888877
 20
48.68333333333333
 30
0.0
 10
-91.722222222222214
 20
49.74166666666666
 30
0.0
 10
-91.722222222222214
 20
50.799999999999997
 30
0.0
 10
-93.133333333333326
 20
68.086111111111109
 30
0.0
 10
-92.074999999999989
 20
85.019444444444431
 30
0.0
 10
-91.722222222222214
 20
102.30555555555554
 30
0.0
 10
-91.722222222222214
 20
103.36388888888888
 30
0.0
 10
-90.663888888888877
 20
104.42222222222222
 30
0.0
 10
-89.605555555555554
 20
105.12777777777777
 30
0.0
 10
-86.783333333333331
 20
106.1861111111111
 30
0.0
 10
-83.961111111111109
 20
105.12777777777777
 30
0.0
 10
-80.786111111111097
 20
105.48055555555554
 30
0.0
 10
-78.316666666666663
 20
106.1861111111111
 30
0.0
 10
-75.49444444444444
 20
105.83333333333333
 30
0.0
 10
-73.024999999999991
 20
105.83333333333333
 30
0.0
 10
-72.672222222222217
 20
105.83333333333333
 30
0.0
 10
-72.319444444444443
 20
106.1861111111111
 30
0.0
 10
-72.319444444444443
 20
106.53888888888888
 30
0.0
 10
-72.319444444444443
 20
128.4111111111111
 30
0.0
 10
-71.966666666666654
 20
150.28333333333333
 30
0.0
 10
-72.319444444444443
 20
172.15555555555554
 30
0.0
  0
SPLINE
  5
50
100
AcDbEntity
  8
LAYER_1
 62
     7
100
AcDbSpline
210
0.0
220
0.0
230
1.0
 70
     8
 71
     3
 72
   113
 73
   109
 74
     0
 42
0.00000001
 43
0.00000001
 40
0.0
 40
0.0
 40
0.0
 40
0.0
 40
1.0
 40
1.0
 40
1.0
 40
2.0
 40
2.0
 40
2.0
 40
3.0
 40
3.0
 40
3.0
 40
4.0
 40
4.0
 40
4.0
 40
5.0
 40
5.0
 40
5.0
 40
6.0
 40
6.0
 40
6.0
 40
7.0
 40
7.0
 40
7.0
 40
8.0
 40
8.0
 40
8.0
 40
9.0
 40
9.0
 40
9.0
 40
10.0
 40
10.0
 40
10.0
 40
11.0
 40
11.0
 40
11.0
 40
12.0
 40
12.0
 40
12.0
 40
13.0
 40
13.0
 40
13.0
 40
14.0
 40
14.0
 40
14.0
 40
15.0
 40
15.0
 40
15.0
 40
16.0
 40
16.0
 40
16.0
 40
17.0
 40
17.0
 40
17.0
 40
18.0
 40
18.0
 40
18.0
 40
19.0
 40
19.0
 40
19.0
 40
20.0
 40
20.0
 40
20.0
 40
21.0
 40
21.0
 40
21.0
 40
22.0
 40
22.0
 40
22.0
 40
23.0
 40
23.0
 40
23.0
 40
24.0
 40
24.0
 40
24.0
 40
25.0
 40
25.0
 40
25.0
 40
26.0
 40
26.0
 40
26.0
 40
27.0
 40
27.0
 40
27.0
 40
28.0
 40
28.0
 40
28.0
 40
29.0
 40
29.0
 40
29.0
 40
30.0
 40
30.0
 40
30.0
 40
31.0
 40
31.0
 40
31.0
 40
32.0
 40
32.0
 40
32.0
 40
33.0
 40
33.0
 40
33.0
 40
34.0
 40
34.0
 40
34.0
 40
35.0
 40
35.0
 40
35.0
 40
36.0
 40
36.0
 40
36.0
 40
36.0
 10
43.391666666666666
 20
215.54722222222219
 30
0.0
 10
43.302094184027773
 20
198.61406114366318
 30
0.0
 10
44.097222222222221
 20
181.68055555555554
 30
0.0
 10
43.038888888888884
 20
164.74722222222221
 30
0.0
 10
44.802777777777777
 20
80.786111111111097
 30
0.0
 10
43.038888888888884
 20
-3.5277777777777777
 30
0.0
 10
44.449999999999996
 20
-87.48888888888888
 30
0.0
 10
44.449999999999996
 20
-87.841666666666654
 30
0.0
 10
45.508333333333326
 20
-88.547222222222217
 30
0.0
 10
45.861111111111107
 20
-88.899999999999991
 30
0.0
 10
49.036111111111104
 20
-89.252777777777766
 30
0.0
 10
52.563888888888883
 20
-89.252777777777766
 30
0.0
 10
55.738888888888887
 20
-88.899999999999991
 30
0.0
 10
56.444444444444443
 20
-88.547222222222217
 30
0.0
 10
57.149999999999991
 20
-87.48888888888888
 30
0.0
 10
57.502777777777773
 20
-86.783333333333331
 30
0.0
 10
57.855555555555547
 20
-74.436111111111103
 30
0.0
 10
57.502777777777773
 20
-61.736111111111107
 30
0.0
 10
57.502777777777773
 20
-49.388888888888886
 30
0.0
 10
87.136111111111106
 20
-49.388888888888886
 30
0.0
 10
116.41666666666666
 20
-48.68333333333333
 30
0.0
 10
146.04999999999998
 20
-49.036111111111104
 30
0.0
 10
146.75555555555553
 20
-61.383333333333326
 30
0.0
 10
146.04999999999998
 20
-74.083333333333329
 30
0.0
 10
146.40277777777777
 20
-86.430555555555543
 30
0.0
 10
146.40277777777777
 20
-86.783333333333331
 30
0.0
 10
146.75555555555553
 20
-87.48888888888888
 30
0.0
 10
147.46111111111111
 20
-87.841666666666654
 30
0.0
 10
150.28333333333333
 20
-88.899999999999991
 30
0.0
 10
153.10555555555555
 20
-88.899999999999991
 30
0.0
 10
155.92777777777778
 20
-88.547222222222217
 30
0.0
 10
157.33888888888887
 20
-88.194444444444443
 30
0.0
 10
159.10277777777776
 20
-88.194444444444443
 30
0.0
 10
159.10277777777776
 20
-86.430555555555543
 30
0.0
 10
160.1611111111111
 20
-23.988888888888887
 30
0.0
 10
159.10277777777776
 20
38.80555555555555
 30
0.0
 10
158.74999999999997
 20
101.24722222222222
 30
0.0
 10
158.74999999999997
 20
163.68888888888887
 30
0.0
 10
158.74999999999997
 20
225.77777777777777
 30
0.0
 10
158.04444444444442
 20
288.21944444444443
 30
0.0
 10
157.69166666666666
 20
329.84722222222217
 30
0.0
 10
158.04444444444442
 20
371.82777777777773
 30
0.0
 10
158.04444444444442
 20
413.45555555555552
 30
0.0
 10
158.04444444444442
 20
413.45555555555552
 30
0.0
 10
158.39722222222221
 20
413.45555555555552
 30
0.0
 10
158.74999999999997
 20
413.45555555555552
 30
0.0
 10
159.10277777777776
 20
413.80833333333328
 30
0.0
 10
159.80833333333331
 20
414.1611111111111
 30
0.0
 10
159.80833333333331
 20
414.51388888888886
 30
0.0
 10
160.1611111111111
 20
424.39166666666665
 30
0.0
 10
159.45555555555555
 20
433.91666666666663
 30
0.0
 10
159.10277777777776
 20
443.79444444444442
 30
0.0
 10
159.10277777777776
 20
448.73333333333329
 30
0.0
 10
155.57499999999999
 20
453.67222222222216
 30
0.0
 10
150.28333333333333
 20
454.37777777777774
 30
0.0
 10
139.3472222222222
 20
456.14166666666665
 30
0.0
 10
128.76388888888889
 20
455.08333333333331
 30
0.0
 10
118.18055555555554
 20
454.7305555555555
 30
0.0
 10
117.47499999999999
 20
454.7305555555555
 30
0.0
 10
116.06388888888888
 20
454.7305555555555
 30
0.0
 10
115.35833333333332
 20
454.7305555555555
 30
0.0
 10
114.29999999999998
 20
455.43611111111107
 30
0.0
 10
112.5361111111111
 20
454.7305555555555
 30
0.0
 10
112.5361111111111
 20
453.67222222222216
 30
0.0
 10
111.83055555555555
 20
450.84999999999997
 30
0.0
 10
111.83055555555555
 20
447.67499999999995
 30
0.0
 10
112.18333333333332
 20
444.85277777777776
 30
0.0
 10
112.5361111111111
 20
444.49999999999994
 30
0.0
 10
113.24166666666666
 20
443.79444444444442
 30
0.0
 10
113.59444444444443
 20
443.44166666666661
 30
0.0
 10
118.53333333333332
 20
443.08888888888885
 30
0.0
 10
123.11944444444444
 20
443.44166666666661
 30
0.0
 10
128.05833333333331
 20
443.44166666666661
 30
0.0
 10
128.05833333333331
 20
443.44166666666661
 30
0.0
 10
128.4111111111111
 20
443.79444444444442
 30
0.0
 10
128.76388888888889
 20
443.79444444444442
 30
0.0
 10
130.52777777777777
 20
442.73611111111109
 30
0.0
 10
132.29166666666666
 20
444.14722222222218
 30
0.0
 10
134.05555555555554
 20
443.08888888888885
 30
0.0
 10
135.46666666666664
 20
442.03055555555551
 30
0.0
 10
135.46666666666664
 20
439.56111111111107
 30
0.0
 10
133.70277777777775
 20
438.8555555555555
 30
0.0
 10
130.17499999999998
 20
437.4444444444444
 30
0.0
 10
126.64722222222221
 20
439.20833333333331
 30
0.0
 10
123.11944444444444
 20
438.14999999999998
 30
0.0
 10
122.41388888888888
 20
438.14999999999998
 30
0.0
 10
121.70833333333333
 20
438.14999999999998
 30
0.0
 10
121.35555555555554
 20
438.14999999999998
 30
0.0
 10
118.88611111111111
 20
438.14999999999998
 30
0.0
 10
116.06388888888888
 20
438.50277777777774
 30
0.0
 10
113.59444444444443
 20
438.14999999999998
 30
0.0
 10
112.88888888888889
 20
437.79722222222216
 30
0.0
 10
112.5361111111111
 20
437.09166666666664
 30
0.0
 10
112.18333333333332
 20
436.38611111111106
 30
0.0
 10
111.83055555555555
 20
431.09444444444438
 30
0.0
 10
112.5361111111111
 20
425.80277777777775
 30
0.0
 10
112.18333333333332
 20
420.51111111111106
 30
0.0
 10
112.18333333333332
 20
420.1583333333333
 30
0.0
 10
111.83055555555555
 20
419.09999999999997
 30
0.0
 10
111.12499999999999
 20
419.09999999999997
 30
0.0
 10
89.605555555555554
 20
418.04166666666663
 30
0.0
 10
68.086111111111109
 20
419.80555555555554
 30
0.0
 10
46.566666666666663
 20
418.04166666666663
 30
0.0
 10
45.155555555555551
 20
418.04166666666663
 30
0.0
 10
43.391666666666666
 20
416.63055555555553
 30
0.0
 10
43.391666666666666
 20
415.21944444444443
 30
0.0
 10
41.980555555555554
 20
348.54444444444442
 30
0.0
 10
43.74444444444444
 20
282.22222222222217
 30
0.0
 10
43.391666666666666
 20
215.54722222222219
 30
0.0
  0
SPLINE
  5
4F
100
AcDbEntity
  8
LAYER_1
 62
     7
100
AcDbSpline
210
0.0
220
0.0
230
1.0
 70
     8
 71
     3
 72
   239
 73
   235
 74
     0
 42
0.00000001
 43
0.00000001
 40
0.0
 40
0.0
 40
0.0
 40
0.0
 40
1.0
 40
1.0
 40
1.0
 40
2.0
 40
2.0
 40
2.0
 40
3.0
 40
3.0
 40
3.0
 40
4.0
 40
4.0
 40
4.0
 40
5.0
 40
5.0
 40
5.0
 40
6.0
 40
6.0
 40
6.0
 40
7.0
 40
7.0
 40
7.0
 40
8.0
 40
8.0
 40
8.0
 40
9.0
 40
9.0
 40
9.0
 40
10.0
 40
10.0
 40
10.0
 40
11.0
 40
11.0
 40
11.0
 40
12.0
 40
12.0
 40
12.0
 40
13.0
 40
13.0
 40
13.0
 40
14.0
 40
14.0
 40
14.0
 40
15.0
 40
15.0
 40
15.0
 40
16.0
 40
16.0
 40
16.0
 40
17.0
 40
17.0
 40
17.0
 40
18.0
 40
18.0
 40
18.0
 40
19.0
 40
19.0
 40
19.0
 40
20.0
 40
20.0
 40
20.0
 40
21.0
 40
21.0
 40
21.0
 40
22.0
 40
22.0
 40
22.0
 40
23.0
 40
23.0
 40
23.0
 40
24.0
 40
24.0
 40
24.0
 40
25.0
 40
25.0
 40
25.0
 40
26.0
 40
26.0
 40
26.0
 40
27.0
 40
27.0
 40
27.0
 40
28.0
 40
28.0
 40
28.0
 40
29.0
 40
29.0
 40
29.0
 40
30.0
 40
30.0
 40
30.0
 40
31.0
 40
31.0
 40
31.0
 40
32.0
 40
32.0
 40
32.0
 40
33.0
 40
33.0
 40
33.0
 40
34.0
 40
34.0
 40
34.0
 40
35.0
 40
35.0
 40
35.0
 40
36.0
 40
36.0
 40
36.0
 40
37.0
 40
37.0
 40
37.0
 40
38.0
 40
38.0
 40
38.0
 40
39.0
 40
39.0
 40
39.0
 40
40.0
 40
40.0
 40
40.0
 40
41.0
 40
41.0
 40
41.0
 40
42.0
 40
42.0
 40
42.0
 40
43.0
 40
43.0
 40
43.0
 40
44.0
 40
44.0
 40
44.0
 40
45.0
 40
45.0
 40
45.0
 40
46.0
 40
46.0
 40
46.0
 40
47.0
 40
47.0
 40
47.0
 40
48.0
 40
48.0
 40
48.0
 40
49.0
 40
49.0
 40
49.0
 40
50.0
 40
50.0
 40
50.0
 40
51.0
 40
51.0
 40
51.0
 40
52.0
 40
52.0
 40
52.0
 40
53.0
 40
53.0
 40
53.0
 40
54.0
 40
54.0
 40
54.0
 40
55.0
 40
55.0
 40
55.0
 40
56.0
 40
56.0
 40
56.0
 40
57.0
 40
57.0
 40
57.0
 40
58.0
 40
58.0
 40
58.0
 40
59.0
 40
59.0
 40
59.0
 40
60.0
 40
60.0
 40
60.0
 40
61.0
 40
61.0
 40
61.0
 40
62.0
 40
62.0
 40
62.0
 40
63.0
 40
63.0
 40
63.0
 40
64.0
 40
64.0
 40
64.0
 40
65.0
 40
65.0
 40
65.0
 40
66.0
 40
66.0
 40
66.0
 40
67.0
 40
67.0
 40
67.0
 40
68.0
 40
68.0
 40
68.0
 40
69.0
 40
69.0
 40
69.0
 40
70.0
 40
70.0
 40
70.0
 40
71.0
 40
71.0
 40
71.0
 40
72.0
 40
72.0
 40
72.0
 40
73.0
 40
73.0
 40
73.0
 40
74.0
 40
74.0
 40
74.0
 40
75.0
 40
75.0
 40
75.0
 40
76.0
 40
76.0
 40
76.0
 40
77.0
 40
77.0
 40
77.0
 40
78.0
 40
78.0
 40
78.0
 40
78.0
 10
215.89999999999998
 20
-110.77222222222221
 30
0.0
 10
219.99484049479165
 20
-135.3409206814236
 30
0.0
 10
227.54166666666666
 20
-157.33888888888887
 30
0.0
 10
235.30277777777775
 20
-180.97499999999999
 30
0.0
 10
236.00833333333333
 20
-182.38611111111109
 30
0.0
 10
237.77222222222221
 20
-183.09166666666664
 30
0.0
 10
238.83055555555552
 20
-183.09166666666664
 30
0.0
 10
249.06111111111107
 20
-183.79722222222222
 30
0.0
 10
258.93888888888887
 20
-184.50277777777777
 30
0.0
 10
269.52222222222218
 20
-182.73888888888888
 30
0.0
 10
270.93333333333328
 20
-182.73888888888888
 30
0.0
 10
272.34444444444443
 20
-181.32777777777775
 30
0.0
 10
272.69722222222219
 20
-179.91666666666666
 30
0.0
 10
280.10555555555555
 20
-154.16388888888886
 30
0.0
 10
286.45555555555552
 20
-129.11666666666665
 30
0.0
 10
293.1583333333333
 20
-103.71666666666665
 30
0.0
 10
298.44999999999999
 20
-103.71666666666665
 30
0.0
 10
303.38888888888886
 20
-104.06944444444443
 30
0.0
 10
308.68055555555554
 20
-103.01111111111111
 30
0.0
 10
310.4444444444444
 20
-102.65833333333332
 30
0.0
 10
312.20833333333331
 20
-101.59999999999999
 30
0.0
 10
312.56111111111107
 20
-99.836111111111109
 30
0.0
 10
315.38333333333333
 20
-86.783333333333331
 30
0.0
 10
313.61944444444441
 20
-74.788888888888877
 30
0.0
 10
313.26666666666665
 20
-62.088888888888881
 30
0.0
 10
312.56111111111107
 20
96.661111111111097
 30
0.0
 10
311.85555555555555
 20
255.4111111111111
 30
0.0
 10
310.79722222222222
 20
414.1611111111111
 30
0.0
 10
310.79722222222222
 20
414.86666666666662
 30
0.0
 10
312.20833333333331
 20
415.21944444444443
 30
0.0
 10
312.20833333333331
 20
415.57222222222219
 30
0.0
 10
312.20833333333331
 20
418.39444444444439
 30
0.0
 10
313.26666666666665
 20
422.27499999999998
 30
0.0
 10
310.79722222222222
 20
424.39166666666665
 30
0.0
 10
304.79999999999995
 20
425.09722222222217
 30
0.0
 10
298.80277777777775
 20
425.44999999999999
 30
0.0
 10
292.80555555555554
 20
424.39166666666665
 30
0.0
 10
292.09999999999997
 20
424.03888888888883
 30
0.0
 10
291.39444444444445
 20
422.9805555555555
 30
0.0
 10
291.04166666666663
 20
422.27499999999998
 30
0.0
 10
291.04166666666663
 20
407.81111111111107
 30
0.0
 10
290.33611111111111
 20
392.99444444444441
 30
0.0
 10
291.39444444444445
 20
378.53055555555551
 30
0.0
 10
286.45555555555552
 20
377.47222222222217
 30
0.0
 10
281.86944444444441
 20
378.53055555555551
 30
0.0
 10
276.93055555555554
 20
378.17777777777775
 30
0.0
 10
273.04999999999995
 20
377.47222222222217
 30
0.0
 10
268.81666666666666
 20
377.82499999999999
 30
0.0
 10
264.93611111111107
 20
378.17777777777775
 30
0.0
 10
264.93611111111107
 20
392.99444444444441
 30
0.0
 10
264.58333333333331
 20
407.45833333333331
 30
0.0
 10
264.58333333333331
 20
422.27499999999998
 30
0.0
 10
264.58333333333331
 20
422.62777777777774
 30
0.0
 10
264.23055555555555
 20
423.68611111111107
 30
0.0
 10
263.52499999999998
 20
423.68611111111107
 30
0.0
 10
248.35555555555553
 20
424.74444444444441
 30
0.0
 10
233.53888888888886
 20
423.33333333333331
 30
0.0
 10
218.7222222222222
 20
424.03888888888883
 30
0.0
 10
217.66388888888886
 20
424.03888888888883
 30
0.0
 10
216.25277777777777
 20
424.39166666666665
 30
0.0
 10
215.19444444444443
 20
425.09722222222217
 30
0.0
 10
214.13611111111109
 20
425.80277777777775
 30
0.0
 10
213.43055555555554
 20
427.21388888888885
 30
0.0
 10
212.72499999999999
 20
428.27222222222218
 30
0.0
 10
212.01944444444442
 20
429.33055555555552
 30
0.0
 10
212.37222222222221
 20
430.74166666666662
 30
0.0
 10
212.37222222222221
 20
431.79999999999995
 30
0.0
 10
212.01944444444442
 20
438.50277777777774
 30
0.0
 10
212.37222222222221
 20
445.55833333333328
 30
0.0
 10
211.66666666666666
 20
452.26111111111106
 30
0.0
 10
211.66666666666666
 20
454.37777777777774
 30
0.0
 10
209.54999999999998
 20
456.14166666666665
 30
0.0
 10
207.43333333333331
 20
456.14166666666665
 30
0.0
 10
199.31944444444443
 20
456.84722222222217
 30
0.0
 10
191.55833333333331
 20
456.84722222222217
 30
0.0
 10
183.44444444444443
 20
455.78888888888883
 30
0.0
 10
181.68055555555554
 20
455.78888888888883
 30
0.0
 10
180.26944444444442
 20
454.02499999999998
 30
0.0
 10
178.85833333333332
 20
452.96666666666664
 30
0.0
 10
178.15277777777777
 20
450.14444444444439
 30
0.0
 10
177.09444444444443
 20
445.55833333333328
 30
0.0
 10
180.62222222222221
 20
444.14722222222218
 30
0.0
 10
181.32777777777775
 20
444.14722222222218
 30
0.0
 10
182.0333333333333
 20
444.14722222222218
 30
0.0
 10
182.73888888888888
 20
444.14722222222218
 30
0.0
 10
186.9722222222222
 20
445.20555555555552
 30
0.0
 10
190.85277777777776
 20
443.44166666666661
 30
0.0
 10
195.08611111111108
 20
444.49999999999994
 30
0.0
 10
196.49722222222221
 20
444.85277777777776
 30
0.0
 10
197.55555555555554
 20
444.14722222222218
 30
0.0
 10
198.96666666666664
 20
444.14722222222218
 30
0.0
 10
199.31944444444443
 20
443.79444444444442
 30
0.0
 10
200.02499999999998
 20
444.14722222222218
 30
0.0
 10
200.02499999999998
 20
443.44166666666661
 30
0.0
 10
200.02499999999998
 20
442.03055555555551
 30
0.0
 10
200.37777777777777
 20
440.26666666666665
 30
0.0
 10
199.31944444444443
 20
439.91388888888883
 30
0.0
 10
193.32222222222219
 20
438.14999999999998
 30
0.0
 10
186.9722222222222
 20
439.91388888888883
 30
0.0
 10
180.97499999999999
 20
439.20833333333331
 30
0.0
 10
179.91666666666666
 20
438.8555555555555
 30
0.0
 10
178.50555555555553
 20
438.14999999999998
 30
0.0
 10
178.50555555555553
 20
437.09166666666664
 30
0.0
 10
178.15277777777777
 20
407.1055555555555
 30
0.0
 10
179.21111111111111
 20
377.11944444444441
 30
0.0
 10
178.85833333333332
 20
347.13333333333333
 30
0.0
 10
180.26944444444442
 20
339.72499999999997
 30
0.0
 10
185.5611111111111
 20
333.02222222222218
 30
0.0
 10
192.96944444444443
 20
330.90555555555551
 30
0.0
 10
195.43888888888887
 20
328.78888888888883
 30
0.0
 10
193.32222222222219
 20
325.61388888888888
 30
0.0
 10
192.61666666666665
 20
323.14444444444439
 30
0.0
 10
191.55833333333331
 20
320.32222222222219
 30
0.0
 10
189.44166666666666
 20
318.20555555555552
 30
0.0
 10
186.9722222222222
 20
316.44166666666666
 30
0.0
 10
184.14999999999998
 20
314.32499999999999
 30
0.0
 10
179.91666666666666
 20
313.26666666666665
 30
0.0
 10
179.21111111111111
 20
309.38611111111106
 30
0.0
 10
178.50555555555553
 20
303.74166666666662
 30
0.0
 10
179.21111111111111
 20
298.44999999999999
 30
0.0
 10
179.21111111111111
 20
292.80555555555554
 30
0.0
 10
178.85833333333332
 20
287.86666666666662
 30
0.0
 10
178.50555555555553
 20
282.92777777777775
 30
0.0
 10
179.91666666666666
 20
277.98888888888888
 30
0.0
 10
182.0333333333333
 20
271.99166666666662
 30
0.0
 10
186.26666666666665
 20
267.05277777777775
 30
0.0
 10
192.61666666666665
 20
265.28888888888889
 30
0.0
 10
193.32222222222219
 20
264.93611111111107
 30
0.0
 10
194.02777777777777
 20
264.58333333333331
 30
0.0
 10
194.38055555555553
 20
263.87777777777774
 30
0.0
 10
194.73333333333332
 20
258.23333333333329
 30
0.0
 10
191.20555555555555
 20
253.64722222222221
 30
0.0
 10
186.9722222222222
 20
250.11944444444441
 30
0.0
 10
184.14999999999998
 20
248.35555555555553
 30
0.0
 10
180.26944444444442
 20
247.29722222222219
 30
0.0
 10
179.56388888888887
 20
243.76944444444442
 30
0.0
 10
178.85833333333332
 20
239.5361111111111
 30
0.0
 10
179.56388888888887
 20
235.65555555555554
 30
0.0
 10
179.56388888888887
 20
231.42222222222219
 30
0.0
 10
178.85833333333332
 20
225.77777777777777
 30
0.0
 10
179.21111111111111
 20
220.13333333333333
 30
0.0
 10
179.91666666666666
 20
214.48888888888888
 30
0.0
 10
180.62222222222221
 20
206.72777777777776
 30
0.0
 10
186.9722222222222
 20
201.08333333333331
 30
0.0
 10
193.67499999999998
 20
198.61388888888888
 30
0.0
 10
196.49722222222221
 20
196.14444444444442
 30
0.0
 10
193.67499999999998
 20
191.9111111111111
 30
0.0
 10
192.26388888888886
 20
189.08888888888887
 30
0.0
 10
190.14722222222221
 20
185.91388888888886
 30
0.0
 10
186.9722222222222
 20
183.44444444444443
 30
0.0
 10
183.44444444444443
 20
181.68055555555554
 30
0.0
 10
181.68055555555554
 20
180.97499999999999
 30
0.0
 10
180.62222222222221
 20
179.21111111111111
 30
0.0
 10
180.26944444444442
 20
177.44722222222219
 30
0.0
 10
178.85833333333332
 20
171.44999999999999
 30
0.0
 10
180.97499999999999
 20
165.80555555555554
 30
0.0
 10
179.21111111111111
 20
159.80833333333331
 30
0.0
 10
180.62222222222221
 20
156.28055555555554
 30
0.0
 10
179.56388888888887
 20
152.75277777777777
 30
0.0
 10
179.91666666666666
 20
149.22499999999999
 30
0.0
 10
180.97499999999999
 20
141.46388888888887
 30
0.0
 10
186.61944444444444
 20
134.76111111111109
 30
0.0
 10
194.02777777777777
 20
132.64444444444445
 30
0.0
 10
196.84999999999999
 20
129.82222222222222
 30
0.0
 10
194.02777777777777
 20
125.94166666666665
 30
0.0
 10
192.61666666666665
 20
123.11944444444444
 30
0.0
 10
191.20555555555555
 20
121.00277777777777
 30
0.0
 10
189.44166666666666
 20
118.88611111111111
 30
0.0
 10
186.9722222222222
 20
117.47499999999999
 30
0.0
 10
185.20833333333331
 20
116.41666666666666
 30
0.0
 10
183.09166666666664
 20
115.71111111111109
 30
0.0
 10
181.68055555555554
 20
114.29999999999998
 30
0.0
 10
180.26944444444442
 20
112.5361111111111
 30
0.0
 10
180.26944444444442
 20
110.77222222222221
 30
0.0
 10
180.26944444444442
 20
108.65555555555555
 30
0.0
 10
179.56388888888887
 20
100.89444444444443
 30
0.0
 10
179.91666666666666
 20
93.4861111111111
 30
0.0
 10
180.26944444444442
 20
85.724999999999994
 30
0.0
 10
180.26944444444442
 20
83.60833333333332
 30
0.0
 10
180.26944444444442
 20
81.49166666666666
 30
0.0
 10
180.97499999999999
 20
79.374999999999986
 30
0.0
 10
181.68055555555554
 20
77.963888888888889
 30
0.0
 10
182.38611111111109
 20
76.199999999999989
 30
0.0
 10
183.09166666666664
 20
74.788888888888877
 30
0.0
 10
185.20833333333331
 20
71.61388888888888
 30
0.0
 10
187.67777777777775
 20
69.144444444444431
 30
0.0
 10
190.85277777777776
 20
67.73333333333332
 30
0.0
 10
192.61666666666665
 20
67.380555555555546
 30
0.0
 10
194.38055555555553
 20
66.674999999999997
 30
0.0
 10
195.43888888888887
 20
65.263888888888886
 30
0.0
 10
195.43888888888887
 20
59.972222222222214
 30
0.0
 10
192.26388888888886
 20
55.386111111111106
 30
0.0
 10
188.03055555555554
 20
51.858333333333327
 30
0.0
 10
185.5611111111111
 20
50.094444444444441
 30
0.0
 10
182.73888888888888
 20
49.036111111111104
 30
0.0
 10
180.97499999999999
 20
46.566666666666663
 30
0.0
 10
179.21111111111111
 20
37.394444444444439
 30
0.0
 10
180.26944444444442
 20
28.574999999999996
 30
0.0
 10
180.62222222222221
 20
19.402777777777775
 30
0.0
 10
180.62222222222221
 20
17.991666666666664
 30
0.0
 10
180.26944444444442
 20
16.93333333333333
 30
0.0
 10
180.62222222222221
 20
15.52222222222222
 30
0.0
 10
182.38611111111109
 20
8.466666666666665
 30
0.0
 10
187.32499999999999
 20
2.822222222222222
 30
0.0
 10
194.02777777777777
 20
0.3527777777777778
 30
0.0
 10
197.20277777777775
 20
-0.7055555555555555
 30
0.0
 10
195.43888888888887
 20
-4.5861111111111104
 30
0.0
 10
194.38055555555553
 20
-7.0555555555555554
 30
0.0
 10
192.96944444444443
 20
-9.5249999999999986
 30
0.0
 10
191.55833333333331
 20
-11.994444444444444
 30
0.0
 10
189.08888888888887
 20
-13.758333333333333
 30
0.0
 10
186.61944444444444
 20
-15.52222222222222
 30
0.0
 10
184.14999999999998
 20
-16.227777777777778
 30
0.0
 10
182.0333333333333
 20
-18.344444444444441
 30
0.0
 10
181.68055555555554
 20
-19.049999999999997
 30
0.0
 10
181.32777777777775
 20
-19.755555555555553
 30
0.0
 10
180.97499999999999
 20
-20.108333333333331
 30
0.0
 10
179.56388888888887
 20
-45.508333333333326
 30
0.0
 10
181.32777777777775
 20
-70.555555555555543
 30
0.0
 10
181.32777777777775
 20
-95.602777777777774
 30
0.0
 10
181.32777777777775
 20
-97.013888888888886
 30
0.0
 10
180.97499999999999
 20
-99.130555555555546
 30
0.0
 10
181.68055555555554
 20
-100.54166666666666
 30
0.0
 10
182.38611111111109
 20
-101.95277777777777
 30
0.0
 10
183.44444444444443
 20
-103.36388888888888
 30
0.0
 10
184.85555555555553
 20
-104.06944444444443
 30
0.0
 10
186.61944444444444
 20
-104.77499999999999
 30
0.0
 10
188.38333333333333
 20
-104.77499999999999
 30
0.0
 10
190.49999999999997
 20
-104.77499999999999
 30
0.0
 10
198.61388888888888
 20
-104.06944444444443
 30
0.0
 10
206.37499999999997
 20
-104.77499999999999
 30
0.0
 10
214.13611111111109
 20
-104.42222222222222
 30
0.0
 10
214.84166666666664
 20
-106.53888888888888
 30
0.0
 10
215.54722222222219
 20
-108.65555555555555
 30
0.0
 10
215.89999999999998
 20
-110.77222222222221
 30
0.0
  0
SPLINE
  5
4E
100
AcDbEntity
  8
LAYER_1
 62
     7
100
AcDbSpline
210
0.0
220
0.0
230
1.0
 70
     8
 71
     3
 72
    50
 73
    46
 74
     0
 42
0.00000001
 43
0.00000001
 40
0.0
 40
0.0
 40
0.0
 40
0.0
 40
1.0
 40
1.0
 40
1.0
 40
2.0
 40
2.0
 40
2.0
 40
3.0
 40
3.0
 40
3.0
 40
4.0
 40
4.0
 40
4.0
 40
5.0
 40
5.0
 40
5.0
 40
6.0
 40
6.0
 40
6.0
 40
7.0
 40
7.0
 40
7.0
 40
8.0
 40
8.0
 40
8.0
 40
9.0
 40
9.0
 40
9.0
 40
10.0
 40
10.0
 40
10.0
 40
11.0
 40
11.0
 40
11.0
 40
12.0
 40
12.0
 40
12.0
 40
13.0
 40
13.0
 40
13.0
 40
14.0
 40
14.0
 40
14.0
 40
15.0
 40
15.0
 40
15.0
 40
15.0
 10
119.23888888888888
 20
121.35555555555554
 30
0.0
 10
119.23888888888888
 20
114.65277777777777
 30
0.0
 10
118.18055555555554
 20
107.94999999999999
 30
0.0
 10
119.94444444444443
 20
100.89444444444443
 30
0.0
 10
119.94444444444443
 20
99.836111111111109
 30
0.0
 10
121.00277777777777
 20
99.130555555555546
 30
0.0
 10
122.0611111111111
 20
98.777777777777771
 30
0.0
 10
122.76666666666665
 20
98.424999999999997
 30
0.0
 10
123.47222222222221
 20
98.777777777777771
 30
0.0
 10
124.17777777777776
 20
98.777777777777771
 30
0.0
 10
131.58611111111111
 20
98.072222222222209
 30
0.0
 10
138.64166666666665
 20
97.36666666666666
 30
0.0
 10
146.04999999999998
 20
99.130555555555546
 30
0.0
 10
148.51944444444442
 20
99.836111111111109
 30
0.0
 10
149.93055555555554
 20
101.59999999999999
 30
0.0
 10
151.69444444444443
 20
103.71666666666665
 30
0.0
 10
151.69444444444443
 20
104.06944444444443
 30
0.0
 10
151.69444444444443
 20
104.42222222222222
 30
0.0
 10
151.69444444444443
 20
104.42222222222222
 30
0.0
 10
152.75277777777777
 20
105.12777777777777
 30
0.0
 10
152.75277777777777
 20
106.53888888888888
 30
0.0
 10
152.75277777777777
 20
107.59722222222221
 30
0.0
 10
153.45833333333331
 20
130.52777777777777
 30
0.0
 10
154.16388888888886
 20
153.45833333333331
 30
0.0
 10
152.39999999999998
 20
176.74166666666665
 30
0.0
 10
152.04722222222222
 20
177.79999999999998
 30
0.0
 10
150.98888888888888
 20
178.85833333333332
 30
0.0
 10
149.93055555555554
 20
178.85833333333332
 30
0.0
 10
145.34444444444443
 20
178.85833333333332
 30
0.0
 10
138.99444444444444
 20
180.97499999999999
 30
0.0
 10
135.46666666666664
 20
177.09444444444443
 30
0.0
 10
134.76111111111109
 20
173.21388888888887
 30
0.0
 10
135.46666666666664
 20
168.98055555555555
 30
0.0
 10
135.11388888888888
 20
165.09999999999999
 30
0.0
 10
134.40833333333333
 20
162.63055555555553
 30
0.0
 10
132.99722222222221
 20
160.86666666666665
 30
0.0
 10
130.88055555555553
 20
159.10277777777776
 30
0.0
 10
129.82222222222222
 20
158.39722222222221
 30
0.0
 10
128.4111111111111
 20
158.04444444444442
 30
0.0
 10
126.99999999999999
 20
157.69166666666666
 30
0.0
 10
124.17777777777776
 20
157.33888888888887
 30
0.0
 10
121.00277777777777
 20
158.39722222222221
 30
0.0
 10
119.23888888888888
 20
155.57499999999999
 30
0.0
 10
119.23888888888888
 20
144.2861111111111
 30
0.0
 10
119.23888888888888
 20
132.64444444444445
 30
0.0
 10
119.23888888888888
 20
121.35555555555554
 30
0.0
  0
SPLINE
  5
4D
100
AcDbEntity
  8
LAYER_1
 62
     7
100
AcDbSpline
210
0.0
220
0.0
230
1.0
 70
     8
 71
     3
 72
    50
 73
    46
 74
     0
 42
0.00000001
 43
0.00000001
 40
0.0
 40
0.0
 40
0.0
 40
0.0
 40
1.0
 40
1.0
 40
1.0
 40
2.0
 40
2.0
 40
2.0
 40
3.0
 40
3.0
 40
3.0
 40
4.0
 40
4.0
 40
4.0
 40
5.0
 40
5.0
 40
5.0
 40
6.0
 40
6.0
 40
6.0
 40
7.0
 40
7.0
 40
7.0
 40
8.0
 40
8.0
 40
8.0
 40
9.0
 40
9.0
 40
9.0
 40
10.0
 40
10.0
 40
10.0
 40
11.0
 40
11.0
 40
11.0
 40
12.0
 40
12.0
 40
12.0
 40
13.0
 40
13.0
 40
13.0
 40
14.0
 40
14.0
 40
14.0
 40
15.0
 40
15.0
 40
15.0
 40
15.0
 10
118.88611111111111
 20
182.73888888888888
 30
0.0
 10
118.88611111111111
 20
178.15277777777777
 30
0.0
 10
118.88611111111111
 20
173.91944444444442
 30
0.0
 10
119.59166666666665
 20
169.33333333333331
 30
0.0
 10
121.35555555555554
 20
167.56944444444443
 30
0.0
 10
124.17777777777776
 20
167.21666666666664
 30
0.0
 10
125.58888888888887
 20
169.33333333333331
 30
0.0
 10
127.70555555555555
 20
173.21388888888887
 30
0.0
 10
127.70555555555555
 20
177.79999999999998
 30
0.0
 10
129.46944444444443
 20
181.68055555555554
 30
0.0
 10
135.81944444444443
 20
185.5611111111111
 30
0.0
 10
142.875
 20
183.09166666666664
 30
0.0
 10
149.93055555555554
 20
184.50277777777777
 30
0.0
 10
150.98888888888888
 20
184.85555555555553
 30
0.0
 10
152.04722222222222
 20
185.5611111111111
 30
0.0
 10
152.39999999999998
 20
186.61944444444444
 30
0.0
 10
153.45833333333331
 20
190.85277777777776
 30
0.0
 10
153.10555555555555
 20
195.08611111111108
 30
0.0
 10
152.39999999999998
 20
199.67222222222222
 30
0.0
 10
152.04722222222222
 20
200.73055555555553
 30
0.0
 10
151.34166666666664
 20
201.4361111111111
 30
0.0
 10
150.63611111111109
 20
201.78888888888886
 30
0.0
 10
146.04999999999998
 20
202.8472222222222
 30
0.0
 10
141.81666666666666
 20
202.14166666666665
 30
0.0
 10
137.23055555555555
 20
202.14166666666665
 30
0.0
 10
136.17222222222222
 20
201.78888888888886
 30
0.0
 10
135.46666666666664
 20
200.73055555555553
 30
0.0
 10
134.40833333333333
 20
201.08333333333331
 30
0.0
 10
133.70277777777775
 20
201.4361111111111
 30
0.0
 10
133.34999999999999
 20
201.78888888888886
 30
0.0
 10
132.99722222222221
 20
202.49444444444444
 30
0.0
 10
132.64444444444445
 20
206.02222222222221
 30
0.0
 10
132.99722222222221
 20
209.19722222222219
 30
0.0
 10
132.99722222222221
 20
212.72499999999999
 30
0.0
 10
132.99722222222221
 20
213.43055555555554
 30
0.0
 10
132.99722222222221
 20
214.13611111111109
 30
0.0
 10
132.99722222222221
 20
214.84166666666664
 30
0.0
 10
131.58611111111111
 20
218.7222222222222
 30
0.0
 10
134.40833333333333
 20
223.6611111111111
 30
0.0
 10
130.52777777777777
 20
226.48333333333332
 30
0.0
 10
126.99999999999999
 20
226.83611111111108
 30
0.0
 10
121.35555555555554
 20
228.24722222222221
 30
0.0
 10
118.88611111111111
 20
224.36666666666665
 30
0.0
 10
118.88611111111111
 20
210.60833333333332
 30
0.0
 10
118.88611111111111
 20
196.49722222222221
 30
0.0
 10
118.88611111111111
 20
182.73888888888888
 30
0.0
  0
SPLINE
  5
4C
100
AcDbEntity
  8
LAYER_1
 62
     7
100
AcDbSpline
210
0.0
220
0.0
230
1.0
 70
     8
 71
     3
 72
    50
 73
    46
 74
     0
 42
0.00000001
 43
0.00000001
 40
0.0
 40
0.0
 40
0.0
 40
0.0
 40
1.0
 40
1.0
 40
1.0
 40
2.0
 40
2.0
 40
2.0
 40
3.0
 40
3.0
 40
3.0
 40
4.0
 40
4.0
 40
4.0
 40
5.0
 40
5.0
 40
5.0
 40
6.0
 40
6.0
 40
6.0
 40
7.0
 40
7.0
 40
7.0
 40
8.0
 40
8.0
 40
8.0
 40
9.0
 40
9.0
 40
9.0
 40
10.0
 40
10.0
 40
10.0
 40
11.0
 40
11.0
 40
11.0
 40
12.0
 40
12.0
 40
12.0
 40
13.0
 40
13.0
 40
13.0
 40
14.0
 40
14.0
 40
14.0
 40
15.0
 40
15.0
 40
15.0
 40
15.0
 10
119.23888888888888
 20
90.311111111111103
 30
0.0
 10
119.23888888888888
 20
73.024999999999991
 30
0.0
 10
119.94444444444443
 20
55.386111111111106
 30
0.0
 10
119.59166666666665
 20
38.099999999999994
 30
0.0
 10
120.64999999999999
 20
36.336111111111109
 30
0.0
 10
122.76666666666665
 20
34.924999999999997
 30
0.0
 10
124.53055555555554
 20
35.983333333333327
 30
0.0
 10
128.4111111111111
 20
39.158333333333331
 30
0.0
 10
126.99999999999999
 20
45.155555555555551
 30
0.0
 10
129.46944444444443
 20
49.388888888888886
 30
0.0
 10
129.82222222222222
 20
49.74166666666666
 30
0.0
 10
130.52777777777777
 20
50.094444444444441
 30
0.0
 10
130.88055555555553
 20
50.447222222222216
 30
0.0
 10
132.64444444444445
 20
51.152777777777771
 30
0.0
 10
134.05555555555554
 20
51.858333333333327
 30
0.0
 10
135.81944444444443
 20
52.211111111111109
 30
0.0
 10
139.69999999999999
 20
52.563888888888883
 30
0.0
 10
143.22777777777776
 20
51.858333333333327
 30
0.0
 10
147.10833333333332
 20
52.563888888888883
 30
0.0
 10
148.16666666666666
 20
52.563888888888883
 30
0.0
 10
149.22499999999999
 20
52.211111111111109
 30
0.0
 10
150.28333333333333
 20
52.563888888888883
 30
0.0
 10
150.98888888888888
 20
52.916666666666664
 30
0.0
 10
152.04722222222222
 20
53.62222222222222
 30
0.0
 10
152.39999999999998
 20
54.327777777777776
 30
0.0
 10
153.45833333333331
 20
59.266666666666659
 30
0.0
 10
153.10555555555555
 20
63.852777777777774
 30
0.0
 10
152.39999999999998
 20
68.438888888888883
 30
0.0
 10
148.51944444444442
 20
71.966666666666654
 30
0.0
 10
142.875
 20
69.49722222222222
 30
0.0
 10
137.9361111111111
 20
70.202777777777769
 30
0.0
 10
136.52499999999998
 20
69.144444444444431
 30
0.0
 10
135.11388888888888
 20
68.438888888888883
 30
0.0
 10
133.70277777777775
 20
69.49722222222222
 30
0.0
 10
132.64444444444445
 20
71.261111111111106
 30
0.0
 10
133.34999999999999
 20
73.377777777777766
 30
0.0
 10
133.34999999999999
 20
75.49444444444444
 30
0.0
 10
132.29166666666666
 20
81.138888888888886
 30
0.0
 10
133.34999999999999
 20
86.783333333333331
 30
0.0
 10
132.64444444444445
 20
92.427777777777763
 30
0.0
 10
130.52777777777777
 20
96.308333333333323
 30
0.0
 10
125.58888888888887
 20
94.544444444444437
 30
0.0
 10
122.0611111111111
 20
94.191666666666663
 30
0.0
 10
120.29722222222222
 20
94.191666666666663
 30
0.0
 10
119.23888888888888
 20
92.427777777777763
 30
0.0
 10
119.23888888888888
 20
90.311111111111103
 30
0.0
  0
SPLINE
  5
4B
100
AcDbEntity
  8
LAYER_1
 62
     7
100
AcDbSpline
210
0.0
220
0.0
230
1.0
 70
     8
 71
     3
 72
    56
 73
    52
 74
     0
 42
0.00000001
 43
0.00000001
 40
0.0
 40
0.0
 40
0.0
 40
0.0
 40
1.0
 40
1.0
 40
1.0
 40
2.0
 40
2.0
 40
2.0
 40
3.0
 40
3.0
 40
3.0
 40
4.0
 40
4.0
 40
4.0
 40
5.0
 40
5.0
 40
5.0
 40
6.0
 40
6.0
 40
6.0
 40
7.0
 40
7.0
 40
7.0
 40
8.0
 40
8.0
 40
8.0
 40
9.0
 40
9.0
 40
9.0
 40
10.0
 40
10.0
 40
10.0
 40
11.0
 40
11.0
 40
11.0
 40
12.0
 40
12.0
 40
12.0
 40
13.0
 40
13.0
 40
13.0
 40
14.0
 40
14.0
 40
14.0
 40
15.0
 40
15.0
 40
15.0
 40
16.0
 40
16.0
 40
16.0
 40
17.0
 40
17.0
 40
17.0
 40
17.0
 10
273.04999999999995
 20
14.463888888888887
 30
0.0
 10
273.04999999999995
 20
11.619618055555554
 30
0.0
 10
273.75555555555553
 20
9.1722222222222207
 30
0.0
 10
272.69722222222219
 20
6.3499999999999996
 30
0.0
 10
273.40277777777777
 20
6.3499999999999996
 30
0.0
 10
273.04999999999995
 20
5.2916666666666661
 30
0.0
 10
273.04999999999995
 20
5.2916666666666661
 30
0.0
 10
273.75555555555553
 20
-6.7027777777777775
 30
0.0
 10
273.40277777777777
 20
-18.697222222222219
 30
0.0
 10
273.40277777777777
 20
-30.691666666666663
 30
0.0
 10
275.51944444444445
 20
-34.924999999999997
 30
0.0
 10
281.16388888888889
 20
-33.513888888888886
 30
0.0
 10
285.04444444444442
 20
-32.80833333333333
 30
0.0
 10
285.75
 20
-32.80833333333333
 30
0.0
 10
286.80833333333328
 20
-31.749999999999996
 30
0.0
 10
287.1611111111111
 20
-30.691666666666663
 30
0.0
 10
287.51388888888886
 20
-23.636111111111109
 30
0.0
 10
286.80833333333328
 20
-16.227777777777778
 30
0.0
 10
287.1611111111111
 20
-9.1722222222222207
 30
0.0
 10
287.51388888888886
 20
-8.1138888888888889
 30
0.0
 10
288.57222222222219
 20
-7.4083333333333323
 30
0.0
 10
289.63055555555553
 20
-7.4083333333333323
 30
0.0
 10
290.33611111111111
 20
-7.7611111111111102
 30
0.0
 10
291.04166666666663
 20
-8.1138888888888889
 30
0.0
 10
291.39444444444445
 20
-8.1138888888888889
 30
0.0
 10
295.98055555555555
 20
-8.8194444444444429
 30
0.0
 10
300.21388888888885
 20
-9.1722222222222207
 30
0.0
 10
304.79999999999995
 20
-8.1138888888888889
 30
0.0
 10
305.85833333333329
 20
-7.7611111111111102
 30
0.0
 10
306.56388888888887
 20
-6.7027777777777775
 30
0.0
 10
306.91666666666663
 20
-5.6444444444444439
 30
0.0
 10
306.91666666666663
 20
-1.411111111111111
 30
0.0
 10
307.62222222222221
 20
2.4694444444444441
 30
0.0
 10
306.56388888888887
 20
6.7027777777777775
 30
0.0
 10
306.21111111111111
 20
8.1138888888888889
 30
0.0
 10
304.79999999999995
 20
8.8194444444444429
 30
0.0
 10
303.74166666666662
 20
9.1722222222222207
 30
0.0
 10
296.68611111111107
 20
10.230555555555554
 30
0.0
 10
288.57222222222219
 20
7.0555555555555554
 30
0.0
 10
282.92777777777775
 20
12.347222222222221
 30
0.0
 10
281.86944444444441
 20
15.874999999999998
 30
0.0
 10
281.51666666666665
 20
19.755555555555553
 30
0.0
 10
279.75277777777774
 20
23.283333333333331
 30
0.0
 10
279.04722222222222
 20
24.341666666666665
 30
0.0
 10
277.98888888888888
 20
25.047222222222221
 30
0.0
 10
276.93055555555554
 20
25.399999999999999
 30
0.0
 10
275.16666666666663
 20
25.399999999999999
 30
0.0
 10
273.40277777777777
 20
24.341666666666665
 30
0.0
 10
273.40277777777777
 20
22.930555555555554
 30
0.0
 10
272.69722222222219
 20
20.108333333333331
 30
0.0
 10
273.04999999999995
 20
17.286111111111108
 30
0.0
 10
273.04999999999995
 20
14.463888888888887
 30
0.0
  0
SPLINE
  5
4A
100
AcDbEntity
  8
LAYER_1
 62
     7
100
AcDbSpline
210
0.0
220
0.0
230
1.0
 70
     8
 71
     3
 72
    47
 73
    43
 74
     0
 42
0.00000001
 43
0.00000001
 40
0.0
 40
0.0
 40
0.0
 40
0.0
 40
1.0
 40
1.0
 40
1.0
 40
2.0
 40
2.0
 40
2.0
 40
3.0
 40
3.0
 40
3.0
 40
4.0
 40
4.0
 40
4.0
 40
5.0
 40
5.0
 40
5.0
 40
6.0
 40
6.0
 40
6.0
 40
7.0
 40
7.0
 40
7.0
 40
8.0
 40
8.0
 40
8.0
 40
9.0
 40
9.0
 40
9.0
 40
10.0
 40
10.0
 40
10.0
 40
11.0
 40
11.0
 40
11.0
 40
12.0
 40
12.0
 40
12.0
 40
13.0
 40
13.0
 40
13.0
 40
14.0
 40
14.0
 40
14.0
 40
14.0
 10
273.04999999999995
 20
45.861111111111107
 30
0.0
 10
273.04999999999995
 20
43.038888888888884
 30
0.0
 10
272.69722222222219
 20
40.569444444444443
 30
0.0
 10
273.40277777777777
 20
37.74722222222222
 30
0.0
 10
273.40277777777777
 20
36.688888888888883
 30
0.0
 10
274.46111111111111
 20
35.630555555555553
 30
0.0
 10
275.51944444444445
 20
35.630555555555553
 30
0.0
 10
280.81111111111107
 20
35.983333333333327
 30
0.0
 10
287.1611111111111
 20
34.924999999999997
 30
0.0
 10
288.92499999999995
 20
29.280555555555551
 30
0.0
 10
289.98333333333329
 20
25.047222222222221
 30
0.0
 10
288.21944444444443
 20
20.813888888888886
 30
0.0
 10
289.98333333333329
 20
16.93333333333333
 30
0.0
 10
291.74722222222221
 20
12.699999999999999
 30
0.0
 10
298.09722222222217
 20
14.816666666666665
 30
0.0
 10
301.97777777777776
 20
14.816666666666665
 30
0.0
 10
303.38888888888886
 20
14.816666666666665
 30
0.0
 10
305.50555555555553
 20
14.816666666666665
 30
0.0
 10
306.21111111111111
 20
16.580555555555556
 30
0.0
 10
307.97499999999997
 20
23.636111111111109
 30
0.0
 10
306.91666666666663
 20
31.044444444444441
 30
0.0
 10
306.91666666666663
 20
38.099999999999994
 30
0.0
 10
306.56388888888887
 20
53.269444444444439
 30
0.0
 10
306.91666666666663
 20
68.438888888888883
 30
0.0
 10
306.21111111111111
 20
83.60833333333332
 30
0.0
 10
306.21111111111111
 20
85.019444444444431
 30
0.0
 10
306.56388888888887
 20
86.783333333333331
 30
0.0
 10
305.85833333333329
 20
88.194444444444443
 30
0.0
 10
304.44722222222219
 20
91.016666666666652
 30
0.0
 10
301.97777777777776
 20
93.4861111111111
 30
0.0
 10
298.44999999999999
 20
94.544444444444437
 30
0.0
 10
296.68611111111107
 20
94.897222222222211
 30
0.0
 10
294.5694444444444
 20
94.544444444444437
 30
0.0
 10
292.80555555555554
 20
94.544444444444437
 30
0.0
 10
286.80833333333328
 20
94.897222222222211
 30
0.0
 10
280.81111111111107
 20
95.249999999999986
 30
0.0
 10
274.81388888888887
 20
94.191666666666663
 30
0.0
 10
274.10833333333329
 20
93.838888888888874
 30
0.0
 10
273.04999999999995
 20
93.4861111111111
 30
0.0
 10
273.04999999999995
 20
92.780555555555551
 30
0.0
 10
272.69722222222219
 20
77.258333333333326
 30
0.0
 10
273.04999999999995
 20
61.383333333333326
 30
0.0
 10
273.04999999999995
 20
45.861111111111107
 30
0.0
  0
SPLINE
  5
49
100
AcDbEntity
  8
LAYER_1
 62
     7
100
AcDbSpline
210
0.0
220
0.0
230
1.0
 70
     8
 71
     3
 72
    50
 73
    46
 74
     0
 42
0.00000001
 43
0.00000001
 40
0.0
 40
0.0
 40
0.0
 40
0.0
 40
1.0
 40
1.0
 40
1.0
 40
2.0
 40
2.0
 40
2.0
 40
3.0
 40
3.0
 40
3.0
 40
4.0
 40
4.0
 40
4.0
 40
5.0
 40
5.0
 40
5.0
 40
6.0
 40
6.0
 40
6.0
 40
7.0
 40
7.0
 40
7.0
 40
8.0
 40
8.0
 40
8.0
 40
9.0
 40
9.0
 40
9.0
 40
10.0
 40
10.0
 40
10.0
 40
11.0
 40
11.0
 40
11.0
 40
12.0
 40
12.0
 40
12.0
 40
13.0
 40
13.0
 40
13.0
 40
14.0
 40
14.0
 40
14.0
 40
15.0
 40
15.0
 40
15.0
 40
15.0
 10
272.69722222222219
 20
104.06944444444443
 30
0.0
 10
271.63888888888886
 20
99.48333333333332
 30
0.0
 10
276.57777777777773
 20
97.719444444444434
 30
0.0
 10
280.45833333333331
 20
98.424999999999997
 30
0.0
 10
280.81111111111107
 20
98.424999999999997
 30
0.0
 10
280.81111111111107
 20
98.777777777777771
 30
0.0
 10
281.16388888888889
 20
98.777777777777771
 30
0.0
 10
281.16388888888889
 20
98.777777777777771
 30
0.0
 10
281.51666666666665
 20
98.424999999999997
 30
0.0
 10
281.51666666666665
 20
98.424999999999997
 30
0.0
 10
282.57499999999999
 20
99.130555555555546
 30
0.0
 10
283.63333333333333
 20
98.424999999999997
 30
0.0
 10
284.33888888888885
 20
98.777777777777771
 30
0.0
 10
285.39722222222218
 20
99.48333333333332
 30
0.0
 10
286.45555555555552
 20
100.18888888888888
 30
0.0
 10
286.80833333333328
 20
101.59999999999999
 30
0.0
 10
287.51388888888886
 20
109.00833333333333
 30
0.0
 10
286.10277777777776
 20
116.41666666666666
 30
0.0
 10
287.1611111111111
 20
123.82499999999999
 30
0.0
 10
288.57222222222219
 20
124.88333333333333
 30
0.0
 10
289.98333333333329
 20
124.53055555555554
 30
0.0
 10
291.04166666666663
 20
123.47222222222221
 30
0.0
 10
295.98055555555555
 20
124.17777777777776
 30
0.0
 10
302.33055555555552
 20
121.70833333333333
 30
0.0
 10
306.21111111111111
 20
125.94166666666665
 30
0.0
 10
306.21111111111111
 20
129.82222222222222
 30
0.0
 10
306.56388888888887
 20
134.05555555555554
 30
0.0
 10
306.21111111111111
 20
137.9361111111111
 30
0.0
 10
305.85833333333329
 20
138.99444444444444
 30
0.0
 10
305.15277777777777
 20
140.40555555555554
 30
0.0
 10
303.74166666666662
 20
140.75833333333333
 30
0.0
 10
299.86111111111109
 20
141.46388888888887
 30
0.0
 10
296.33333333333331
 20
141.11111111111109
 30
0.0
 10
292.45277777777773
 20
141.11111111111109
 30
0.0
 10
288.92499999999995
 20
141.11111111111109
 30
0.0
 10
284.33888888888885
 20
141.11111111111109
 30
0.0
 10
282.57499999999999
 20
144.63888888888889
 30
0.0
 10
280.81111111111107
 20
148.87222222222221
 30
0.0
 10
281.51666666666665
 20
154.16388888888886
 30
0.0
 10
277.63611111111106
 20
156.98611111111109
 30
0.0
 10
275.87222222222221
 20
158.04444444444442
 30
0.0
 10
273.75555555555553
 20
156.98611111111109
 30
0.0
 10
272.69722222222219
 20
155.57499999999999
 30
0.0
 10
272.69722222222219
 20
138.28888888888886
 30
0.0
 10
272.69722222222219
 20
121.35555555555554
 30
0.0
 10
272.69722222222219
 20
104.06944444444443
 30
0.0
  0
SPLINE
  5
48
100
AcDbEntity
  8
LAYER_1
 62
     7
100
AcDbSpline
210
0.0
220
0.0
230
1.0
 70
     8
 71
     3
 72
    50
 73
    46
 74
     0
 42
0.00000001
 43
0.00000001
 40
0.0
 40
0.0
 40
0.0
 40
0.0
 40
1.0
 40
1.0
 40
1.0
 40
2.0
 40
2.0
 40
2.0
 40
3.0
 40
3.0
 40
3.0
 40
4.0
 40
4.0
 40
4.0
 40
5.0
 40
5.0
 40
5.0
 40
6.0
 40
6.0
 40
6.0
 40
7.0
 40
7.0
 40
7.0
 40
8.0
 40
8.0
 40
8.0
 40
9.0
 40
9.0
 40
9.0
 40
10.0
 40
10.0
 40
10.0
 40
11.0
 40
11.0
 40
11.0
 40
12.0
 40
12.0
 40
12.0
 40
13.0
 40
13.0
 40
13.0
 40
14.0
 40
14.0
 40
14.0
 40
15.0
 40
15.0
 40
15.0
 40
15.0
 10
271.99166666666662
 20
178.15277777777777
 30
0.0
 10
271.99166666666662
 20
175.33055555555555
 30
0.0
 10
272.34444444444443
 20
172.50833333333333
 30
0.0
 10
272.34444444444443
 20
169.6861111111111
 30
0.0
 10
272.34444444444443
 20
168.98055555555555
 30
0.0
 10
273.40277777777777
 20
167.92222222222222
 30
0.0
 10
274.10833333333329
 20
167.56944444444443
 30
0.0
 10
276.57777777777773
 20
166.86388888888888
 30
0.0
 10
279.39999999999998
 20
167.56944444444443
 30
0.0
 10
281.86944444444441
 20
166.86388888888888
 30
0.0
 10
282.57499999999999
 20
166.51111111111109
 30
0.0
 10
282.92777777777775
 20
166.15833333333333
 30
0.0
 10
283.63333333333333
 20
166.15833333333333
 30
0.0
 10
289.63055555555553
 20
162.63055555555553
 30
0.0
 10
288.21944444444443
 20
155.2222222222222
 30
0.0
 10
288.92499999999995
 20
149.22499999999999
 30
0.0
 10
288.92499999999995
 20
147.46111111111111
 30
0.0
 10
290.33611111111111
 20
146.40277777777777
 30
0.0
 10
292.09999999999997
 20
146.04999999999998
 30
0.0
 10
296.33333333333331
 20
146.04999999999998
 30
0.0
 10
300.56666666666666
 20
145.34444444444443
 30
0.0
 10
304.44722222222219
 20
146.75555555555553
 30
0.0
 10
305.15277777777777
 20
147.10833333333332
 30
0.0
 10
305.85833333333329
 20
148.16666666666666
 30
0.0
 10
305.85833333333329
 20
148.87222222222221
 30
0.0
 10
307.62222222222221
 20
171.80277777777775
 30
0.0
 10
306.21111111111111
 20
194.38055555555553
 30
0.0
 10
305.50555555555553
 20
217.3111111111111
 30
0.0
 10
305.50555555555553
 20
221.54444444444442
 30
0.0
 10
301.97777777777776
 20
225.07222222222219
 30
0.0
 10
297.74444444444441
 20
226.48333333333332
 30
0.0
 10
296.33333333333331
 20
226.83611111111108
 30
0.0
 10
294.92222222222222
 20
226.48333333333332
 30
0.0
 10
293.86388888888888
 20
226.48333333333332
 30
0.0
 10
287.51388888888886
 20
226.48333333333332
 30
0.0
 10
281.16388888888889
 20
227.18888888888887
 30
0.0
 10
274.81388888888887
 20
226.13055555555553
 30
0.0
 10
273.75555555555553
 20
226.13055555555553
 30
0.0
 10
272.34444444444443
 20
225.42499999999998
 30
0.0
 10
271.99166666666662
 20
224.01388888888886
 30
0.0
 10
271.63888888888886
 20
216.95833333333331
 30
0.0
 10
271.99166666666662
 20
210.25555555555553
 30
0.0
 10
271.99166666666662
 20
203.19999999999999
 30
0.0
 10
272.34444444444443
 20
194.73333333333332
 30
0.0
 10
271.99166666666662
 20
186.61944444444444
 30
0.0
 10
271.99166666666662
 20
178.15277777777777
 30
0.0
  0
SPLINE
  5
47
100
AcDbEntity
  8
LAYER_1
 62
     7
100
AcDbSpline
210
0.0
220
0.0
230
1.0
 70
     8
 71
     3
 72
    56
 73
    52
 74
     0
 42
0.00000001
 43
0.00000001
 40
0.0
 40
0.0
 40
0.0
 40
0.0
 40
1.0
 40
1.0
 40
1.0
 40
2.0
 40
2.0
 40
2.0
 40
3.0
 40
3.0
 40
3.0
 40
4.0
 40
4.0
 40
4.0
 40
5.0
 40
5.0
 40
5.0
 40
6.0
 40
6.0
 40
6.0
 40
7.0
 40
7.0
 40
7.0
 40
8.0
 40
8.0
 40
8.0
 40
9.0
 40
9.0
 40
9.0
 40
10.0
 40
10.0
 40
10.0
 40
11.0
 40
11.0
 40
11.0
 40
12.0
 40
12.0
 40
12.0
 40
13.0
 40
13.0
 40
13.0
 40
14.0
 40
14.0
 40
14.0
 40
15.0
 40
15.0
 40
15.0
 40
16.0
 40
16.0
 40
16.0
 40
17.0
 40
17.0
 40
17.0
 40
17.0
 10
271.99166666666662
 20
244.12222222222221
 30
0.0
 10
271.99166666666662
 20
240.59444444444443
 30
0.0
 10
271.63888888888886
 20
237.06666666666663
 30
0.0
 10
272.34444444444443
 20
233.53888888888886
 30
0.0
 10
272.34444444444443
 20
232.48055555555553
 30
0.0
 10
273.40277777777777
 20
231.42222222222219
 30
0.0
 10
274.46111111111111
 20
231.06944444444443
 30
0.0
 10
276.57777777777773
 20
230.36388888888888
 30
0.0
 10
279.04722222222222
 20
230.36388888888888
 30
0.0
 10
281.16388888888889
 20
230.71666666666664
 30
0.0
 10
282.92777777777775
 20
231.06944444444443
 30
0.0
 10
284.33888888888885
 20
230.71666666666664
 30
0.0
 10
285.39722222222218
 20
232.48055555555553
 30
0.0
 10
286.80833333333328
 20
234.94999999999999
 30
0.0
 10
286.10277777777776
 20
237.77222222222221
 30
0.0
 10
286.10277777777776
 20
240.59444444444443
 30
0.0
 10
285.75
 20
245.5333333333333
 30
0.0
 10
285.04444444444442
 20
250.82499999999999
 30
0.0
 10
286.45555555555552
 20
255.76388888888886
 30
0.0
 10
286.80833333333328
 20
257.17499999999995
 30
0.0
 10
288.57222222222219
 20
256.82222222222219
 30
0.0
 10
289.98333333333329
 20
256.11666666666662
 30
0.0
 10
293.86388888888888
 20
255.05833333333331
 30
0.0
 10
297.74444444444441
 20
255.76388888888886
 30
0.0
 10
301.625
 20
255.76388888888886
 30
0.0
 10
303.38888888888886
 20
256.11666666666662
 30
0.0
 10
305.15277777777777
 20
256.82222222222219
 30
0.0
 10
305.50555555555553
 20
258.58611111111111
 30
0.0
 10
305.85833333333329
 20
262.46666666666664
 30
0.0
 10
305.85833333333329
 20
266.34722222222217
 30
0.0
 10
305.15277777777777
 20
270.58055555555552
 30
0.0
 10
304.79999999999995
 20
271.99166666666662
 30
0.0
 10
303.38888888888886
 20
272.69722222222219
 30
0.0
 10
302.33055555555552
 20
273.04999999999995
 30
0.0
 10
297.03888888888883
 20
273.40277777777777
 30
0.0
 10
292.09999999999997
 20
272.34444444444443
 30
0.0
 10
286.80833333333328
 20
273.75555555555553
 30
0.0
 10
285.04444444444442
 20
274.10833333333329
 30
0.0
 10
282.92777777777775
 20
274.10833333333329
 30
0.0
 10
281.86944444444441
 20
275.87222222222221
 30
0.0
 10
280.10555555555555
 20
279.39999999999998
 30
0.0
 10
280.10555555555555
 20
283.28055555555551
 30
0.0
 10
278.6944444444444
 20
286.80833333333328
 30
0.0
 10
277.98888888888888
 20
287.86666666666662
 30
0.0
 10
277.2833333333333
 20
288.92499999999995
 30
0.0
 10
275.87222222222221
 20
289.27777777777777
 30
0.0
 10
274.10833333333329
 20
289.63055555555553
 30
0.0
 10
271.99166666666662
 20
288.57222222222219
 30
0.0
 10
271.99166666666662
 20
286.80833333333328
 30
0.0
 10
271.2861111111111
 20
272.69722222222219
 30
0.0
 10
271.99166666666662
 20
258.23333333333329
 30
0.0
 10
271.99166666666662
 20
244.12222222222221
 30
0.0
  0
SPLINE
  5
46
100
AcDbEntity
  8
LAYER_1
 62
     7
100
AcDbSpline
210
0.0
220
0.0
230
1.0
 70
     8
 71
     3
 72
    47
 73
    43
 74
     0
 42
0.00000001
 43
0.00000001
 40
0.0
 40
0.0
 40
0.0
 40
0.0
 40
1.0
 40
1.0
 40
1.0
 40
2.0
 40
2.0
 40
2.0
 40
3.0
 40
3.0
 40
3.0
 40
4.0
 40
4.0
 40
4.0
 40
5.0
 40
5.0
 40
5.0
 40
6.0
 40
6.0
 40
6.0
 40
7.0
 40
7.0
 40
7.0
 40
8.0
 40
8.0
 40
8.0
 40
9.0
 40
9.0
 40
9.0
 40
10.0
 40
10.0
 40
10.0
 40
11.0
 40
11.0
 40
11.0
 40
12.0
 40
12.0
 40
12.0
 40
13.0
 40
13.0
 40
13.0
 40
14.0
 40
14.0
 40
14.0
 40
14.0
 10
271.63888888888886
 20
328.08333333333331
 30
0.0
 10
271.97823079427081
 20
319.26337212456593
 30
0.0
 10
271.2861111111111
 20
310.79722222222222
 30
0.0
 10
271.63888888888886
 20
301.97777777777776
 30
0.0
 10
271.99166666666662
 20
300.56666666666666
 30
0.0
 10
273.40277777777777
 20
299.86111111111109
 30
0.0
 10
274.46111111111111
 20
299.50833333333333
 30
0.0
 10
276.93055555555554
 20
299.15555555555551
 30
0.0
 10
279.04722222222222
 20
299.86111111111109
 30
0.0
 10
281.51666666666665
 20
299.15555555555551
 30
0.0
 10
284.69166666666666
 20
298.44999999999999
 30
0.0
 10
286.45555555555552
 20
295.98055555555555
 30
0.0
 10
287.51388888888886
 20
293.1583333333333
 30
0.0
 10
288.57222222222219
 20
289.27777777777777
 30
0.0
 10
287.1611111111111
 20
285.04444444444442
 30
0.0
 10
288.21944444444443
 20
280.81111111111107
 30
0.0
 10
288.92499999999995
 20
279.04722222222222
 30
0.0
 10
290.33611111111111
 20
278.6944444444444
 30
0.0
 10
292.09999999999997
 20
278.34166666666664
 30
0.0
 10
295.62777777777774
 20
277.98888888888888
 30
0.0
 10
299.15555555555551
 20
278.34166666666664
 30
0.0
 10
302.68333333333328
 20
278.6944444444444
 30
0.0
 10
303.74166666666662
 20
279.04722222222222
 30
0.0
 10
304.44722222222219
 20
279.75277777777774
 30
0.0
 10
304.44722222222219
 20
280.45833333333331
 30
0.0
 10
306.21111111111111
 20
303.74166666666662
 30
0.0
 10
305.15277777777777
 20
327.02499999999998
 30
0.0
 10
304.79999999999995
 20
350.30833333333328
 30
0.0
 10
303.74166666666662
 20
353.83611111111105
 30
0.0
 10
301.27222222222218
 20
356.6583333333333
 30
0.0
 10
298.09722222222217
 20
358.0694444444444
 30
0.0
 10
296.68611111111107
 20
358.77499999999998
 30
0.0
 10
294.5694444444444
 20
358.42222222222222
 30
0.0
 10
293.1583333333333
 20
358.42222222222222
 30
0.0
 10
286.45555555555552
 20
358.42222222222222
 30
0.0
 10
279.75277777777774
 20
359.12777777777774
 30
0.0
 10
273.04999999999995
 20
358.0694444444444
 30
0.0
 10
272.34444444444443
 20
357.71666666666664
 30
0.0
 10
271.63888888888886
 20
356.6583333333333
 30
0.0
 10
271.2861111111111
 20
355.95277777777773
 30
0.0
 10
271.2861111111111
 20
346.78055555555551
 30
0.0
 10
271.2861111111111
 20
337.25555555555553
 30
0.0
 10
271.63888888888886
 20
328.08333333333331
 30
0.0
  0
SPLINE
  5
45
100
AcDbEntity
  8
LAYER_1
 62
     7
100
AcDbSpline
210
0.0
220
0.0
230
1.0
 70
     8
 71
     3
 72
    26
 73
    22
 74
     0
 42
0.00000001
 43
0.00000001
 40
0.0
 40
0.0
 40
0.0
 40
0.0
 40
1.0
 40
1.0
 40
1.0
 40
2.0
 40
2.0
 40
2.0
 40
3.0
 40
3.0
 40
3.0
 40
4.0
 40
4.0
 40
4.0
 40
5.0
 40
5.0
 40
5.0
 40
6.0
 40
6.0
 40
6.0
 40
7.0
 40
7.0
 40
7.0
 40
7.0
 10
228.59999999999997
 20
365.47777777777776
 30
0.0
 10
228.59999999999997
 20
351.36666666666662
 30
0.0
 10
228.95277777777775
 20
336.90277777777777
 30
0.0
 10
228.95277777777775
 20
322.79166666666663
 30
0.0
 10
228.95277777777775
 20
322.43888888888887
 30
0.0
 10
229.30555555555554
 20
322.08611111111111
 30
0.0
 10
229.6583333333333
 20
322.08611111111111
 30
0.0
 10
231.77499999999998
 20
322.08611111111111
 30
0.0
 10
234.5972222222222
 20
321.38055555555553
 30
0.0
 10
236.36111111111109
 20
322.79166666666663
 30
0.0
 10
235.30277777777775
 20
342.89999999999998
 30
0.0
 10
237.06666666666663
 20
362.65555555555551
 30
0.0
 10
235.65555555555554
 20
382.76388888888886
 30
0.0
 10
235.65555555555554
 20
383.11666666666662
 30
0.0
 10
235.30277777777775
 20
383.46944444444443
 30
0.0
 10
234.94999999999999
 20
383.46944444444443
 30
0.0
 10
232.83333333333331
 20
383.46944444444443
 30
0.0
 10
230.71666666666664
 20
384.17499999999995
 30
0.0
 10
228.59999999999997
 20
383.11666666666662
 30
0.0
 10
228.59999999999997
 20
377.11944444444441
 30
0.0
 10
228.59999999999997
 20
371.47499999999997
 30
0.0
 10
228.59999999999997
 20
365.47777777777776
 30
0.0
  0
SPLINE
  5
44
100
AcDbEntity
  8
LAYER_1
 62
     7
100
AcDbSpline
210
0.0
220
0.0
230
1.0
 70
     8
 71
     3
 72
    50
 73
    46
 74
     0
 42
0.00000001
 43
0.00000001
 40
0.0
 40
0.0
 40
0.0
 40
0.0
 40
1.0
 40
1.0
 40
1.0
 40
2.0
 40
2.0
 40
2.0
 40
3.0
 40
3.0
 40
3.0
 40
4.0
 40
4.0
 40
4.0
 40
5.0
 40
5.0
 40
5.0
 40
6.0
 40
6.0
 40
6.0
 40
7.0
 40
7.0
 40
7.0
 40
8.0
 40
8.0
 40
8.0
 40
9.0
 40
9.0
 40
9.0
 40
10.0
 40
10.0
 40
10.0
 40
11.0
 40
11.0
 40
11.0
 40
12.0
 40
12.0
 40
12.0
 40
13.0
 40
13.0
 40
13.0
 40
14.0
 40
14.0
 40
14.0
 40
15.0
 40
15.0
 40
15.0
 40
15.0
 10
118.53333333333332
 20
334.08055555555552
 30
0.0
 10
118.53333333333332
 20
323.49722222222221
 30
0.0
 10
118.18055555555554
 20
313.26666666666665
 30
0.0
 10
118.88611111111111
 20
302.68333333333328
 30
0.0
 10
118.88611111111111
 20
301.27222222222218
 30
0.0
 10
120.29722222222222
 20
300.21388888888885
 30
0.0
 10
121.70833333333333
 20
299.86111111111109
 30
0.0
 10
123.11944444444444
 20
299.50833333333333
 30
0.0
 10
124.53055555555554
 20
300.56666666666666
 30
0.0
 10
125.2361111111111
 20
301.625
 30
0.0
 10
126.99999999999999
 20
305.15277777777777
 30
0.0
 10
126.99999999999999
 20
309.38611111111106
 30
0.0
 10
128.4111111111111
 20
312.91388888888883
 30
0.0
 10
129.82222222222222
 20
315.38333333333333
 30
0.0
 10
132.64444444444445
 20
315.73611111111109
 30
0.0
 10
135.11388888888888
 20
316.08888888888885
 30
0.0
 10
140.05277777777778
 20
317.14722222222218
 30
0.0
 10
144.63888888888889
 20
316.08888888888885
 30
0.0
 10
149.57777777777775
 20
316.79444444444442
 30
0.0
 10
150.98888888888888
 20
317.14722222222218
 30
0.0
 10
152.04722222222222
 20
318.55833333333328
 30
0.0
 10
152.39999999999998
 20
319.96944444444443
 30
0.0
 10
152.75277777777777
 20
323.84999999999997
 30
0.0
 10
152.75277777777777
 20
327.7305555555555
 30
0.0
 10
152.04722222222222
 20
331.61111111111109
 30
0.0
 10
151.69444444444443
 20
332.66944444444442
 30
0.0
 10
150.98888888888888
 20
333.72777777777776
 30
0.0
 10
149.93055555555554
 20
334.08055555555552
 30
0.0
 10
145.69722222222222
 20
335.13888888888886
 30
0.0
 10
141.11111111111109
 20
334.08055555555552
 30
0.0
 10
136.87777777777777
 20
334.43333333333328
 30
0.0
 10
135.81944444444443
 20
333.02222222222218
 30
0.0
 10
132.99722222222221
 20
332.66944444444442
 30
0.0
 10
132.99722222222221
 20
334.43333333333328
 30
0.0
 10
131.93888888888887
 20
341.84166666666664
 30
0.0
 10
132.64444444444445
 20
348.89722222222218
 30
0.0
 10
132.29166666666666
 20
355.95277777777773
 30
0.0
 10
131.93888888888887
 20
357.36388888888888
 30
0.0
 10
130.88055555555553
 20
358.42222222222222
 30
0.0
 10
129.82222222222222
 20
358.42222222222222
 30
0.0
 10
125.94166666666665
 20
358.77499999999998
 30
0.0
 10
121.35555555555554
 20
360.18611111111107
 30
0.0
 10
118.53333333333332
 20
356.6583333333333
 30
0.0
 10
118.53333333333332
 20
349.24999999999994
 30
0.0
 10
118.53333333333332
 20
341.48888888888888
 30
0.0
 10
118.53333333333332
 20
334.08055555555552
 30
0.0
  0
SPLINE
  5
43
100
AcDbEntity
  8
LAYER_1
 62
     7
100
AcDbSpline
210
0.0
220
0.0
230
1.0
 70
     8
 71
     3
 72
    44
 73
    40
 74
     0
 42
0.00000001
 43
0.00000001
 40
0.0
 40
0.0
 40
0.0
 40
0.0
 40
1.0
 40
1.0
 40
1.0
 40
2.0
 40
2.0
 40
2.0
 40
3.0
 40
3.0
 40
3.0
 40
4.0
 40
4.0
 40
4.0
 40
5.0
 40
5.0
 40
5.0
 40
6.0
 40
6.0
 40
6.0
 40
7.0
 40
7.0
 40
7.0
 40
8.0
 40
8.0
 40
8.0
 40
9.0
 40
9.0
 40
9.0
 40
10.0
 40
10.0
 40
10.0
 40
11.0
 40
11.0
 40
11.0
 40
12.0
 40
12.0
 40
12.0
 40
13.0
 40
13.0
 40
13.0
 40
13.0
 10
118.53333333333332
 20
271.63888888888886
 30
0.0
 10
118.53333333333332
 20
258.93888888888887
 30
0.0
 10
118.18055555555554
 20
246.23888888888888
 30
0.0
 10
119.23888888888888
 20
233.1861111111111
 30
0.0
 10
119.59166666666665
 20
231.77499999999998
 30
0.0
 10
121.00277777777777
 20
231.06944444444443
 30
0.0
 10
122.41388888888888
 20
231.06944444444443
 30
0.0
 10
130.17499999999998
 20
230.36388888888888
 30
0.0
 10
137.9361111111111
 20
229.6583333333333
 30
0.0
 10
145.69722222222222
 20
231.77499999999998
 30
0.0
 10
149.57777777777775
 20
232.48055555555553
 30
0.0
 10
152.39999999999998
 20
236.00833333333333
 30
0.0
 10
152.39999999999998
 20
239.88888888888886
 30
0.0
 10
153.10555555555555
 20
262.8194444444444
 30
0.0
 10
153.10555555555555
 20
285.75
 30
0.0
 10
151.69444444444443
 20
309.0333333333333
 30
0.0
 10
151.69444444444443
 20
310.09166666666664
 30
0.0
 10
150.28333333333333
 20
311.14999999999998
 30
0.0
 10
148.87222222222221
 20
311.50277777777774
 30
0.0
 10
144.99166666666665
 20
311.85555555555555
 30
0.0
 10
141.46388888888887
 20
311.85555555555555
 30
0.0
 10
137.58333333333331
 20
311.14999999999998
 30
0.0
 10
136.52499999999998
 20
310.79722222222222
 30
0.0
 10
135.46666666666664
 20
310.09166666666664
 30
0.0
 10
135.11388888888888
 20
309.0333333333333
 30
0.0
 10
134.05555555555554
 20
304.44722222222219
 30
0.0
 10
135.81944444444443
 20
299.86111111111109
 30
0.0
 10
134.05555555555554
 20
295.27499999999998
 30
0.0
 10
132.99722222222221
 20
292.80555555555554
 30
0.0
 10
130.52777777777777
 20
290.68888888888887
 30
0.0
 10
127.70555555555555
 20
289.98333333333329
 30
0.0
 10
125.58888888888887
 20
289.63055555555553
 30
0.0
 10
123.11944444444444
 20
290.33611111111111
 30
0.0
 10
121.00277777777777
 20
289.63055555555553
 30
0.0
 10
119.94444444444443
 20
288.92499999999995
 30
0.0
 10
118.88611111111111
 20
288.21944444444443
 30
0.0
 10
118.53333333333332
 20
286.80833333333328
 30
0.0
 10
118.18055555555554
 20
281.86944444444441
 30
0.0
 10
118.53333333333332
 20
276.57777777777773
 30
0.0
 10
118.53333333333332
 20
271.63888888888886
 30
0.0
  0
SPLINE
  5
42
100
AcDbEntity
  8
LAYER_1
 62
     7
100
AcDbSpline
210
0.0
220
0.0
230
1.0
 70
     8
 71
     3
 72
    50
 73
    46
 74
     0
 42
0.00000001
 43
0.00000001
 40
0.0
 40
0.0
 40
0.0
 40
0.0
 40
1.0
 40
1.0
 40
1.0
 40
2.0
 40
2.0
 40
2.0
 40
3.0
 40
3.0
 40
3.0
 40
4.0
 40
4.0
 40
4.0
 40
5.0
 40
5.0
 40
5.0
 40
6.0
 40
6.0
 40
6.0
 40
7.0
 40
7.0
 40
7.0
 40
8.0
 40
8.0
 40
8.0
 40
9.0
 40
9.0
 40
9.0
 40
10.0
 40
10.0
 40
10.0
 40
11.0
 40
11.0
 40
11.0
 40
12.0
 40
12.0
 40
12.0
 40
13.0
 40
13.0
 40
13.0
 40
14.0
 40
14.0
 40
14.0
 40
15.0
 40
15.0
 40
15.0
 40
15.0
 10
118.88611111111111
 20
190.14722222222221
 30
0.0
 10
118.88611111111111
 20
183.09166666666664
 30
0.0
 10
118.88611111111111
 20
176.38888888888889
 30
0.0
 10
119.59166666666665
 20
169.33333333333331
 30
0.0
 10
121.35555555555554
 20
167.56944444444443
 30
0.0
 10
124.17777777777776
 20
167.21666666666664
 30
0.0
 10
125.58888888888887
 20
169.33333333333331
 30
0.0
 10
127.70555555555555
 20
173.21388888888887
 30
0.0
 10
127.70555555555555
 20
177.79999999999998
 30
0.0
 10
129.46944444444443
 20
181.68055555555554
 30
0.0
 10
135.81944444444443
 20
185.5611111111111
 30
0.0
 10
142.875
 20
183.09166666666664
 30
0.0
 10
149.93055555555554
 20
184.50277777777777
 30
0.0
 10
150.98888888888888
 20
184.85555555555553
 30
0.0
 10
152.04722222222222
 20
185.5611111111111
 30
0.0
 10
152.39999999999998
 20
186.61944444444444
 30
0.0
 10
153.45833333333331
 20
190.85277777777776
 30
0.0
 10
153.10555555555555
 20
195.08611111111108
 30
0.0
 10
152.39999999999998
 20
199.67222222222222
 30
0.0
 10
152.04722222222222
 20
200.73055555555553
 30
0.0
 10
151.34166666666664
 20
201.4361111111111
 30
0.0
 10
150.63611111111109
 20
201.78888888888886
 30
0.0
 10
146.04999999999998
 20
202.8472222222222
 30
0.0
 10
141.81666666666666
 20
202.14166666666665
 30
0.0
 10
137.23055555555555
 20
202.14166666666665
 30
0.0
 10
136.17222222222222
 20
201.78888888888886
 30
0.0
 10
135.46666666666664
 20
200.73055555555553
 30
0.0
 10
134.40833333333333
 20
201.08333333333331
 30
0.0
 10
133.70277777777775
 20
201.4361111111111
 30
0.0
 10
133.34999999999999
 20
201.78888888888886
 30
0.0
 10
132.99722222222221
 20
202.49444444444444
 30
0.0
 10
132.64444444444445
 20
206.02222222222221
 30
0.0
 10
132.99722222222221
 20
209.19722222222219
 30
0.0
 10
132.99722222222221
 20
212.72499999999999
 30
0.0
 10
132.99722222222221
 20
213.43055555555554
 30
0.0
 10
132.99722222222221
 20
214.13611111111109
 30
0.0
 10
132.99722222222221
 20
214.84166666666664
 30
0.0
 10
131.58611111111111
 20
218.7222222222222
 30
0.0
 10
134.40833333333333
 20
223.6611111111111
 30
0.0
 10
130.52777777777777
 20
226.48333333333332
 30
0.0
 10
126.99999999999999
 20
226.83611111111108
 30
0.0
 10
121.35555555555554
 20
228.24722222222221
 30
0.0
 10
118.88611111111111
 20
224.36666666666665
 30
0.0
 10
118.88611111111111
 20
213.07777777777775
 30
0.0
 10
118.88611111111111
 20
201.4361111111111
 30
0.0
 10
118.88611111111111
 20
190.14722222222221
 30
0.0
  0
SPLINE
  5
41
100
AcDbEntity
  8
LAYER_1
 62
     7
100
AcDbSpline
210
0.0
220
0.0
230
1.0
 70
     8
 71
     3
 72
    50
 73
    46
 74
     0
 42
0.00000001
 43
0.00000001
 40
0.0
 40
0.0
 40
0.0
 40
0.0
 40
1.0
 40
1.0
 40
1.0
 40
2.0
 40
2.0
 40
2.0
 40
3.0
 40
3.0
 40
3.0
 40
4.0
 40
4.0
 40
4.0
 40
5.0
 40
5.0
 40
5.0
 40
6.0
 40
6.0
 40
6.0
 40
7.0
 40
7.0
 40
7.0
 40
8.0
 40
8.0
 40
8.0
 40
9.0
 40
9.0
 40
9.0
 40
10.0
 40
10.0
 40
10.0
 40
11.0
 40
11.0
 40
11.0
 40
12.0
 40
12.0
 40
12.0
 40
13.0
 40
13.0
 40
13.0
 40
14.0
 40
14.0
 40
14.0
 40
15.0
 40
15.0
 40
15.0
 40
15.0
 10
119.23888888888888
 20
129.82222222222222
 30
0.0
 10
119.23888888888888
 20
120.2906765407986
 30
0.0
 10
118.18055555555554
 20
110.77222222222221
 30
0.0
 10
119.94444444444443
 20
100.89444444444443
 30
0.0
 10
119.94444444444443
 20
100.18888888888888
 30
0.0
 10
121.00277777777777
 20
99.130555555555546
 30
0.0
 10
122.0611111111111
 20
98.777777777777771
 30
0.0
 10
122.76666666666665
 20
98.424999999999997
 30
0.0
 10
123.47222222222221
 20
98.777777777777771
 30
0.0
 10
124.17777777777776
 20
98.777777777777771
 30
0.0
 10
131.58611111111111
 20
98.072222222222209
 30
0.0
 10
138.64166666666665
 20
97.36666666666666
 30
0.0
 10
146.04999999999998
 20
99.130555555555546
 30
0.0
 10
148.51944444444442
 20
99.836111111111109
 30
0.0
 10
149.93055555555554
 20
101.59999999999999
 30
0.0
 10
151.69444444444443
 20
103.71666666666665
 30
0.0
 10
151.69444444444443
 20
104.06944444444443
 30
0.0
 10
151.69444444444443
 20
104.42222222222222
 30
0.0
 10
151.69444444444443
 20
104.42222222222222
 30
0.0
 10
152.75277777777777
 20
105.12777777777777
 30
0.0
 10
152.75277777777777
 20
106.53888888888888
 30
0.0
 10
152.75277777777777
 20
107.59722222222221
 30
0.0
 10
153.45833333333331
 20
130.52777777777777
 30
0.0
 10
154.16388888888886
 20
153.45833333333331
 30
0.0
 10
152.39999999999998
 20
176.74166666666665
 30
0.0
 10
152.04722222222222
 20
177.79999999999998
 30
0.0
 10
150.98888888888888
 20
178.85833333333332
 30
0.0
 10
149.93055555555554
 20
178.85833333333332
 30
0.0
 10
145.34444444444443
 20
178.85833333333332
 30
0.0
 10
138.99444444444444
 20
180.97499999999999
 30
0.0
 10
135.46666666666664
 20
177.09444444444443
 30
0.0
 10
134.76111111111109
 20
173.21388888888887
 30
0.0
 10
135.46666666666664
 20
168.98055555555555
 30
0.0
 10
135.11388888888888
 20
165.09999999999999
 30
0.0
 10
134.40833333333333
 20
162.63055555555553
 30
0.0
 10
132.99722222222221
 20
160.86666666666665
 30
0.0
 10
130.88055555555553
 20
159.10277777777776
 30
0.0
 10
129.82222222222222
 20
158.39722222222221
 30
0.0
 10
128.4111111111111
 20
158.04444444444442
 30
0.0
 10
126.99999999999999
 20
157.69166666666666
 30
0.0
 10
124.17777777777776
 20
157.33888888888887
 30
0.0
 10
121.00277777777777
 20
158.39722222222221
 30
0.0
 10
119.23888888888888
 20
155.57499999999999
 30
0.0
 10
119.23888888888888
 20
147.10833333333332
 30
0.0
 10
119.23888888888888
 20
138.28888888888886
 30
0.0
 10
119.23888888888888
 20
129.82222222222222
 30
0.0
  0
SPLINE
  5
40
100
AcDbEntity
  8
LAYER_1
 62
     7
100
AcDbSpline
210
0.0
220
0.0
230
1.0
 70
     8
 71
     3
 72
    53
 73
    49
 74
     0
 42
0.00000001
 43
0.00000001
 40
0.0
 40
0.0
 40
0.0
 40
0.0
 40
1.0
 40
1.0
 40
1.0
 40
2.0
 40
2.0
 40
2.0
 40
3.0
 40
3.0
 40
3.0
 40
4.0
 40
4.0
 40
4.0
 40
5.0
 40
5.0
 40
5.0
 40
6.0
 40
6.0
 40
6.0
 40
7.0
 40
7.0
 40
7.0
 40
8.0
 40
8.0
 40
8.0
 40
9.0
 40
9.0
 40
9.0
 40
10.0
 40
10.0
 40
10.0
 40
11.0
 40
11.0
 40
11.0
 40
12.0
 40
12.0
 40
12.0
 40
13.0
 40
13.0
 40
13.0
 40
14.0
 40
14.0
 40
14.0
 40
15.0
 40
15.0
 40
15.0
 40
16.0
 40
16.0
 40
16.0
 40
16.0
 10
119.23888888888888
 20
75.847222222222214
 30
0.0
 10
119.23888888888888
 20
63.147222222222219
 30
0.0
 10
119.94444444444443
 20
50.799999999999997
 30
0.0
 10
119.59166666666665
 20
38.099999999999994
 30
0.0
 10
120.64999999999999
 20
36.336111111111109
 30
0.0
 10
122.76666666666665
 20
34.924999999999997
 30
0.0
 10
124.53055555555554
 20
35.983333333333327
 30
0.0
 10
128.4111111111111
 20
39.158333333333331
 30
0.0
 10
126.99999999999999
 20
45.155555555555551
 30
0.0
 10
129.46944444444443
 20
49.388888888888886
 30
0.0
 10
129.82222222222222
 20
49.74166666666666
 30
0.0
 10
130.52777777777777
 20
50.094444444444441
 30
0.0
 10
130.88055555555553
 20
50.447222222222216
 30
0.0
 10
132.64444444444445
 20
51.152777777777771
 30
0.0
 10
134.05555555555554
 20
51.858333333333327
 30
0.0
 10
135.81944444444443
 20
52.211111111111109
 30
0.0
 10
139.69999999999999
 20
52.563888888888883
 30
0.0
 10
143.22777777777776
 20
51.858333333333327
 30
0.0
 10
147.10833333333332
 20
52.563888888888883
 30
0.0
 10
148.16666666666666
 20
52.563888888888883
 30
0.0
 10
149.22499999999999
 20
52.211111111111109
 30
0.0
 10
150.28333333333333
 20
52.563888888888883
 30
0.0
 10
150.98888888888888
 20
52.916666666666664
 30
0.0
 10
152.04722222222222
 20
53.62222222222222
 30
0.0
 10
152.39999999999998
 20
54.327777777777776
 30
0.0
 10
153.45833333333331
 20
59.266666666666659
 30
0.0
 10
153.10555555555555
 20
63.852777777777774
 30
0.0
 10
152.39999999999998
 20
68.438888888888883
 30
0.0
 10
148.51944444444442
 20
71.966666666666654
 30
0.0
 10
142.875
 20
69.49722222222222
 30
0.0
 10
137.9361111111111
 20
70.202777777777769
 30
0.0
 10
136.52499999999998
 20
69.144444444444431
 30
0.0
 10
135.11388888888888
 20
68.438888888888883
 30
0.0
 10
133.70277777777775
 20
69.49722222222222
 30
0.0
 10
132.64444444444445
 20
71.261111111111106
 30
0.0
 10
133.34999999999999
 20
73.377777777777766
 30
0.0
 10
133.34999999999999
 20
75.49444444444444
 30
0.0
 10
132.29166666666666
 20
81.138888888888886
 30
0.0
 10
133.34999999999999
 20
86.783333333333331
 30
0.0
 10
132.64444444444445
 20
92.427777777777763
 30
0.0
 10
130.52777777777777
 20
96.308333333333323
 30
0.0
 10
125.58888888888887
 20
94.544444444444437
 30
0.0
 10
122.0611111111111
 20
94.191666666666663
 30
0.0
 10
121.00277777777777
 20
94.191666666666663
 30
0.0
 10
119.59166666666665
 20
93.4861111111111
 30
0.0
 10
119.23888888888888
 20
92.074999999999989
 30
0.0
 10
118.88611111111111
 20
86.783333333333331
 30
0.0
 10
119.23888888888888
 20
81.138888888888886
 30
0.0
 10
119.23888888888888
 20
75.847222222222214
 30
0.0
  0
SPLINE
  5
3F
100
AcDbEntity
  8
LAYER_1
 62
     7
100
AcDbSpline
210
0.0
220
0.0
230
1.0
 70
     8
 71
     3
 72
    53
 73
    49
 74
     0
 42
0.00000001
 43
0.00000001
 40
0.0
 40
0.0
 40
0.0
 40
0.0
 40
1.0
 40
1.0
 40
1.0
 40
2.0
 40
2.0
 40
2.0
 40
3.0
 40
3.0
 40
3.0
 40
4.0
 40
4.0
 40
4.0
 40
5.0
 40
5.0
 40
5.0
 40
6.0
 40
6.0
 40
6.0
 40
7.0
 40
7.0
 40
7.0
 40
8.0
 40
8.0
 40
8.0
 40
9.0
 40
9.0
 40
9.0
 40
10.0
 40
10.0
 40
10.0
 40
11.0
 40
11.0
 40
11.0
 40
12.0
 40
12.0
 40
12.0
 40
13.0
 40
13.0
 40
13.0
 40
14.0
 40
14.0
 40
14.0
 40
15.0
 40
15.0
 40
15.0
 40
16.0
 40
16.0
 40
16.0
 40
16.0
 10
119.59166666666665
 20
5.9972222222222218
 30
0.0
 10
119.59166666666665
 20
-5.9972222222222218
 30
0.0
 10
118.88611111111111
 20
-17.991666666666664
 30
0.0
 10
119.94444444444443
 20
-30.338888888888885
 30
0.0
 10
120.29722222222222
 20
-31.749999999999996
 30
0.0
 10
121.35555555555554
 20
-32.80833333333333
 30
0.0
 10
122.76666666666665
 20
-33.161111111111111
 30
0.0
 10
126.29444444444444
 20
-33.513888888888886
 30
0.0
 10
129.46944444444443
 20
-33.161111111111111
 30
0.0
 10
132.64444444444445
 20
-33.161111111111111
 30
0.0
 10
137.58333333333331
 20
-33.513888888888886
 30
0.0
 10
142.16944444444442
 20
-33.86666666666666
 30
0.0
 10
147.10833333333332
 20
-32.455555555555556
 30
0.0
 10
149.57777777777775
 20
-31.749999999999996
 30
0.0
 10
150.98888888888888
 20
-29.633333333333329
 30
0.0
 10
152.39999999999998
 20
-27.516666666666666
 30
0.0
 10
152.75277777777777
 20
-26.458333333333332
 30
0.0
 10
153.10555555555555
 20
-25.399999999999999
 30
0.0
 10
153.10555555555555
 20
-23.988888888888887
 30
0.0
 10
153.8111111111111
 20
-10.230555555555554
 30
0.0
 10
153.8111111111111
 20
3.1749999999999998
 30
0.0
 10
153.10555555555555
 20
16.93333333333333
 30
0.0
 10
152.75277777777777
 20
26.105555555555554
 30
0.0
 10
154.16388888888886
 20
34.924999999999997
 30
0.0
 10
152.75277777777777
 20
44.449999999999996
 30
0.0
 10
152.39999999999998
 20
46.213888888888881
 30
0.0
 10
150.98888888888888
 20
47.272222222222219
 30
0.0
 10
149.22499999999999
 20
47.272222222222219
 30
0.0
 10
144.99166666666665
 20
47.272222222222219
 30
0.0
 10
139.3472222222222
 20
48.68333333333333
 30
0.0
 10
136.17222222222222
 20
45.155555555555551
 30
0.0
 10
135.46666666666664
 20
40.569444444444443
 30
0.0
 10
136.52499999999998
 20
35.983333333333327
 30
0.0
 10
135.11388888888888
 20
31.397222222222219
 30
0.0
 10
134.76111111111109
 20
30.691666666666663
 30
0.0
 10
134.40833333333333
 20
30.338888888888885
 30
0.0
 10
134.05555555555554
 20
29.633333333333329
 30
0.0
 10
132.99722222222221
 20
27.516666666666666
 30
0.0
 10
130.88055555555553
 20
26.458333333333332
 30
0.0
 10
128.76388888888889
 20
26.105555555555554
 30
0.0
 10
126.64722222222221
 20
25.399999999999999
 30
0.0
 10
124.17777777777776
 20
25.752777777777776
 30
0.0
 10
122.0611111111111
 20
25.399999999999999
 30
0.0
 10
121.00277777777777
 20
25.047222222222221
 30
0.0
 10
120.29722222222222
 20
24.341666666666665
 30
0.0
 10
119.94444444444443
 20
23.636111111111109
 30
0.0
 10
118.88611111111111
 20
17.638888888888886
 30
0.0
 10
119.59166666666665
 20
11.994444444444444
 30
0.0
 10
119.59166666666665
 20
5.9972222222222218
 30
0.0
  0
SPLINE
  5
3E
100
AcDbEntity
  8
LAYER_1
 62
     7
100
AcDbSpline
210
0.0
220
0.0
230
1.0
 70
     8
 71
     3
 72
    26
 73
    22
 74
     0
 42
0.00000001
 43
0.00000001
 40
0.0
 40
0.0
 40
0.0
 40
0.0
 40
1.0
 40
1.0
 40
1.0
 40
2.0
 40
2.0
 40
2.0
 40
3.0
 40
3.0
 40
3.0
 40
4.0
 40
4.0
 40
4.0
 40
5.0
 40
5.0
 40
5.0
 40
6.0
 40
6.0
 40
6.0
 40
7.0
 40
7.0
 40
7.0
 40
7.0
 10
76.199999999999989
 20
330.90555555555551
 30
0.0
 10
76.199999999999989
 20
328.08333333333331
 30
0.0
 10
76.199999999999989
 20
324.9083333333333
 30
0.0
 10
76.199999999999989
 20
322.08611111111111
 30
0.0
 10
76.199999999999989
 20
321.73333333333329
 30
0.0
 10
76.552777777777777
 20
321.38055555555553
 30
0.0
 10
76.905555555555551
 20
321.38055555555553
 30
0.0
 10
79.022222222222211
 20
321.38055555555553
 30
0.0
 10
81.844444444444434
 20
320.67499999999995
 30
0.0
 10
83.60833333333332
 20
322.08611111111111
 30
0.0
 10
83.60833333333332
 20
342.1944444444444
 30
0.0
 10
83.255555555555546
 20
361.94999999999999
 30
0.0
 10
83.255555555555546
 20
382.05833333333328
 30
0.0
 10
83.255555555555546
 20
382.4111111111111
 30
0.0
 10
82.902777777777771
 20
382.76388888888886
 30
0.0
 10
82.549999999999997
 20
382.76388888888886
 30
0.0
 10
80.433333333333323
 20
382.76388888888886
 30
0.0
 10
78.316666666666663
 20
383.46944444444443
 30
0.0
 10
76.199999999999989
 20
382.4111111111111
 30
0.0
 10
75.847222222222214
 20
365.12499999999994
 30
0.0
 10
76.552777777777777
 20
348.19166666666666
 30
0.0
 10
76.199999999999989
 20
330.90555555555551
 30
0.0
  0
SPLINE
  5
3D
100
AcDbEntity
  8
LAYER_1
 62
     7
100
AcDbSpline
210
0.0
220
0.0
230
1.0
 70
     8
 71
     3
 72
    20
 73
    16
 74
     0
 42
0.00000001
 43
0.00000001
 40
0.0
 40
0.0
 40
0.0
 40
0.0
 40
1.0
 40
1.0
 40
1.0
 40
2.0
 40
2.0
 40
2.0
 40
3.0
 40
3.0
 40
3.0
 40
4.0
 40
4.0
 40
4.0
 40
5.0
 40
5.0
 40
5.0
 40
5.0
 10
-42.68611111111111
 20
18.697222222222219
 30
0.0
 10
-42.600500488281249
 20
18.355124240451389
 30
0.0
 10
-42.68611111111111
 20
18.344444444444441
 30
0.0
 10
-42.68611111111111
 20
17.991666666666664
 30
0.0
 10
-41.980555555555554
 20
16.93333333333333
 30
0.0
 10
-40.922222222222217
 20
16.227777777777778
 30
0.0
 10
-39.863888888888887
 20
16.580555555555556
 30
0.0
 10
-38.452777777777776
 20
17.286111111111108
 30
0.0
 10
-37.394444444444439
 20
18.344444444444441
 30
0.0
 10
-37.74722222222222
 20
20.108333333333331
 30
0.0
 10
-38.099999999999994
 20
21.519444444444442
 30
0.0
 10
-39.863888888888887
 20
22.224999999999998
 30
0.0
 10
-41.274999999999999
 20
21.87222222222222
 30
0.0
 10
-42.333333333333329
 20
21.166666666666664
 30
0.0
 10
-43.038888888888884
 20
20.108333333333331
 30
0.0
 10
-42.68611111111111
 20
18.697222222222219
 30
0.0
  0
SPLINE
  5
3C
100
AcDbEntity
  8
LAYER_1
 62
     7
100
AcDbSpline
210
0.0
220
0.0
230
1.0
 70
     8
 71
     3
 72
    44
 73
    40
 74
     0
 42
0.00000001
 43
0.00000001
 40
0.0
 40
0.0
 40
0.0
 40
0.0
 40
1.0
 40
1.0
 40
1.0
 40
2.0
 40
2.0
 40
2.0
 40
3.0
 40
3.0
 40
3.0
 40
4.0
 40
4.0
 40
4.0
 40
5.0
 40
5.0
 40
5.0
 40
6.0
 40
6.0
 40
6.0
 40
7.0
 40
7.0
 40
7.0
 40
8.0
 40
8.0
 40
8.0
 40
9.0
 40
9.0
 40
9.0
 40
10.0
 40
10.0
 40
10.0
 40
11.0
 40
11.0
 40
11.0
 40
12.0
 40
12.0
 40
12.0
 40
13.0
 40
13.0
 40
13.0
 40
13.0
 10
-59.972222222222214
 20
-0.3527777777777778
 30
0.0
 10
-60.324999999999996
 20
-3.8805555555555551
 30
0.0
 10
-59.61944444444444
 20
-7.4083333333333323
 30
0.0
 10
-60.324999999999996
 20
-10.93611111111111
 30
0.0
 10
-60.324999999999996
 20
-11.641666666666666
 30
0.0
 10
-59.266666666666659
 20
-11.288888888888888
 30
0.0
 10
-59.266666666666659
 20
-11.288888888888888
 30
0.0
 10
-46.566666666666663
 20
-11.994444444444444
 30
0.0
 10
-33.513888888888886
 20
-11.994444444444444
 30
0.0
 10
-20.813888888888886
 20
-11.641666666666666
 30
0.0
 10
-20.108333333333331
 20
-11.641666666666666
 30
0.0
 10
-19.755555555555553
 20
-10.583333333333332
 30
0.0
 10
-19.755555555555553
 20
-10.230555555555554
 30
0.0
 10
-20.108333333333331
 20
1.0583333333333331
 30
0.0
 10
-19.402777777777775
 20
11.994444444444444
 30
0.0
 10
-20.108333333333331
 20
23.283333333333331
 30
0.0
 10
-21.166666666666664
 20
24.694444444444443
 30
0.0
 10
-23.283333333333331
 20
26.105555555555554
 30
0.0
 10
-25.047222222222221
 20
25.047222222222221
 30
0.0
 10
-34.219444444444441
 20
17.991666666666664
 30
0.0
 10
-41.980555555555554
 20
11.288888888888888
 30
0.0
 10
-50.799999999999997
 20
4.2333333333333325
 30
0.0
 10
-52.916666666666664
 20
2.822222222222222
 30
0.0
 10
-55.033333333333331
 20
4.5861111111111104
 30
0.0
 10
-55.386111111111106
 20
6.7027777777777775
 30
0.0
 10
-55.738888888888887
 20
10.230555555555554
 30
0.0
 10
-51.505555555555553
 20
10.583333333333332
 30
0.0
 10
-49.74166666666666
 20
13.052777777777777
 30
0.0
 10
-49.388888888888886
 20
14.111111111111111
 30
0.0
 10
-49.388888888888886
 20
15.169444444444443
 30
0.0
 10
-50.447222222222216
 20
15.52222222222222
 30
0.0
 10
-52.916666666666664
 20
16.580555555555556
 30
0.0
 10
-55.738888888888887
 20
15.874999999999998
 30
0.0
 10
-58.208333333333329
 20
15.874999999999998
 30
0.0
 10
-58.561111111111103
 20
15.874999999999998
 30
0.0
 10
-59.266666666666659
 20
15.52222222222222
 30
0.0
 10
-59.61944444444444
 20
14.816666666666665
 30
0.0
 10
-60.67777777777777
 20
9.5249999999999986
 30
0.0
 10
-59.61944444444444
 20
4.5861111111111104
 30
0.0
 10
-59.972222222222214
 20
-0.3527777777777778
 30
0.0
  0
SPLINE
  5
3B
100
AcDbEntity
  8
LAYER_1
 62
     7
100
AcDbSpline
210
0.0
220
0.0
230
1.0
 70
     8
 71
     3
 72
    59
 73
    55
 74
     0
 42
0.00000001
 43
0.00000001
 40
0.0
 40
0.0
 40
0.0
 40
0.0
 40
1.0
 40
1.0
 40
1.0
 40
2.0
 40
2.0
 40
2.0
 40
3.0
 40
3.0
 40
3.0
 40
4.0
 40
4.0
 40
4.0
 40
5.0
 40
5.0
 40
5.0
 40
6.0
 40
6.0
 40
6.0
 40
7.0
 40
7.0
 40
7.0
 40
8.0
 40
8.0
 40
8.0
 40
9.0
 40
9.0
 40
9.0
 40
10.0
 40
10.0
 40
10.0
 40
11.0
 40
11.0
 40
11.0
 40
12.0
 40
12.0
 40
12.0
 40
13.0
 40
13.0
 40
13.0
 40
14.0
 40
14.0
 40
14.0
 40
15.0
 40
15.0
 40
15.0
 40
16.0
 40
16.0
 40
16.0
 40
17.0
 40
17.0
 40
17.0
 40
18.0
 40
18.0
 40
18.0
 40
18.0
 10
-59.972222222222214
 20
62.088888888888881
 30
0.0
 10
-59.972222222222214
 20
51.152777777777771
 30
0.0
 10
-60.324999999999996
 20
40.216666666666661
 30
0.0
 10
-59.972222222222214
 20
29.280555555555551
 30
0.0
 10
-59.972222222222214
 20
28.927777777777774
 30
0.0
 10
-59.266666666666659
 20
28.222222222222221
 30
0.0
 10
-58.913888888888884
 20
28.222222222222221
 30
0.0
 10
-52.563888888888883
 20
27.516666666666666
 30
0.0
 10
-46.213888888888881
 20
27.163888888888888
 30
0.0
 10
-39.863888888888887
 20
28.222222222222221
 30
0.0
 10
-38.80555555555555
 20
28.574999999999996
 30
0.0
 10
-38.099999999999994
 20
28.927777777777774
 30
0.0
 10
-37.041666666666664
 20
29.280555555555551
 30
0.0
 10
-35.983333333333327
 20
29.633333333333329
 30
0.0
 10
-34.924999999999997
 20
30.691666666666663
 30
0.0
 10
-33.86666666666666
 20
31.749999999999996
 30
0.0
 10
-30.691666666666663
 20
34.572222222222216
 30
0.0
 10
-27.163888888888888
 20
37.041666666666664
 30
0.0
 10
-23.988888888888887
 20
39.863888888888887
 30
0.0
 10
-22.577777777777776
 20
41.274999999999999
 30
0.0
 10
-21.519444444444442
 20
42.68611111111111
 30
0.0
 10
-20.813888888888886
 20
44.449999999999996
 30
0.0
 10
-20.461111111111109
 20
45.861111111111107
 30
0.0
 10
-20.108333333333331
 20
46.919444444444437
 30
0.0
 10
-19.755555555555553
 20
48.330555555555549
 30
0.0
 10
-19.755555555555553
 20
62.088888888888881
 30
0.0
 10
-18.697222222222219
 20
75.847222222222214
 30
0.0
 10
-20.461111111111109
 20
89.605555555555554
 30
0.0
 10
-20.461111111111109
 20
91.016666666666652
 30
0.0
 10
-22.577777777777776
 20
91.722222222222214
 30
0.0
 10
-23.988888888888887
 20
91.722222222222214
 30
0.0
 10
-24.341666666666665
 20
91.36944444444444
 30
0.0
 10
-24.694444444444443
 20
91.36944444444444
 30
0.0
 10
-25.047222222222221
 20
91.36944444444444
 30
0.0
 10
-34.219444444444441
 20
84.313888888888883
 30
0.0
 10
-41.980555555555554
 20
77.6111111111111
 30
0.0
 10
-50.799999999999997
 20
70.555555555555543
 30
0.0
 10
-52.563888888888883
 20
69.49722222222222
 30
0.0
 10
-54.327777777777776
 20
70.555555555555543
 30
0.0
 10
-55.033333333333331
 20
72.319444444444443
 30
0.0
 10
-55.386111111111106
 20
73.024999999999991
 30
0.0
 10
-55.386111111111106
 20
73.730555555555554
 30
0.0
 10
-55.033333333333331
 20
74.436111111111103
 30
0.0
 10
-53.269444444444439
 20
76.199999999999989
 30
0.0
 10
-50.799999999999997
 20
77.258333333333326
 30
0.0
 10
-49.388888888888886
 20
79.374999999999986
 30
0.0
 10
-48.68333333333333
 20
80.786111111111097
 30
0.0
 10
-50.094444444444441
 20
81.844444444444434
 30
0.0
 10
-51.152777777777771
 20
81.844444444444434
 30
0.0
 10
-53.974999999999994
 20
82.197222222222209
 30
0.0
 10
-57.502777777777773
 20
83.255555555555546
 30
0.0
 10
-59.61944444444444
 20
81.138888888888886
 30
0.0
 10
-59.972222222222214
 20
76.199999999999989
 30
0.0
 10
-59.972222222222214
 20
70.908333333333331
 30
0.0
 10
-59.972222222222214
 20
65.969444444444434
 30
0.0
  0
SPLINE
  5
3A
100
AcDbEntity
  8
LAYER_1
 62
     7
100
AcDbSpline
210
0.0
220
0.0
230
1.0
 70
     8
 71
     3
 72
    50
 73
    46
 74
     0
 42
0.00000001
 43
0.00000001
 40
0.0
 40
0.0
 40
0.0
 40
0.0
 40
1.0
 40
1.0
 40
1.0
 40
2.0
 40
2.0
 40
2.0
 40
3.0
 40
3.0
 40
3.0
 40
4.0
 40
4.0
 40
4.0
 40
5.0
 40
5.0
 40
5.0
 40
6.0
 40
6.0
 40
6.0
 40
7.0
 40
7.0
 40
7.0
 40
8.0
 40
8.0
 40
8.0
 40
9.0
 40
9.0
 40
9.0
 40
10.0
 40
10.0
 40
10.0
 40
11.0
 40
11.0
 40
11.0
 40
12.0
 40
12.0
 40
12.0
 40
13.0
 40
13.0
 40
13.0
 40
14.0
 40
14.0
 40
14.0
 40
15.0
 40
15.0
 40
15.0
 40
15.0
 10
-59.972222222222214
 20
117.12222222222221
 30
0.0
 10
-59.972222222222214
 20
107.59722222222221
 30
0.0
 10
-60.324999999999996
 20
98.424999999999997
 30
0.0
 10
-59.972222222222214
 20
88.899999999999991
 30
0.0
 10
-59.972222222222214
 20
88.547222222222217
 30
0.0
 10
-59.266666666666659
 20
87.841666666666654
 30
0.0
 10
-58.913888888888884
 20
87.841666666666654
 30
0.0
 10
-52.211111111111109
 20
87.136111111111106
 30
0.0
 10
-45.508333333333326
 20
86.430555555555543
 30
0.0
 10
-38.80555555555555
 20
88.194444444444443
 30
0.0
 10
-37.74722222222222
 20
88.547222222222217
 30
0.0
 10
-36.688888888888883
 20
88.899999999999991
 30
0.0
 10
-35.983333333333327
 20
89.605555555555554
 30
0.0
 10
-30.691666666666663
 20
94.191666666666663
 30
0.0
 10
-25.047222222222221
 20
97.36666666666666
 30
0.0
 10
-21.166666666666664
 20
103.36388888888888
 30
0.0
 10
-20.461111111111109
 20
104.77499999999999
 30
0.0
 10
-19.755555555555553
 20
106.53888888888888
 30
0.0
 10
-19.755555555555553
 20
107.94999999999999
 30
0.0
 10
-19.755555555555553
 20
124.17777777777776
 30
0.0
 10
-19.049999999999997
 20
140.05277777777778
 30
0.0
 10
-20.108333333333331
 20
156.28055555555554
 30
0.0
 10
-21.166666666666664
 20
157.69166666666666
 30
0.0
 10
-22.930555555555554
 20
158.39722222222221
 30
0.0
 10
-24.694444444444443
 20
158.04444444444442
 30
0.0
 10
-33.513888888888886
 20
150.98888888888888
 30
0.0
 10
-41.980555555555554
 20
144.2861111111111
 30
0.0
 10
-50.799999999999997
 20
136.87777777777777
 30
0.0
 10
-51.505555555555553
 20
136.52499999999998
 30
0.0
 10
-52.211111111111109
 20
136.17222222222222
 30
0.0
 10
-52.916666666666664
 20
136.52499999999998
 30
0.0
 10
-54.327777777777776
 20
137.23055555555555
 30
0.0
 10
-55.738888888888887
 20
138.99444444444444
 30
0.0
 10
-54.68055555555555
 20
140.40555555555554
 30
0.0
 10
-53.62222222222222
 20
142.52222222222221
 30
0.0
 10
-50.799999999999997
 20
143.58055555555555
 30
0.0
 10
-49.388888888888886
 20
145.69722222222222
 30
0.0
 10
-49.036111111111104
 20
146.75555555555553
 30
0.0
 10
-49.388888888888886
 20
148.16666666666666
 30
0.0
 10
-50.447222222222216
 20
148.16666666666666
 30
0.0
 10
-53.269444444444439
 20
148.51944444444442
 30
0.0
 10
-57.149999999999991
 20
149.57777777777775
 30
0.0
 10
-59.61944444444444
 20
147.46111111111111
 30
0.0
 10
-59.972222222222214
 20
137.23055555555555
 30
0.0
 10
-59.972222222222214
 20
127.35277777777776
 30
0.0
 10
-59.972222222222214
 20
117.12222222222221
 30
0.0
  0
SPLINE
  5
39
100
AcDbEntity
  8
LAYER_1
 62
     7
100
AcDbSpline
210
0.0
220
0.0
230
1.0
 70
     8
 71
     3
 72
    59
 73
    55
 74
     0
 42
0.00000001
 43
0.00000001
 40
0.0
 40
0.0
 40
0.0
 40
0.0
 40
1.0
 40
1.0
 40
1.0
 40
2.0
 40
2.0
 40
2.0
 40
3.0
 40
3.0
 40
3.0
 40
4.0
 40
4.0
 40
4.0
 40
5.0
 40
5.0
 40
5.0
 40
6.0
 40
6.0
 40
6.0
 40
7.0
 40
7.0
 40
7.0
 40
8.0
 40
8.0
 40
8.0
 40
9.0
 40
9.0
 40
9.0
 40
10.0
 40
10.0
 40
10.0
 40
11.0
 40
11.0
 40
11.0
 40
12.0
 40
12.0
 40
12.0
 40
13.0
 40
13.0
 40
13.0
 40
14.0
 40
14.0
 40
14.0
 40
15.0
 40
15.0
 40
15.0
 40
16.0
 40
16.0
 40
16.0
 40
17.0
 40
17.0
 40
17.0
 40
18.0
 40
18.0
 40
18.0
 40
18.0
 10
-59.61944444444444
 20
189.08888888888887
 30
0.0
 10
-59.972222222222214
 20
177.79999999999998
 30
0.0
 10
-59.266666666666659
 20
166.51111111111109
 30
0.0
 10
-59.972222222222214
 20
155.2222222222222
 30
0.0
 10
-59.972222222222214
 20
154.86944444444444
 30
0.0
 10
-59.61944444444444
 20
154.16388888888886
 30
0.0
 10
-58.913888888888884
 20
153.8111111111111
 30
0.0
 10
-53.269444444444439
 20
152.75277777777777
 30
0.0
 10
-47.977777777777774
 20
153.45833333333331
 30
0.0
 10
-42.68611111111111
 20
153.45833333333331
 30
0.0
 10
-41.980555555555554
 20
153.10555555555555
 30
0.0
 10
-41.274999999999999
 20
153.45833333333331
 30
0.0
 10
-40.569444444444443
 20
153.8111111111111
 30
0.0
 10
-40.216666666666661
 20
153.45833333333331
 30
0.0
 10
-39.863888888888887
 20
153.45833333333331
 30
0.0
 10
-39.511111111111106
 20
153.45833333333331
 30
0.0
 10
-38.80555555555555
 20
154.16388888888886
 30
0.0
 10
-37.74722222222222
 20
154.51666666666665
 30
0.0
 10
-36.688888888888883
 20
155.2222222222222
 30
0.0
 10
-32.455555555555556
 20
158.39722222222221
 30
0.0
 10
-29.280555555555551
 20
161.57222222222219
 30
0.0
 10
-25.047222222222221
 20
164.74722222222221
 30
0.0
 10
-23.636111111111109
 20
165.45277777777775
 30
0.0
 10
-22.930555555555554
 20
166.86388888888888
 30
0.0
 10
-21.87222222222222
 20
167.92222222222222
 30
0.0
 10
-20.461111111111109
 20
169.6861111111111
 30
0.0
 10
-20.108333333333331
 20
171.44999999999999
 30
0.0
 10
-20.108333333333331
 20
173.56666666666666
 30
0.0
 10
-19.402777777777775
 20
189.44166666666666
 30
0.0
 10
-19.402777777777775
 20
205.31666666666663
 30
0.0
 10
-20.108333333333331
 20
221.19166666666663
 30
0.0
 10
-20.108333333333331
 20
223.30833333333331
 30
0.0
 10
-22.930555555555554
 20
224.36666666666665
 30
0.0
 10
-24.694444444444443
 20
223.30833333333331
 30
0.0
 10
-34.219444444444441
 20
216.95833333333331
 30
0.0
 10
-41.627777777777773
 20
209.54999999999998
 30
0.0
 10
-50.799999999999997
 20
202.49444444444444
 30
0.0
 10
-51.505555555555553
 20
202.14166666666665
 30
0.0
 10
-52.211111111111109
 20
201.78888888888886
 30
0.0
 10
-52.916666666666664
 20
202.14166666666665
 30
0.0
 10
-54.327777777777776
 20
203.19999999999999
 30
0.0
 10
-55.738888888888887
 20
204.61111111111109
 30
0.0
 10
-55.033333333333331
 20
206.37499999999997
 30
0.0
 10
-53.62222222222222
 20
208.49166666666665
 30
0.0
 10
-50.799999999999997
 20
209.19722222222219
 30
0.0
 10
-49.388888888888886
 20
211.31388888888887
 30
0.0
 10
-48.68333333333333
 20
212.72499999999999
 30
0.0
 10
-49.74166666666666
 20
214.13611111111109
 30
0.0
 10
-51.152777777777771
 20
214.13611111111109
 30
0.0
 10
-53.974999999999994
 20
214.48888888888888
 30
0.0
 10
-57.502777777777773
 20
215.54722222222219
 30
0.0
 10
-59.61944444444444
 20
213.07777777777775
 30
0.0
 10
-59.61944444444444
 20
204.96388888888887
 30
0.0
 10
-59.61944444444444
 20
197.20277777777775
 30
0.0
 10
-59.61944444444444
 20
189.08888888888887
 30
0.0
  0
SPLINE
  5
38
100
AcDbEntity
  8
LAYER_1
 62
     7
100
AcDbSpline
210
0.0
220
0.0
230
1.0
 70
     8
 71
     3
 72
    53
 73
    49
 74
     0
 42
0.00000001
 43
0.00000001
 40
0.0
 40
0.0
 40
0.0
 40
0.0
 40
1.0
 40
1.0
 40
1.0
 40
2.0
 40
2.0
 40
2.0
 40
3.0
 40
3.0
 40
3.0
 40
4.0
 40
4.0
 40
4.0
 40
5.0
 40
5.0
 40
5.0
 40
6.0
 40
6.0
 40
6.0
 40
7.0
 40
7.0
 40
7.0
 40
8.0
 40
8.0
 40
8.0
 40
9.0
 40
9.0
 40
9.0
 40
10.0
 40
10.0
 40
10.0
 40
11.0
 40
11.0
 40
11.0
 40
12.0
 40
12.0
 40
12.0
 40
13.0
 40
13.0
 40
13.0
 40
14.0
 40
14.0
 40
14.0
 40
15.0
 40
15.0
 40
15.0
 40
16.0
 40
16.0
 40
16.0
 40
16.0
 10
-59.61944444444444
 20
235.65555555555554
 30
0.0
 10
-59.73985053168402
 20
230.71821695963538
 30
0.0
 10
-59.972222222222214
 20
225.77777777777777
 30
0.0
 10
-59.61944444444444
 20
220.83888888888887
 30
0.0
 10
-59.61944444444444
 20
220.48611111111109
 30
0.0
 10
-58.913888888888884
 20
219.78055555555554
 30
0.0
 10
-58.561111111111103
 20
219.78055555555554
 30
0.0
 10
-52.916666666666664
 20
219.78055555555554
 30
0.0
 10
-47.272222222222219
 20
219.07499999999999
 30
0.0
 10
-41.274999999999999
 20
219.78055555555554
 30
0.0
 10
-40.216666666666661
 20
219.78055555555554
 30
0.0
 10
-39.158333333333331
 20
220.13333333333333
 30
0.0
 10
-38.099999999999994
 20
220.48611111111109
 30
0.0
 10
-37.041666666666664
 20
221.19166666666663
 30
0.0
 10
-35.630555555555553
 20
221.89722222222221
 30
0.0
 10
-34.572222222222216
 20
222.95555555555555
 30
0.0
 10
-29.986111111111107
 20
226.83611111111108
 30
0.0
 10
-25.047222222222221
 20
229.6583333333333
 30
0.0
 10
-21.166666666666664
 20
234.94999999999999
 30
0.0
 10
-20.813888888888886
 20
235.65555555555554
 30
0.0
 10
-20.461111111111109
 20
236.71388888888887
 30
0.0
 10
-20.461111111111109
 20
237.41944444444442
 30
0.0
 10
-18.697222222222219
 20
254.35277777777776
 30
0.0
 10
-19.402777777777775
 20
270.93333333333328
 30
0.0
 10
-20.108333333333331
 20
287.51388888888886
 30
0.0
 10
-20.108333333333331
 20
288.92499999999995
 30
0.0
 10
-21.87222222222222
 20
290.33611111111111
 30
0.0
 10
-23.636111111111109
 20
289.98333333333329
 30
0.0
 10
-23.988888888888887
 20
289.63055555555553
 30
0.0
 10
-24.341666666666665
 20
289.63055555555553
 30
0.0
 10
-24.694444444444443
 20
289.63055555555553
 30
0.0
 10
-33.86666666666666
 20
282.57499999999999
 30
0.0
 10
-41.627777777777773
 20
275.87222222222221
 30
0.0
 10
-50.447222222222216
 20
268.81666666666666
 30
0.0
 10
-52.916666666666664
 20
267.05277777777775
 30
0.0
 10
-54.68055555555555
 20
269.875
 30
0.0
 10
-55.033333333333331
 20
271.99166666666662
 30
0.0
 10
-53.62222222222222
 20
274.10833333333329
 30
0.0
 10
-51.152777777777771
 20
275.16666666666663
 30
0.0
 10
-49.388888888888886
 20
277.2833333333333
 30
0.0
 10
-48.68333333333333
 20
278.34166666666664
 30
0.0
 10
-49.388888888888886
 20
280.10555555555555
 30
0.0
 10
-50.447222222222216
 20
280.10555555555555
 30
0.0
 10
-53.269444444444439
 20
280.45833333333331
 30
0.0
 10
-57.149999999999991
 20
281.51666666666665
 30
0.0
 10
-59.266666666666659
 20
279.39999999999998
 30
0.0
 10
-60.324999999999996
 20
264.93611111111107
 30
0.0
 10
-59.266666666666659
 20
250.11944444444441
 30
0.0
 10
-59.61944444444444
 20
235.65555555555554
 30
0.0
  0
SPLINE
  5
37
100
AcDbEntity
  8
LAYER_1
 62
     7
100
AcDbSpline
210
0.0
220
0.0
230
1.0
 70
     8
 71
     3
 72
    47
 73
    43
 74
     0
 42
0.00000001
 43
0.00000001
 40
0.0
 40
0.0
 40
0.0
 40
0.0
 40
1.0
 40
1.0
 40
1.0
 40
2.0
 40
2.0
 40
2.0
 40
3.0
 40
3.0
 40
3.0
 40
4.0
 40
4.0
 40
4.0
 40
5.0
 40
5.0
 40
5.0
 40
6.0
 40
6.0
 40
6.0
 40
7.0
 40
7.0
 40
7.0
 40
8.0
 40
8.0
 40
8.0
 40
9.0
 40
9.0
 40
9.0
 40
10.0
 40
10.0
 40
10.0
 40
11.0
 40
11.0
 40
11.0
 40
12.0
 40
12.0
 40
12.0
 40
13.0
 40
13.0
 40
13.0
 40
14.0
 40
14.0
 40
14.0
 40
14.0
 10
-59.61944444444444
 20
307.62222222222221
 30
0.0
 10
-59.61944444444444
 20
300.56666666666666
 30
0.0
 10
-60.324999999999996
 20
293.51111111111106
 30
0.0
 10
-59.266666666666659
 20
286.10277777777776
 30
0.0
 10
-59.266666666666659
 20
285.39722222222218
 30
0.0
 10
-58.208333333333329
 20
285.75
 30
0.0
 10
-58.208333333333329
 20
285.75
 30
0.0
 10
-51.858333333333327
 20
285.04444444444442
 30
0.0
 10
-45.508333333333326
 20
285.04444444444442
 30
0.0
 10
-39.158333333333331
 20
285.75
 30
0.0
 10
-33.161111111111111
 20
288.92499999999995
 30
0.0
 10
-28.222222222222221
 20
293.51111111111106
 30
0.0
 10
-22.930555555555554
 20
298.09722222222217
 30
0.0
 10
-21.166666666666664
 20
299.86111111111109
 30
0.0
 10
-20.813888888888886
 20
301.97777777777776
 30
0.0
 10
-19.755555555555553
 20
304.09444444444443
 30
0.0
 10
-20.108333333333331
 20
320.67499999999995
 30
0.0
 10
-18.344444444444441
 20
337.25555555555553
 30
0.0
 10
-20.108333333333331
 20
353.83611111111105
 30
0.0
 10
-20.108333333333331
 20
355.24722222222221
 30
0.0
 10
-21.87222222222222
 20
356.30555555555554
 30
0.0
 10
-23.283333333333331
 20
355.59999999999997
 30
0.0
 10
-33.513888888888886
 20
349.24999999999994
 30
0.0
 10
-40.922222222222217
 20
341.13611111111106
 30
0.0
 10
-51.152777777777771
 20
334.08055555555552
 30
0.0
 10
-52.563888888888883
 20
333.37499999999994
 30
0.0
 10
-53.974999999999994
 20
334.7861111111111
 30
0.0
 10
-54.68055555555555
 20
336.19722222222219
 30
0.0
 10
-54.68055555555555
 20
336.90277777777777
 30
0.0
 10
-55.033333333333331
 20
337.60833333333329
 30
0.0
 10
-54.68055555555555
 20
338.31388888888887
 30
0.0
 10
-53.269444444444439
 20
340.43055555555554
 30
0.0
 10
-50.094444444444441
 20
341.13611111111106
 30
0.0
 10
-49.036111111111104
 20
343.6055555555555
 30
0.0
 10
-48.68333333333333
 20
344.66388888888883
 30
0.0
 10
-49.388888888888886
 20
346.07499999999999
 30
0.0
 10
-50.447222222222216
 20
346.07499999999999
 30
0.0
 10
-53.269444444444439
 20
346.07499999999999
 30
0.0
 10
-56.797222222222217
 20
347.13333333333333
 30
0.0
 10
-59.266666666666659
 20
345.01666666666665
 30
0.0
 10
-60.324999999999996
 20
332.66944444444442
 30
0.0
 10
-59.61944444444444
 20
319.96944444444443
 30
0.0
 10
-59.61944444444444
 20
307.62222222222221
 30
0.0
  0
SPLINE
  5
36
100
AcDbEntity
  8
LAYER_1
 62
     7
100
AcDbSpline
210
0.0
220
0.0
230
1.0
 70
     8
 71
     3
 72
    35
 73
    31
 74
     0
 42
0.00000001
 43
0.00000001
 40
0.0
 40
0.0
 40
0.0
 40
0.0
 40
1.0
 40
1.0
 40
1.0
 40
2.0
 40
2.0
 40
2.0
 40
3.0
 40
3.0
 40
3.0
 40
4.0
 40
4.0
 40
4.0
 40
5.0
 40
5.0
 40
5.0
 40
6.0
 40
6.0
 40
6.0
 40
7.0
 40
7.0
 40
7.0
 40
8.0
 40
8.0
 40
8.0
 40
9.0
 40
9.0
 40
9.0
 40
10.0
 40
10.0
 40
10.0
 40
10.0
 10
-59.61944444444444
 20
365.83055555555552
 30
0.0
 10
-59.495593261718746
 20
361.24616699218745
 30
0.0
 10
-60.324999999999996
 20
357.01111111111106
 30
0.0
 10
-59.266666666666659
 20
352.42499999999995
 30
0.0
 10
-59.266666666666659
 20
351.71944444444443
 30
0.0
 10
-58.208333333333329
 20
352.07222222222219
 30
0.0
 10
-58.208333333333329
 20
352.07222222222219
 30
0.0
 10
-52.563888888888883
 20
351.36666666666662
 30
0.0
 10
-47.272222222222219
 20
351.01388888888886
 30
0.0
 10
-41.627777777777773
 20
351.36666666666662
 30
0.0
 10
-40.216666666666661
 20
351.71944444444443
 30
0.0
 10
-38.452777777777776
 20
352.07222222222219
 30
0.0
 10
-37.041666666666664
 20
352.77777777777777
 30
0.0
 10
-31.397222222222219
 20
356.6583333333333
 30
0.0
 10
-26.458333333333332
 20
360.53888888888883
 30
0.0
 10
-21.87222222222222
 20
365.47777777777776
 30
0.0
 10
-20.813888888888886
 20
366.5361111111111
 30
0.0
 10
-20.108333333333331
 20
367.94722222222219
 30
0.0
 10
-20.108333333333331
 20
369.35833333333329
 30
0.0
 10
-18.697222222222219
 20
381.35277777777776
 30
0.0
 10
-19.049999999999997
 20
392.99444444444441
 30
0.0
 10
-19.755555555555553
 20
404.98888888888888
 30
0.0
 10
-32.80833333333333
 20
405.34166666666664
 30
0.0
 10
-45.508333333333326
 20
405.6944444444444
 30
0.0
 10
-58.561111111111103
 20
405.34166666666664
 30
0.0
 10
-58.913888888888884
 20
405.34166666666664
 30
0.0
 10
-59.266666666666659
 20
404.98888888888888
 30
0.0
 10
-59.266666666666659
 20
404.63611111111106
 30
0.0
 10
-59.61944444444444
 20
391.58333333333331
 30
0.0
 10
-59.972222222222214
 20
378.88333333333333
 30
0.0
 10
-59.61944444444444
 20
365.83055555555552
 30
0.0
  0
SPLINE
  5
35
100
AcDbEntity
  8
LAYER_1
 62
     7
100
AcDbSpline
210
0.0
220
0.0
230
1.0
 70
     8
 71
     3
 72
    17
 73
    13
 74
     0
 42
0.00000001
 43
0.00000001
 40
0.0
 40
0.0
 40
0.0
 40
0.0
 40
1.0
 40
1.0
 40
1.0
 40
2.0
 40
2.0
 40
2.0
 40
3.0
 40
3.0
 40
3.0
 40
4.0
 40
4.0
 40
4.0
 40
4.0
 10
4.2333333333333325
 20
360.53888888888883
 30
0.0
 10
3.6755723741319439
 20
358.86543375651036
 30
0.0
 10
4.2333333333333325
 20
358.0694444444444
 30
0.0
 10
5.2916666666666661
 20
357.36388888888888
 30
0.0
 10
6.7027777777777775
 20
357.01111111111106
 30
0.0
 10
7.7611111111111102
 20
357.71666666666664
 30
0.0
 10
8.466666666666665
 20
358.77499999999998
 30
0.0
 10
8.8194444444444429
 20
360.18611111111107
 30
0.0
 10
8.1138888888888889
 20
361.24444444444441
 30
0.0
 10
7.0555555555555554
 20
361.94999999999999
 30
0.0
 10
5.9972222222222218
 20
362.30277777777775
 30
0.0
 10
4.5861111111111104
 20
361.59722222222217
 30
0.0
 10
4.2333333333333325
 20
360.53888888888883
 30
0.0
  0
SPLINE
  5
34
100
AcDbEntity
  8
LAYER_1
 62
     7
100
AcDbSpline
210
0.0
220
0.0
230
1.0
 70
     8
 71
     3
 72
    47
 73
    43
 74
     0
 42
0.00000001
 43
0.00000001
 40
0.0
 40
0.0
 40
0.0
 40
0.0
 40
1.0
 40
1.0
 40
1.0
 40
2.0
 40
2.0
 40
2.0
 40
3.0
 40
3.0
 40
3.0
 40
4.0
 40
4.0
 40
4.0
 40
5.0
 40
5.0
 40
5.0
 40
6.0
 40
6.0
 40
6.0
 40
7.0
 40
7.0
 40
7.0
 40
8.0
 40
8.0
 40
8.0
 40
9.0
 40
9.0
 40
9.0
 40
10.0
 40
10.0
 40
10.0
 40
11.0
 40
11.0
 40
11.0
 40
12.0
 40
12.0
 40
12.0
 40
13.0
 40
13.0
 40
13.0
 40
14.0
 40
14.0
 40
14.0
 40
14.0
 10
-59.61944444444444
 20
325.61388888888888
 30
0.0
 10
-59.61944444444444
 20
312.56111111111107
 30
0.0
 10
-60.324999999999996
 20
299.50833333333333
 30
0.0
 10
-59.266666666666659
 20
286.10277777777776
 30
0.0
 10
-59.266666666666659
 20
285.39722222222218
 30
0.0
 10
-58.208333333333329
 20
285.75
 30
0.0
 10
-58.208333333333329
 20
285.75
 30
0.0
 10
-51.858333333333327
 20
285.04444444444442
 30
0.0
 10
-45.508333333333326
 20
285.04444444444442
 30
0.0
 10
-39.158333333333331
 20
285.75
 30
0.0
 10
-33.161111111111111
 20
288.92499999999995
 30
0.0
 10
-28.222222222222221
 20
293.51111111111106
 30
0.0
 10
-22.930555555555554
 20
298.09722222222217
 30
0.0
 10
-21.166666666666664
 20
299.86111111111109
 30
0.0
 10
-20.813888888888886
 20
301.97777777777776
 30
0.0
 10
-19.755555555555553
 20
304.09444444444443
 30
0.0
 10
-20.108333333333331
 20
320.67499999999995
 30
0.0
 10
-18.344444444444441
 20
337.25555555555553
 30
0.0
 10
-20.108333333333331
 20
353.83611111111105
 30
0.0
 10
-20.108333333333331
 20
355.24722222222221
 30
0.0
 10
-21.87222222222222
 20
356.30555555555554
 30
0.0
 10
-23.283333333333331
 20
355.59999999999997
 30
0.0
 10
-33.513888888888886
 20
349.24999999999994
 30
0.0
 10
-40.922222222222217
 20
341.13611111111106
 30
0.0
 10
-51.152777777777771
 20
334.08055555555552
 30
0.0
 10
-52.563888888888883
 20
333.37499999999994
 30
0.0
 10
-53.974999999999994
 20
334.7861111111111
 30
0.0
 10
-54.68055555555555
 20
336.19722222222219
 30
0.0
 10
-54.68055555555555
 20
336.90277777777777
 30
0.0
 10
-55.033333333333331
 20
337.60833333333329
 30
0.0
 10
-54.68055555555555
 20
338.31388888888887
 30
0.0
 10
-53.269444444444439
 20
340.43055555555554
 30
0.0
 10
-50.094444444444441
 20
341.13611111111106
 30
0.0
 10
-49.036111111111104
 20
343.6055555555555
 30
0.0
 10
-48.68333333333333
 20
344.66388888888883
 30
0.0
 10
-49.388888888888886
 20
346.07499999999999
 30
0.0
 10
-50.447222222222216
 20
346.07499999999999
 30
0.0
 10
-53.269444444444439
 20
346.07499999999999
 30
0.0
 10
-56.797222222222217
 20
347.13333333333333
 30
0.0
 10
-59.266666666666659
 20
345.01666666666665
 30
0.0
 10
-59.972222222222214
 20
338.66666666666663
 30
0.0
 10
-59.61944444444444
 20
331.96388888888885
 30
0.0
 10
-59.61944444444444
 20
325.61388888888888
 30
0.0
  0
SPLINE
  5
33
100
AcDbEntity
  8
LAYER_1
 62
     7
100
AcDbSpline
210
0.0
220
0.0
230
1.0
 70
     8
 71
     3
 72
    17
 73
    13
 74
     0
 42
0.00000001
 43
0.00000001
 40
0.0
 40
0.0
 40
0.0
 40
0.0
 40
1.0
 40
1.0
 40
1.0
 40
2.0
 40
2.0
 40
2.0
 40
3.0
 40
3.0
 40
3.0
 40
4.0
 40
4.0
 40
4.0
 40
4.0
 10
-88.194444444444443
 20
322.43888888888887
 30
0.0
 10
-87.909190538194437
 20
321.01261935763887
 30
0.0
 10
-86.783333333333331
 20
320.67499999999995
 30
0.0
 10
-85.724999999999994
 20
320.67499999999995
 30
0.0
 10
-85.019444444444431
 20
321.02777777777777
 30
0.0
 10
-83.961111111111109
 20
321.73333333333329
 30
0.0
 10
-83.60833333333332
 20
322.43888888888887
 30
0.0
 10
-83.255555555555546
 20
323.84999999999997
 30
0.0
 10
-84.666666666666657
 20
325.96666666666664
 30
0.0
 10
-86.430555555555543
 20
325.61388888888888
 30
0.0
 10
-87.841666666666654
 20
324.9083333333333
 30
0.0
 10
-88.547222222222217
 20
324.20277777777773
 30
0.0
 10
-88.194444444444443
 20
322.43888888888887
 30
0.0
  0
SPLINE
  5
32
100
AcDbEntity
  8
LAYER_1
 62
     7
100
AcDbSpline
210
0.0
220
0.0
230
1.0
 70
     8
 71
     3
 72
    17
 73
    13
 74
     0
 42
0.00000001
 43
0.00000001
 40
0.0
 40
0.0
 40
0.0
 40
0.0
 40
1.0
 40
1.0
 40
1.0
 40
2.0
 40
2.0
 40
2.0
 40
3.0
 40
3.0
 40
3.0
 40
4.0
 40
4.0
 40
4.0
 40
4.0
 10
-87.623764377170133
 20
359.9671752929687
 30
0.0
 10
-87.338510470920127
 20
358.5409057617187
 30
0.0
 10
-86.212653266059021
 20
358.20328640407985
 30
0.0
 10
-85.154319932725684
 20
358.20328640407985
 30
0.0
 10
-84.448764377170136
 20
358.55606418185761
 30
0.0
 10
-83.390431043836799
 20
359.26161973741318
 30
0.0
 10
-83.037653266059024
 20
359.9671752929687
 30
0.0
 10
-82.684875488281236
 20
361.3782864040798
 30
0.0
 10
-84.095986599392347
 20
363.49495307074648
 30
0.0
 10
-85.859875488281247
 20
363.14217529296872
 30
0.0
 10
-87.270986599392359
 20
362.43661973741314
 30
0.0
 10
-87.976542154947907
 20
361.73106418185762
 30
0.0
 10
-87.623764377170133
 20
359.9671752929687
 30
0.0
  0
SPLINE
  5
31
100
AcDbEntity
  8
LAYER_1
 62
     7
100
AcDbSpline
210
0.0
220
0.0
230
1.0
 70
     8
 71
     3
 72
    17
 73
    13
 74
     0
 42
0.00000001
 43
0.00000001
 40
0.0
 40
0.0
 40
0.0
 40
0.0
 40
1.0
 40
1.0
 40
1.0
 40
2.0
 40
2.0
 40
2.0
 40
3.0
 40
3.0
 40
3.0
 40
4.0
 40
4.0
 40
4.0
 40
4.0
 10
4.5861111111111104
 20
295.27499999999998
 30
0.0
 10
3.6867689344618051
 20
294.37565782335065
 30
0.0
 10
3.5277777777777777
 20
292.80555555555554
 30
0.0
 10
4.2333333333333325
 20
291.74722222222221
 30
0.0
 10
5.6444444444444439
 20
289.98333333333329
 30
0.0
 10
7.7611111111111102
 20
291.39444444444445
 30
0.0
 10
8.466666666666665
 20
292.80555555555554
 30
0.0
 10
8.8194444444444429
 20
293.86388888888888
 30
0.0
 10
8.1138888888888889
 20
295.27499999999998
 30
0.0
 10
7.0555555555555554
 20
295.62777777777774
 30
0.0
 10
6.3499999999999996
 20
295.62777777777774
 30
0.0
 10
5.2916666666666661
 20
295.98055555555555
 30
0.0
 10
4.5861111111111104
 20
295.27499999999998
 30
0.0
  0
SPLINE
  5
30
100
AcDbEntity
  8
LAYER_1
 62
     7
100
AcDbSpline
210
0.0
220
0.0
230
1.0
 70
     8
 71
     3
 72
    20
 73
    16
 74
     0
 42
0.00000001
 43
0.00000001
 40
0.0
 40
0.0
 40
0.0
 40
0.0
 40
1.0
 40
1.0
 40
1.0
 40
2.0
 40
2.0
 40
2.0
 40
3.0
 40
3.0
 40
3.0
 40
4.0
 40
4.0
 40
4.0
 40
5.0
 40
5.0
 40
5.0
 40
5.0
 10
-83.961111111111109
 20
226.48333333333332
 30
0.0
 10
-83.803325737847217
 20
226.7989040798611
 30
0.0
 10
-83.60833333333332
 20
226.83611111111108
 30
0.0
 10
-83.60833333333332
 20
227.18888888888887
 30
0.0
 10
-83.60833333333332
 20
228.59999999999997
 30
0.0
 10
-84.666666666666657
 20
229.30555555555554
 30
0.0
 10
-85.724999999999994
 20
230.01111111111109
 30
0.0
 10
-86.077777777777769
 20
230.01111111111109
 30
0.0
 10
-86.077777777777769
 20
230.01111111111109
 30
0.0
 10
-86.430555555555543
 20
230.01111111111109
 30
0.0
 10
-88.194444444444443
 20
229.30555555555554
 30
0.0
 10
-88.899999999999991
 20
227.54166666666666
 30
0.0
 10
-87.841666666666654
 20
225.77777777777777
 30
0.0
 10
-86.783333333333331
 20
224.36666666666665
 30
0.0
 10
-84.666666666666657
 20
225.07222222222219
 30
0.0
 10
-83.961111111111109
 20
226.48333333333332
 30
0.0
  0
SPLINE
  5
2F
100
AcDbEntity
  8
LAYER_1
 62
     7
100
AcDbSpline
210
0.0
220
0.0
230
1.0
 70
     8
 71
     3
 72
    17
 73
    13
 74
     0
 42
0.00000001
 43
0.00000001
 40
0.0
 40
0.0
 40
0.0
 40
0.0
 40
1.0
 40
1.0
 40
1.0
 40
2.0
 40
2.0
 40
2.0
 40
3.0
 40
3.0
 40
3.0
 40
4.0
 40
4.0
 40
4.0
 40
4.0
 10
4.9388888888888882
 20
226.13055555555553
 30
0.0
 10
4.3077473958333332
 20
226.44612630208331
 30
0.0
 10
4.5861111111111104
 20
226.83611111111108
 30
0.0
 10
4.2333333333333325
 20
226.83611111111108
 30
0.0
 10
3.5277777777777777
 20
227.89444444444442
 30
0.0
 10
4.2333333333333325
 20
229.30555555555554
 30
0.0
 10
5.6444444444444439
 20
229.6583333333333
 30
0.0
 10
7.0555555555555554
 20
230.01111111111109
 30
0.0
 10
8.466666666666665
 20
228.59999999999997
 30
0.0
 10
8.1138888888888889
 20
227.18888888888887
 30
0.0
 10
7.7611111111111102
 20
225.77777777777777
 30
0.0
 10
6.3499999999999996
 20
225.42499999999998
 30
0.0
 10
4.9388888888888882
 20
226.13055555555553
 30
0.0
  0
SPLINE
  5
2E
100
AcDbEntity
  8
LAYER_1
 62
     7
100
AcDbSpline
210
0.0
220
0.0
230
1.0
 70
     8
 71
     3
 72
    17
 73
    13
 74
     0
 42
0.00000001
 43
0.00000001
 40
0.0
 40
0.0
 40
0.0
 40
0.0
 40
1.0
 40
1.0
 40
1.0
 40
2.0
 40
2.0
 40
2.0
 40
3.0
 40
3.0
 40
3.0
 40
4.0
 40
4.0
 40
4.0
 40
4.0
 10
-84.666666666666657
 20
189.79444444444442
 30
0.0
 10
-85.165516493055549
 20
188.79657253689234
 30
0.0
 10
-86.430555555555543
 20
189.08888888888887
 30
0.0
 10
-87.136111111111106
 20
189.08888888888887
 30
0.0
 10
-88.194444444444443
 20
189.79444444444442
 30
0.0
 10
-88.547222222222217
 20
191.20555555555555
 30
0.0
 10
-87.841666666666654
 20
192.26388888888886
 30
0.0
 10
-86.783333333333331
 20
193.32222222222219
 30
0.0
 10
-85.019444444444431
 20
193.32222222222219
 30
0.0
 10
-84.313888888888883
 20
191.9111111111111
 30
0.0
 10
-84.313888888888883
 20
191.20555555555555
 30
0.0
 10
-84.313888888888883
 20
190.49999999999997
 30
0.0
 10
-84.666666666666657
 20
189.79444444444442
 30
0.0
  0
SPLINE
  5
2D
100
AcDbEntity
  8
LAYER_1
 62
     7
100
AcDbSpline
210
0.0
220
0.0
230
1.0
 70
     8
 71
     3
 72
    17
 73
    13
 74
     0
 42
0.00000001
 43
0.00000001
 40
0.0
 40
0.0
 40
0.0
 40
0.0
 40
1.0
 40
1.0
 40
1.0
 40
2.0
 40
2.0
 40
2.0
 40
3.0
 40
3.0
 40
3.0
 40
4.0
 40
4.0
 40
4.0
 40
4.0
 10
4.5861111111111104
 20
159.45555555555555
 30
0.0
 10
5.5839830186631936
 20
158.95670572916666
 30
0.0
 10
6.3499999999999996
 20
159.10277777777776
 30
0.0
 10
7.0555555555555554
 20
159.45555555555555
 30
0.0
 10
8.466666666666665
 20
160.51388888888889
 30
0.0
 10
8.466666666666665
 20
162.63055555555553
 30
0.0
 10
7.0555555555555554
 20
163.68888888888887
 30
0.0
 10
5.9972222222222218
 20
164.39444444444442
 30
0.0
 10
4.5861111111111104
 20
164.04166666666666
 30
0.0
 10
3.8805555555555551
 20
162.98333333333332
 30
0.0
 10
3.1749999999999998
 20
161.92499999999998
 30
0.0
 10
3.1749999999999998
 20
160.1611111111111
 30
0.0
 10
4.5861111111111104
 20
159.45555555555555
 30
0.0
  0
SPLINE
  5
2C
100
AcDbEntity
  8
LAYER_1
 62
     7
100
AcDbSpline
210
0.0
220
0.0
230
1.0
 70
     8
 71
     3
 72
    20
 73
    16
 74
     0
 42
0.00000001
 43
0.00000001
 40
0.0
 40
0.0
 40
0.0
 40
0.0
 40
1.0
 40
1.0
 40
1.0
 40
2.0
 40
2.0
 40
2.0
 40
3.0
 40
3.0
 40
3.0
 40
4.0
 40
4.0
 40
4.0
 40
5.0
 40
5.0
 40
5.0
 40
5.0
 10
-84.666666666666657
 20
93.838888888888874
 30
0.0
 10
-85.265424262152763
 20
93.040660264756937
 30
0.0
 10
-86.783333333333331
 20
92.780555555555551
 30
0.0
 10
-87.48888888888888
 20
93.4861111111111
 30
0.0
 10
-88.194444444444443
 20
94.191666666666663
 30
0.0
 10
-87.841666666666654
 20
95.249999999999986
 30
0.0
 10
-87.841666666666654
 20
96.308333333333323
 30
0.0
 10
-87.841666666666654
 20
96.661111111111097
 30
0.0
 10
-87.48888888888888
 20
96.661111111111097
 30
0.0
 10
-87.48888888888888
 20
97.013888888888886
 30
0.0
 10
-86.783333333333331
 20
97.013888888888886
 30
0.0
 10
-86.430555555555543
 20
97.719444444444434
 30
0.0
 10
-85.724999999999994
 20
97.36666666666666
 30
0.0
 10
-84.313888888888883
 20
96.661111111111097
 30
0.0
 10
-83.60833333333332
 20
95.249999999999986
 30
0.0
 10
-84.666666666666657
 20
93.838888888888874
 30
0.0
  0
SPLINE
  5
2B
100
AcDbEntity
  8
LAYER_1
 62
     7
100
AcDbSpline
210
0.0
220
0.0
230
1.0
 70
     8
 71
     3
 72
    20
 73
    16
 74
     0
 42
0.00000001
 43
0.00000001
 40
0.0
 40
0.0
 40
0.0
 40
0.0
 40
1.0
 40
1.0
 40
1.0
 40
2.0
 40
2.0
 40
2.0
 40
3.0
 40
3.0
 40
3.0
 40
4.0
 40
4.0
 40
4.0
 40
5.0
 40
5.0
 40
5.0
 40
5.0
 10
-84.313888888888883
 20
59.61944444444444
 30
0.0
 10
-84.313888888888883
 20
61.073963758680549
 30
0.0
 10
-85.724999999999994
 20
61.736111111111107
 30
0.0
 10
-86.783333333333331
 20
61.383333333333326
 30
0.0
 10
-87.841666666666654
 20
61.030555555555551
 30
0.0
 10
-88.899999999999991
 20
60.324999999999996
 30
0.0
 10
-88.899999999999991
 20
59.266666666666659
 30
0.0
 10
-88.547222222222217
 20
57.855555555555547
 30
0.0
 10
-87.841666666666654
 20
56.091666666666661
 30
0.0
 10
-86.077777777777769
 20
56.444444444444443
 30
0.0
 10
-85.019444444444431
 20
56.797222222222217
 30
0.0
 10
-84.313888888888883
 20
57.502777777777773
 30
0.0
 10
-83.961111111111109
 20
58.561111111111103
 30
0.0
 10
-83.961111111111109
 20
58.913888888888884
 30
0.0
 10
-84.313888888888883
 20
59.266666666666659
 30
0.0
 10
-84.313888888888883
 20
59.61944444444444
 30
0.0
  0
SPLINE
  5
2A
100
AcDbEntity
  8
LAYER_1
 62
     7
100
AcDbSpline
210
0.0
220
0.0
230
1.0
 70
     8
 71
     3
 72
    14
 73
    10
 74
     0
 42
0.00000001
 43
0.00000001
 40
0.0
 40
0.0
 40
0.0
 40
0.0
 40
1.0
 40
1.0
 40
1.0
 40
2.0
 40
2.0
 40
2.0
 40
3.0
 40
3.0
 40
3.0
 40
3.0
 10
4.5861111111111104
 20
93.4861111111111
 30
0.0
 10
5.6444444444444439
 20
92.780555555555551
 30
0.0
 10
7.0555555555555554
 20
93.133333333333326
 30
0.0
 10
7.7611111111111102
 20
94.191666666666663
 30
0.0
 10
8.8194444444444429
 20
95.955555555555549
 30
0.0
 10
7.7611111111111102
 20
98.424999999999997
 30
0.0
 10
5.6444444444444439
 20
98.072222222222209
 30
0.0
 10
3.5277777777777777
 20
97.719444444444434
 30
0.0
 10
2.4694444444444441
 20
94.897222222222211
 30
0.0
 10
4.5861111111111104
 20
93.4861111111111
 30
0.0
  0
SPLINE
  5
29
100
AcDbEntity
  8
LAYER_1
 62
     7
100
AcDbSpline
210
0.0
220
0.0
230
1.0
 70
     8
 71
     3
 72
    17
 73
    13
 74
     0
 42
0.00000001
 43
0.00000001
 40
0.0
 40
0.0
 40
0.0
 40
0.0
 40
1.0
 40
1.0
 40
1.0
 40
2.0
 40
2.0
 40
2.0
 40
3.0
 40
3.0
 40
3.0
 40
4.0
 40
4.0
 40
4.0
 40
4.0
 10
3.8805555555555551
 20
30.691666666666663
 30
0.0
 10
3.1749999999999998
 20
29.633333333333329
 30
0.0
 10
3.1749999999999998
 20
27.869444444444444
 30
0.0
 10
4.5861111111111104
 20
27.163888888888888
 30
0.0
 10
5.9972222222222218
 20
26.81111111111111
 30
0.0
 10
7.4083333333333323
 20
27.516666666666666
 30
0.0
 10
8.1138888888888889
 20
28.927777777777774
 30
0.0
 10
8.466666666666665
 20
29.986111111111107
 30
0.0
 10
7.7611111111111102
 20
30.691666666666663
 30
0.0
 10
7.0555555555555554
 20
31.397222222222219
 30
0.0
 10
5.9972222222222218
 20
32.102777777777774
 30
0.0
 10
4.5861111111111104
 20
31.749999999999996
 30
0.0
 10
3.8805555555555551
 20
30.691666666666663
 30
0.0
  0
ENDSEC
  0
SECTION
  2
OBJECTS
  0
DICTIONARY
  5
19
100
AcDbDictionary
280
     0
281
     1
  3
ACAD_GROUP
350
1A
  3
ACAD_MLINESTYLE
350
1B
  3
ACAD_LAYOUT
350
1E
  3
ACAD_PLOTSETTINGS
350
22
  3
ACAD_PLOTSTYLENAME
350
1F
  3
ACAD_WIPEOUT_VARS
350
23
  0
DICTIONARY
  5
1A
102
{ACAD_REACTORS
330
19
102
}
100
AcDbDictionary
280
     0
281
     1
  0
DICTIONARY
  5
1B
102
{ACAD_REACTORS
330
19
102
}
100
AcDbDictionary
280
     0
281
     1
  3
Standard
350
1C
  0
MLINESTYLE
  5
1C
102
{ACAD_REACTORS
330
1B
102
}
100
AcDbMlineStyle
  2
Standard
 70
     0
  3

 62
     0
 51
90.0
 52
90.0
 71
     2
 49
0.5
 62
   256
  6
BYLAYER
 49
-0.5
 62
   256
  6
BYLAYER
  0
ACDBDICTIONARYWDFLT
  5
1F
102
{ACAD_REACTORS
330
19
102
}
100
AcDbDictionary
281
     1
  3
Normal
350
1D
100
AcDbDictionaryWithDefault
340
1D
  0
ACDBPLACEHOLDER
  5
1D
102
{ACAD_REACTORS
330
1F
102
}
  0
LAYOUT
  5
20
102
{ACAD_REACTORS
330
1E
102
}
100
AcDbPlotSettings
  1

  2

  4

  6

 40
0.0
 41
0.0
 42
0.0
 43
0.0
 44
0.0
 45
0.0
 46
0.0
 47
0.0
 48
0.0
 49
0.0
140
0.0
141
0.0
142
1.0
143
1.0
 70
  1024
 72
     0
 73
     0
 74
     0
  7

 75
     0
147
1.0
148
0.0
149
0.0
100
AcDbLayout
  1
Model
 70
     0
 71
     0
 10
0.0
 20
0.0
 11
0.0
 21
0.0
 12
0.0
 22
0.0
 32
0.0
 14
0.0
 24
0.0
 34
0.0
 15
0.0
 25
0.0
 35
0.0
146
0.0
 13
0.0
 23
0.0
 33
0.0
 16
0.0
 26
0.0
 36
0.0
 17
0.0
 27
0.0
 37
0.0
 76
     0
330
A
331
0
345
0
346
0
  0
LAYOUT
  5
21
102
{ACAD_REACTORS
330
1E
102
}
100
AcDbPlotSettings
  1

  2

  4

  6

 40
0.0
 41
0.0
 42
0.0
 43
0.0
 44
0.0
 45
0.0
 46
0.0
 47
0.0
 48
0.0
 49
0.0
140
0.0
141
0.0
142
1.0
143
1.0
 70
     0
 72
     0
 73
     0
 74
     0
  7

 75
     0
147
1.0
148
0.0
149
0.0
100
AcDbLayout
  1
Layout1
 70
     0
 71
     0
 10
0.0
 20
0.0
 11
0.0
 21
0.0
 12
0.0
 22
0.0
 32
0.0
 14
0.0
 24
0.0
 34
0.0
 15
0.0
 25
0.0
 35
0.0
146
0.0
 13
0.0
 23
0.0
 33
0.0
 16
0.0
 26
0.0
 36
0.0
 17
0.0
 27
0.0
 37
0.0
 76
     0
330
B
331
0
345
0
346
0
  0
DICTIONARY
  5
1E
102
{ACAD_REACTORS
330
19
102
}
100
AcDbDictionary
280
     0
281
     1
  3
Layout1
350
21
  3
Model
350
20
  0
DICTIONARY
  5
22
102
{ACAD_REACTORS
330
19
102
}
100
AcDbDictionary
280
     0
281
     1
  0
WIPEOUTVARIABLES
  5
23
100
AcDbWipeoutVariables
 70
     1
  0
ENDSEC
  0
EOF
