  0
SECTION
  2
HEADER
  9
$ACADVER
  1
AC1015
  9
$ACADMAINTVER
 70
     6
  9
$DWGCODEPAGE
  3
ANSI_932
  9
$INSBASE
 10
0.0
 20
0.0
 30
0.0
  9
$EXTMIN
 10
11.290267
 20
9.166366
 30
1.000000E+20
  9
$EXTMAX
 10
418.259741
 20
650.064197
 30
-1.000000E+20
  9
$LIMMIN
 10
11.290267
 20
9.166366
  9
$LIMMAX
 10
418.259741
 20
650.064197
  9
$ORTHOMODE
 70
     0
  9
$REGENMODE
 70
     1
  9
$FILLMODE
 70
     1
  9
$QTEXTMODE
 70
     0
  9
$MIRRTEXT
 70
     1
  9
$LTSCALE
 40
1.0
  9
$ATTMODE
 70
     1
  9
$TEXTSIZE
 40
0.2
  9
$TRACEWID
 40
0.05
  9
$TEXTSTYLE
  7
Standard
  9
$CLAYER
  8
0
  9
$CELTYPE
  6
Continuous
  9
$CECOLOR
 62
   256
  9
$CELTSCALE
 40
1.0
  9
$DISPSILH
 70
     0
  9
$DIMSCALE
 40
1.0
  9
$DIMASZ
 40
0.18
  9
$DIMEXO
 40
0.0625
  9
$DIMDLI
 40
0.38
  9
$DIMRND
 40
0.0
  9
$DIMDLE
 40
0.0
  9
$DIMEXE
 40
0.18
  9
$DIMTP
 40
0.0
  9
$DIMTM
 40
0.0
  9
$DIMTXT
 40
0.18
  9
$DIMCEN
 40
0.09
  9
$DIMTSZ
 40
0.0
  9
$DIMTOL
 70
     0
  9
$DIMLIM
 70
     0
  9
$DIMTIH
 70
     1
  9
$DIMTOH
 70
     1
  9
$DIMSE1
 70
     0
  9
$DIMSE2
 70
     0
  9
$DIMTAD
 70
     0
  9
$DIMZIN
 70
     0
  9
$DIMBLK
  1

  9
$DIMASO
 70
     1
  9
$DIMSHO
 70
     1
  9
$DIMPOST
  1

  9
$DIMAPOST
  1

  9
$DIMALT
 70
     0
  9
$DIMALTD
 70
     2
  9
$DIMALTF
 40
25.4
  9
$DIMLFAC
 40
1.0
  9
$DIMTOFL
 70
     0
  9
$DIMTVP
 40
0.0
  9
$DIMTIX
 70
     0
  9
$DIMSOXD
 70
     0
  9
$DIMSAH
 70
     0
  9
$DIMBLK1
  1

  9
$DIMBLK2
  1

  9
$DIMSTYLE
  2
Standard
  9
$DIMCLRD
 70
     0
  9
$DIMCLRE
 70
     0
  9
$DIMCLRT
 70
     0
  9
$DIMTFAC
 40
1.0
  9
$DIMGAP
 40
0.09
  9
$DIMJUST
 70
     0
  9
$DIMSD1
 70
     0
  9
$DIMSD2
 70
     0
  9
$DIMTOLJ
 70
     1
  9
$DIMTZIN
 70
     0
  9
$DIMALTZ
 70
     0
  9
$DIMALTTZ
 70
     0
  9
$DIMUPT
 70
     0
  9
$DIMDEC
 70
     4
  9
$DIMTDEC
 70
     4
  9
$DIMALTU
 70
     2
  9
$DIMALTTD
 70
     2
  9
$DIMTXSTY
  7
Standard
  9
$DIMAUNIT
 70
     0
  9
$DIMADEC
 70
     0
  9
$DIMALTRND
 40
0.0
  9
$DIMAZIN
 70
     0
  9
$DIMDSEP
 70
     0
  9
$DIMATFIT
 70
     3
  9
$DIMFRAC
 70
     0
  9
$DIMLDRBLK
  1

  9
$DIMLUNIT
 70
     2
  9
$DIMLWD
 70
     0
  9
$DIMLWE
 70
     0
  9
$DIMTMOVE
 70
     0
  9
$LUNITS
 70
     2
  9
$LUPREC
 70
     4
  9
$SKETCHINC
 40
0.1
  9
$FILLETRAD
 40
0.0
  9
$AUNITS
 70
     0
  9
$AUPREC
 70
     0
  9
$MENU
  1
acad
  9
$ELEVATION
 40
0.0
  9
$PELEVATION
 40
0.0
  9
$THICKNESS
 40
0.0
  9
$LIMCHECK
 70
     0
  9
$CHAMFERA
 40
0.0
  9
$CHAMFERB
 40
0.0
  9
$CHAMFERC
 40
0.0
  9
$CHAMFERD
 40
0.0
  9
$SKPOLY
 70
     0
  9
$TDCREATE
 40
0.000000000
  9
$TDUCREATE
 40
0.000000000
  9
$TDUPDATE
 40
0.000000000
  9
$TDUUPDATE
 40
0.000000000
  9
$TDINDWG
 40
0.0000000000
  9
$TDUSRTIMER
 40
0.0000000000
  9
$USRTIMER
 70
     1
  9
$ANGBASE
 50
0.0
  9
$ANGDIR
 70
     0
  9
$PDMODE
 70
     0
  9
$PDSIZE
 40
0.0
  9
$PLINEWID
 40
0.0
  9
$SPLFRAME
 70
     0
  9
$SPLINETYPE
 70
     6
  9
$SPLINESEGS
 70
     8
  9
$HANDSEED
  5
4E
  9
$SURFTAB1
 70
     6
  9
$SURFTAB2
 70
     6
  9
$SURFTYPE
 70
     6
  9
$SURFU
 70
     6
  9
$SURFV
 70
     6
  9
$UCSBASE
  2

  9
$UCSNAME
  2

  9
$UCSORG
 10
0.0
 20
0.0
 30
0.0
  9
$UCSXDIR
 10
1.0
 20
0.0
 30
0.0
  9
$UCSYDIR
 10
0.0
 20
1.0
 30
0.0
  9
$UCSORTHOREF
  2

  9
$UCSORTHOVIEW
 70
     0
  9
$UCSORGTOP
 10
0.0
 20
0.0
 30
0.0
  9
$UCSORGBOTTOM
 10
0.0
 20
0.0
 30
0.0
  9
$UCSORGLEFT
 10
0.0
 20
0.0
 30
0.0
  9
$UCSORGRIGHT
 10
0.0
 20
0.0
 30
0.0
  9
$UCSORGFRONT
 10
0.0
 20
0.0
 30
0.0
  9
$UCSORGBACK
 10
0.0
 20
0.0
 30
0.0
  9
$PUCSBASE
  2

  9
$PUCSNAME
  2

  9
$PUCSORG
 10
0.0
 20
0.0
 30
0.0
  9
$PUCSXDIR
 10
1.0
 20
0.0
 30
0.0
  9
$PUCSYDIR
 10
0.0
 20
1.0
 30
0.0
  9
$PUCSORTHOREF
  2

  9
$PUCSORTHOVIEW
 70
     0
  9
$PUCSORGTOP
 10
0.0
 20
0.0
 30
0.0
  9
$PUCSORGBOTTOM
 10
0.0
 20
0.0
 30
0.0
  9
$PUCSORGLEFT
 10
0.0
 20
0.0
 30
0.0
  9
$PUCSORGRIGHT
 10
0.0
 20
0.0
 30
0.0
  9
$PUCSORGFRONT
 10
0.0
 20
0.0
 30
0.0
  9
$PUCSORGBACK
 10
0.0
 20
0.0
 30
0.0
  9
$USERI1
 70
     0
  9
$USERI2
 70
     0
  9
$USERI3
 70
     0
  9
$USERI4
 70
     0
  9
$USERI5
 70
     0
  9
$USERR1
 40
0.0
  9
$USERR2
 40
0.0
  9
$USERR3
 40
0.0
  9
$USERR4
 40
0.0
  9
$USERR5
 40
0.0
  9
$WORLDVIEW
 70
     1
  9
$SHADEDGE
 70
     3
  9
$SHADEDIF
 70
    70
  9
$TILEMODE
 70
     1
  9
$MAXACTVP
 70
    16
  9
$PINSBASE
 10
0.0
 20
0.0
 30
0.0
  9
$PLIMCHECK
 70
     0
  9
$PEXTMIN
 10
1.000000E+20
 20
1.000000E+20
 30
1.000000E+20
  9
$PEXTMAX
 10
-1.000000E+20
 20
-1.000000E+20
 30
-1.000000E+20
  9
$PLIMMIN
 10
0.0
 20
0.0
  9
$PLIMMAX
 10
12.0
 20
9.0
  9
$UNITMODE
 70
     0
  9
$VISRETAIN
 70
     0
  9
$PLINEGEN
 70
     1
  9
$PSLTSCALE
 70
     0
  9
$TREEDEPTH
 70
  3020
  9
$CMLSTYLE
  2
Standard
  9
$CMLJUST
 70
     0
  9
$CMLSCALE
 40
1.0
  9
$PROXYGRAPHICS
 70
     0
  9
$MEASUREMENT
 70
     0
  9
$CELWEIGHT
370
     0
  9
$ENDCAPS
280
     0
  9
$JOINSTYLE
280
     0
  9
$LWDISPLAY
290
     0
  9
$INSUNITS
 70
     0
  9
$HYPERLINKBASE
  1

  9
$XEDIT
290
     1
  9
$CEPSNTYPE
380
     0
  9
$PSTYLEMODE
290
     1
  9
$FINGERPRINTGUID
  2

  9
$VERSIONGUID
  2

  9
$EXTNAMES
290
     1
  9
$PSVPSCALE
 40
0.0
  0
ENDSEC
  0
SECTION
  2
CLASSES
  0
CLASS
  1
LWPOLYLINE
  2
AcDbPolyline
  3
"AutoCAD"
 90
        0
280
     0
281
     1
  0
CLASS
  1
IMAGE
  2
AcDbRasterImage
  3
ISM
 90
      127
280
     0
281
     1
  0
CLASS
  1
OLE2FRAME
  2
AcDbOle2Frame
  3
""
 90
        0
280
     0
281
     1
  0
CLASS
  1
HATCH
  2
AcDbHatch
  3
"ACAD_SEDONA"
 90
        0
280
     0
281
     1
  0
CLASS
  1
DICTIONARYVAR
  2
AcDbDictionaryVar
  3
"AutoCAD"
 90
        0
280
     0
281
     0
  0
CLASS
  1
RASTERVARIABLES
  2
AcDbRasterVariables
  3
ISM
 90
        0
280
     0
281
     0
  0
CLASS
  1
IMAGEDEF
  2
AcDbRasterImageDef
  3
ISM
 90
        0
280
     0
281
     0
  0
CLASS
  1
IMAGEDEF_REACTOR
  2
AcDbRasterImageDefReactor
  3
ISM
 90
        1
280
     0
281
     0
  0
CLASS
  1
IDBUFFER
  2
AcDbIdBuffer
  3
"Acad"
 90
        0
280
     0
281
     0
  0
CLASS
  1
SPATIAL_FILTER
  2
AcDbSpatialFilter
  3
"Acad"
 90
        0
280
     0
281
     0
  0
CLASS
  1
XRECORD
  2
AcDbXrecord
  3
"<Built In>"
 90
        0
280
     0
281
     0
  0
CLASS
  1
SORTENTSTABLE
  2
AcDbSortentsTable
  3
"AutoCAD"
 90
        0
280
     0
281
     0
  0
CLASS
  1
LAYER_INDEX
  2
AcDbLayerIndex
  3
"Acad"
 90
        0
280
     0
281
     0
  0
CLASS
  1
SPATIAL_INDEX
  2
AcDbSpatialIndex
  3
"Acad"
 90
        0
280
     0
281
     0
  0
CLASS
  1
OBJECT_PTR
  2
CAseDLPNTableRecord
  3
"ASE-LPNTableRecord"
 90
        1
280
     0
281
     0
  0
CLASS
  1
LAYOUT
  2
AcDbLayout
  3
"AutoCAD 2000"
 90
        1
280
     0
281
     0
  0
CLASS
  1
PLOTSETTINGS
  2
AcDbPlotSettings
  3
"AutoCAD 2000"
 90
        1
280
     0
281
     0
  0
CLASS
  1
ACDBDICTIONARYWDFLT
  2
AcDbDictionaryWithDefault
  3
"AutoCAD 2000"
 90
        1
280
     0
281
     0
  0
CLASS
  1
ACDBPLACEHOLDER
  2
AcDbPlaceHolder
  3
"AutoCAD 2000"
 90
        1
280
     0
281
     0
  0
CLASS
  1
VBA_PROJECT
  2
AcDbVbaProject
  3
"acadvba"
 90
        1
280
     0
281
     0
  0
CLASS
  1
WIPEOUT
  2
AcDbWipeout
  3
WipeOut|AutoCAD Express Tool|expresstools@autodesk.com
 90
      127
280
     0
281
     1
  0
CLASS
  1
WIPEOUTVARIABLES
  2
AcDbWipeoutVariables
  3
WipeOut|AutoCAD Express Tool|expresstools@autodesk.com
 90
        0
280
     0
281
     0
  0
CLASS
  1
RTEXT
  2
RText
  3
RText|AutoCAD Express Tool|expresstools@autodesk.com
 90
        0
280
     0
281
     1
  0
CLASS
  1
ARCALIGNEDTEXT
  2
AcDbArcAlignedText
  3
ATEXT|AutoCAD Express Tool|expresstools@autodesk.com
 90
        0
280
     0
281
     1
  0
ENDSEC
  0
SECTION
  2
TABLES
  0
TABLE
  2
VPORT
  5
7
100
AcDbSymbolTable
 70
     1
  0
VPORT
  5
15
100
AcDbSymbolTableRecord
100
AcDbViewportTableRecord
  2
*ACTIVE
 70
     0
 10
0.0
 20
0.0
 11
1.0
 21
1.0
 12
6.591288
 22
4.579184
 13
0.0
 23
0.0
 14
1.0
 24
1.0
 15
0.0
 25
0.0
 16
0.0
 26
0.0
 36
1.0
 17
0.0
 27
0.0
 37
0.0
 40
9.158369
 41
0.688564
 42
50.0
 43
0.0
 44
0.0
 50
0.0
 51
0.0
 71
     0
 72
   100
 73
     1
 74
     1
 75
     0
 76
     0
 77
     0
 78
     0
281
     0
 65
     0
110
0.0
120
0.0
130
0.0
111
1.0
121
0.0
131
0.0
112
0.0
122
1.0
132
0.0
345
0
346
0
 79
     0
146
0.0
  0
ENDTAB
  0
TABLE
  2
LTYPE
  5
4
100
AcDbSymbolTable
 70
     3
  0
LTYPE
  5
11
100
AcDbSymbolTableRecord
100
AcDbLinetypeTableRecord
  2
ByBlock
 70
    64
  3

 72
    65
 73
     0
 40
0.0
  0
LTYPE
  5
12
100
AcDbSymbolTableRecord
100
AcDbLinetypeTableRecord
  2
ByLayer
 70
    64
  3

 72
    65
 73
     0
 40
0.0
  0
LTYPE
  5
13
100
AcDbSymbolTableRecord
100
AcDbLinetypeTableRecord
  2
Continuous
 70
    64
  3
Solid line
 72
    65
 73
     0
 40
0.0
  0
ENDTAB
  0
TABLE
  2
LAYER
  5
2
100
AcDbSymbolTable
 70
     2
  0
LAYER
  5
14
100
AcDbSymbolTableRecord
100
AcDbLayerTableRecord
  2
0
 70
     0
 62
     7
  6
Continuous
290
     1
370
    -3
390
1D
  0
LAYER
  5
28
100
AcDbSymbolTableRecord
100
AcDbLayerTableRecord
  2
LAYER_1
 70
     0
 62
   160
  6
Continuous
290
     1
370
    -3
390
1F
  0
ENDTAB
  0
TABLE
  2
STYLE
  5
3
100
AcDbSymbolTable
 70
     5
  0
STYLE
  5
17
100
AcDbSymbolTableRecord
100
AcDbTextStyleTableRecord
  2
Standard
 70
     0
 40
0.0
 41
1.0
 50
0.0
 71
     0
 42
0.0
  3
txt
  4

  0
STYLE
  5
24
100
AcDbSymbolTableRecord
100
AcDbTextStyleTableRecord
  2
STD
 70
     0
 40
0.0
 41
1.0
 50
0.0
 71
     0
 42
0.0
  3
txt
  4

  0
STYLE
  5
25
100
AcDbSymbolTableRecord
100
AcDbTextStyleTableRecord
  2
TATESTD
 70
     4
 40
0.0
 41
1.0
 50
0.0
 71
     0
 42
0.0
  3
txt
  4

  0
STYLE
  5
26
100
AcDbSymbolTableRecord
100
AcDbTextStyleTableRecord
  2
KANJISTD
 70
     0
 40
0.0
 41
1.0
 50
0.0
 71
     0
 42
0.0
  3
txt
  4
extfont
  0
STYLE
  5
27
100
AcDbSymbolTableRecord
100
AcDbTextStyleTableRecord
  2
KANJITATE
 70
     4
 40
0.0
 41
1.0
 50
0.0
 71
     0
 42
0.0
  3
txt
  4
extfont
  0
ENDTAB
  0
TABLE
  2
VIEW
  5
5
100
AcDbSymbolTable
 70
     0
  0
ENDTAB
  0
TABLE
  2
UCS
  5
6
100
AcDbSymbolTable
 70
     0
  0
ENDTAB
  0
TABLE
  2
APPID
  5
8
100
AcDbSymbolTable
 70
     1
  0
APPID
  5
16
100
AcDbSymbolTableRecord
100
AcDbRegAppTableRecord
  2
ACAD
 70
     0
  0
ENDTAB
  0
TABLE
  2
DIMSTYLE
  5
9
100
AcDbSymbolTable
 70
     1
100
AcDbDimStyleTable
 71
     0
  0
DIMSTYLE
105
18
100
AcDbSymbolTableRecord
100
AcDbDimStyleTableRecord
  2
Standard
 70
     0
  3

  4

 40
1.0
 41
0.18
 42
0.0625
 43
0.38
 44
0.18
 45
0.0
 46
0.0
 47
0.0
 48
0.0
 71
     0
 72
     0
 73
     1
 74
     1
 75
     0
 76
     0
 77
     0
 78
     0
 79
     0
140
0.18
141
0.09
142
0.0
143
25.4
144
1.0
145
0.0
146
1.0
147
0.09
148
0.0
170
     0
171
     2
172
     0
173
     0
174
     0
175
     0
176
     0
177
     0
178
     0
179
     0
271
     4
272
     4
273
     2
274
     2
275
     0
276
     0
277
     2
278
    46
279
     0
280
     0
281
     0
282
     0
283
     1
284
     0
285
     0
286
     0
288
     0
340
17
341
0
342
0
343
0
344
0
371
    -2
372
    -2
  0
ENDTAB
  0
TABLE
  2
BLOCK_RECORD
  5
1
100
AcDbSymbolTable
 70
     0
  0
BLOCK_RECORD
  5
A
100
AcDbSymbolTableRecord
100
AcDbBlockTableRecord
  2
*MODEL_SPACE
340
20
  0
BLOCK_RECORD
  5
B
100
AcDbSymbolTableRecord
100
AcDbBlockTableRecord
  2
*PAPER_SPACE
340
21
  0
ENDTAB
  0
ENDSEC
  0
SECTION
  2
BLOCKS
  0
BLOCK
  5
D
100
AcDbEntity
  8
0
100
AcDbBlockBegin
  2
*MODEL_SPACE
 70
     0
 10
0.0
 20
0.0
 30
0.0
  3
*MODEL_SPACE
  1

  0
ENDBLK
  5
E
100
AcDbEntity
  8
0
100
AcDbBlockEnd
  0
BLOCK
  5
F
100
AcDbEntity
 67
     1
  8
0
100
AcDbBlockBegin
  2
*PAPER_SPACE
 70
     0
 10
0.0
 20
0.0
 30
0.0
  3
*PAPER_SPACE
  1

  0
ENDBLK
  5
10
100
AcDbEntity
 67
     1
  8
0
100
AcDbBlockEnd
  0
ENDSEC
  0
SECTION
  2
ENTITIES
  0
SPLINE
  5
4D
100
AcDbEntity
  8
LAYER_1
 62
     7
100
AcDbSpline
210
0.0
220
0.0
230
1.0
 70
     8
 71
     3
 72
   260
 73
   256
 74
     0
 42
0.00000001
 43
0.00000001
 40
0.0
 40
0.0
 40
0.0
 40
0.0
 40
1.0
 40
1.0
 40
1.0
 40
2.0
 40
2.0
 40
2.0
 40
3.0
 40
3.0
 40
3.0
 40
4.0
 40
4.0
 40
4.0
 40
5.0
 40
5.0
 40
5.0
 40
6.0
 40
6.0
 40
6.0
 40
7.0
 40
7.0
 40
7.0
 40
8.0
 40
8.0
 40
8.0
 40
9.0
 40
9.0
 40
9.0
 40
10.0
 40
10.0
 40
10.0
 40
11.0
 40
11.0
 40
11.0
 40
12.0
 40
12.0
 40
12.0
 40
13.0
 40
13.0
 40
13.0
 40
14.0
 40
14.0
 40
14.0
 40
15.0
 40
15.0
 40
15.0
 40
16.0
 40
16.0
 40
16.0
 40
17.0
 40
17.0
 40
17.0
 40
18.0
 40
18.0
 40
18.0
 40
19.0
 40
19.0
 40
19.0
 40
20.0
 40
20.0
 40
20.0
 40
21.0
 40
21.0
 40
21.0
 40
22.0
 40
22.0
 40
22.0
 40
23.0
 40
23.0
 40
23.0
 40
24.0
 40
24.0
 40
24.0
 40
25.0
 40
25.0
 40
25.0
 40
26.0
 40
26.0
 40
26.0
 40
27.0
 40
27.0
 40
27.0
 40
28.0
 40
28.0
 40
28.0
 40
29.0
 40
29.0
 40
29.0
 40
30.0
 40
30.0
 40
30.0
 40
31.0
 40
31.0
 40
31.0
 40
32.0
 40
32.0
 40
32.0
 40
33.0
 40
33.0
 40
33.0
 40
34.0
 40
34.0
 40
34.0
 40
35.0
 40
35.0
 40
35.0
 40
36.0
 40
36.0
 40
36.0
 40
37.0
 40
37.0
 40
37.0
 40
38.0
 40
38.0
 40
38.0
 40
39.0
 40
39.0
 40
39.0
 40
40.0
 40
40.0
 40
40.0
 40
41.0
 40
41.0
 40
41.0
 40
42.0
 40
42.0
 40
42.0
 40
43.0
 40
43.0
 40
43.0
 40
44.0
 40
44.0
 40
44.0
 40
45.0
 40
45.0
 40
45.0
 40
46.0
 40
46.0
 40
46.0
 40
47.0
 40
47.0
 40
47.0
 40
48.0
 40
48.0
 40
48.0
 40
49.0
 40
49.0
 40
49.0
 40
50.0
 40
50.0
 40
50.0
 40
51.0
 40
51.0
 40
51.0
 40
52.0
 40
52.0
 40
52.0
 40
53.0
 40
53.0
 40
53.0
 40
54.0
 40
54.0
 40
54.0
 40
55.0
 40
55.0
 40
55.0
 40
56.0
 40
56.0
 40
56.0
 40
57.0
 40
57.0
 40
57.0
 40
58.0
 40
58.0
 40
58.0
 40
59.0
 40
59.0
 40
59.0
 40
60.0
 40
60.0
 40
60.0
 40
61.0
 40
61.0
 40
61.0
 40
62.0
 40
62.0
 40
62.0
 40
63.0
 40
63.0
 40
63.0
 40
64.0
 40
64.0
 40
64.0
 40
65.0
 40
65.0
 40
65.0
 40
66.0
 40
66.0
 40
66.0
 40
67.0
 40
67.0
 40
67.0
 40
68.0
 40
68.0
 40
68.0
 40
69.0
 40
69.0
 40
69.0
 40
70.0
 40
70.0
 40
70.0
 40
71.0
 40
71.0
 40
71.0
 40
72.0
 40
72.0
 40
72.0
 40
73.0
 40
73.0
 40
73.0
 40
74.0
 40
74.0
 40
74.0
 40
75.0
 40
75.0
 40
75.0
 40
76.0
 40
76.0
 40
76.0
 40
77.0
 40
77.0
 40
77.0
 40
78.0
 40
78.0
 40
78.0
 40
79.0
 40
79.0
 40
79.0
 40
80.0
 40
80.0
 40
80.0
 40
81.0
 40
81.0
 40
81.0
 40
82.0
 40
82.0
 40
82.0
 40
83.0
 40
83.0
 40
83.0
 40
84.0
 40
84.0
 40
84.0
 40
85.0
 40
85.0
 40
85.0
 40
85.0
 10
396.16944444444442
 20
571.5
 30
0.0
 10
396.16944444444442
 20
571.5
 30
0.0
 10
385.58611111111105
 20
571.14722222222213
 30
0.0
 10
385.58611111111105
 20
571.14722222222213
 30
0.0
 10
385.58611111111105
 20
571.14722222222213
 30
0.0
 10
369.35833333333329
 20
571.14722222222213
 30
0.0
 10
369.35833333333329
 20
571.14722222222213
 30
0.0
 10
369.35833333333329
 20
582.08333333333326
 30
0.0
 10
369.00555555555553
 20
592.96053331163193
 30
0.0
 10
369.00555555555553
 20
603.95555555555552
 30
0.0
 10
369.00555555555553
 20
606.71886664496526
 30
0.0
 10
370.24027777777775
 20
613.95081108940963
 30
0.0
 10
368.35891113281247
 20
616.0674777560763
 30
0.0
 10
366.41863335503467
 20
618.24305555555554
 30
0.0
 10
358.95138888888886
 20
617.00833333333333
 30
0.0
 10
356.30555555555554
 20
617.00833333333333
 30
0.0
 10
348.07418891059024
 20
617.00833333333333
 30
0.0
 10
339.78391113281248
 20
616.89085557725684
 30
0.0
 10
331.55219997829857
 20
616.94942220052076
 30
0.0
 10
328.43611111111107
 20
616.94942220052076
 30
0.0
 10
325.43749999999994
 20
616.24386664496524
 30
0.0
 10
322.32141113281244
 20
617.06724446614578
 30
0.0
 10
313.8547444661458
 20
619.36030002170128
 30
0.0
 10
316.44166666666666
 20
633.70636664496521
 30
0.0
 10
316.44166666666666
 20
640.29166666666663
 30
0.0
 10
316.44166666666666
 20
642.29085557725693
 30
0.0
 10
316.79444444444442
 20
644.81886664496517
 30
0.0
 10
315.67719997829857
 20
646.58275553385408
 30
0.0
 10
312.73749999999995
 20
651.52164442274295
 30
0.0
 10
301.91886664496525
 20
649.46388888888885
 30
0.0
 10
297.03888888888883
 20
649.46388888888885
 30
0.0
 10
292.86446668836805
 20
649.46388888888885
 30
0.0
 10
286.10277777777776
 20
650.051966688368
 30
0.0
 10
283.69224446614578
 20
645.81863335503465
 30
0.0
 10
282.57499999999999
 20
643.81944444444434
 30
0.0
 10
282.57499999999999
 20
638.70416666666665
 30
0.0
 10
285.04444444444442
 20
637.70474446614583
 30
0.0
 10
286.39664442274301
 20
637.17557779947913
 30
0.0
 10
288.16053331163192
 20
637.76331108940963
 30
0.0
 10
289.63055555555553
 20
637.76331108940963
 30
0.0
 10
292.80555555555554
 20
637.82222222222219
 30
0.0
 10
295.92164442274304
 20
637.17557779947913
 30
0.0
 10
299.15555555555551
 20
637.52835557725689
 30
0.0
 10
300.97835557725693
 20
637.76331108940963
 30
0.0
 10
304.44722222222219
 20
637.88113335503465
 30
0.0
 10
304.68252224392359
 20
635.29386664496519
 30
0.0
 10
305.15277777777777
 20
630.76666666666665
 30
0.0
 10
296.86249999999995
 20
632.17777777777769
 30
0.0
 10
294.21666666666664
 20
632.17777777777769
 30
0.0
 10
291.57083333333333
 20
632.17777777777769
 30
0.0
 10
285.69108886718749
 20
633.23611111111109
 30
0.0
 10
283.86863335503472
 20
630.94305555555547
 30
0.0
 10
282.6339111328125
 20
629.41446668836795
 30
0.0
 10
282.86886664496524
 20
624.534144422743
 30
0.0
 10
282.81030002170138
 20
622.65277777777771
 30
0.0
 10
282.6339111328125
 20
607.30694444444441
 30
0.0
 10
283.63333333333333
 20
591.78472222222217
 30
0.0
 10
283.63333333333333
 20
576.43888888888887
 30
0.0
 10
283.63333333333333
 20
564.73831108940965
 30
0.0
 10
282.39861111111111
 20
552.39108886718748
 30
0.0
 10
283.69224446614578
 20
540.80833333333328
 30
0.0
 10
284.22141113281248
 20
535.45775553385408
 30
0.0
 10
287.1611111111111
 20
530.4603000217013
 30
0.0
 10
291.39444444444445
 20
527.28530002170135
 30
0.0
 10
294.09918891059027
 20
525.10972222222222
 30
0.0
 10
299.68472222222221
 20
524.52164442274295
 30
0.0
 10
298.5089111328125
 20
519.99444444444441
 30
0.0
 10
297.45057779947916
 20
515.76111111111106
 30
0.0
 10
294.74583333333328
 20
512.17442220052078
 30
0.0
 10
291.33553331163193
 20
509.58749999999998
 30
0.0
 10
289.16030002170135
 20
507.88252224392357
 30
0.0
 10
286.22025553385413
 20
507.00057779947912
 30
0.0
 10
284.80914442274303
 20
504.41331108940966
 30
0.0
 10
283.28055555555551
 20
501.64999999999998
 30
0.0
 10
283.98611111111109
 20
497.65196668836802
 30
0.0
 10
283.98611111111109
 20
494.59444444444438
 30
0.0
 10
283.98611111111109
 20
487.42141113281247
 30
0.0
 10
283.28055555555551
 20
480.13055555555553
 30
0.0
 10
284.33888888888885
 20
473.07499999999993
 30
0.0
 10
285.10335557725693
 20
468.25358886718743
 30
0.0
 10
288.10196668836801
 20
463.66747775607632
 30
0.0
 10
292.09999999999997
 20
460.90416666666664
 30
0.0
 10
294.15775553385413
 20
459.43414442274303
 30
0.0
 10
299.15555555555551
 20
458.61111111111109
 30
0.0
 10
299.03807779947914
 20
455.43611111111107
 30
0.0
 10
298.86168891059026
 20
450.67361111111109
 30
0.0
 10
294.62835557725691
 20
445.55833333333328
 30
0.0
 10
291.04166666666663
 20
442.97141113281248
 30
0.0
 10
288.8660888671875
 20
441.44247775607636
 30
0.0
 10
286.16168891059027
 20
440.67835557725692
 30
0.0
 10
284.92696668836805
 20
438.09108886718747
 30
0.0
 10
283.57442220052081
 20
435.50416666666661
 30
0.0
 10
284.33888888888885
 20
431.44722222222219
 30
0.0
 10
284.33888888888885
 20
428.62499999999994
 30
0.0
 10
284.27997775607639
 20
421.86331108940971
 30
0.0
 10
283.69224446614578
 20
415.21944444444443
 30
0.0
 10
284.39780002170136
 20
408.51666666666665
 30
0.0
 10
284.86805555555554
 20
403.34247775607633
 30
0.0
 10
287.69027777777774
 20
398.52141113281249
 30
0.0
 10
291.74722222222221
 20
395.34641113281248
 30
0.0
 10
293.92280002170133
 20
393.58252224392356
 30
0.0
 10
299.3908555772569
 20
392.34780002170135
 30
0.0
 10
299.44942220052081
 20
389.11388888888888
 30
0.0
 10
299.44942220052081
 20
384.52777777777771
 30
0.0
 10
295.15752224392361
 20
379.47141113281248
 30
0.0
 10
291.74722222222221
 20
377.00196668836804
 30
0.0
 10
288.74861111111107
 20
374.82638888888886
 30
0.0
 10
284.92696668836805
 20
373.65057779947915
 30
0.0
 10
284.69166666666666
 20
369.35833333333329
 30
0.0
 10
284.27997775607639
 20
362.53807779947914
 30
0.0
 10
284.33888888888885
 20
355.54108886718745
 30
0.0
 10
284.63275553385415
 20
348.89722222222218
 30
0.0
 10
284.86805555555554
 20
344.37002224392359
 30
0.0
 10
284.63275553385415
 20
340.37164442274303
 30
0.0
 10
286.57303331163195
 20
336.19722222222219
 30
0.0
 10
288.21944444444443
 20
332.72835557725693
 30
0.0
 10
290.92418891059026
 20
329.78831108940972
 30
0.0
 10
294.21666666666664
 20
327.84803331163192
 30
0.0
 10
296.21585557725695
 20
326.67222222222222
 30
0.0
 10
299.68472222222221
 20
326.02557779947915
 30
0.0
 10
299.74363335503472
 20
323.14444444444439
 30
0.0
 10
299.9200222439236
 20
318.49942220052083
 30
0.0
 10
295.21608886718747
 20
313.26666666666665
 30
0.0
 10
291.74722222222221
 20
310.85613335503467
 30
0.0
 10
289.92442220052078
 20
309.62141113281245
 30
0.0
 10
287.74918891059025
 20
308.91585557725693
 30
0.0
 10
286.33807779947915
 20
307.15196668836802
 30
0.0
 10
284.92696668836805
 20
305.38807779947916
 30
0.0
 10
284.86805555555554
 20
302.74224446614579
 30
0.0
 10
284.69166666666666
 20
300.56666666666666
 30
0.0
 10
284.0450222439236
 20
290.98275553385412
 30
0.0
 10
282.69247775607636
 20
276.98946668836805
 30
0.0
 10
287.63136664496523
 20
268.46388888888885
 30
0.0
 10
289.21886664496526
 20
265.64166666666665
 30
0.0
 10
291.74722222222221
 20
263.17222222222222
 30
0.0
 10
294.5694444444444
 20
261.64363335503469
 30
0.0
 10
296.39224446614583
 20
260.58530002170136
 30
0.0
 10
299.62581108940969
 20
260.05613335503472
 30
0.0
 10
300.03749999999997
 20
257.46886664496526
 30
0.0
 10
300.33136664496527
 20
255.88136664496525
 30
0.0
 10
299.21446668836802
 20
253.5883110894097
 30
0.0
 10
298.5089111328125
 20
252.23611111111109
 30
0.0
 10
295.0986111111111
 20
245.47442220052082
 30
0.0
 10
285.39722222222218
 20
243.53414442274303
 30
0.0
 10
285.04444444444442
 20
235.65555555555554
 30
0.0
 10
284.57418891059024
 20
225.89525553385414
 30
0.0
 10
282.81030002170138
 20
211.54918891059026
 30
0.0
 10
287.57280002170137
 20
202.8472222222222
 30
0.0
 10
289.27777777777777
 20
199.7311333550347
 30
0.0
 10
291.80613335503472
 20
197.14386664496527
 30
0.0
 10
294.92222222222222
 20
195.43888888888887
 30
0.0
 10
296.68611111111107
 20
194.43946668836804
 30
0.0
 10
299.86111111111109
 20
193.85138888888886
 30
0.0
 10
300.33136664496527
 20
191.49942220052083
 30
0.0
 10
301.33113335503469
 20
186.8547444661458
 30
0.0
 10
295.45138888888886
 20
180.62222222222221
 30
0.0
 10
292.09999999999997
 20
178.32916666666665
 30
0.0
 10
289.51307779947916
 20
176.56527777777777
 30
0.0
 10
286.45555555555552
 20
175.44803331163192
 30
0.0
 10
285.63252224392357
 20
172.15555555555554
 30
0.0
 10
283.86863335503472
 20
165.27638888888887
 30
0.0
 10
285.39722222222218
 20
156.22164442274305
 30
0.0
 10
285.69108886718749
 20
149.22499999999999
 30
0.0
 10
286.22025553385413
 20
136.99525553385416
 30
0.0
 10
285.63252224392357
 20
124.70694444444443
 30
0.0
 10
286.04386664496525
 20
112.4771999782986
 30
0.0
 10
286.22025553385413
 20
108.53807779947915
 30
0.0
 10
286.22025553385413
 20
104.48113335503471
 30
0.0
 10
286.04386664496525
 20
100.54166666666666
 30
0.0
 10
285.92638888888888
 20
97.719444444444434
 30
0.0
 10
285.45613335503469
 20
94.25057779947916
 30
0.0
 10
286.98472222222222
 20
91.722222222222214
 30
0.0
 10
289.10138888888883
 20
88.018055555555549
 30
0.0
 10
293.09942220052079
 20
88.606133355034714
 30
0.0
 10
296.68611111111107
 20
88.841088867187494
 30
0.0
 10
301.44861111111106
 20
89.193866644965269
 30
0.0
 10
306.32858886718748
 20
88.899999999999991
 30
0.0
 10
311.14999999999998
 20
88.899999999999991
 30
0.0
 10
313.03136664496526
 20
88.899999999999991
 30
0.0
 10
317.61747775607637
 20
89.723033311631937
 30
0.0
 10
318.9111111111111
 20
88.076966688368046
 30
0.0
 10
319.96944444444443
 20
86.665855577256934
 30
0.0
 10
320.26331108940968
 20
84.196411132812486
 30
0.0
 10
320.67499999999995
 20
82.549999999999997
 30
0.0
 10
320.67499999999995
 20
82.549999999999997
 30
0.0
 10
323.84999999999997
 20
70.908333333333331
 30
0.0
 10
323.84999999999997
 20
70.908333333333331
 30
0.0
 10
327.55416666666662
 20
57.208911132812496
 30
0.0
 10
331.19942220052081
 20
43.568055555555553
 30
0.0
 10
334.96249999999998
 20
29.986111111111107
 30
0.0
 10
336.13831108940968
 20
25.752777777777776
 30
0.0
 10
337.19664442274302
 20
21.460533311631941
 30
0.0
 10
338.31388888888887
 20
17.286111111111108
 30
0.0
 10
338.96053331163193
 20
14.934144422743055
 30
0.0
 10
339.37222222222221
 20
12.40613335503472
 30
0.0
 10
341.48888888888888
 20
10.93611111111111
 30
0.0
 10
345.07557779947916
 20
8.466666666666665
 30
0.0
 10
352.36608886718744
 20
9.8777777777777764
 30
0.0
 10
356.6583333333333
 20
9.8777777777777764
 30
0.0
 10
361.77361111111105
 20
9.8777777777777764
 30
0.0
 10
371.3575222439236
 20
7.9964111328124989
 30
0.0
 10
375.59085557725689
 20
11.288888888888888
 30
0.0
 10
379.41249999999997
 20
14.17002224392361
 30
0.0
 10
379.82418891059024
 20
22.401388888888889
 30
0.0
 10
380.99999999999994
 20
26.81111111111111
 30
0.0
 10
384.76307779947911
 20
40.62835557725694
 30
0.0
 10
388.114466688368
 20
54.621644422743053
 30
0.0
 10
391.99502224392359
 20
68.438888888888883
 30
0.0
 10
393.52361111111105
 20
73.671644422743043
 30
0.0
 10
394.6408555772569
 20
79.022222222222211
 30
0.0
 10
396.16944444444442
 20
84.313888888888883
 30
0.0
 10
396.58113335503469
 20
85.783911132812491
 30
0.0
 10
396.75752224392357
 20
88.6646999782986
 30
0.0
 10
398.34502224392355
 20
89.370255533854163
 30
0.0
 10
403.989466688368
 20
91.898611111111109
 30
0.0
 10
411.98553331163191
 20
86.665855577256934
 30
0.0
 10
416.68946668836804
 20
92.486688910590274
 30
0.0
 10
418.4533555772569
 20
94.720833333333331
 30
0.0
 10
418.04166666666663
 20
97.836922200520831
 30
0.0
 10
418.04166666666663
 20
100.54166666666666
 30
0.0
 10
418.04166666666663
 20
100.54166666666666
 30
0.0
 10
418.04166666666663
 20
118.88611111111111
 30
0.0
 10
418.04166666666663
 20
118.88611111111111
 30
0.0
 10
418.04166666666663
 20
143.40416666666664
 30
0.0
 10
417.68888888888887
 20
167.9811333550347
 30
0.0
 10
417.68888888888887
 20
192.61666666666665
 30
0.0
 10
417.68888888888887
 20
294.51053331163195
 30
0.0
 10
415.92499999999995
 20
396.52222222222218
 30
0.0
 10
415.92499999999995
 20
498.47499999999997
 30
0.0
 10
415.92499999999995
 20
528.28472222222217
 30
0.0
 10
415.57222222222219
 20
558.15335557725689
 30
0.0
 10
415.57222222222219
 20
588.08055555555552
 30
0.0
 10
415.57222222222219
 20
593.9603000217013
 30
0.0
 10
414.57280002170137
 20
600.1924777560763
 30
0.0
 10
415.21944444444443
 20
606.01331108940963
 30
0.0
 10
415.39583333333331
 20
607.48333333333323
 30
0.0
 10
416.45416666666665
 20
608.48275553385406
 30
0.0
 10
416.57164442274302
 20
609.95277777777767
 30
0.0
 10
416.7480333116319
 20
611.83414442274295
 30
0.0
 10
417.21863335503468
 20
615.71469997829854
 30
0.0
 10
415.45474446614577
 20
617.00833333333333
 30
0.0
 10
414.22002224392355
 20
617.94918891059024
 30
0.0
 10
412.39722222222218
 20
617.65497775607628
 30
0.0
 10
410.98611111111109
 20
617.71388888888885
 30
0.0
 10
407.63472222222219
 20
617.71388888888885
 30
0.0
 10
398.05081108940971
 20
619.30138888888882
 30
0.0
 10
396.22835557725693
 20
615.89108886718748
 30
0.0
 10
394.6408555772569
 20
613.01030002170137
 30
0.0
 10
395.81666666666661
 20
607.13055555555547
 30
0.0
 10
395.81666666666661
 20
603.95555555555552
 30
0.0
 10
395.81666666666661
 20
603.95555555555552
 30
0.0
 10
395.81666666666661
 20
582.78888888888889
 30
0.0
 10
395.81666666666661
 20
582.78888888888889
 30
0.0
 10
395.81666666666661
 20
579.08472222222213
 30
0.0
 10
395.28749999999997
 20
575.02777777777771
 30
0.0
 10
396.16944444444442
 20
571.5
 30
0.0
  0
SPLINE
  5
4C
100
AcDbEntity
  8
LAYER_1
 62
     7
100
AcDbSpline
210
0.0
220
0.0
230
1.0
 70
     8
 71
     3
 72
   116
 73
   112
 74
     0
 42
0.00000001
 43
0.00000001
 40
0.0
 40
0.0
 40
0.0
 40
0.0
 40
1.0
 40
1.0
 40
1.0
 40
2.0
 40
2.0
 40
2.0
 40
3.0
 40
3.0
 40
3.0
 40
4.0
 40
4.0
 40
4.0
 40
5.0
 40
5.0
 40
5.0
 40
6.0
 40
6.0
 40
6.0
 40
7.0
 40
7.0
 40
7.0
 40
8.0
 40
8.0
 40
8.0
 40
9.0
 40
9.0
 40
9.0
 40
10.0
 40
10.0
 40
10.0
 40
11.0
 40
11.0
 40
11.0
 40
12.0
 40
12.0
 40
12.0
 40
13.0
 40
13.0
 40
13.0
 40
14.0
 40
14.0
 40
14.0
 40
15.0
 40
15.0
 40
15.0
 40
16.0
 40
16.0
 40
16.0
 40
17.0
 40
17.0
 40
17.0
 40
18.0
 40
18.0
 40
18.0
 40
19.0
 40
19.0
 40
19.0
 40
20.0
 40
20.0
 40
20.0
 40
21.0
 40
21.0
 40
21.0
 40
22.0
 40
22.0
 40
22.0
 40
23.0
 40
23.0
 40
23.0
 40
24.0
 40
24.0
 40
24.0
 40
25.0
 40
25.0
 40
25.0
 40
26.0
 40
26.0
 40
26.0
 40
27.0
 40
27.0
 40
27.0
 40
28.0
 40
28.0
 40
28.0
 40
29.0
 40
29.0
 40
29.0
 40
30.0
 40
30.0
 40
30.0
 40
31.0
 40
31.0
 40
31.0
 40
32.0
 40
32.0
 40
32.0
 40
33.0
 40
33.0
 40
33.0
 40
34.0
 40
34.0
 40
34.0
 40
35.0
 40
35.0
 40
35.0
 40
36.0
 40
36.0
 40
36.0
 40
37.0
 40
37.0
 40
37.0
 40
37.0
 10
161.92499999999998
 20
143.93333333333331
 30
0.0
 10
161.92499999999998
 20
143.93333333333331
 30
0.0
 10
250.82499999999999
 20
144.2861111111111
 30
0.0
 10
250.82499999999999
 20
144.2861111111111
 30
0.0
 10
250.88391113281247
 20
135.58414442274304
 30
0.0
 10
251.17777777777775
 20
126.8825222439236
 30
0.0
 10
251.17777777777775
 20
118.18055555555554
 30
0.0
 10
251.17777777777775
 20
114.88807779947916
 30
0.0
 10
250.11944444444441
 20
109.53749999999999
 30
0.0
 10
251.41307779947914
 20
106.53888888888888
 30
0.0
 10
252.52997775607636
 20
103.89305555555555
 30
0.0
 10
260.64386664496527
 20
104.12835557725694
 30
0.0
 10
262.70196668836803
 20
105.48055555555554
 30
0.0
 10
264.87719997829856
 20
106.83275553385415
 30
0.0
 10
264.23055555555555
 20
110.71331108940971
 30
0.0
 10
264.23055555555555
 20
112.88888888888889
 30
0.0
 10
264.17164442274304
 20
120.29722222222222
 30
0.0
 10
263.87777777777774
 20
127.64664442274304
 30
0.0
 10
263.87777777777774
 20
135.11388888888888
 30
0.0
 10
263.87777777777774
 20
165.57025553385415
 30
0.0
 10
263.52499999999998
 20
195.96805555555554
 30
0.0
 10
263.52499999999998
 20
226.48333333333332
 30
0.0
 10
263.52499999999998
 20
353.2480333116319
 30
0.0
 10
262.46666666666664
 20
479.95416666666659
 30
0.0
 10
262.46666666666664
 20
606.77777777777771
 30
0.0
 10
265.34780002170135
 20
607.60081108940972
 30
0.0
 10
264.23055555555555
 20
613.12777777777774
 30
0.0
 10
264.17164442274304
 20
615.53831108940972
 30
0.0
 10
264.17164442274304
 20
620.71249999999998
 30
0.0
 10
263.87777777777774
 20
625.88668891059024
 30
0.0
 10
263.87777777777774
 20
631.11944444444441
 30
0.0
 10
263.87777777777774
 20
635.52916666666658
 30
0.0
 10
263.99525553385416
 20
640.17418891059026
 30
0.0
 10
260.93807779947912
 20
643.76053331163189
 30
0.0
 10
257.35138888888889
 20
647.87638888888887
 30
0.0
 10
252.23611111111109
 20
648.05277777777769
 30
0.0
 10
247.29722222222219
 20
648.05277777777769
 30
0.0
 10
247.29722222222219
 20
648.05277777777769
 30
0.0
 10
229.30555555555554
 20
648.05277777777769
 30
0.0
 10
229.30555555555554
 20
648.05277777777769
 30
0.0
 10
226.01307779947913
 20
648.05277777777769
 30
0.0
 10
221.8383110894097
 20
648.52303331163193
 30
0.0
 10
218.7222222222222
 20
647.8174777560763
 30
0.0
 10
216.13530002170137
 20
647.2297444661458
 30
0.0
 10
215.95891113281249
 20
638.76307779947911
 30
0.0
 10
217.72280002170137
 20
637.2930555555555
 30
0.0
 10
218.89861111111108
 20
636.29363335503467
 30
0.0
 10
221.19166666666663
 20
636.7638888888888
 30
0.0
 10
222.60277777777776
 20
636.7638888888888
 30
0.0
 10
226.89502224392359
 20
636.7638888888888
 30
0.0
 10
231.30474446614582
 20
636.82280002170137
 30
0.0
 10
235.65555555555554
 20
636.70497775607635
 30
0.0
 10
237.36053331163191
 20
636.70497775607635
 30
0.0
 10
240.65335557725692
 20
635.52916666666658
 30
0.0
 10
239.18333333333331
 20
633.17719997829852
 30
0.0
 10
238.12499999999997
 20
631.41331108940972
 30
0.0
 10
236.00833333333333
 20
631.47222222222217
 30
0.0
 10
234.24444444444441
 20
631.47222222222217
 30
0.0
 10
230.18749999999997
 20
631.41331108940972
 30
0.0
 10
226.18946668836804
 20
631.3547444661458
 30
0.0
 10
222.24999999999997
 20
631.11944444444441
 30
0.0
 10
220.77997775607636
 20
631.06053331163184
 30
0.0
 10
218.54583333333332
 20
631.53113335503463
 30
0.0
 10
217.54641113281249
 20
630.29641113281241
 30
0.0
 10
215.54722222222219
 20
627.88553331163189
 30
0.0
 10
216.95833333333331
 20
620.35972222222222
 30
0.0
 10
216.95833333333331
 20
617.36111111111109
 30
0.0
 10
216.8994222005208
 20
615.53831108940972
 30
0.0
 10
217.19363335503471
 20
613.06886664496517
 30
0.0
 10
215.13553331163192
 20
612.24583333333328
 30
0.0
 10
211.37280002170138
 20
610.77581108940967
 30
0.0
 10
204.14085557725693
 20
611.71666666666658
 30
0.0
 10
200.02499999999998
 20
611.71666666666658
 30
0.0
 10
200.02499999999998
 20
611.71666666666658
 30
0.0
 10
166.51111111111109
 20
611.71666666666658
 30
0.0
 10
166.51111111111109
 20
611.71666666666658
 30
0.0
 10
161.80752224392359
 20
611.71666666666658
 30
0.0
 10
152.45891113281249
 20
613.4805555555555
 30
0.0
 10
148.93113335503472
 20
609.8353000217013
 30
0.0
 10
146.81446668836804
 20
607.71863335503463
 30
0.0
 10
147.46111111111111
 20
604.19085557725691
 30
0.0
 10
147.46111111111111
 20
601.48611111111109
 30
0.0
 10
147.46111111111111
 20
601.48611111111109
 30
0.0
 10
147.46111111111111
 20
580.31944444444434
 30
0.0
 10
147.46111111111111
 20
580.31944444444434
 30
0.0
 10
147.46111111111111
 20
551.74444444444441
 30
0.0
 10
147.81388888888887
 20
523.16944444444437
 30
0.0
 10
147.81388888888887
 20
494.59444444444438
 30
0.0
 10
147.81388888888887
 20
421.45196668836803
 30
0.0
 10
148.51944444444442
 20
348.25057779947912
 30
0.0
 10
148.51944444444442
 20
275.16666666666663
 30
0.0
 10
148.51944444444442
 20
249.88414442274302
 30
0.0
 10
149.46030002170139
 20
224.54305555555553
 30
0.0
 10
148.81331108940972
 20
199.31944444444443
 30
0.0
 10
148.28414442274305
 20
175.50694444444443
 30
0.0
 10
148.87222222222221
 20
151.51805555555555
 30
0.0
 10
148.87222222222221
 20
127.70555555555555
 30
0.0
 10
148.87222222222221
 20
122.00219997829861
 30
0.0
 10
148.75474446614581
 20
116.35775553385416
 30
0.0
 10
148.87222222222221
 20
110.65474446614583
 30
0.0
 10
148.93113335503472
 20
109.00833333333333
 30
0.0
 10
148.63692220052081
 20
105.71585557725693
 30
0.0
 10
150.28333333333333
 20
104.77499999999999
 30
0.0
 10
152.39999999999998
 20
103.54027777777777
 30
0.0
 10
160.63136664496525
 20
103.65775553385416
 30
0.0
 10
161.63113335503471
 20
106.1861111111111
 30
0.0
 10
162.86585557725692
 20
109.3021999782986
 30
0.0
 10
161.92499999999998
 20
114.47638888888888
 30
0.0
 10
161.92499999999998
 20
117.82777777777777
 30
0.0
 10
161.92499999999998
 20
117.82777777777777
 30
0.0
 10
161.92499999999998
 20
143.93333333333331
 30
0.0
 10
161.92499999999998
 20
143.93333333333331
 30
0.0
  0
SPLINE
  5
4B
100
AcDbEntity
  8
LAYER_1
 62
     7
100
AcDbSpline
210
0.0
220
0.0
230
1.0
 70
     8
 71
     3
 72
   371
 73
   367
 74
     0
 42
0.00000001
 43
0.00000001
 40
0.0
 40
0.0
 40
0.0
 40
0.0
 40
1.0
 40
1.0
 40
1.0
 40
2.0
 40
2.0
 40
2.0
 40
3.0
 40
3.0
 40
3.0
 40
4.0
 40
4.0
 40
4.0
 40
5.0
 40
5.0
 40
5.0
 40
6.0
 40
6.0
 40
6.0
 40
7.0
 40
7.0
 40
7.0
 40
8.0
 40
8.0
 40
8.0
 40
9.0
 40
9.0
 40
9.0
 40
10.0
 40
10.0
 40
10.0
 40
11.0
 40
11.0
 40
11.0
 40
12.0
 40
12.0
 40
12.0
 40
13.0
 40
13.0
 40
13.0
 40
14.0
 40
14.0
 40
14.0
 40
15.0
 40
15.0
 40
15.0
 40
16.0
 40
16.0
 40
16.0
 40
17.0
 40
17.0
 40
17.0
 40
18.0
 40
18.0
 40
18.0
 40
19.0
 40
19.0
 40
19.0
 40
20.0
 40
20.0
 40
20.0
 40
21.0
 40
21.0
 40
21.0
 40
22.0
 40
22.0
 40
22.0
 40
23.0
 40
23.0
 40
23.0
 40
24.0
 40
24.0
 40
24.0
 40
25.0
 40
25.0
 40
25.0
 40
26.0
 40
26.0
 40
26.0
 40
27.0
 40
27.0
 40
27.0
 40
28.0
 40
28.0
 40
28.0
 40
29.0
 40
29.0
 40
29.0
 40
30.0
 40
30.0
 40
30.0
 40
31.0
 40
31.0
 40
31.0
 40
32.0
 40
32.0
 40
32.0
 40
33.0
 40
33.0
 40
33.0
 40
34.0
 40
34.0
 40
34.0
 40
35.0
 40
35.0
 40
35.0
 40
36.0
 40
36.0
 40
36.0
 40
37.0
 40
37.0
 40
37.0
 40
38.0
 40
38.0
 40
38.0
 40
39.0
 40
39.0
 40
39.0
 40
40.0
 40
40.0
 40
40.0
 40
41.0
 40
41.0
 40
41.0
 40
42.0
 40
42.0
 40
42.0
 40
43.0
 40
43.0
 40
43.0
 40
44.0
 40
44.0
 40
44.0
 40
45.0
 40
45.0
 40
45.0
 40
46.0
 40
46.0
 40
46.0
 40
47.0
 40
47.0
 40
47.0
 40
48.0
 40
48.0
 40
48.0
 40
49.0
 40
49.0
 40
49.0
 40
50.0
 40
50.0
 40
50.0
 40
51.0
 40
51.0
 40
51.0
 40
52.0
 40
52.0
 40
52.0
 40
53.0
 40
53.0
 40
53.0
 40
54.0
 40
54.0
 40
54.0
 40
55.0
 40
55.0
 40
55.0
 40
56.0
 40
56.0
 40
56.0
 40
57.0
 40
57.0
 40
57.0
 40
58.0
 40
58.0
 40
58.0
 40
59.0
 40
59.0
 40
59.0
 40
60.0
 40
60.0
 40
60.0
 40
61.0
 40
61.0
 40
61.0
 40
62.0
 40
62.0
 40
62.0
 40
63.0
 40
63.0
 40
63.0
 40
64.0
 40
64.0
 40
64.0
 40
65.0
 40
65.0
 40
65.0
 40
66.0
 40
66.0
 40
66.0
 40
67.0
 40
67.0
 40
67.0
 40
68.0
 40
68.0
 40
68.0
 40
69.0
 40
69.0
 40
69.0
 40
70.0
 40
70.0
 40
70.0
 40
71.0
 40
71.0
 40
71.0
 40
72.0
 40
72.0
 40
72.0
 40
73.0
 40
73.0
 40
73.0
 40
74.0
 40
74.0
 40
74.0
 40
75.0
 40
75.0
 40
75.0
 40
76.0
 40
76.0
 40
76.0
 40
77.0
 40
77.0
 40
77.0
 40
78.0
 40
78.0
 40
78.0
 40
79.0
 40
79.0
 40
79.0
 40
80.0
 40
80.0
 40
80.0
 40
81.0
 40
81.0
 40
81.0
 40
82.0
 40
82.0
 40
82.0
 40
83.0
 40
83.0
 40
83.0
 40
84.0
 40
84.0
 40
84.0
 40
85.0
 40
85.0
 40
85.0
 40
86.0
 40
86.0
 40
86.0
 40
87.0
 40
87.0
 40
87.0
 40
88.0
 40
88.0
 40
88.0
 40
89.0
 40
89.0
 40
89.0
 40
90.0
 40
90.0
 40
90.0
 40
91.0
 40
91.0
 40
91.0
 40
92.0
 40
92.0
 40
92.0
 40
93.0
 40
93.0
 40
93.0
 40
94.0
 40
94.0
 40
94.0
 40
95.0
 40
95.0
 40
95.0
 40
96.0
 40
96.0
 40
96.0
 40
97.0
 40
97.0
 40
97.0
 40
98.0
 40
98.0
 40
98.0
 40
99.0
 40
99.0
 40
99.0
 40
100.0
 40
100.0
 40
100.0
 40
101.0
 40
101.0
 40
101.0
 40
102.0
 40
102.0
 40
102.0
 40
103.0
 40
103.0
 40
103.0
 40
104.0
 40
104.0
 40
104.0
 40
105.0
 40
105.0
 40
105.0
 40
106.0
 40
106.0
 40
106.0
 40
107.0
 40
107.0
 40
107.0
 40
108.0
 40
108.0
 40
108.0
 40
109.0
 40
109.0
 40
109.0
 40
110.0
 40
110.0
 40
110.0
 40
111.0
 40
111.0
 40
111.0
 40
112.0
 40
112.0
 40
112.0
 40
113.0
 40
113.0
 40
113.0
 40
114.0
 40
114.0
 40
114.0
 40
115.0
 40
115.0
 40
115.0
 40
116.0
 40
116.0
 40
116.0
 40
117.0
 40
117.0
 40
117.0
 40
118.0
 40
118.0
 40
118.0
 40
119.0
 40
119.0
 40
119.0
 40
120.0
 40
120.0
 40
120.0
 40
121.0
 40
121.0
 40
121.0
 40
122.0
 40
122.0
 40
122.0
 40
122.0
 10
19.049999999999997
 20
621.94722222222219
 30
0.0
 10
19.049999999999997
 20
621.94722222222219
 30
0.0
 10
19.049999999999997
 20
618.06666666666661
 30
0.0
 10
19.049999999999997
 20
618.06666666666661
 30
0.0
 10
17.462499999999999
 20
618.00775553385415
 30
0.0
 10
14.404977756076388
 20
618.18414442274297
 30
0.0
 10
13.229166666666666
 20
617.12581108940969
 30
0.0
 10
12.170833333333333
 20
616.18530002170132
 30
0.0
 10
12.347222222222221
 20
614.36249999999995
 30
0.0
 10
12.347222222222221
 20
613.12777777777774
 30
0.0
 10
12.288311089409721
 20
609.77638888888885
 30
0.0
 10
11.582755533854165
 20
604.01446668836797
 30
0.0
 10
13.405555555555555
 20
601.13333333333333
 30
0.0
 10
15.992477756076388
 20
596.84108886718741
 30
0.0
 10
22.930555555555554
 20
598.31111111111102
 30
0.0
 10
27.163888888888888
 20
598.31111111111102
 30
0.0
 10
28.457522243923609
 20
598.31111111111102
 30
0.0
 10
30.868055555555554
 20
598.72280002170135
 30
0.0
 10
31.867477756076386
 20
597.72303331163187
 30
0.0
 10
33.396411132812496
 20
596.19444444444434
 30
0.0
 10
32.455555555555556
 20
590.78530002170135
 30
0.0
 10
32.455555555555556
 20
588.78611111111104
 30
0.0
 10
32.455555555555556
 20
588.78611111111104
 30
0.0
 10
32.455555555555556
 20
563.0333333333333
 30
0.0
 10
32.455555555555556
 20
563.0333333333333
 30
0.0
 10
28.281133355034719
 20
562.97442220052073
 30
0.0
 10
24.224188910590275
 20
562.68055555555554
 30
0.0
 10
20.108333333333331
 20
562.68055555555554
 30
0.0
 10
17.932755533854166
 20
562.68055555555554
 30
0.0
 10
15.816088867187499
 20
562.79803331163191
 30
0.0
 10
14.17002224392361
 20
561.15196668836802
 30
0.0
 10
11.641666666666666
 20
558.68252224392359
 30
0.0
 10
12.347222222222221
 20
552.21469997829854
 30
0.0
 10
12.347222222222221
 20
548.92222222222222
 30
0.0
 10
12.347222222222221
 20
548.92222222222222
 30
0.0
 10
12.347222222222221
 20
518.2305555555555
 30
0.0
 10
12.347222222222221
 20
518.2305555555555
 30
0.0
 10
12.347222222222221
 20
514.64386664496521
 30
0.0
 10
11.229977756076387
 20
509.05833333333328
 30
0.0
 10
13.817244466145832
 20
506.23611111111109
 30
0.0
 10
17.462499999999999
 20
502.23807779947913
 30
0.0
 10
27.104977756076387
 20
504.11944444444441
 30
0.0
 10
32.102777777777774
 20
504.11944444444441
 30
0.0
 10
32.102777777777774
 20
504.11944444444441
 30
0.0
 10
32.102777777777774
 20
452.96666666666664
 30
0.0
 10
32.102777777777774
 20
452.96666666666664
 30
0.0
 10
32.102777777777774
 20
452.96666666666664
 30
0.0
 10
32.102777777777774
 20
438.14999999999998
 30
0.0
 10
32.102777777777774
 20
438.14999999999998
 30
0.0
 10
32.102777777777774
 20
436.32719997829855
 30
0.0
 10
32.573033311631939
 20
433.50497775607636
 30
0.0
 10
31.867477756076386
 20
431.79999999999995
 30
0.0
 10
31.103355577256941
 20
430.09502224392355
 30
0.0
 10
27.928355577256941
 20
430.74166666666662
 30
0.0
 10
26.458333333333332
 20
430.74166666666662
 30
0.0
 10
21.695833333333333
 20
430.74166666666662
 30
0.0
 10
12.699999999999999
 20
432.32916666666665
 30
0.0
 10
12.347222222222221
 20
425.44999999999999
 30
0.0
 10
11.759144422743054
 20
413.69085557725691
 30
0.0
 10
12.347222222222221
 20
401.87280002170138
 30
0.0
 10
12.347222222222221
 20
390.17222222222216
 30
0.0
 10
12.347222222222221
 20
386.05636664496524
 30
0.0
 10
10.995022243923611
 20
379.05972222222221
 30
0.0
 10
12.758911132812498
 20
375.3555555555555
 30
0.0
 10
15.051966688368054
 20
370.71053331163193
 30
0.0
 10
22.224999999999998
 20
372.18055555555554
 30
0.0
 10
26.458333333333332
 20
372.18055555555554
 30
0.0
 10
27.869444444444444
 20
372.18055555555554
 30
0.0
 10
30.809144422743053
 20
372.70972222222218
 30
0.0
 10
31.691088867187496
 20
371.3575222439236
 30
0.0
 10
32.514466688368053
 20
370.12280002170138
 30
0.0
 10
32.102777777777774
 20
367.88831108940968
 30
0.0
 10
32.102777777777774
 20
366.5361111111111
 30
0.0
 10
32.102777777777774
 20
366.5361111111111
 30
0.0
 10
32.102777777777774
 20
354.54166666666663
 30
0.0
 10
32.102777777777774
 20
354.54166666666663
 30
0.0
 10
32.102777777777774
 20
354.54166666666663
 30
0.0
 10
32.102777777777774
 20
316.08888888888885
 30
0.0
 10
32.102777777777774
 20
316.08888888888885
 30
0.0
 10
32.102777777777774
 20
316.08888888888885
 30
0.0
 10
32.102777777777774
 20
305.15277777777777
 30
0.0
 10
32.102777777777774
 20
305.15277777777777
 30
0.0
 10
32.102777777777774
 20
303.68275553385416
 30
0.0
 10
32.455555555555556
 20
301.56608886718749
 30
0.0
 10
31.867477756076386
 20
300.21388888888885
 30
0.0
 10
31.103355577256941
 20
298.5089111328125
 30
0.0
 10
27.928355577256941
 20
299.15555555555551
 30
0.0
 10
26.458333333333332
 20
299.09664442274305
 30
0.0
 10
22.695255533854166
 20
299.09664442274305
 30
0.0
 10
14.934144422743055
 20
300.03749999999997
 30
0.0
 10
12.876388888888888
 20
296.2744222005208
 30
0.0
 10
11.053588867187498
 20
292.98194444444442
 30
0.0
 10
12.347222222222221
 20
287.57280002170137
 30
0.0
 10
12.347222222222221
 20
283.98611111111109
 30
0.0
 10
12.347222222222221
 20
274.1672444661458
 30
0.0
 10
11.994444444444444
 20
264.40694444444443
 30
0.0
 10
11.994444444444444
 20
254.70555555555552
 30
0.0
 10
11.994444444444444
 20
250.88391113281247
 30
0.0
 10
10.818633355034722
 20
244.94525553385415
 30
0.0
 10
13.758333333333333
 20
242.00555555555553
 30
0.0
 10
17.462499999999999
 20
238.41886664496525
 30
0.0
 10
26.928588867187496
 20
240.24166666666665
 30
0.0
 10
31.749999999999996
 20
240.24166666666665
 30
0.0
 10
31.749999999999996
 20
240.24166666666665
 30
0.0
 10
31.749999999999996
 20
211.66666666666666
 30
0.0
 10
31.749999999999996
 20
211.66666666666666
 30
0.0
 10
26.987499999999997
 20
211.02002224392359
 30
0.0
 10
18.87361111111111
 20
213.01886664496527
 30
0.0
 10
14.816666666666665
 20
210.54942220052081
 30
0.0
 10
12.053355577256943
 20
208.90335557725692
 30
0.0
 10
12.053355577256943
 20
206.37499999999997
 30
0.0
 10
11.935533311631943
 20
203.55277777777775
 30
0.0
 10
11.700577799479166
 20
198.26111111111109
 30
0.0
 10
11.641666666666666
 20
192.91053331163192
 30
0.0
 10
11.641666666666666
 20
187.67777777777775
 30
0.0
 10
11.641666666666666
 20
185.67858886718747
 30
0.0
 10
11.112499999999999
 20
182.79780002170136
 30
0.0
 10
11.876966688368055
 20
180.97499999999999
 30
0.0
 10
12.993866644965276
 20
178.21168891059025
 30
0.0
 10
17.05081108940972
 20
180.91608886718748
 30
0.0
 10
18.109144422743054
 20
178.44664442274305
 30
0.0
 10
19.755555555555553
 20
174.5075222439236
 30
0.0
 10
14.404977756076388
 20
175.97719997829859
 30
0.0
 10
12.876388888888888
 20
174.68391113281248
 30
0.0
 10
11.229977756076387
 20
173.33136664496527
 30
0.0
 10
11.876966688368055
 20
170.68553331163193
 30
0.0
 10
13.758333333333333
 20
169.92141113281249
 30
0.0
 10
16.345255533854164
 20
168.86307779947916
 30
0.0
 10
20.108333333333331
 20
169.80358886718747
 30
0.0
 10
22.871644422743053
 20
169.62719997829859
 30
0.0
 10
33.278588867187494
 20
168.80416666666665
 30
0.0
 10
43.86192220052083
 20
169.33333333333331
 30
0.0
 10
54.327777777777776
 20
169.33333333333331
 30
0.0
 10
54.327777777777776
 20
169.33333333333331
 30
0.0
 10
64.205555555555549
 20
169.33333333333331
 30
0.0
 10
64.205555555555549
 20
169.33333333333331
 30
0.0
 10
65.440277777777766
 20
169.33333333333331
 30
0.0
 10
67.145255533854154
 20
169.62719997829859
 30
0.0
 10
68.203588867187491
 20
168.74525553385416
 30
0.0
 10
71.731366644965277
 20
165.68807779947915
 30
0.0
 10
74.024422200520831
 20
158.86747775607637
 30
0.0
 10
76.317477756076386
 20
154.86944444444444
 30
0.0
 10
82.785300021701374
 20
143.52164442274304
 30
0.0
 10
89.370255533854163
 20
132.29166666666666
 30
0.0
 10
95.838077799479152
 20
121.00277777777777
 30
0.0
 10
99.130555555555546
 20
115.18194444444444
 30
0.0
 10
102.18807779947916
 20
106.53888888888888
 30
0.0
 10
109.00833333333333
 20
104.18692220052083
 30
0.0
 10
113.71192220052082
 20
102.48194444444444
 30
0.0
 10
120.53252224392359
 20
103.71666666666665
 30
0.0
 10
125.58888888888887
 20
103.71666666666665
 30
0.0
 10
127.35277777777776
 20
103.71666666666665
 30
0.0
 10
129.82222222222222
 20
103.2464111328125
 30
0.0
 10
130.82164442274305
 20
105.12777777777777
 30
0.0
 10
131.70358886718748
 20
106.65636664496527
 30
0.0
 10
131.23333333333332
 20
109.3611111111111
 30
0.0
 10
131.23333333333332
 20
111.12499999999999
 30
0.0
 10
131.23333333333332
 20
111.12499999999999
 30
0.0
 10
131.23333333333332
 20
125.2361111111111
 30
0.0
 10
131.23333333333332
 20
125.2361111111111
 30
0.0
 10
131.23333333333332
 20
125.2361111111111
 30
0.0
 10
131.23333333333332
 20
136.87777777777777
 30
0.0
 10
131.23333333333332
 20
136.87777777777777
 30
0.0
 10
131.23333333333332
 20
138.17141113281249
 30
0.0
 10
131.58611111111111
 20
140.22916666666666
 30
0.0
 10
130.64525553385417
 20
141.28749999999999
 30
0.0
 10
129.70474446614583
 20
142.34583333333333
 30
0.0
 10
127.94085557725693
 20
142.11053331163194
 30
0.0
 10
126.64722222222221
 20
142.16944444444442
 30
0.0
 10
123.29583333333332
 20
142.16944444444442
 30
0.0
 10
120.06192220052083
 20
142.34583333333333
 30
0.0
 10
116.76944444444443
 20
142.52222222222221
 30
0.0
 10
116.76944444444443
 20
142.52222222222221
 30
0.0
 10
116.76944444444443
 20
165.09999999999999
 30
0.0
 10
116.76944444444443
 20
165.09999999999999
 30
0.0
 10
116.76944444444443
 20
167.33414442274304
 30
0.0
 10
117.59247775607638
 20
171.92025553385415
 30
0.0
 10
116.12280002170138
 20
173.80196668836803
 30
0.0
 10
114.82916666666665
 20
175.44803331163192
 30
0.0
 10
111.88946668836805
 20
174.86030002170136
 30
0.0
 10
110.06666666666666
 20
175.33055555555555
 30
0.0
 10
110.06666666666666
 20
175.33055555555555
 30
0.0
 10
110.41944444444444
 20
178.85833333333332
 30
0.0
 10
110.41944444444444
 20
178.85833333333332
 30
0.0
 10
112.06585557725694
 20
178.9172444661458
 30
0.0
 10
115.6521999782986
 20
178.44664442274305
 30
0.0
 10
116.47557779947915
 20
180.26944444444442
 30
0.0
 10
117.76886664496527
 20
183.15057779947915
 30
0.0
 10
116.76944444444443
 20
188.44224446614581
 30
0.0
 10
116.76944444444443
 20
191.55833333333331
 30
0.0
 10
116.76944444444443
 20
191.55833333333331
 30
0.0
 10
116.76944444444443
 20
218.36944444444441
 30
0.0
 10
116.76944444444443
 20
218.36944444444441
 30
0.0
 10
116.76944444444443
 20
221.66192220052082
 30
0.0
 10
117.82777777777777
 20
227.48275553385415
 30
0.0
 10
115.77002224392361
 20
230.30497775607637
 30
0.0
 10
114.29999999999998
 20
232.30416666666665
 30
0.0
 10
111.94803331163193
 20
232.42164442274304
 30
0.0
 10
109.71388888888887
 20
232.48055555555553
 30
0.0
 10
105.42164442274304
 20
232.48055555555553
 30
0.0
 10
101.18831108940971
 20
232.7744222005208
 30
0.0
 10
97.013888888888886
 20
232.83333333333331
 30
0.0
 10
97.013888888888886
 20
232.83333333333331
 30
0.0
 10
97.013888888888886
 20
255.4111111111111
 30
0.0
 10
97.013888888888886
 20
255.4111111111111
 30
0.0
 10
97.013888888888886
 20
257.58668891059023
 30
0.0
 10
96.131944444444429
 20
262.23136664496525
 30
0.0
 10
97.36666666666666
 20
264.11307779947913
 30
0.0
 10
98.189699978298606
 20
265.34780002170135
 30
0.0
 10
100.30636664496527
 20
264.81863335503471
 30
0.0
 10
101.59999999999999
 20
264.99502224392359
 30
0.0
 10
105.12777777777777
 20
265.28888888888889
 30
0.0
 10
110.71331108940971
 20
264.17164442274304
 30
0.0
 10
113.88831108940971
 20
265.75914442274302
 30
0.0
 10
117.06331108940971
 20
267.34664442274305
 30
0.0
 10
116.59305555555555
 20
270.11030002170139
 30
0.0
 10
116.82835557725693
 20
273.04999999999995
 30
0.0
 10
117.2396999782986
 20
279.39999999999998
 30
0.0
 10
117.65138888888887
 20
286.39664442274301
 30
0.0
 10
117.06331108940971
 20
292.80555555555554
 30
0.0
 10
116.35775553385416
 20
300.21388888888885
 30
0.0
 10
107.94999999999999
 20
298.80277777777775
 30
0.0
 10
102.65833333333332
 20
298.80277777777775
 30
0.0
 10
101.18831108940971
 20
298.80277777777775
 30
0.0
 10
98.248611111111103
 20
298.2146999782986
 30
0.0
 10
97.36666666666666
 20
299.56724446614578
 30
0.0
 10
96.131944444444429
 20
301.44861111111106
 30
0.0
 10
97.013888888888886
 20
306.09363335503468
 30
0.0
 10
97.013888888888886
 20
308.32777777777773
 30
0.0
 10
97.013888888888886
 20
315.85358886718745
 30
0.0
 10
97.307755533854163
 20
323.37974446614578
 30
0.0
 10
97.36666666666666
 20
330.90555555555551
 30
0.0
 10
101.95277777777777
 20
330.90555555555551
 30
0.0
 10
110.83113335503471
 20
329.20057779947916
 30
0.0
 10
114.59386664496527
 20
332.08136664496527
 30
0.0
 10
117.18113335503472
 20
334.02164442274301
 30
0.0
 10
117.12222222222221
 20
336.78530002170135
 30
0.0
 10
117.12222222222221
 20
339.72499999999997
 30
0.0
 10
117.12222222222221
 20
339.72499999999997
 30
0.0
 10
117.12222222222221
 20
355.59999999999997
 30
0.0
 10
117.12222222222221
 20
355.59999999999997
 30
0.0
 10
117.12222222222221
 20
358.0694444444444
 30
0.0
 10
117.47499999999999
 20
360.83275553385414
 30
0.0
 10
115.53472222222221
 20
362.77303331163193
 30
0.0
 10
112.4771999782986
 20
365.88946668836803
 30
0.0
 10
106.59780002170137
 20
364.77222222222218
 30
0.0
 10
102.65833333333332
 20
364.77222222222218
 30
0.0
 10
101.24722222222222
 20
364.77222222222218
 30
0.0
 10
98.248611111111103
 20
364.18414442274303
 30
0.0
 10
97.36666666666666
 20
365.53668891059027
 30
0.0
 10
96.19085557725694
 20
367.47696668836801
 30
0.0
 10
96.954977756076374
 20
372.06307779947912
 30
0.0
 10
97.013888888888886
 20
374.29722222222216
 30
0.0
 10
97.013888888888886
 20
381.76446668836803
 30
0.0
 10
97.36666666666666
 20
389.29027777777776
 30
0.0
 10
97.36666666666666
 20
396.87499999999994
 30
0.0
 10
102.07025553385415
 20
396.87499999999994
 30
0.0
 10
111.0075222439236
 20
395.1700222439236
 30
0.0
 10
114.94664442274305
 20
398.2861111111111
 30
0.0
 10
117.2986111111111
 20
400.16747775607638
 30
0.0
 10
117.12222222222221
 20
402.87222222222221
 30
0.0
 10
117.12222222222221
 20
405.6944444444444
 30
0.0
 10
117.12222222222221
 20
405.6944444444444
 30
0.0
 10
117.12222222222221
 20
421.92222222222216
 30
0.0
 10
117.12222222222221
 20
421.92222222222216
 30
0.0
 10
117.12222222222221
 20
424.45057779947911
 30
0.0
 10
117.3575222439236
 20
427.27280002170136
 30
0.0
 10
115.24085557725694
 20
429.15416666666664
 30
0.0
 10
110.94861111111111
 20
432.97581108940966
 30
0.0
 10
102.18807779947916
 20
429.80081108940971
 30
0.0
 10
97.013888888888886
 20
431.09444444444438
 30
0.0
 10
97.013888888888886
 20
431.09444444444438
 30
0.0
 10
97.36666666666666
 20
442.38333333333327
 30
0.0
 10
97.36666666666666
 20
442.38333333333327
 30
0.0
 10
97.36666666666666
 20
442.38333333333327
 30
0.0
 10
97.36666666666666
 20
462.84444444444438
 30
0.0
 10
97.36666666666666
 20
462.84444444444438
 30
0.0
 10
102.07025553385415
 20
462.84444444444438
 30
0.0
 10
111.53668891059027
 20
461.02164442274301
 30
0.0
 10
115.24085557725694
 20
464.3730333116319
 30
0.0
 10
117.2986111111111
 20
466.19583333333327
 30
0.0
 10
117.12222222222221
 20
468.78275553385413
 30
0.0
 10
117.12222222222221
 20
471.31111111111107
 30
0.0
 10
117.12222222222221
 20
471.31111111111107
 30
0.0
 10
117.12222222222221
 20
487.89166666666659
 30
0.0
 10
117.12222222222221
 20
487.89166666666659
 30
0.0
 10
117.12222222222221
 20
490.65497775607633
 30
0.0
 10
117.41608886718748
 20
493.35972222222216
 30
0.0
 10
114.94664442274305
 20
495.29999999999995
 30
0.0
 10
110.94861111111111
 20
498.35752224392354
 30
0.0
 10
102.12916666666666
 20
496.71111111111105
 30
0.0
 10
97.36666666666666
 20
496.71111111111105
 30
0.0
 10
97.36666666666666
 20
496.71111111111105
 30
0.0
 10
97.36666666666666
 20
518.93611111111102
 30
0.0
 10
97.36666666666666
 20
518.93611111111102
 30
0.0
 10
97.36666666666666
 20
521.346644422743
 30
0.0
 10
96.484722222222217
 20
525.87418891059019
 30
0.0
 10
97.778355577256931
 20
528.04942220052078
 30
0.0
 10
98.718866644965274
 20
529.63692220052076
 30
0.0
 10
101.3646999782986
 20
529.16666666666663
 30
0.0
 10
103.01111111111111
 20
529.16666666666663
 30
0.0
 10
106.59780002170137
 20
529.16666666666663
 30
0.0
 10
112.77141113281249
 20
527.93194444444441
 30
0.0
 10
115.59363335503471
 20
530.69525553385415
 30
0.0
 10
117.53391113281249
 20
532.63553331163189
 30
0.0
 10
117.12222222222221
 20
535.45775553385408
 30
0.0
 10
117.12222222222221
 20
537.98611111111109
 30
0.0
 10
117.12222222222221
 20
537.98611111111109
 30
0.0
 10
117.12222222222221
 20
554.21388888888885
 30
0.0
 10
117.12222222222221
 20
554.21388888888885
 30
0.0
 10
117.12222222222221
 20
557.15358886718741
 30
0.0
 10
117.41608886718748
 20
559.79942220052078
 30
0.0
 10
114.59386664496527
 20
561.62222222222215
 30
0.0
 10
110.47835557725693
 20
564.44444444444434
 30
0.0
 10
102.18807779947916
 20
562.38668891059024
 30
0.0
 10
97.36666666666666
 20
563.0333333333333
 30
0.0
 10
97.36666666666666
 20
571.44108886718743
 30
0.0
 10
97.719444444444434
 20
579.96666666666658
 30
0.0
 10
97.719444444444434
 20
588.43333333333328
 30
0.0
 10
97.719444444444434
 20
590.43252224392359
 30
0.0
 10
96.720022243923609
 20
596.25335557725691
 30
0.0
 10
98.248611111111103
 20
597.72303331163187
 30
0.0
 10
99.30694444444444
 20
598.72280002170135
 30
0.0
 10
101.71747775607638
 20
598.01724446614583
 30
0.0
 10
103.01111111111111
 20
597.95833333333326
 30
0.0
 10
106.95057779947916
 20
597.78194444444443
 30
0.0
 10
113.94722222222221
 20
596.78252224392361
 30
0.0
 10
116.35775553385416
 20
600.78055555555545
 30
0.0
 10
118.29803331163194
 20
603.89664442274295
 30
0.0
 10
117.12222222222221
 20
609.54108886718745
 30
0.0
 10
117.12222222222221
 20
613.12777777777774
 30
0.0
 10
117.12222222222221
 20
614.3035888671875
 30
0.0
 10
117.41608886718748
 20
616.18530002170132
 30
0.0
 10
116.53414442274304
 20
617.12581108940969
 30
0.0
 10
115.24085557725694
 20
618.47835557725693
 30
0.0
 10
112.41863335503471
 20
618.06666666666661
 30
0.0
 10
110.77222222222221
 20
618.06666666666661
 30
0.0
 10
110.77222222222221
 20
619.06608886718743
 30
0.0
 10
110.53692220052082
 20
620.53611111111104
 30
0.0
 10
111.30138888888888
 20
621.35914442274304
 30
0.0
 10
112.4771999782986
 20
622.53530002170135
 30
0.0
 10
114.59386664496527
 20
621.47696668836795
 30
0.0
 10
116.00497775607637
 20
622.29999999999995
 30
0.0
 10
117.76886664496527
 20
623.29942220052078
 30
0.0
 10
117.65138888888887
 20
628.53252224392361
 30
0.0
 10
116.29918891059027
 20
629.88472222222219
 30
0.0
 10
114.47638888888888
 20
631.64861111111111
 30
0.0
 10
110.88969997829859
 20
631.06053331163184
 30
0.0
 10
108.59664442274304
 20
630.82557779947911
 30
0.0
 10
103.65775553385416
 20
630.29641113281241
 30
0.0
 10
98.424999999999997
 20
630.76666666666665
 30
0.0
 10
93.4861111111111
 20
630.76666666666665
 30
0.0
 10
93.4861111111111
 20
630.76666666666665
 30
0.0
 10
34.572222222222216
 20
630.76666666666665
 30
0.0
 10
34.572222222222216
 20
630.76666666666665
 30
0.0
 10
29.69224446614583
 20
630.76666666666665
 30
0.0
 10
24.811922200520829
 20
630.76666666666665
 30
0.0
 10
19.990855577256944
 20
631.06053331163184
 30
0.0
 10
18.050577799479164
 20
631.11944444444441
 30
0.0
 10
15.051966688368054
 20
631.41331108940972
 30
0.0
 10
13.464466688368054
 20
630.12002224392359
 30
0.0
 10
11.818055555555555
 20
628.76747775607635
 30
0.0
 10
12.053355577256943
 20
623.77002224392356
 30
0.0
 10
13.758333333333333
 20
622.53530002170135
 30
0.0
 10
15.169444444444443
 20
621.53553331163187
 30
0.0
 10
17.403588867187498
 20
621.94722222222219
 30
0.0
 10
19.049999999999997
 20
621.94722222222219
 30
0.0
  0
SPLINE
  5
4A
100
AcDbEntity
  8
LAYER_1
 62
     7
100
AcDbSpline
210
0.0
220
0.0
230
1.0
 70
     8
 71
     3
 72
    38
 73
    34
 74
     0
 42
0.00000001
 43
0.00000001
 40
0.0
 40
0.0
 40
0.0
 40
0.0
 40
1.0
 40
1.0
 40
1.0
 40
2.0
 40
2.0
 40
2.0
 40
3.0
 40
3.0
 40
3.0
 40
4.0
 40
4.0
 40
4.0
 40
5.0
 40
5.0
 40
5.0
 40
6.0
 40
6.0
 40
6.0
 40
7.0
 40
7.0
 40
7.0
 40
8.0
 40
8.0
 40
8.0
 40
9.0
 40
9.0
 40
9.0
 40
10.0
 40
10.0
 40
10.0
 40
11.0
 40
11.0
 40
11.0
 40
11.0
 10
85.019444444444431
 20
597.95833333333326
 30
0.0
 10
75.49444444444444
 20
597.95833333333326
 30
0.0
 10
65.969444444444434
 20
598.31111111111102
 30
0.0
 10
56.444444444444443
 20
598.31111111111102
 30
0.0
 10
54.092477756076384
 20
598.31111111111102
 30
0.0
 10
47.91886664496527
 20
599.36944444444441
 30
0.0
 10
46.037499999999994
 20
597.8994222005208
 30
0.0
 10
45.214466688368049
 20
597.25277777777774
 30
0.0
 10
45.508333333333326
 20
595.66527777777776
 30
0.0
 10
45.508333333333326
 20
594.7833333333333
 30
0.0
 10
45.449422200520829
 20
592.07858886718748
 30
0.0
 10
45.625811089409716
 20
589.31527777777774
 30
0.0
 10
45.449422200520829
 20
586.66944444444437
 30
0.0
 10
44.743866644965273
 20
576.55636664496524
 30
0.0
 10
45.155555555555551
 20
566.38472222222219
 30
0.0
 10
45.155555555555551
 20
556.33055555555552
 30
0.0
 10
45.155555555555551
 20
553.92002224392354
 30
0.0
 10
43.979744466145831
 20
547.39363335503469
 30
0.0
 10
45.743633355034717
 20
545.62974446614578
 30
0.0
 10
47.272222222222219
 20
544.10081108940972
 30
0.0
 10
53.445833333333326
 20
544.74780002170132
 30
0.0
 10
55.562499999999993
 20
544.68888888888887
 30
0.0
 10
64.8521999782986
 20
544.5714111328125
 30
0.0
 10
69.379744466145823
 20
547.04085557725693
 30
0.0
 10
76.552777777777777
 20
552.97916666666663
 30
0.0
 10
79.316088867187489
 20
555.33113335503469
 30
0.0
 10
82.197222222222209
 20
557.56527777777774
 30
0.0
 10
83.843633355034711
 20
560.91666666666663
 30
0.0
 10
85.666088867187497
 20
564.62083333333328
 30
0.0
 10
85.019444444444431
 20
569.20694444444439
 30
0.0
 10
85.019444444444431
 20
573.2638888888888
 30
0.0
 10
85.019444444444431
 20
573.2638888888888
 30
0.0
 10
85.019444444444431
 20
597.95833333333326
 30
0.0
 10
85.019444444444431
 20
597.95833333333326
 30
0.0
  0
SPLINE
  5
49
100
AcDbEntity
  8
LAYER_1
 62
     7
100
AcDbSpline
210
0.0
220
0.0
230
1.0
 70
     8
 71
     3
 72
    17
 73
    13
 74
     0
 42
0.00000001
 43
0.00000001
 40
0.0
 40
0.0
 40
0.0
 40
0.0
 40
1.0
 40
1.0
 40
1.0
 40
2.0
 40
2.0
 40
2.0
 40
3.0
 40
3.0
 40
3.0
 40
4.0
 40
4.0
 40
4.0
 40
4.0
 10
333.37499999999994
 20
576.43888888888887
 30
0.0
 10
333.37499999999994
 20
562.2103000217013
 30
0.0
 10
333.90416666666664
 20
516.17280002170139
 30
0.0
 10
333.90416666666664
 20
516.17280002170139
 30
0.0
 10
333.90416666666664
 20
516.17280002170139
 30
0.0
 10
340.7833333333333
 20
515.76111111111106
 30
0.0
 10
340.7833333333333
 20
515.76111111111106
 30
0.0
 10
340.7833333333333
 20
515.76111111111106
 30
0.0
 10
339.48969997829857
 20
576.02719997829854
 30
0.0
 10
339.48969997829857
 20
576.02719997829854
 30
0.0
 10
339.48969997829857
 20
576.02719997829854
 30
0.0
 10
334.96249999999998
 20
576.43888888888887
 30
0.0
 10
333.37499999999994
 20
576.43888888888887
 30
0.0
  0
SPLINE
  5
48
100
AcDbEntity
  8
LAYER_1
 62
     7
100
AcDbSpline
210
0.0
220
0.0
230
1.0
 70
     8
 71
     3
 72
    35
 73
    31
 74
     0
 42
0.00000001
 43
0.00000001
 40
0.0
 40
0.0
 40
0.0
 40
0.0
 40
1.0
 40
1.0
 40
1.0
 40
2.0
 40
2.0
 40
2.0
 40
3.0
 40
3.0
 40
3.0
 40
4.0
 40
4.0
 40
4.0
 40
5.0
 40
5.0
 40
5.0
 40
6.0
 40
6.0
 40
6.0
 40
7.0
 40
7.0
 40
7.0
 40
8.0
 40
8.0
 40
8.0
 40
9.0
 40
9.0
 40
9.0
 40
10.0
 40
10.0
 40
10.0
 40
10.0
 10
180.97499999999999
 20
575.73333333333323
 30
0.0
 10
180.62222222222221
 20
567.79583333333323
 30
0.0
 10
180.97499999999999
 20
559.97581108940972
 30
0.0
 10
180.97499999999999
 20
552.09722222222217
 30
0.0
 10
180.97499999999999
 20
552.09722222222217
 30
0.0
 10
180.97499999999999
 20
535.86944444444441
 30
0.0
 10
180.97499999999999
 20
535.86944444444441
 30
0.0
 10
180.97499999999999
 20
535.86944444444441
 30
0.0
 10
180.97499999999999
 20
522.11111111111109
 30
0.0
 10
180.97499999999999
 20
522.11111111111109
 30
0.0
 10
180.97499999999999
 20
520.17083333333323
 30
0.0
 10
180.50474446614581
 20
517.64247775607635
 30
0.0
 10
181.03391113281248
 20
515.76111111111106
 30
0.0
 10
181.56307779947915
 20
514.17361111111109
 30
0.0
 10
186.67835557725692
 20
514.11469997829852
 30
0.0
 10
187.61886664496527
 20
515.29085557725693
 30
0.0
 10
188.38333333333333
 20
516.17280002170139
 30
0.0
 10
188.03055555555554
 20
518.17164442274304
 30
0.0
 10
188.03055555555554
 20
519.28888888888889
 30
0.0
 10
188.03055555555554
 20
519.28888888888889
 30
0.0
 10
188.03055555555554
 20
529.16666666666663
 30
0.0
 10
188.03055555555554
 20
529.16666666666663
 30
0.0
 10
188.03055555555554
 20
539.98530002170139
 30
0.0
 10
187.67777777777775
 20
550.74502224392359
 30
0.0
 10
187.67777777777775
 20
561.62222222222215
 30
0.0
 10
187.67777777777775
 20
565.03252224392361
 30
0.0
 10
188.97141113281248
 20
571.79386664496519
 30
0.0
 10
187.44247775607639
 20
574.91030002170135
 30
0.0
 10
186.67835557725692
 20
576.43888888888887
 30
0.0
 10
182.38611111111109
 20
575.73333333333323
 30
0.0
 10
180.97499999999999
 20
575.73333333333323
 30
0.0
  0
SPLINE
  5
47
100
AcDbEntity
  8
LAYER_1
 62
     7
100
AcDbSpline
210
0.0
220
0.0
230
1.0
 70
     8
 71
     3
 72
    11
 73
     7
 74
     0
 42
0.00000001
 43
0.00000001
 40
0.0
 40
0.0
 40
0.0
 40
0.0
 40
1.0
 40
1.0
 40
1.0
 40
2.0
 40
2.0
 40
2.0
 40
2.0
 10
18.050577799479164
 20
554.62557779947906
 30
0.0
 10
15.933911132812499
 20
553.80219997829852
 30
0.0
 10
16.580555555555556
 20
549.92164442274304
 30
0.0
 10
18.9910888671875
 20
550.62719997829856
 30
0.0
 10
21.636922200520832
 20
551.39166666666665
 30
0.0
 10
20.637499999999999
 20
555.625
 30
0.0
 10
18.050577799479164
 20
554.62557779947906
 30
0.0
  0
SPLINE
  5
46
100
AcDbEntity
  8
LAYER_1
 62
     7
100
AcDbSpline
210
0.0
220
0.0
230
1.0
 70
     8
 71
     3
 72
    11
 73
     7
 74
     0
 42
0.00000001
 43
0.00000001
 40
0.0
 40
0.0
 40
0.0
 40
0.0
 40
1.0
 40
1.0
 40
1.0
 40
2.0
 40
2.0
 40
2.0
 40
2.0
 10
110.06666666666666
 20
554.62557779947906
 30
0.0
 10
107.65613335503471
 20
553.68472222222215
 30
0.0
 10
108.94942220052083
 20
549.9805555555555
 30
0.0
 10
111.41886664496526
 20
550.86249999999995
 30
0.0
 10
113.88831108940971
 20
551.74444444444441
 30
0.0
 10
112.5361111111111
 20
555.56608886718743
 30
0.0
 10
110.06666666666666
 20
554.62557779947906
 30
0.0
  0
SPLINE
  5
45
100
AcDbEntity
  8
LAYER_1
 62
     7
100
AcDbSpline
210
0.0
220
0.0
230
1.0
 70
     8
 71
     3
 72
    50
 73
    46
 74
     0
 42
0.00000001
 43
0.00000001
 40
0.0
 40
0.0
 40
0.0
 40
0.0
 40
1.0
 40
1.0
 40
1.0
 40
2.0
 40
2.0
 40
2.0
 40
3.0
 40
3.0
 40
3.0
 40
4.0
 40
4.0
 40
4.0
 40
5.0
 40
5.0
 40
5.0
 40
6.0
 40
6.0
 40
6.0
 40
7.0
 40
7.0
 40
7.0
 40
8.0
 40
8.0
 40
8.0
 40
9.0
 40
9.0
 40
9.0
 40
10.0
 40
10.0
 40
10.0
 40
11.0
 40
11.0
 40
11.0
 40
12.0
 40
12.0
 40
12.0
 40
13.0
 40
13.0
 40
13.0
 40
14.0
 40
14.0
 40
14.0
 40
15.0
 40
15.0
 40
15.0
 40
15.0
 10
225.42499999999998
 20
551.45057779947911
 30
0.0
 10
221.89722222222221
 20
550.09803331163187
 30
0.0
 10
223.30833333333331
 20
543.10138888888889
 30
0.0
 10
223.30833333333331
 20
540.10277777777776
 30
0.0
 10
223.30833333333331
 20
540.10277777777776
 30
0.0
 10
223.30833333333331
 20
504.47222222222217
 30
0.0
 10
223.30833333333331
 20
504.47222222222217
 30
0.0
 10
223.30833333333331
 20
501.47361111111104
 30
0.0
 10
221.89722222222221
 20
492.06608886718743
 30
0.0
 10
227.48275553385415
 20
493.35972222222216
 30
0.0
 10
232.59803331163192
 20
494.53553331163192
 30
0.0
 10
230.71666666666664
 20
504.17835557725692
 30
0.0
 10
234.24444444444441
 20
507.176966688368
 30
0.0
 10
238.18391113281248
 20
510.52835557725689
 30
0.0
 10
244.29861111111109
 20
509.70497775607635
 30
0.0
 10
249.06111111111107
 20
509.76388888888886
 30
0.0
 10
251.58946668836802
 20
509.76388888888886
 30
0.0
 10
254.94085557725691
 20
509.58749999999998
 30
0.0
 10
256.29305555555555
 20
512.23333333333323
 30
0.0
 10
257.35138888888889
 20
514.23252224392354
 30
0.0
 10
256.82222222222219
 20
517.34861111111104
 30
0.0
 10
256.76331108940968
 20
519.64166666666665
 30
0.0
 10
256.76331108940968
 20
521.46446668836802
 30
0.0
 10
256.82222222222219
 20
524.28668891059021
 30
0.0
 10
255.70497775607637
 20
525.87418891059019
 30
0.0
 10
253.70613335503469
 20
528.57858886718748
 30
0.0
 10
245.41585557725693
 20
527.69664442274302
 30
0.0
 10
242.35833333333332
 20
527.34386664496526
 30
0.0
 10
240.77083333333331
 20
527.10891113281241
 30
0.0
 10
239.24224446614582
 20
525.81527777777774
 30
0.0
 10
237.83113335503469
 20
527.10891113281241
 30
0.0
 10
236.53749999999997
 20
528.40219997829854
 30
0.0
 10
237.06666666666663
 20
530.989466688368
 30
0.0
 10
236.94918891059027
 20
532.69444444444434
 30
0.0
 10
236.65497775607636
 20
536.92777777777769
 30
0.0
 10
236.71388888888887
 20
541.10219997829859
 30
0.0
 10
236.71388888888887
 20
545.39444444444439
 30
0.0
 10
236.71388888888887
 20
547.21724446614576
 30
0.0
 10
236.94918891059027
 20
549.4513888888888
 30
0.0
 10
235.47916666666666
 20
550.8035888671875
 30
0.0
 10
234.00914442274302
 20
552.15613335503463
 30
0.0
 10
231.4811333550347
 20
551.74444444444441
 30
0.0
 10
229.6583333333333
 20
551.74444444444441
 30
0.0
 10
228.30613335503469
 20
551.74444444444441
 30
0.0
 10
226.6597222222222
 20
551.92083333333323
 30
0.0
 10
225.42499999999998
 20
551.45057779947911
 30
0.0
  0
SPLINE
  5
44
100
AcDbEntity
  8
LAYER_1
 62
     7
100
AcDbSpline
210
0.0
220
0.0
230
1.0
 70
     8
 71
     3
 72
    53
 73
    49
 74
     0
 42
0.00000001
 43
0.00000001
 40
0.0
 40
0.0
 40
0.0
 40
0.0
 40
1.0
 40
1.0
 40
1.0
 40
2.0
 40
2.0
 40
2.0
 40
3.0
 40
3.0
 40
3.0
 40
4.0
 40
4.0
 40
4.0
 40
5.0
 40
5.0
 40
5.0
 40
6.0
 40
6.0
 40
6.0
 40
7.0
 40
7.0
 40
7.0
 40
8.0
 40
8.0
 40
8.0
 40
9.0
 40
9.0
 40
9.0
 40
10.0
 40
10.0
 40
10.0
 40
11.0
 40
11.0
 40
11.0
 40
12.0
 40
12.0
 40
12.0
 40
13.0
 40
13.0
 40
13.0
 40
14.0
 40
14.0
 40
14.0
 40
15.0
 40
15.0
 40
15.0
 40
16.0
 40
16.0
 40
16.0
 40
16.0
 10
393.34722222222217
 20
551.56805555555547
 30
0.0
 10
389.64305555555552
 20
551.09780002170135
 30
0.0
 10
385.76249999999999
 20
551.39166666666665
 30
0.0
 10
382.05833333333328
 20
551.39166666666665
 30
0.0
 10
380.35335557725693
 20
551.33275553385408
 30
0.0
 10
378.17777777777775
 20
551.56805555555547
 30
0.0
 10
376.88414442274302
 20
550.21585557725689
 30
0.0
 10
374.64999999999998
 20
547.86388888888882
 30
0.0
 10
376.06111111111107
 20
540.33807779947915
 30
0.0
 10
376.06111111111107
 20
537.28055555555545
 30
0.0
 10
376.06111111111107
 20
527.10891113281241
 30
0.0
 10
376.41388888888883
 20
517.05474446614573
 30
0.0
 10
376.41388888888883
 20
506.94166666666661
 30
0.0
 10
376.41388888888883
 20
503.64918891059023
 30
0.0
 10
375.17916666666662
 20
497.47557779947914
 30
0.0
 10
376.82557779947911
 20
494.59444444444438
 30
0.0
 10
378.11886664496524
 20
492.24247775607637
 30
0.0
 10
381.23530002170133
 20
492.94803331163189
 30
0.0
 10
383.46944444444443
 20
492.77164442274301
 30
0.0
 10
385.93888888888887
 20
492.59525553385413
 30
0.0
 10
388.4083333333333
 20
491.47835557725688
 30
0.0
 10
390.05474446614579
 20
489.596644422743
 30
0.0
 10
392.81805555555553
 20
486.42164442274299
 30
0.0
 10
392.64166666666665
 20
482.65891113281248
 30
0.0
 10
392.64166666666665
 20
478.71944444444438
 30
0.0
 10
392.64166666666665
 20
476.54386664496525
 30
0.0
 10
392.34780002170135
 20
473.78055555555551
 30
0.0
 10
394.46446668836802
 20
472.42835557725692
 30
0.0
 10
396.40474446614581
 20
471.25219997829856
 30
0.0
 10
399.22696668836801
 20
471.60497775607632
 30
0.0
 10
401.46111111111105
 20
471.66388888888883
 30
0.0
 10
403.16608886718745
 20
471.66388888888883
 30
0.0
 10
404.98888888888888
 20
471.72280002170135
 30
0.0
 10
406.69386664496523
 20
472.07557779947911
 30
0.0
 10
409.57499999999999
 20
472.66331108940966
 30
0.0
 10
409.51608886718748
 20
475.25057779947912
 30
0.0
 10
409.57499999999999
 20
477.66111111111104
 30
0.0
 10
409.57499999999999
 20
477.66111111111104
 30
0.0
 10
409.57499999999999
 20
494.24166666666662
 30
0.0
 10
409.57499999999999
 20
494.24166666666662
 30
0.0
 10
409.57499999999999
 20
494.24166666666662
 30
0.0
 10
409.57499999999999
 20
529.16666666666663
 30
0.0
 10
409.57499999999999
 20
529.16666666666663
 30
0.0
 10
409.57499999999999
 20
533.98807779947913
 30
0.0
 10
410.33946668836802
 20
541.27858886718741
 30
0.0
 10
408.22280002170135
 20
545.74722222222215
 30
0.0
 10
405.57696668836803
 20
551.27418891059028
 30
0.0
 10
398.87418891059025
 20
552.27361111111111
 30
0.0
 10
393.34722222222217
 20
551.56805555555547
 30
0.0
  0
SPLINE
  5
43
100
AcDbEntity
  8
LAYER_1
 62
     7
100
AcDbSpline
210
0.0
220
0.0
230
1.0
 70
     8
 71
     3
 72
    56
 73
    52
 74
     0
 42
0.00000001
 43
0.00000001
 40
0.0
 40
0.0
 40
0.0
 40
0.0
 40
1.0
 40
1.0
 40
1.0
 40
2.0
 40
2.0
 40
2.0
 40
3.0
 40
3.0
 40
3.0
 40
4.0
 40
4.0
 40
4.0
 40
5.0
 40
5.0
 40
5.0
 40
6.0
 40
6.0
 40
6.0
 40
7.0
 40
7.0
 40
7.0
 40
8.0
 40
8.0
 40
8.0
 40
9.0
 40
9.0
 40
9.0
 40
10.0
 40
10.0
 40
10.0
 40
11.0
 40
11.0
 40
11.0
 40
12.0
 40
12.0
 40
12.0
 40
13.0
 40
13.0
 40
13.0
 40
14.0
 40
14.0
 40
14.0
 40
15.0
 40
15.0
 40
15.0
 40
16.0
 40
16.0
 40
16.0
 40
17.0
 40
17.0
 40
17.0
 40
17.0
 10
81.138888888888886
 20
548.62835557725691
 30
0.0
 10
78.551966688368054
 20
547.98136664496519
 30
0.0
 10
76.082522243923606
 20
545.21805555555545
 30
0.0
 10
74.083333333333329
 20
543.57164442274302
 30
0.0
 10
68.968055555555551
 20
539.57361111111106
 30
0.0
 10
63.911688910590271
 20
535.45775553385408
 30
0.0
 10
58.913888888888884
 20
531.34224446614576
 30
0.0
 10
56.679744466145827
 20
529.51944444444439
 30
0.0
 10
51.858333333333327
 20
524.46307779947915
 30
0.0
 10
50.035533311631937
 20
529.51944444444439
 30
0.0
 10
48.624422200520826
 20
533.22361111111104
 30
0.0
 10
56.50335557725694
 20
534.22303331163187
 30
0.0
 10
55.092244466145829
 20
537.86863335503472
 30
0.0
 10
54.327777777777776
 20
539.80891113281245
 30
0.0
 10
46.978355577256941
 20
539.63252224392352
 30
0.0
 10
45.80219997829861
 20
538.16249999999991
 30
0.0
 10
43.86192220052083
 20
535.69305555555547
 30
0.0
 10
45.155555555555551
 20
528.99027777777769
 30
0.0
 10
45.155555555555551
 20
525.99166666666667
 30
0.0
 10
45.155555555555551
 20
525.99166666666667
 30
0.0
 10
45.155555555555551
 20
492.47777777777776
 30
0.0
 10
45.155555555555551
 20
492.47777777777776
 30
0.0
 10
45.155555555555551
 20
492.47777777777776
 30
0.0
 10
45.155555555555551
 20
482.95277777777773
 30
0.0
 10
45.155555555555551
 20
482.95277777777773
 30
0.0
 10
45.155555555555551
 20
481.83553331163188
 30
0.0
 10
44.861688910590274
 20
480.18946668836799
 30
0.0
 10
45.743633355034717
 20
479.30752224392359
 30
0.0
 10
46.801966688368054
 20
478.19027777777774
 30
0.0
 10
49.388888888888886
 20
478.71944444444438
 30
0.0
 10
50.799999999999997
 20
478.71944444444438
 30
0.0
 10
55.503588867187496
 20
478.71944444444438
 30
0.0
 10
60.618866644965273
 20
478.13136664496523
 30
0.0
 10
65.263888888888886
 20
479.18969997829856
 30
0.0
 10
68.674188910590274
 20
479.95416666666659
 30
0.0
 10
71.4375
 20
482.77638888888885
 30
0.0
 10
74.083333333333329
 20
484.95196668836803
 30
0.0
 10
77.258333333333326
 20
487.59780002170135
 30
0.0
 10
81.256366644965269
 20
490.06724446614578
 30
0.0
 10
83.255555555555546
 20
493.88888888888886
 30
0.0
 10
85.254744466145823
 20
497.76944444444439
 30
0.0
 10
84.666666666666657
 20
502.29664442274299
 30
0.0
 10
84.666666666666657
 20
506.58888888888885
 30
0.0
 10
84.666666666666657
 20
513.64444444444439
 30
0.0
 10
85.019444444444431
 20
520.64108886718748
 30
0.0
 10
85.019444444444431
 20
527.75555555555547
 30
0.0
 10
85.019444444444431
 20
533.04722222222222
 30
0.0
 10
85.489699978298603
 20
538.69166666666661
 30
0.0
 10
84.784144422743054
 20
543.98333333333323
 30
0.0
 10
84.490277777777777
 20
546.09999999999991
 30
0.0
 10
84.313888888888883
 20
549.4513888888888
 30
0.0
 10
81.138888888888886
 20
548.62835557725691
 30
0.0
  0
SPLINE
  5
42
100
AcDbEntity
  8
LAYER_1
 62
     7
100
AcDbSpline
210
0.0
220
0.0
230
1.0
 70
     8
 71
     3
 72
    11
 73
     7
 74
     0
 42
0.00000001
 43
0.00000001
 40
0.0
 40
0.0
 40
0.0
 40
0.0
 40
1.0
 40
1.0
 40
1.0
 40
2.0
 40
2.0
 40
2.0
 40
2.0
 10
17.991666666666664
 20
518.2305555555555
 30
0.0
 10
15.52222222222222
 20
517.28969997829859
 30
0.0
 10
16.815855577256944
 20
513.29166666666663
 30
0.0
 10
19.343866644965274
 20
514.40891113281248
 30
0.0
 10
21.636922200520832
 20
515.46724446614576
 30
0.0
 10
20.402199978298608
 20
519.17141113281241
 30
0.0
 10
17.991666666666664
 20
518.2305555555555
 30
0.0
  0
SPLINE
  5
41
100
AcDbEntity
  8
LAYER_1
 62
     7
100
AcDbSpline
210
0.0
220
0.0
230
1.0
 70
     8
 71
     3
 72
    41
 73
    37
 74
     0
 42
0.00000001
 43
0.00000001
 40
0.0
 40
0.0
 40
0.0
 40
0.0
 40
1.0
 40
1.0
 40
1.0
 40
2.0
 40
2.0
 40
2.0
 40
3.0
 40
3.0
 40
3.0
 40
4.0
 40
4.0
 40
4.0
 40
5.0
 40
5.0
 40
5.0
 40
6.0
 40
6.0
 40
6.0
 40
7.0
 40
7.0
 40
7.0
 40
8.0
 40
8.0
 40
8.0
 40
9.0
 40
9.0
 40
9.0
 40
10.0
 40
10.0
 40
10.0
 40
11.0
 40
11.0
 40
11.0
 40
12.0
 40
12.0
 40
12.0
 40
12.0
 10
244.82777777777775
 20
504.29583333333329
 30
0.0
 10
235.53807779947914
 20
503.06111111111107
 30
0.0
 10
242.06446668836804
 20
492.24247775607637
 30
0.0
 10
237.24305555555554
 20
486.4805555555555
 30
0.0
 10
235.83194444444442
 20
484.71666666666664
 30
0.0
 10
233.65636664496526
 20
483.24664442274303
 30
0.0
 10
231.42222222222219
 20
483.01168891059024
 30
0.0
 10
228.77638888888887
 20
482.65891113281248
 30
0.0
 10
225.36608886718747
 20
483.59942220052079
 30
0.0
 10
223.77858886718747
 20
480.77719997829854
 30
0.0
 10
222.19108886718749
 20
477.83749999999998
 30
0.0
 10
223.30833333333331
 20
472.13414442274302
 30
0.0
 10
223.30833333333331
 20
468.84166666666664
 30
0.0
 10
223.30833333333331
 20
458.6700222439236
 30
0.0
 10
223.6611111111111
 20
448.55694444444441
 30
0.0
 10
223.6611111111111
 20
438.50277777777774
 30
0.0
 10
223.6611111111111
 20
435.15138888888885
 30
0.0
 10
222.24999999999997
 20
427.74305555555554
 30
0.0
 10
224.8369222005208
 20
425.2146999782986
 30
0.0
 10
226.60081108940969
 20
423.56863335503471
 30
0.0
 10
229.54085557725693
 20
424.03888888888883
 30
0.0
 10
231.77499999999998
 20
424.03888888888883
 30
0.0
 10
237.36053331163191
 20
424.03888888888883
 30
0.0
 10
243.12280002170138
 20
423.62719997829856
 30
0.0
 10
248.70833333333331
 20
424.45057779947911
 30
0.0
 10
258.35081108940972
 20
425.92025553385412
 30
0.0
 10
257.17499999999995
 20
436.56249999999994
 30
0.0
 10
257.17499999999995
 20
443.79444444444442
 30
0.0
 10
257.17499999999995
 20
457.90555555555551
 30
0.0
 10
256.82222222222219
 20
472.01666666666665
 30
0.0
 10
256.82222222222219
 20
486.12777777777774
 30
0.0
 10
256.82222222222219
 20
490.36111111111109
 30
0.0
 10
258.40972222222217
 20
499.00416666666661
 30
0.0
 10
255.99918891059025
 20
502.59085557725689
 30
0.0
 10
254.05891113281248
 20
505.471644422743
 30
0.0
 10
247.76747775607637
 20
504.70752224392356
 30
0.0
 10
244.82777777777775
 20
504.29583333333329
 30
0.0
  0
SPLINE
  5
40
100
AcDbEntity
  8
LAYER_1
 62
     7
100
AcDbSpline
210
0.0
220
0.0
230
1.0
 70
     8
 71
     3
 72
    11
 73
     7
 74
     0
 42
0.00000001
 43
0.00000001
 40
0.0
 40
0.0
 40
0.0
 40
0.0
 40
1.0
 40
1.0
 40
1.0
 40
2.0
 40
2.0
 40
2.0
 40
2.0
 10
109.71388888888887
 20
488.30335557725692
 30
0.0
 10
107.53831108940972
 20
487.36249999999995
 30
0.0
 10
109.00833333333333
 20
483.48194444444442
 30
0.0
 10
111.41886664496526
 20
484.71666666666664
 30
0.0
 10
113.82974446614583
 20
485.95138888888886
 30
0.0
 10
112.18333333333332
 20
489.36168891059026
 30
0.0
 10
109.71388888888887
 20
488.30335557725692
 30
0.0
  0
SPLINE
  5
3F
100
AcDbEntity
  8
LAYER_1
 62
     7
100
AcDbSpline
210
0.0
220
0.0
230
1.0
 70
     8
 71
     3
 72
    56
 73
    52
 74
     0
 42
0.00000001
 43
0.00000001
 40
0.0
 40
0.0
 40
0.0
 40
0.0
 40
1.0
 40
1.0
 40
1.0
 40
2.0
 40
2.0
 40
2.0
 40
3.0
 40
3.0
 40
3.0
 40
4.0
 40
4.0
 40
4.0
 40
5.0
 40
5.0
 40
5.0
 40
6.0
 40
6.0
 40
6.0
 40
7.0
 40
7.0
 40
7.0
 40
8.0
 40
8.0
 40
8.0
 40
9.0
 40
9.0
 40
9.0
 40
10.0
 40
10.0
 40
10.0
 40
11.0
 40
11.0
 40
11.0
 40
12.0
 40
12.0
 40
12.0
 40
13.0
 40
13.0
 40
13.0
 40
14.0
 40
14.0
 40
14.0
 40
15.0
 40
15.0
 40
15.0
 40
16.0
 40
16.0
 40
16.0
 40
17.0
 40
17.0
 40
17.0
 40
17.0
 10
80.786111111111097
 20
482.71747775607633
 30
0.0
 10
78.257755533854166
 20
482.30613335503466
 30
0.0
 10
75.964699978298597
 20
479.60138888888883
 30
0.0
 10
74.083333333333329
 20
478.13136664496523
 30
0.0
 10
68.791666666666657
 20
474.0158555772569
 30
0.0
 10
63.735300021701384
 20
469.72361111111104
 30
0.0
 10
58.561111111111103
 20
465.54918891059026
 30
0.0
 10
56.268055555555549
 20
463.72638888888883
 30
0.0
 10
51.917244466145831
 20
458.96388888888885
 30
0.0
 10
49.976966688368051
 20
463.90277777777771
 30
0.0
 10
48.56585557725694
 20
467.54803331163191
 30
0.0
 10
56.561922200520826
 20
468.72418891059021
 30
0.0
 10
54.856944444444437
 20
472.3105333116319
 30
0.0
 10
53.974999999999994
 20
474.13333333333327
 30
0.0
 10
46.919444444444437
 20
474.07442220052081
 30
0.0
 10
45.80219997829861
 20
472.6047444661458
 30
0.0
 10
43.86192220052083
 20
470.19386664496523
 30
0.0
 10
45.155555555555551
 20
463.31469997829856
 30
0.0
 10
45.155555555555551
 20
460.37499999999994
 30
0.0
 10
45.155555555555551
 20
460.37499999999994
 30
0.0
 10
45.155555555555551
 20
426.86111111111109
 30
0.0
 10
45.155555555555551
 20
426.86111111111109
 30
0.0
 10
45.155555555555551
 20
426.86111111111109
 30
0.0
 10
45.155555555555551
 20
417.33611111111105
 30
0.0
 10
45.155555555555551
 20
417.33611111111105
 30
0.0
 10
45.155555555555551
 20
416.21886664496526
 30
0.0
 10
44.861688910590274
 20
414.51388888888886
 30
0.0
 10
45.68472222222222
 20
413.6319444444444
 30
0.0
 10
46.62557779947916
 20
412.69108886718749
 30
0.0
 10
48.506944444444443
 20
413.10277777777776
 30
0.0
 10
49.74166666666666
 20
412.98530002170133
 30
0.0
 10
53.857522243923604
 20
412.63252224392357
 30
0.0
 10
58.620022243923607
 20
412.2208333333333
 30
0.0
 10
62.794444444444437
 20
412.80891113281245
 30
0.0
 10
66.968866644965274
 20
413.45555555555552
 30
0.0
 10
70.202777777777769
 20
416.10138888888883
 30
0.0
 10
73.377777777777766
 20
418.74722222222221
 30
0.0
 10
76.729166666666657
 20
421.5694444444444
 30
0.0
 10
81.138888888888886
 20
424.27418891059023
 30
0.0
 10
83.255555555555546
 20
428.27222222222218
 30
0.0
 10
85.136922200520829
 20
431.85891113281247
 30
0.0
 10
84.666666666666657
 20
435.97442220052079
 30
0.0
 10
84.666666666666657
 20
439.91388888888883
 30
0.0
 10
84.666666666666657
 20
439.91388888888883
 30
0.0
 10
84.666666666666657
 20
460.72777777777776
 30
0.0
 10
84.666666666666657
 20
460.72777777777776
 30
0.0
 10
84.666666666666657
 20
466.78391113281248
 30
0.0
 10
84.843055555555551
 20
472.95752224392356
 30
0.0
 10
84.60775553385416
 20
479.07222222222219
 30
0.0
 10
84.549188910590274
 20
481.18888888888887
 30
0.0
 10
83.138077799479163
 20
483.07025553385409
 30
0.0
 10
80.786111111111097
 20
482.71747775607633
 30
0.0
  0
SPLINE
  5
3E
100
AcDbEntity
  8
LAYER_1
 62
     7
100
AcDbSpline
210
0.0
220
0.0
230
1.0
 70
     8
 71
     3
 72
    44
 73
    40
 74
     0
 42
0.00000001
 43
0.00000001
 40
0.0
 40
0.0
 40
0.0
 40
0.0
 40
1.0
 40
1.0
 40
1.0
 40
2.0
 40
2.0
 40
2.0
 40
3.0
 40
3.0
 40
3.0
 40
4.0
 40
4.0
 40
4.0
 40
5.0
 40
5.0
 40
5.0
 40
6.0
 40
6.0
 40
6.0
 40
7.0
 40
7.0
 40
7.0
 40
8.0
 40
8.0
 40
8.0
 40
9.0
 40
9.0
 40
9.0
 40
10.0
 40
10.0
 40
10.0
 40
11.0
 40
11.0
 40
11.0
 40
12.0
 40
12.0
 40
12.0
 40
13.0
 40
13.0
 40
13.0
 40
13.0
 10
378.88333333333333
 20
482.01192220052081
 30
0.0
 10
374.23831108940971
 20
480.83611111111105
 30
0.0
 10
376.64918891059023
 20
469.84108886718747
 30
0.0
 10
376.70775553385414
 20
466.37222222222221
 30
0.0
 10
376.94305555555553
 20
456.84722222222217
 30
0.0
 10
376.76666666666665
 20
447.26331108940968
 30
0.0
 10
376.76666666666665
 20
437.79722222222216
 30
0.0
 10
376.76666666666665
 20
434.62222222222221
 30
0.0
 10
375.6494222005208
 20
428.91886664496525
 30
0.0
 10
377.17835557725692
 20
426.15555555555551
 30
0.0
 10
378.94224446614578
 20
423.09803331163192
 30
0.0
 10
385.17442220052078
 20
423.62719997829856
 30
0.0
 10
387.99664442274303
 20
424.50914442274302
 30
0.0
 10
390.70138888888886
 20
425.33252224392356
 30
0.0
 10
390.52499999999998
 20
428.44861111111106
 30
0.0
 10
390.52499999999998
 20
430.74166666666662
 30
0.0
 10
390.46608886718747
 20
435.62164442274303
 30
0.0
 10
388.34942220052079
 20
443.79444444444442
 30
0.0
 10
390.64247775607635
 20
448.32164442274302
 30
0.0
 10
391.81863335503471
 20
450.67361111111109
 30
0.0
 10
393.87638888888887
 20
449.26249999999993
 30
0.0
 10
395.81666666666661
 20
449.08611111111105
 30
0.0
 10
398.93275553385411
 20
448.7922444661458
 30
0.0
 10
407.98749999999995
 20
447.73391113281247
 30
0.0
 10
409.51608886718748
 20
451.20277777777773
 30
0.0
 10
410.221644422743
 20
452.73136664496525
 30
0.0
 10
409.92777777777775
 20
454.84803331163192
 30
0.0
 10
409.92777777777775
 20
456.49444444444441
 30
0.0
 10
409.92777777777775
 20
458.84641113281248
 30
0.0
 10
410.39803331163193
 20
462.49166666666662
 30
0.0
 10
408.92835557725692
 20
464.49085557725692
 30
0.0
 10
407.45833333333331
 20
466.48969997829857
 30
0.0
 10
404.34224446614581
 20
466.01944444444439
 30
0.0
 10
402.16666666666663
 20
466.01944444444439
 30
0.0
 10
397.40416666666664
 20
466.01944444444439
 30
0.0
 10
391.40694444444443
 20
465.19641113281244
 30
0.0
 10
387.34999999999997
 20
468.31249999999994
 30
0.0
 10
384.05752224392359
 20
470.8994222005208
 30
0.0
 10
384.88055555555553
 20
483.59942220052079
 30
0.0
 10
378.88333333333333
 20
482.01192220052081
 30
0.0
  0
SPLINE
  5
3D
100
AcDbEntity
  8
LAYER_1
 62
     7
100
AcDbSpline
210
0.0
220
0.0
230
1.0
 70
     8
 71
     3
 72
    11
 73
     7
 74
     0
 42
0.00000001
 43
0.00000001
 40
0.0
 40
0.0
 40
0.0
 40
0.0
 40
1.0
 40
1.0
 40
1.0
 40
2.0
 40
2.0
 40
2.0
 40
2.0
 10
17.991666666666664
 20
422.62777777777774
 30
0.0
 10
15.698611111111109
 20
421.98113335503467
 30
0.0
 10
16.463077799479166
 20
417.74780002170132
 30
0.0
 10
18.9910888671875
 20
418.62974446614578
 30
0.0
 10
21.460533311631941
 20
419.51168891059024
 30
0.0
 10
20.461111111111109
 20
423.39224446614577
 30
0.0
 10
17.991666666666664
 20
422.62777777777774
 30
0.0
  0
SPLINE
  5
3C
100
AcDbEntity
  8
LAYER_1
 62
     7
100
AcDbSpline
210
0.0
220
0.0
230
1.0
 70
     8
 71
     3
 72
    11
 73
     7
 74
     0
 42
0.00000001
 43
0.00000001
 40
0.0
 40
0.0
 40
0.0
 40
0.0
 40
1.0
 40
1.0
 40
1.0
 40
2.0
 40
2.0
 40
2.0
 40
2.0
 10
110.06666666666666
 20
422.68668891059025
 30
0.0
 10
107.59722222222221
 20
421.80474446614579
 30
0.0
 10
108.89085557725693
 20
417.98275553385412
 30
0.0
 10
111.41886664496526
 20
418.92361111111109
 30
0.0
 10
113.77083333333333
 20
419.80555555555554
 30
0.0
 10
112.41863335503471
 20
423.50972222222219
 30
0.0
 10
110.06666666666666
 20
422.68668891059025
 30
0.0
  0
SPLINE
  5
3B
100
AcDbEntity
  8
LAYER_1
 62
     7
100
AcDbSpline
210
0.0
220
0.0
230
1.0
 70
     8
 71
     3
 72
    47
 73
    43
 74
     0
 42
0.00000001
 43
0.00000001
 40
0.0
 40
0.0
 40
0.0
 40
0.0
 40
1.0
 40
1.0
 40
1.0
 40
2.0
 40
2.0
 40
2.0
 40
3.0
 40
3.0
 40
3.0
 40
4.0
 40
4.0
 40
4.0
 40
5.0
 40
5.0
 40
5.0
 40
6.0
 40
6.0
 40
6.0
 40
7.0
 40
7.0
 40
7.0
 40
8.0
 40
8.0
 40
8.0
 40
9.0
 40
9.0
 40
9.0
 40
10.0
 40
10.0
 40
10.0
 40
11.0
 40
11.0
 40
11.0
 40
12.0
 40
12.0
 40
12.0
 40
13.0
 40
13.0
 40
13.0
 40
14.0
 40
14.0
 40
14.0
 40
14.0
 10
226.83611111111108
 20
419.62916666666661
 30
0.0
 10
222.1325222439236
 20
418.62974446614578
 30
0.0
 10
223.6611111111111
 20
412.10335557725693
 30
0.0
 10
223.6611111111111
 20
408.51666666666665
 30
0.0
 10
223.6611111111111
 20
396.63969997829855
 30
0.0
 10
223.48472222222219
 20
384.70416666666665
 30
0.0
 10
223.6611111111111
 20
372.88611111111106
 30
0.0
 10
223.6611111111111
 20
369.59363335503468
 30
0.0
 10
222.66168891059027
 20
360.42141113281247
 30
0.0
 10
227.83553331163193
 20
361.30335557725692
 30
0.0
 10
233.06863335503471
 20
362.18530002170138
 30
0.0
 10
231.06944444444443
 20
372.18055555555554
 30
0.0
 10
234.65613335503471
 20
375.00277777777774
 30
0.0
 10
238.65416666666664
 20
378.23668891059026
 30
0.0
 10
244.94525553385415
 20
377.41331108940966
 30
0.0
 10
249.76666666666665
 20
377.47222222222217
 30
0.0
 10
252.23611111111109
 20
377.47222222222217
 30
0.0
 10
255.35219997829859
 20
377.29583333333329
 30
0.0
 10
256.70474446614583
 20
379.94166666666661
 30
0.0
 10
257.70416666666665
 20
381.94085557725691
 30
0.0
 10
257.17499999999995
 20
385.11585557725692
 30
0.0
 10
257.17499999999995
 20
387.34999999999997
 30
0.0
 10
257.17499999999995
 20
389.29027777777776
 30
0.0
 10
257.41030002170135
 20
391.93611111111107
 30
0.0
 10
256.17557779947913
 20
393.64108886718748
 30
0.0
 10
254.23530002170136
 20
396.3458333333333
 30
0.0
 10
245.70972222222221
 20
395.34641113281248
 30
0.0
 10
242.71111111111108
 20
395.05219997829857
 30
0.0
 10
241.24108886718747
 20
394.87581108940969
 30
0.0
 10
239.5361111111111
 20
393.64108886718748
 30
0.0
 10
238.24247775607637
 20
394.87581108940969
 30
0.0
 10
236.65497775607636
 20
396.40474446614581
 30
0.0
 10
237.41944444444442
 20
400.16747775607638
 30
0.0
 10
237.41944444444442
 20
402.16666666666663
 30
0.0
 10
237.36053331163191
 20
405.81192220052077
 30
0.0
 10
237.06666666666663
 20
409.39861111111105
 30
0.0
 10
237.06666666666663
 20
413.10277777777776
 30
0.0
 10
237.06666666666663
 20
414.80775553385411
 30
0.0
 10
237.36053331163191
 20
416.92442220052078
 30
0.0
 10
236.18472222222221
 20
418.33553331163193
 30
0.0
 10
234.36192220052081
 20
420.51111111111106
 30
0.0
 10
229.36446668836803
 20
420.1583333333333
 30
0.0
 10
226.83611111111108
 20
419.62916666666661
 30
0.0
  0
SPLINE
  5
3A
100
AcDbEntity
  8
LAYER_1
 62
     7
100
AcDbSpline
210
0.0
220
0.0
230
1.0
 70
     8
 71
     3
 72
    44
 73
    40
 74
     0
 42
0.00000001
 43
0.00000001
 40
0.0
 40
0.0
 40
0.0
 40
0.0
 40
1.0
 40
1.0
 40
1.0
 40
2.0
 40
2.0
 40
2.0
 40
3.0
 40
3.0
 40
3.0
 40
4.0
 40
4.0
 40
4.0
 40
5.0
 40
5.0
 40
5.0
 40
6.0
 40
6.0
 40
6.0
 40
7.0
 40
7.0
 40
7.0
 40
8.0
 40
8.0
 40
8.0
 40
9.0
 40
9.0
 40
9.0
 40
10.0
 40
10.0
 40
10.0
 40
11.0
 40
11.0
 40
11.0
 40
12.0
 40
12.0
 40
12.0
 40
13.0
 40
13.0
 40
13.0
 40
13.0
 10
397.22777777777776
 20
419.62916666666661
 30
0.0
 10
392.64166666666665
 20
419.21747775607633
 30
0.0
 10
387.99664442274303
 20
419.45277777777773
 30
0.0
 10
383.46944444444443
 20
419.45277777777773
 30
0.0
 10
381.52916666666664
 20
419.45277777777773
 30
0.0
 10
379.05972222222221
 20
419.80555555555554
 30
0.0
 10
377.5896999782986
 20
418.21805555555551
 30
0.0
 10
375.3555555555555
 20
415.86608886718744
 30
0.0
 10
376.70775553385414
 20
408.04641113281247
 30
0.0
 10
376.76666666666665
 20
404.98888888888888
 30
0.0
 10
376.82557779947911
 20
394.93472222222221
 30
0.0
 10
376.76666666666665
 20
384.9980333116319
 30
0.0
 10
376.76666666666665
 20
375.00277777777774
 30
0.0
 10
376.76666666666665
 20
371.53391113281248
 30
0.0
 10
375.82581108940968
 20
365.36030002170133
 30
0.0
 10
377.53113335503468
 20
362.30277777777775
 30
0.0
 10
378.7658555772569
 20
360.00972222222219
 30
0.0
 10
381.64664442274301
 20
360.65636664496526
 30
0.0
 10
383.82222222222219
 20
360.42141113281247
 30
0.0
 10
386.52696668836802
 20
360.18611111111107
 30
0.0
 10
388.93749999999994
 20
359.01030002170137
 30
0.0
 10
390.76030002170137
 20
356.95219997829855
 30
0.0
 10
394.99363335503466
 20
352.24861111111107
 30
0.0
 10
390.99525553385411
 20
345.72222222222217
 30
0.0
 10
394.05277777777775
 20
341.13611111111106
 30
0.0
 10
395.93414442274303
 20
338.25497775607636
 30
0.0
 10
402.63692220052081
 20
339.0783555772569
 30
0.0
 10
405.6944444444444
 20
339.43113335503472
 30
0.0
 10
413.39664442274301
 20
340.19525553385415
 30
0.0
 10
410.98611111111109
 20
352.95416666666665
 30
0.0
 10
410.98611111111109
 20
358.77499999999998
 30
0.0
 10
410.98611111111109
 20
369.6521999782986
 30
0.0
 10
410.28055555555551
 20
380.64722222222218
 30
0.0
 10
410.28055555555551
 20
391.58333333333331
 30
0.0
 10
410.221644422743
 20
397.7569444444444
 30
0.0
 10
411.39780002170136
 20
405.28275553385413
 30
0.0
 10
409.92777777777775
 20
411.33888888888885
 30
0.0
 10
408.45775553385414
 20
417.33611111111105
 30
0.0
 10
403.1075222439236
 20
420.09942220052079
 30
0.0
 10
397.22777777777776
 20
419.62916666666661
 30
0.0
  0
SPLINE
  5
39
100
AcDbEntity
  8
LAYER_1
 62
     7
100
AcDbSpline
210
0.0
220
0.0
230
1.0
 70
     8
 71
     3
 72
    56
 73
    52
 74
     0
 42
0.00000001
 43
0.00000001
 40
0.0
 40
0.0
 40
0.0
 40
0.0
 40
1.0
 40
1.0
 40
1.0
 40
2.0
 40
2.0
 40
2.0
 40
3.0
 40
3.0
 40
3.0
 40
4.0
 40
4.0
 40
4.0
 40
5.0
 40
5.0
 40
5.0
 40
6.0
 40
6.0
 40
6.0
 40
7.0
 40
7.0
 40
7.0
 40
8.0
 40
8.0
 40
8.0
 40
9.0
 40
9.0
 40
9.0
 40
10.0
 40
10.0
 40
10.0
 40
11.0
 40
11.0
 40
11.0
 40
12.0
 40
12.0
 40
12.0
 40
13.0
 40
13.0
 40
13.0
 40
14.0
 40
14.0
 40
14.0
 40
15.0
 40
15.0
 40
15.0
 40
16.0
 40
16.0
 40
16.0
 40
17.0
 40
17.0
 40
17.0
 40
17.0
 10
79.727777777777774
 20
416.27777777777771
 30
0.0
 10
77.140855577256943
 20
415.27835557725689
 30
0.0
 10
74.788888888888877
 20
412.74999999999994
 30
0.0
 10
72.672222222222217
 20
411.0450222439236
 30
0.0
 10
67.909722222222214
 20
407.22303331163192
 30
0.0
 10
63.206133355034716
 20
403.34247775607633
 30
0.0
 10
58.561111111111103
 20
399.4619222005208
 30
0.0
 10
56.209144422743051
 20
397.52164442274301
 30
0.0
 10
51.975811089409717
 20
392.81805555555553
 30
0.0
 10
49.800577799479164
 20
397.58055555555552
 30
0.0
 10
48.095255533854164
 20
401.28472222222217
 30
0.0
 10
56.797222222222217
 20
402.63692220052081
 30
0.0
 10
54.621644422743053
 20
406.28252224392355
 30
0.0
 10
53.50474446614583
 20
408.16388888888883
 30
0.0
 10
46.62557779947916
 20
408.10497775607638
 30
0.0
 10
45.508333333333326
 20
406.28252224392355
 30
0.0
 10
43.86192220052083
 20
403.57777777777773
 30
0.0
 10
45.155555555555551
 20
396.81608886718749
 30
0.0
 10
45.155555555555551
 20
393.69999999999999
 30
0.0
 10
45.155555555555551
 20
393.69999999999999
 30
0.0
 10
45.155555555555551
 20
361.24444444444441
 30
0.0
 10
45.155555555555551
 20
361.24444444444441
 30
0.0
 10
45.155555555555551
 20
357.95196668836803
 30
0.0
 10
45.214466688368049
 20
354.60057779947914
 30
0.0
 10
45.096644422743054
 20
351.36666666666662
 30
0.0
 10
45.096644422743054
 20
350.19085557725691
 30
0.0
 10
44.567477756076386
 20
348.60335557725693
 30
0.0
 10
45.390855577256943
 20
347.60358886718745
 30
0.0
 10
46.449188910590273
 20
346.31030002170138
 30
0.0
 10
48.918633355034714
 20
346.78055555555551
 30
0.0
 10
50.447222222222216
 20
346.78055555555551
 30
0.0
 10
55.092244466145829
 20
346.78055555555551
 30
0.0
 10
60.736688910590274
 20
345.6047444661458
 30
0.0
 10
65.263888888888886
 20
347.07442220052081
 30
0.0
 10
68.3214111328125
 20
348.07418891059024
 30
0.0
 10
70.908333333333331
 20
350.54363335503467
 30
0.0
 10
73.377777777777766
 20
352.60138888888883
 30
0.0
 10
76.788077799479154
 20
355.4825222439236
 30
0.0
 10
81.021411132812489
 20
358.18692220052083
 30
0.0
 10
83.138077799479163
 20
362.30277777777775
 30
0.0
 10
85.019444444444431
 20
366.0069444444444
 30
0.0
 10
84.666666666666657
 20
370.18136664496524
 30
0.0
 10
84.666666666666657
 20
374.29722222222216
 30
0.0
 10
84.666666666666657
 20
374.29722222222216
 30
0.0
 10
84.666666666666657
 20
395.11111111111109
 30
0.0
 10
84.666666666666657
 20
395.11111111111109
 30
0.0
 10
84.666666666666657
 20
401.04942220052078
 30
0.0
 10
85.607522243923597
 20
407.92858886718744
 30
0.0
 10
84.549188910590274
 20
413.74942220052077
 30
0.0
 10
84.137499999999989
 20
416.04247775607632
 30
0.0
 10
81.785533311631937
 20
417.10081108940966
 30
0.0
 10
79.727777777777774
 20
416.27777777777771
 30
0.0
  0
SPLINE
  5
38
100
AcDbEntity
  8
LAYER_1
 62
     7
100
AcDbSpline
210
0.0
220
0.0
230
1.0
 70
     8
 71
     3
 72
    11
 73
     7
 74
     0
 42
0.00000001
 43
0.00000001
 40
0.0
 40
0.0
 40
0.0
 40
0.0
 40
1.0
 40
1.0
 40
1.0
 40
2.0
 40
2.0
 40
2.0
 40
2.0
 10
17.638888888888886
 20
385.99780002170138
 30
0.0
 10
15.110533311631944
 20
384.9980333116319
 30
0.0
 10
16.815855577256944
 20
381.17638888888888
 30
0.0
 10
19.285300021701389
 20
382.29363335503467
 30
0.0
 10
21.519444444444442
 20
383.2930555555555
 30
0.0
 10
19.931944444444444
 20
386.87974446614578
 30
0.0
 10
17.638888888888886
 20
385.99780002170138
 30
0.0
  0
SPLINE
  5
37
100
AcDbEntity
  8
LAYER_1
 62
     7
100
AcDbSpline
210
0.0
220
0.0
230
1.0
 70
     8
 71
     3
 72
    44
 73
    40
 74
     0
 42
0.00000001
 43
0.00000001
 40
0.0
 40
0.0
 40
0.0
 40
0.0
 40
1.0
 40
1.0
 40
1.0
 40
2.0
 40
2.0
 40
2.0
 40
3.0
 40
3.0
 40
3.0
 40
4.0
 40
4.0
 40
4.0
 40
5.0
 40
5.0
 40
5.0
 40
6.0
 40
6.0
 40
6.0
 40
7.0
 40
7.0
 40
7.0
 40
8.0
 40
8.0
 40
8.0
 40
9.0
 40
9.0
 40
9.0
 40
10.0
 40
10.0
 40
10.0
 40
11.0
 40
11.0
 40
11.0
 40
12.0
 40
12.0
 40
12.0
 40
13.0
 40
13.0
 40
13.0
 40
13.0
 10
243.06388888888887
 20
371.94525553385415
 30
0.0
 10
240.12418891059025
 20
371.23969997829857
 30
0.0
 10
239.88888888888886
 20
368.71168891059023
 30
0.0
 10
239.88888888888886
 20
366.18333333333328
 30
0.0
 10
239.82997775607637
 20
362.06747775607636
 30
0.0
 10
240.41805555555553
 20
357.89305555555552
 30
0.0
 10
237.65474446614581
 20
354.54166666666663
 30
0.0
 10
236.00833333333333
 20
352.54247775607638
 30
0.0
 10
233.95057779947913
 20
351.19027777777774
 30
0.0
 10
231.42222222222219
 20
350.83749999999998
 30
0.0
 10
229.12916666666663
 20
350.54363335503467
 30
0.0
 10
225.66030002170137
 20
351.30775553385416
 30
0.0
 10
224.36666666666665
 20
348.83831108940967
 30
0.0
 10
222.77916666666664
 20
345.95752224392356
 30
0.0
 10
224.01388888888886
 20
339.78391113281248
 30
0.0
 10
224.01388888888886
 20
336.54999999999995
 30
0.0
 10
224.01388888888886
 20
336.54999999999995
 30
0.0
 10
224.01388888888886
 20
306.21111111111111
 30
0.0
 10
224.01388888888886
 20
306.21111111111111
 30
0.0
 10
224.01388888888886
 20
302.85972222222222
 30
0.0
 10
222.66168891059027
 20
295.80416666666662
 30
0.0
 10
225.13113335503471
 20
293.21724446614581
 30
0.0
 10
226.7771999782986
 20
291.51192220052081
 30
0.0
 10
229.89363335503469
 20
291.74722222222221
 30
0.0
 10
232.12777777777777
 20
291.74722222222221
 30
0.0
 10
237.83113335503469
 20
291.68831108940969
 30
0.0
 10
244.47499999999997
 20
290.86527777777775
 30
0.0
 10
250.11944444444441
 20
292.39386664496527
 30
0.0
 10
259.23275553385412
 20
294.86331108940971
 30
0.0
 10
257.52777777777777
 20
305.68194444444441
 30
0.0
 10
257.52777777777777
 20
312.91388888888883
 30
0.0
 10
257.52777777777777
 20
327.20138888888886
 30
0.0
 10
257.93946668836804
 20
341.66527777777776
 30
0.0
 10
257.17499999999995
 20
355.95277777777773
 30
0.0
 10
256.99861111111107
 20
359.83333333333331
 30
0.0
 10
258.70358886718748
 20
367.4180555555555
 30
0.0
 10
256.17557779947913
 20
370.65196668836802
 30
0.0
 10
254.23530002170136
 20
373.23888888888888
 30
0.0
 10
245.9450222439236
 20
372.65081108940967
 30
0.0
 10
243.06388888888887
 20
371.94525553385415
 30
0.0
  0
SPLINE
  5
36
100
AcDbEntity
  8
LAYER_1
 62
     7
100
AcDbSpline
210
0.0
220
0.0
230
1.0
 70
     8
 71
     3
 72
    11
 73
     7
 74
     0
 42
0.00000001
 43
0.00000001
 40
0.0
 40
0.0
 40
0.0
 40
0.0
 40
1.0
 40
1.0
 40
1.0
 40
2.0
 40
2.0
 40
2.0
 40
2.0
 10
109.71388888888887
 20
356.71724446614581
 30
0.0
 10
107.30335557725694
 20
355.83530002170136
 30
0.0
 10
108.53807779947915
 20
351.89583333333331
 30
0.0
 10
111.06608886718749
 20
352.71886664496526
 30
0.0
 10
113.47696668836805
 20
353.5422444661458
 30
0.0
 10
112.24224446614582
 20
357.59918891059027
 30
0.0
 10
109.71388888888887
 20
356.71724446614581
 30
0.0
  0
SPLINE
  5
35
100
AcDbEntity
  8
LAYER_1
 62
     7
100
AcDbSpline
210
0.0
220
0.0
230
1.0
 70
     8
 71
     3
 72
    59
 73
    55
 74
     0
 42
0.00000001
 43
0.00000001
 40
0.0
 40
0.0
 40
0.0
 40
0.0
 40
1.0
 40
1.0
 40
1.0
 40
2.0
 40
2.0
 40
2.0
 40
3.0
 40
3.0
 40
3.0
 40
4.0
 40
4.0
 40
4.0
 40
5.0
 40
5.0
 40
5.0
 40
6.0
 40
6.0
 40
6.0
 40
7.0
 40
7.0
 40
7.0
 40
8.0
 40
8.0
 40
8.0
 40
9.0
 40
9.0
 40
9.0
 40
10.0
 40
10.0
 40
10.0
 40
11.0
 40
11.0
 40
11.0
 40
12.0
 40
12.0
 40
12.0
 40
13.0
 40
13.0
 40
13.0
 40
14.0
 40
14.0
 40
14.0
 40
15.0
 40
15.0
 40
15.0
 40
16.0
 40
16.0
 40
16.0
 40
17.0
 40
17.0
 40
17.0
 40
18.0
 40
18.0
 40
18.0
 40
18.0
 10
79.727777777777774
 20
350.72002224392355
 30
0.0
 10
77.023033311631934
 20
349.77916666666664
 30
0.0
 10
74.436111111111103
 20
346.95694444444439
 30
0.0
 10
72.319444444444443
 20
345.13414442274302
 30
0.0
 10
67.615855577256937
 20
341.25358886718749
 30
0.0
 10
62.911922200520827
 20
337.49085557725692
 30
0.0
 10
58.208333333333329
 20
333.66886664496525
 30
0.0
 10
56.032755533854164
 20
332.02280002170136
 30
0.0
 10
51.505555555555553
 20
326.96608886718747
 30
0.0
 10
49.74166666666666
 20
331.96388888888885
 30
0.0
 10
48.506944444444443
 20
335.49166666666662
 30
0.0
 10
56.209144422743051
 20
336.72638888888883
 30
0.0
 10
54.739466688368047
 20
340.37164442274303
 30
0.0
 10
54.033911132812499
 20
342.13553331163189
 30
0.0
 10
46.507755533854166
 20
342.13553331163189
 30
0.0
 10
45.508333333333326
 20
340.66585557725693
 30
0.0
 10
44.802777777777777
 20
339.66608886718745
 30
0.0
 10
45.155555555555551
 20
338.02002224392356
 30
0.0
 10
45.096644422743054
 20
336.90277777777777
 30
0.0
 10
44.979166666666664
 20
333.90416666666664
 30
0.0
 10
44.802777777777777
 20
331.02303331163193
 30
0.0
 10
44.802777777777777
 20
328.08333333333331
 30
0.0
 10
44.802777777777777
 20
328.08333333333331
 30
0.0
 10
44.802777777777777
 20
295.27499999999998
 30
0.0
 10
44.802777777777777
 20
295.27499999999998
 30
0.0
 10
44.802777777777777
 20
295.27499999999998
 30
0.0
 10
44.802777777777777
 20
285.75
 30
0.0
 10
44.802777777777777
 20
285.75
 30
0.0
 10
44.802777777777777
 20
284.51527777777773
 30
0.0
 10
44.449999999999996
 20
282.6339111328125
 30
0.0
 10
45.331944444444439
 20
281.69305555555553
 30
0.0
 10
46.507755533854166
 20
280.3994222005208
 30
0.0
 10
48.918633355034714
 20
280.81111111111107
 30
0.0
 10
50.447222222222216
 20
280.81111111111107
 30
0.0
 10
54.974422200520827
 20
280.81111111111107
 30
0.0
 10
60.442477756076386
 20
279.98807779947913
 30
0.0
 10
64.911111111111111
 20
281.28136664496526
 30
0.0
 10
68.262499999999989
 20
282.28113335503468
 30
0.0
 10
70.67303331163194
 20
284.63275553385415
 30
0.0
 10
73.377777777777766
 20
286.80833333333328
 30
0.0
 10
76.846644422743054
 20
289.68946668836804
 30
0.0
 10
81.079977756076389
 20
292.45277777777773
 30
0.0
 10
83.196644422743049
 20
296.68611111111107
 30
0.0
 10
85.078355577256943
 20
300.50775553385415
 30
0.0
 10
84.666666666666657
 20
304.85891113281247
 30
0.0
 10
84.666666666666657
 20
309.0333333333333
 30
0.0
 10
84.666666666666657
 20
309.0333333333333
 30
0.0
 10
84.666666666666657
 20
329.49444444444441
 30
0.0
 10
84.666666666666657
 20
329.49444444444441
 30
0.0
 10
84.666666666666657
 20
335.43275553385416
 30
0.0
 10
85.37222222222222
 20
341.90057779947915
 30
0.0
 10
84.549188910590274
 20
347.83888888888885
 30
0.0
 10
84.254977756076386
 20
350.19085557725691
 30
0.0
 10
81.961922200520831
 20
351.5430555555555
 30
0.0
 10
79.727777777777774
 20
350.72002224392355
 30
0.0
  0
SPLINE
  5
34
100
AcDbEntity
  8
LAYER_1
 62
     7
100
AcDbSpline
210
0.0
220
0.0
230
1.0
 70
     8
 71
     3
 72
    50
 73
    46
 74
     0
 42
0.00000001
 43
0.00000001
 40
0.0
 40
0.0
 40
0.0
 40
0.0
 40
1.0
 40
1.0
 40
1.0
 40
2.0
 40
2.0
 40
2.0
 40
3.0
 40
3.0
 40
3.0
 40
4.0
 40
4.0
 40
4.0
 40
5.0
 40
5.0
 40
5.0
 40
6.0
 40
6.0
 40
6.0
 40
7.0
 40
7.0
 40
7.0
 40
8.0
 40
8.0
 40
8.0
 40
9.0
 40
9.0
 40
9.0
 40
10.0
 40
10.0
 40
10.0
 40
11.0
 40
11.0
 40
11.0
 40
12.0
 40
12.0
 40
12.0
 40
13.0
 40
13.0
 40
13.0
 40
14.0
 40
14.0
 40
14.0
 40
15.0
 40
15.0
 40
15.0
 40
15.0
 10
379.58888888888885
 20
350.07303331163189
 30
0.0
 10
377.41331108940966
 20
349.48530002170133
 30
0.0
 10
377.47222222222217
 20
347.5450222439236
 30
0.0
 10
377.47222222222217
 20
345.72222222222217
 30
0.0
 10
377.47222222222217
 20
345.72222222222217
 30
0.0
 10
377.47222222222217
 20
334.43333333333328
 30
0.0
 10
377.47222222222217
 20
334.43333333333328
 30
0.0
 10
377.47222222222217
 20
334.43333333333328
 30
0.0
 10
377.47222222222217
 20
304.79999999999995
 30
0.0
 10
377.47222222222217
 20
304.79999999999995
 30
0.0
 10
377.47222222222217
 20
301.86030002170133
 30
0.0
 10
376.35497775607638
 20
295.98055555555555
 30
0.0
 10
378.06030002170138
 20
293.51111111111106
 30
0.0
 10
379.88275553385415
 20
290.86527777777775
 30
0.0
 10
386.05636664496524
 20
291.39444444444445
 30
0.0
 10
388.70219997829855
 20
292.27638888888885
 30
0.0
 10
391.58333333333331
 20
293.1583333333333
 30
0.0
 10
391.2305555555555
 20
296.39224446614583
 30
0.0
 10
391.2305555555555
 20
298.80277777777775
 30
0.0
 10
391.2305555555555
 20
298.80277777777775
 30
0.0
 10
391.2305555555555
 20
311.14999999999998
 30
0.0
 10
391.2305555555555
 20
311.14999999999998
 30
0.0
 10
391.2305555555555
 20
312.67858886718744
 30
0.0
 10
390.81886664496523
 20
314.97164442274305
 30
0.0
 10
391.64224446614583
 20
316.32418891059024
 30
0.0
 10
392.81805555555553
 20
318.44085557725691
 30
0.0
 10
394.75833333333333
 20
316.9708333333333
 30
0.0
 10
396.52222222222218
 20
316.79444444444442
 30
0.0
 10
399.69722222222219
 20
316.44166666666666
 30
0.0
 10
408.98692220052078
 20
315.50081108940969
 30
0.0
 10
410.39803331163193
 20
319.26388888888886
 30
0.0
 10
410.98611111111109
 20
320.79247775607638
 30
0.0
 10
410.63333333333327
 20
322.90914442274305
 30
0.0
 10
410.63333333333327
 20
324.55555555555554
 30
0.0
 10
410.63333333333327
 20
326.73113335503467
 30
0.0
 10
411.16249999999997
 20
329.90613335503468
 30
0.0
 10
410.10416666666663
 20
331.90497775607633
 30
0.0
 10
408.8105333116319
 20
334.31585557725691
 30
0.0
 10
405.87083333333328
 20
334.08055555555552
 30
0.0
 10
403.57777777777773
 20
334.08055555555552
 30
0.0
 10
398.81527777777774
 20
334.08055555555552
 30
0.0
 10
392.81805555555553
 20
333.02222222222218
 30
0.0
 10
388.76111111111106
 20
336.02083333333331
 30
0.0
 10
385.23333333333329
 20
338.66666666666663
 30
0.0
 10
385.99780002170138
 20
351.8369222005208
 30
0.0
 10
379.58888888888885
 20
350.07303331163189
 30
0.0
  0
SPLINE
  5
33
100
AcDbEntity
  8
LAYER_1
 62
     7
100
AcDbSpline
210
0.0
220
0.0
230
1.0
 70
     8
 71
     3
 72
    11
 73
     7
 74
     0
 42
0.00000001
 43
0.00000001
 40
0.0
 40
0.0
 40
0.0
 40
0.0
 40
1.0
 40
1.0
 40
1.0
 40
2.0
 40
2.0
 40
2.0
 40
2.0
 10
110.06666666666666
 20
290.68888888888887
 30
0.0
 10
107.42083333333332
 20
289.98333333333329
 30
0.0
 10
108.42025553385416
 20
285.75
 30
0.0
 10
111.06608886718749
 20
286.69085557725691
 30
0.0
 10
113.24166666666666
 20
287.51388888888886
 30
0.0
 10
112.4771999782986
 20
291.33553331163193
 30
0.0
 10
110.06666666666666
 20
290.68888888888887
 30
0.0
  0
SPLINE
  5
32
100
AcDbEntity
  8
LAYER_1
 62
     7
100
AcDbSpline
210
0.0
220
0.0
230
1.0
 70
     8
 71
     3
 72
    11
 73
     7
 74
     0
 42
0.00000001
 43
0.00000001
 40
0.0
 40
0.0
 40
0.0
 40
0.0
 40
1.0
 40
1.0
 40
1.0
 40
2.0
 40
2.0
 40
2.0
 40
2.0
 10
17.697800021701386
 20
290.39502224392356
 30
0.0
 10
15.63969997829861
 20
289.57164442274302
 30
0.0
 10
16.580555555555556
 20
285.45613335503469
 30
0.0
 10
18.9910888671875
 20
286.33807779947915
 30
0.0
 10
21.401966688368052
 20
287.22002224392361
 30
0.0
 10
20.167244466145831
 20
291.33553331163193
 30
0.0
 10
17.697800021701386
 20
290.39502224392356
 30
0.0
  0
SPLINE
  5
31
100
AcDbEntity
  8
LAYER_1
 62
     7
100
AcDbSpline
210
0.0
220
0.0
230
1.0
 70
     8
 71
     3
 72
    50
 73
    46
 74
     0
 42
0.00000001
 43
0.00000001
 40
0.0
 40
0.0
 40
0.0
 40
0.0
 40
1.0
 40
1.0
 40
1.0
 40
2.0
 40
2.0
 40
2.0
 40
3.0
 40
3.0
 40
3.0
 40
4.0
 40
4.0
 40
4.0
 40
5.0
 40
5.0
 40
5.0
 40
6.0
 40
6.0
 40
6.0
 40
7.0
 40
7.0
 40
7.0
 40
8.0
 40
8.0
 40
8.0
 40
9.0
 40
9.0
 40
9.0
 40
10.0
 40
10.0
 40
10.0
 40
11.0
 40
11.0
 40
11.0
 40
12.0
 40
12.0
 40
12.0
 40
13.0
 40
13.0
 40
13.0
 40
14.0
 40
14.0
 40
14.0
 40
15.0
 40
15.0
 40
15.0
 40
15.0
 10
394.75833333333333
 20
287.69027777777774
 30
0.0
 10
391.05416666666662
 20
287.22002224392361
 30
0.0
 10
387.17361111111109
 20
287.51388888888886
 30
0.0
 10
383.46944444444443
 20
287.51388888888886
 30
0.0
 10
381.82303331163189
 20
287.45497775607635
 30
0.0
 10
379.52997775607633
 20
287.69027777777774
 30
0.0
 10
378.35416666666663
 20
286.27916666666664
 30
0.0
 10
376.41388888888883
 20
283.98611111111109
 30
0.0
 10
377.82499999999999
 20
276.28391113281248
 30
0.0
 10
377.82499999999999
 20
273.40277777777777
 30
0.0
 10
377.82499999999999
 20
273.40277777777777
 30
0.0
 10
377.82499999999999
 20
243.06388888888887
 30
0.0
 10
377.82499999999999
 20
243.06388888888887
 30
0.0
 10
377.82499999999999
 20
239.77141113281249
 30
0.0
 10
376.59027777777777
 20
233.59780002170137
 30
0.0
 10
378.17777777777775
 20
230.71666666666664
 30
0.0
 10
379.41249999999997
 20
228.3646999782986
 30
0.0
 10
382.35219997829859
 20
229.07025553385415
 30
0.0
 10
384.52777777777771
 20
228.89386664496524
 30
0.0
 10
387.05613335503466
 20
228.71747775607636
 30
0.0
 10
389.64305555555552
 20
227.60057779947914
 30
0.0
 10
391.40694444444443
 20
225.66030002170137
 30
0.0
 10
394.22916666666663
 20
222.60277777777776
 30
0.0
 10
394.05277777777775
 20
218.7222222222222
 30
0.0
 10
394.05277777777775
 20
214.84166666666664
 30
0.0
 10
394.05277777777775
 20
212.66608886718748
 30
0.0
 10
393.69999999999999
 20
209.84386664496526
 30
0.0
 10
395.81666666666661
 20
208.49166666666665
 30
0.0
 10
397.52164442274301
 20
207.43333333333331
 30
0.0
 10
399.87361111111107
 20
207.7861111111111
 30
0.0
 10
401.81388888888887
 20
207.7861111111111
 30
0.0
 10
403.40138888888885
 20
207.7861111111111
 30
0.0
 10
405.10636664496525
 20
207.6686333550347
 30
0.0
 10
406.75277777777774
 20
207.90358886718749
 30
0.0
 10
414.10219997829859
 20
208.9619222005208
 30
0.0
 10
411.39780002170136
 20
223.6611111111111
 30
0.0
 10
411.27997775607633
 20
229.30555555555554
 30
0.0
 10
411.16249999999997
 20
241.24108886718747
 30
0.0
 10
410.98611111111109
 20
253.23553331163191
 30
0.0
 10
410.98611111111109
 20
265.28888888888889
 30
0.0
 10
410.98611111111109
 20
270.22777777777776
 30
0.0
 10
412.04444444444442
 20
277.2833333333333
 30
0.0
 10
409.81030002170138
 20
281.86944444444441
 30
0.0
 10
407.1055555555555
 20
287.39641113281249
 30
0.0
 10
400.28530002170135
 20
288.39583333333331
 30
0.0
 10
394.75833333333333
 20
287.69027777777774
 30
0.0
  0
SPLINE
  5
30
100
AcDbEntity
  8
LAYER_1
 62
     7
100
AcDbSpline
210
0.0
220
0.0
230
1.0
 70
     8
 71
     3
 72
    50
 73
    46
 74
     0
 42
0.00000001
 43
0.00000001
 40
0.0
 40
0.0
 40
0.0
 40
0.0
 40
1.0
 40
1.0
 40
1.0
 40
2.0
 40
2.0
 40
2.0
 40
3.0
 40
3.0
 40
3.0
 40
4.0
 40
4.0
 40
4.0
 40
5.0
 40
5.0
 40
5.0
 40
6.0
 40
6.0
 40
6.0
 40
7.0
 40
7.0
 40
7.0
 40
8.0
 40
8.0
 40
8.0
 40
9.0
 40
9.0
 40
9.0
 40
10.0
 40
10.0
 40
10.0
 40
11.0
 40
11.0
 40
11.0
 40
12.0
 40
12.0
 40
12.0
 40
13.0
 40
13.0
 40
13.0
 40
14.0
 40
14.0
 40
14.0
 40
15.0
 40
15.0
 40
15.0
 40
15.0
 10
226.48333333333332
 20
287.27858886718747
 30
0.0
 10
222.54386664496525
 20
285.98530002170133
 30
0.0
 10
224.01388888888886
 20
279.04722222222222
 30
0.0
 10
224.01388888888886
 20
275.87222222222221
 30
0.0
 10
224.01388888888886
 20
264.05416666666662
 30
0.0
 10
224.36666666666665
 20
252.35358886718748
 30
0.0
 10
224.36666666666665
 20
240.59444444444443
 30
0.0
 10
224.36666666666665
 20
237.65474446614581
 30
0.0
 10
222.83807779947915
 20
228.07083333333333
 30
0.0
 10
228.18831108940969
 20
229.18807779947915
 30
0.0
 10
233.12719997829859
 20
230.18749999999997
 30
0.0
 10
231.30474446614582
 20
239.94780002170137
 30
0.0
 10
234.65613335503471
 20
242.82858886718748
 30
0.0
 10
238.53668891059024
 20
246.23888888888888
 30
0.0
 10
244.65138888888887
 20
245.47442220052082
 30
0.0
 10
249.41388888888886
 20
245.5333333333333
 30
0.0
 10
251.47164442274303
 20
245.5333333333333
 30
0.0
 10
255.17581108940971
 20
245.35694444444442
 30
0.0
 10
256.46944444444443
 20
247.29722222222219
 30
0.0
 10
257.82164442274302
 20
249.29641113281247
 30
0.0
 10
257.17499999999995
 20
253.05914442274303
 30
0.0
 10
257.17499999999995
 20
255.4111111111111
 30
0.0
 10
257.17499999999995
 20
257.23391113281247
 30
0.0
 10
257.64525553385414
 20
260.05613335503472
 30
0.0
 10
256.46944444444443
 20
261.64363335503469
 30
0.0
 10
254.58807779947915
 20
264.34803331163192
 30
0.0
 10
245.9450222439236
 20
263.52499999999998
 30
0.0
 10
243.06388888888887
 20
263.05474446614579
 30
0.0
 10
241.53530002170137
 20
262.8194444444444
 30
0.0
 10
240.00636664496525
 20
261.46724446614581
 30
0.0
 10
238.59525553385416
 20
262.70196668836803
 30
0.0
 10
237.18414442274303
 20
263.93668891059025
 30
0.0
 10
237.77222222222221
 20
266.7589111328125
 30
0.0
 10
237.65474446614581
 20
268.46388888888885
 30
0.0
 10
237.24305555555554
 20
272.75613335503471
 30
0.0
 10
237.41944444444442
 20
277.16585557725693
 30
0.0
 10
237.41944444444442
 20
281.51666666666665
 30
0.0
 10
237.36053331163191
 20
283.28055555555551
 30
0.0
 10
237.53692220052082
 20
285.63252224392357
 30
0.0
 10
235.89085557725693
 20
286.86724446614579
 30
0.0
 10
234.53831108940969
 20
287.86666666666662
 30
0.0
 10
232.30416666666665
 20
287.51388888888886
 30
0.0
 10
230.71666666666664
 20
287.51388888888886
 30
0.0
 10
229.30555555555554
 20
287.51388888888886
 30
0.0
 10
227.77696668836805
 20
287.69027777777774
 30
0.0
 10
226.48333333333332
 20
287.27858886718747
 30
0.0
  0
SPLINE
  5
2F
100
AcDbEntity
  8
LAYER_1
 62
     7
100
AcDbSpline
210
0.0
220
0.0
230
1.0
 70
     8
 71
     3
 72
    53
 73
    49
 74
     0
 42
0.00000001
 43
0.00000001
 40
0.0
 40
0.0
 40
0.0
 40
0.0
 40
1.0
 40
1.0
 40
1.0
 40
2.0
 40
2.0
 40
2.0
 40
3.0
 40
3.0
 40
3.0
 40
4.0
 40
4.0
 40
4.0
 40
5.0
 40
5.0
 40
5.0
 40
6.0
 40
6.0
 40
6.0
 40
7.0
 40
7.0
 40
7.0
 40
8.0
 40
8.0
 40
8.0
 40
9.0
 40
9.0
 40
9.0
 40
10.0
 40
10.0
 40
10.0
 40
11.0
 40
11.0
 40
11.0
 40
12.0
 40
12.0
 40
12.0
 40
13.0
 40
13.0
 40
13.0
 40
14.0
 40
14.0
 40
14.0
 40
15.0
 40
15.0
 40
15.0
 40
16.0
 40
16.0
 40
16.0
 40
16.0
 10
80.433333333333323
 20
284.39780002170136
 30
0.0
 10
77.787499999999994
 20
284.0450222439236
 30
0.0
 10
75.318055555555546
 20
281.22280002170135
 30
0.0
 10
73.377777777777766
 20
279.63530002170137
 30
0.0
 10
68.262499999999989
 20
275.5783555772569
 30
0.0
 10
63.323611111111106
 20
271.2861111111111
 30
0.0
 10
58.208333333333329
 20
267.22916666666663
 30
0.0
 10
55.915277777777774
 20
265.46527777777777
 30
0.0
 10
50.976388888888884
 20
260.52638888888885
 30
0.0
 10
49.506366644965276
 20
265.87696668836804
 30
0.0
 10
48.506944444444443
 20
269.28692220052079
 30
0.0
 10
55.85636664496527
 20
270.22777777777776
 30
0.0
 10
54.79803331163194
 20
273.69664442274302
 30
0.0
 10
54.092477756076384
 20
275.75474446614578
 30
0.0
 10
47.036922200520827
 20
275.87222222222221
 30
0.0
 10
45.68472222222222
 20
274.52002224392356
 30
0.0
 10
43.803355577256937
 20
272.69722222222219
 30
0.0
 10
44.802777777777777
 20
266.28831108940972
 30
0.0
 10
44.802777777777777
 20
263.87777777777774
 30
0.0
 10
44.802777777777777
 20
263.87777777777774
 30
0.0
 10
44.802777777777777
 20
233.53888888888886
 30
0.0
 10
44.802777777777777
 20
233.53888888888886
 30
0.0
 10
44.802777777777777
 20
231.01053331163192
 30
0.0
 10
43.568055555555553
 20
223.89641113281249
 30
0.0
 10
45.331944444444439
 20
222.07361111111109
 30
0.0
 10
46.390277777777776
 20
220.95636664496527
 30
0.0
 10
48.68333333333333
 20
221.19166666666663
 30
0.0
 10
50.094444444444441
 20
221.19166666666663
 30
0.0
 10
54.210300021701386
 20
221.13275553385415
 30
0.0
 10
58.620022243923607
 20
220.77997775607636
 30
0.0
 10
62.794444444444437
 20
221.25057779947915
 30
0.0
 10
67.145255533854154
 20
221.7208333333333
 30
0.0
 10
70.143866644965271
 20
224.48414442274304
 30
0.0
 10
73.377777777777766
 20
227.18888888888887
 30
0.0
 10
76.905555555555551
 20
230.18749999999997
 30
0.0
 10
81.021411132812489
 20
232.83333333333331
 30
0.0
 10
83.196644422743049
 20
237.06666666666663
 30
0.0
 10
84.901966688368049
 20
240.35914442274304
 30
0.0
 10
84.666666666666657
 20
244.00474446614581
 30
0.0
 10
84.666666666666657
 20
247.64999999999998
 30
0.0
 10
84.666666666666657
 20
247.64999999999998
 30
0.0
 10
84.666666666666657
 20
264.23055555555555
 30
0.0
 10
84.666666666666657
 20
264.23055555555555
 30
0.0
 10
84.666666666666657
 20
269.69861111111106
 30
0.0
 10
85.313311089409709
 20
275.69583333333333
 30
0.0
 10
84.549188910590274
 20
281.16388888888889
 30
0.0
 10
84.313888888888883
 20
283.22164442274305
 30
0.0
 10
82.549999999999997
 20
284.69166666666666
 30
0.0
 10
80.433333333333323
 20
284.39780002170136
 30
0.0
  0
SPLINE
  5
2E
100
AcDbEntity
  8
LAYER_1
 62
     7
100
AcDbSpline
210
0.0
220
0.0
230
1.0
 70
     8
 71
     3
 72
    11
 73
     7
 74
     0
 42
0.00000001
 43
0.00000001
 40
0.0
 40
0.0
 40
0.0
 40
0.0
 40
1.0
 40
1.0
 40
1.0
 40
2.0
 40
2.0
 40
2.0
 40
2.0
 10
17.638888888888886
 20
254.05891113281248
 30
0.0
 10
15.228355577256943
 20
253.23553331163191
 30
0.0
 10
16.227777777777778
 20
249.35497775607638
 30
0.0
 10
18.638311089409722
 20
250.06053331163193
 30
0.0
 10
21.225577799479165
 20
250.76608886718748
 30
0.0
 10
20.225811089409721
 20
254.94085557725691
 30
0.0
 10
17.638888888888886
 20
254.05891113281248
 30
0.0
  0
SPLINE
  5
2D
100
AcDbEntity
  8
LAYER_1
 62
     7
100
AcDbSpline
210
0.0
220
0.0
230
1.0
 70
     8
 71
     3
 72
    41
 73
    37
 74
     0
 42
0.00000001
 43
0.00000001
 40
0.0
 40
0.0
 40
0.0
 40
0.0
 40
1.0
 40
1.0
 40
1.0
 40
2.0
 40
2.0
 40
2.0
 40
3.0
 40
3.0
 40
3.0
 40
4.0
 40
4.0
 40
4.0
 40
5.0
 40
5.0
 40
5.0
 40
6.0
 40
6.0
 40
6.0
 40
7.0
 40
7.0
 40
7.0
 40
8.0
 40
8.0
 40
8.0
 40
9.0
 40
9.0
 40
9.0
 40
10.0
 40
10.0
 40
10.0
 40
11.0
 40
11.0
 40
11.0
 40
12.0
 40
12.0
 40
12.0
 40
12.0
 10
245.18055555555554
 20
240.06527777777777
 30
0.0
 10
237.18414442274303
 20
238.94803331163192
 30
0.0
 10
242.35833333333332
 20
227.12997775607636
 30
0.0
 10
237.83113335503469
 20
221.95613335503469
 30
0.0
 10
236.47858886718748
 20
220.30972222222221
 30
0.0
 10
234.24444444444441
 20
218.95752224392359
 30
0.0
 10
232.12777777777777
 20
218.7222222222222
 30
0.0
 10
229.6583333333333
 20
218.48692220052081
 30
0.0
 10
226.13055555555553
 20
219.19247775607636
 30
0.0
 10
224.77835557725692
 20
216.54664442274304
 30
0.0
 10
223.19085557725691
 20
213.60694444444442
 30
0.0
 10
224.36666666666665
 20
207.55081108940971
 30
0.0
 10
224.36666666666665
 20
204.25833333333333
 30
0.0
 10
224.36666666666665
 20
204.25833333333333
 30
0.0
 10
224.36666666666665
 20
173.91944444444442
 30
0.0
 10
224.36666666666665
 20
173.91944444444442
 30
0.0
 10
224.36666666666665
 20
170.45057779947916
 30
0.0
 10
223.01446668836803
 20
163.57141113281247
 30
0.0
 10
225.89525553385414
 20
161.04305555555555
 30
0.0
 10
227.54166666666666
 20
159.63194444444443
 30
0.0
 10
230.42280002170136
 20
160.1611111111111
 30
0.0
 10
232.48055555555553
 20
160.1611111111111
 30
0.0
 10
237.88969997829858
 20
160.1611111111111
 30
0.0
 10
243.65196668836802
 20
159.45555555555555
 30
0.0
 10
249.06111111111107
 20
160.22002224392361
 30
0.0
 10
258.87997775607636
 20
161.68969997829859
 30
0.0
 10
257.88055555555553
 20
172.03807779947914
 30
0.0
 10
257.88055555555553
 20
179.56388888888887
 30
0.0
 10
257.88055555555553
 20
193.79247775607638
 30
0.0
 10
257.52777777777777
 20
208.02141113281249
 30
0.0
 10
257.52777777777777
 20
222.24999999999997
 30
0.0
 10
257.52777777777777
 20
226.5422444661458
 30
0.0
 10
259.11527777777775
 20
235.06747775607636
 30
0.0
 10
256.41053331163192
 20
238.71307779947915
 30
0.0
 10
254.58807779947915
 20
241.24108886718747
 30
0.0
 10
247.88530002170137
 20
240.41805555555553
 30
0.0
 10
245.18055555555554
 20
240.06527777777777
 30
0.0
  0
SPLINE
  5
2C
100
AcDbEntity
  8
LAYER_1
 62
     7
100
AcDbSpline
210
0.0
220
0.0
230
1.0
 70
     8
 71
     3
 72
    11
 73
     7
 74
     0
 42
0.00000001
 43
0.00000001
 40
0.0
 40
0.0
 40
0.0
 40
0.0
 40
1.0
 40
1.0
 40
1.0
 40
2.0
 40
2.0
 40
2.0
 40
2.0
 10
109.71388888888887
 20
224.42557779947916
 30
0.0
 10
107.30335557725694
 20
223.5436333550347
 30
0.0
 10
108.47916666666666
 20
219.66307779947914
 30
0.0
 10
111.06608886718749
 20
220.66249999999997
 30
0.0
 10
113.41805555555554
 20
221.60335557725693
 30
0.0
 10
112.12442220052083
 20
225.30752224392359
 30
0.0
 10
109.71388888888887
 20
224.42557779947916
 30
0.0
  0
SPLINE
  5
2B
100
AcDbEntity
  8
LAYER_1
 62
     7
100
AcDbSpline
210
0.0
220
0.0
230
1.0
 70
     8
 71
     3
 72
    38
 73
    34
 74
     0
 42
0.00000001
 43
0.00000001
 40
0.0
 40
0.0
 40
0.0
 40
0.0
 40
1.0
 40
1.0
 40
1.0
 40
2.0
 40
2.0
 40
2.0
 40
3.0
 40
3.0
 40
3.0
 40
4.0
 40
4.0
 40
4.0
 40
5.0
 40
5.0
 40
5.0
 40
6.0
 40
6.0
 40
6.0
 40
7.0
 40
7.0
 40
7.0
 40
8.0
 40
8.0
 40
8.0
 40
9.0
 40
9.0
 40
9.0
 40
10.0
 40
10.0
 40
10.0
 40
11.0
 40
11.0
 40
11.0
 40
11.0
 10
44.449999999999996
 20
182.0333333333333
 30
0.0
 10
53.034144422743047
 20
179.97557779947914
 30
0.0
 10
62.794444444444437
 20
182.4450222439236
 30
0.0
 10
71.61388888888888
 20
181.56307779947915
 30
0.0
 10
74.377199978298606
 20
181.32777777777775
 30
0.0
 10
81.374188910590277
 20
180.38692220052081
 30
0.0
 10
83.784722222222214
 20
182.0333333333333
 30
0.0
 10
85.607522243923597
 20
183.26805555555555
 30
0.0
 10
84.37280002170138
 20
188.26585557725693
 30
0.0
 10
84.37280002170138
 20
190.0883110894097
 30
0.0
 10
84.60775553385416
 20
196.79108886718748
 30
0.0
 10
84.549188910590274
 20
203.49386664496527
 30
0.0
 10
84.60775553385416
 20
210.25555555555553
 30
0.0
 10
84.666666666666657
 20
212.37222222222221
 30
0.0
 10
84.960533311631934
 20
216.31168891059025
 30
0.0
 10
82.843866644965274
 20
217.60497775607638
 30
0.0
 10
80.139466688368046
 20
219.31030002170138
 30
0.0
 10
77.43472222222222
 20
216.60555555555553
 30
0.0
 10
75.49444444444444
 20
214.95914442274304
 30
0.0
 10
69.967477756076377
 20
210.43194444444441
 30
0.0
 10
64.381944444444443
 20
205.9633110894097
 30
0.0
 10
58.913888888888884
 20
201.49502224392359
 30
0.0
 10
57.326388888888886
 20
200.20138888888886
 30
0.0
 10
53.681133355034717
 20
196.20335557725693
 30
0.0
 10
51.505555555555553
 20
197.20277777777775
 30
0.0
 10
43.920833333333327
 20
200.61307779947916
 30
0.0
 10
56.62083333333333
 20
204.84641113281248
 30
0.0
 10
54.327777777777776
 20
207.96249999999998
 30
0.0
 10
52.975577799479161
 20
209.84386664496526
 30
0.0
 10
45.68472222222222
 20
209.3736111111111
 30
0.0
 10
44.979166666666664
 20
207.02164442274304
 30
0.0
 10
42.627199978298606
 20
199.26053331163192
 30
0.0
 10
46.331366644965271
 20
189.91192220052082
 30
0.0
 10
44.449999999999996
 20
182.0333333333333
 30
0.0
  0
SPLINE
  5
2A
100
AcDbEntity
  8
LAYER_1
 62
     7
100
AcDbSpline
210
0.0
220
0.0
230
1.0
 70
     8
 71
     3
 72
    47
 73
    43
 74
     0
 42
0.00000001
 43
0.00000001
 40
0.0
 40
0.0
 40
0.0
 40
0.0
 40
1.0
 40
1.0
 40
1.0
 40
2.0
 40
2.0
 40
2.0
 40
3.0
 40
3.0
 40
3.0
 40
4.0
 40
4.0
 40
4.0
 40
5.0
 40
5.0
 40
5.0
 40
6.0
 40
6.0
 40
6.0
 40
7.0
 40
7.0
 40
7.0
 40
8.0
 40
8.0
 40
8.0
 40
9.0
 40
9.0
 40
9.0
 40
10.0
 40
10.0
 40
10.0
 40
11.0
 40
11.0
 40
11.0
 40
12.0
 40
12.0
 40
12.0
 40
13.0
 40
13.0
 40
13.0
 40
14.0
 40
14.0
 40
14.0
 40
14.0
 10
380.64722222222218
 20
218.13414442274305
 30
0.0
 10
375.88472222222219
 20
217.37002224392359
 30
0.0
 10
377.82499999999999
 20
206.31608886718749
 30
0.0
 10
377.82499999999999
 20
202.8472222222222
 30
0.0
 10
377.76608886718748
 20
192.96944444444443
 30
0.0
 10
378.17777777777775
 20
183.09166666666664
 30
0.0
 10
378.17777777777775
 20
173.21388888888887
 30
0.0
 10
378.17777777777775
 20
170.15636664496526
 30
0.0
 10
377.00196668836804
 20
164.15914442274305
 30
0.0
 10
378.7658555772569
 20
161.57222222222219
 30
0.0
 10
380.4708333333333
 20
159.10277777777776
 30
0.0
 10
384.70416666666665
 20
159.57303331163192
 30
0.0
 10
387.34999999999997
 20
159.92581108940971
 30
0.0
 10
391.75972222222219
 20
160.51388888888889
 30
0.0
 10
391.58333333333331
 20
163.45358886718748
 30
0.0
 10
391.58333333333331
 20
167.21666666666664
 30
0.0
 10
391.58333333333331
 20
167.21666666666664
 30
0.0
 10
391.58333333333331
 20
178.85833333333332
 30
0.0
 10
391.58333333333331
 20
178.85833333333332
 30
0.0
 10
391.58333333333331
 20
180.44583333333333
 30
0.0
 10
391.17164442274304
 20
182.62141113281248
 30
0.0
 10
391.99502224392359
 20
184.09108886718749
 30
0.0
 10
393.2297444661458
 20
186.38414442274305
 30
0.0
 10
395.28749999999997
 20
184.97303331163192
 30
0.0
 10
397.22777777777776
 20
184.85555555555553
 30
0.0
 10
400.52025553385414
 20
184.62025553385416
 30
0.0
 10
409.04583333333329
 20
183.44444444444443
 30
0.0
 10
410.86863335503466
 20
186.9722222222222
 30
0.0
 10
411.69166666666661
 20
188.50081108940969
 30
0.0
 10
411.33888888888885
 20
190.85277777777776
 30
0.0
 10
411.33888888888885
 20
192.61666666666665
 30
0.0
 10
411.33888888888885
 20
194.9097222222222
 30
0.0
 10
411.86805555555554
 20
198.26111111111109
 30
0.0
 10
410.57442220052081
 20
200.31886664496525
 30
0.0
 10
409.1047444661458
 20
202.67083333333332
 30
0.0
 10
405.92974446614579
 20
202.14166666666665
 30
0.0
 10
403.57777777777773
 20
202.14166666666665
 30
0.0
 10
398.81527777777774
 20
202.14166666666665
 30
0.0
 10
392.75914442274302
 20
201.25972222222219
 30
0.0
 10
388.76111111111106
 20
204.43472222222221
 30
0.0
 10
385.46863335503468
 20
207.08055555555555
 30
0.0
 10
386.409144422743
 20
219.01608886718748
 30
0.0
 10
380.64722222222218
 20
218.13414442274305
 30
0.0
  0
SPLINE
  5
29
100
AcDbEntity
  8
LAYER_1
 62
     7
100
AcDbSpline
210
0.0
220
0.0
230
1.0
 70
     8
 71
     3
 72
    11
 73
     7
 74
     0
 42
0.00000001
 43
0.00000001
 40
0.0
 40
0.0
 40
0.0
 40
0.0
 40
1.0
 40
1.0
 40
1.0
 40
2.0
 40
2.0
 40
2.0
 40
2.0
 10
63.147222222222219
 20
214.42997775607637
 30
0.0
 10
60.854166666666664
 20
213.13668891059027
 30
0.0
 10
62.559144422743053
 20
208.90335557725692
 30
0.0
 10
65.204977756076389
 20
210.31446668836804
 30
0.0
 10
67.909722222222214
 20
211.72557779947914
 30
0.0
 10
65.910533311631937
 20
216.01747775607637
 30
0.0
 10
63.147222222222219
 20
214.42997775607637
 30
0.0
  0
ENDSEC
  0
SECTION
  2
OBJECTS
  0
DICTIONARY
  5
19
100
AcDbDictionary
280
     0
281
     1
  3
ACAD_GROUP
350
1A
  3
ACAD_MLINESTYLE
350
1B
  3
ACAD_LAYOUT
350
1E
  3
ACAD_PLOTSETTINGS
350
22
  3
ACAD_PLOTSTYLENAME
350
1F
  3
ACAD_WIPEOUT_VARS
350
23
  0
DICTIONARY
  5
1A
102
{ACAD_REACTORS
330
19
102
}
100
AcDbDictionary
280
     0
281
     1
  0
DICTIONARY
  5
1B
102
{ACAD_REACTORS
330
19
102
}
100
AcDbDictionary
280
     0
281
     1
  3
Standard
350
1C
  0
MLINESTYLE
  5
1C
102
{ACAD_REACTORS
330
1B
102
}
100
AcDbMlineStyle
  2
Standard
 70
     0
  3

 62
     0
 51
90.0
 52
90.0
 71
     2
 49
0.5
 62
   256
  6
BYLAYER
 49
-0.5
 62
   256
  6
BYLAYER
  0
ACDBDICTIONARYWDFLT
  5
1F
102
{ACAD_REACTORS
330
19
102
}
100
AcDbDictionary
281
     1
  3
Normal
350
1D
100
AcDbDictionaryWithDefault
340
1D
  0
ACDBPLACEHOLDER
  5
1D
102
{ACAD_REACTORS
330
1F
102
}
  0
LAYOUT
  5
20
102
{ACAD_REACTORS
330
1E
102
}
100
AcDbPlotSettings
  1

  2

  4

  6

 40
0.0
 41
0.0
 42
0.0
 43
0.0
 44
0.0
 45
0.0
 46
0.0
 47
0.0
 48
0.0
 49
0.0
140
0.0
141
0.0
142
1.0
143
1.0
 70
  1024
 72
     0
 73
     0
 74
     0
  7

 75
     0
147
1.0
148
0.0
149
0.0
100
AcDbLayout
  1
Model
 70
     0
 71
     0
 10
0.0
 20
0.0
 11
0.0
 21
0.0
 12
0.0
 22
0.0
 32
0.0
 14
0.0
 24
0.0
 34
0.0
 15
0.0
 25
0.0
 35
0.0
146
0.0
 13
0.0
 23
0.0
 33
0.0
 16
0.0
 26
0.0
 36
0.0
 17
0.0
 27
0.0
 37
0.0
 76
     0
330
A
331
0
345
0
346
0
  0
LAYOUT
  5
21
102
{ACAD_REACTORS
330
1E
102
}
100
AcDbPlotSettings
  1

  2

  4

  6

 40
0.0
 41
0.0
 42
0.0
 43
0.0
 44
0.0
 45
0.0
 46
0.0
 47
0.0
 48
0.0
 49
0.0
140
0.0
141
0.0
142
1.0
143
1.0
 70
     0
 72
     0
 73
     0
 74
     0
  7

 75
     0
147
1.0
148
0.0
149
0.0
100
AcDbLayout
  1
Layout1
 70
     0
 71
     0
 10
0.0
 20
0.0
 11
0.0
 21
0.0
 12
0.0
 22
0.0
 32
0.0
 14
0.0
 24
0.0
 34
0.0
 15
0.0
 25
0.0
 35
0.0
146
0.0
 13
0.0
 23
0.0
 33
0.0
 16
0.0
 26
0.0
 36
0.0
 17
0.0
 27
0.0
 37
0.0
 76
     0
330
B
331
0
345
0
346
0
  0
DICTIONARY
  5
1E
102
{ACAD_REACTORS
330
19
102
}
100
AcDbDictionary
280
     0
281
     1
  3
Layout1
350
21
  3
Model
350
20
  0
DICTIONARY
  5
22
102
{ACAD_REACTORS
330
19
102
}
100
AcDbDictionary
280
     0
281
     1
  0
WIPEOUTVARIABLES
  5
23
100
AcDbWipeoutVariables
 70
     1
  0
ENDSEC
  0
EOF
