  0
SECTION
  2
HEADER
  9
$ACADVER
  1
AC1015
  9
$ACADMAINTVER
 70
     6
  9
$DWGCODEPAGE
  3
ANSI_932
  9
$INSBASE
 10
0.0
 20
0.0
 30
0.0
  9
$EXTMIN
 10
-108.481406
 20
-85.434234
 30
1.000000E+20
  9
$EXTMAX
 10
257.755671
 20
514.214694
 30
-1.000000E+20
  9
$LIMMIN
 10
-108.481406
 20
-85.434234
  9
$LIMMAX
 10
257.755671
 20
514.214694
  9
$ORTHOMODE
 70
     0
  9
$REGENMODE
 70
     1
  9
$FILLMODE
 70
     1
  9
$QTEXTMODE
 70
     0
  9
$MIRRTEXT
 70
     1
  9
$LTSCALE
 40
1.0
  9
$ATTMODE
 70
     1
  9
$TEXTSIZE
 40
0.2
  9
$TRACEWID
 40
0.05
  9
$TEXTSTYLE
  7
Standard
  9
$CLAYER
  8
0
  9
$CELTYPE
  6
Continuous
  9
$CECOLOR
 62
   256
  9
$CELTSCALE
 40
1.0
  9
$DISPSILH
 70
     0
  9
$DIMSCALE
 40
1.0
  9
$DIMASZ
 40
0.18
  9
$DIMEXO
 40
0.0625
  9
$DIMDLI
 40
0.38
  9
$DIMRND
 40
0.0
  9
$DIMDLE
 40
0.0
  9
$DIMEXE
 40
0.18
  9
$DIMTP
 40
0.0
  9
$DIMTM
 40
0.0
  9
$DIMTXT
 40
0.18
  9
$DIMCEN
 40
0.09
  9
$DIMTSZ
 40
0.0
  9
$DIMTOL
 70
     0
  9
$DIMLIM
 70
     0
  9
$DIMTIH
 70
     1
  9
$DIMTOH
 70
     1
  9
$DIMSE1
 70
     0
  9
$DIMSE2
 70
     0
  9
$DIMTAD
 70
     0
  9
$DIMZIN
 70
     0
  9
$DIMBLK
  1

  9
$DIMASO
 70
     1
  9
$DIMSHO
 70
     1
  9
$DIMPOST
  1

  9
$DIMAPOST
  1

  9
$DIMALT
 70
     0
  9
$DIMALTD
 70
     2
  9
$DIMALTF
 40
25.4
  9
$DIMLFAC
 40
1.0
  9
$DIMTOFL
 70
     0
  9
$DIMTVP
 40
0.0
  9
$DIMTIX
 70
     0
  9
$DIMSOXD
 70
     0
  9
$DIMSAH
 70
     0
  9
$DIMBLK1
  1

  9
$DIMBLK2
  1

  9
$DIMSTYLE
  2
Standard
  9
$DIMCLRD
 70
     0
  9
$DIMCLRE
 70
     0
  9
$DIMCLRT
 70
     0
  9
$DIMTFAC
 40
1.0
  9
$DIMGAP
 40
0.09
  9
$DIMJUST
 70
     0
  9
$DIMSD1
 70
     0
  9
$DIMSD2
 70
     0
  9
$DIMTOLJ
 70
     1
  9
$DIMTZIN
 70
     0
  9
$DIMALTZ
 70
     0
  9
$DIMALTTZ
 70
     0
  9
$DIMUPT
 70
     0
  9
$DIMDEC
 70
     4
  9
$DIMTDEC
 70
     4
  9
$DIMALTU
 70
     2
  9
$DIMALTTD
 70
     2
  9
$DIMTXSTY
  7
Standard
  9
$DIMAUNIT
 70
     0
  9
$DIMADEC
 70
     0
  9
$DIMALTRND
 40
0.0
  9
$DIMAZIN
 70
     0
  9
$DIMDSEP
 70
     0
  9
$DIMATFIT
 70
     3
  9
$DIMFRAC
 70
     0
  9
$DIMLDRBLK
  1

  9
$DIMLUNIT
 70
     2
  9
$DIMLWD
 70
     0
  9
$DIMLWE
 70
     0
  9
$DIMTMOVE
 70
     0
  9
$LUNITS
 70
     2
  9
$LUPREC
 70
     4
  9
$SKETCHINC
 40
0.1
  9
$FILLETRAD
 40
0.0
  9
$AUNITS
 70
     0
  9
$AUPREC
 70
     0
  9
$MENU
  1
acad
  9
$ELEVATION
 40
0.0
  9
$PELEVATION
 40
0.0
  9
$THICKNESS
 40
0.0
  9
$LIMCHECK
 70
     0
  9
$CHAMFERA
 40
0.0
  9
$CHAMFERB
 40
0.0
  9
$CHAMFERC
 40
0.0
  9
$CHAMFERD
 40
0.0
  9
$SKPOLY
 70
     0
  9
$TDCREATE
 40
0.000000000
  9
$TDUCREATE
 40
0.000000000
  9
$TDUPDATE
 40
0.000000000
  9
$TDUUPDATE
 40
0.000000000
  9
$TDINDWG
 40
0.0000000000
  9
$TDUSRTIMER
 40
0.0000000000
  9
$USRTIMER
 70
     1
  9
$ANGBASE
 50
0.0
  9
$ANGDIR
 70
     0
  9
$PDMODE
 70
     0
  9
$PDSIZE
 40
0.0
  9
$PLINEWID
 40
0.0
  9
$SPLFRAME
 70
     0
  9
$SPLINETYPE
 70
     6
  9
$SPLINESEGS
 70
     8
  9
$HANDSEED
  5
E5
  9
$SURFTAB1
 70
     6
  9
$SURFTAB2
 70
     6
  9
$SURFTYPE
 70
     6
  9
$SURFU
 70
     6
  9
$SURFV
 70
     6
  9
$UCSBASE
  2

  9
$UCSNAME
  2

  9
$UCSORG
 10
0.0
 20
0.0
 30
0.0
  9
$UCSXDIR
 10
1.0
 20
0.0
 30
0.0
  9
$UCSYDIR
 10
0.0
 20
1.0
 30
0.0
  9
$UCSORTHOREF
  2

  9
$UCSORTHOVIEW
 70
     0
  9
$UCSORGTOP
 10
0.0
 20
0.0
 30
0.0
  9
$UCSORGBOTTOM
 10
0.0
 20
0.0
 30
0.0
  9
$UCSORGLEFT
 10
0.0
 20
0.0
 30
0.0
  9
$UCSORGRIGHT
 10
0.0
 20
0.0
 30
0.0
  9
$UCSORGFRONT
 10
0.0
 20
0.0
 30
0.0
  9
$UCSORGBACK
 10
0.0
 20
0.0
 30
0.0
  9
$PUCSBASE
  2

  9
$PUCSNAME
  2

  9
$PUCSORG
 10
0.0
 20
0.0
 30
0.0
  9
$PUCSXDIR
 10
1.0
 20
0.0
 30
0.0
  9
$PUCSYDIR
 10
0.0
 20
1.0
 30
0.0
  9
$PUCSORTHOREF
  2

  9
$PUCSORTHOVIEW
 70
     0
  9
$PUCSORGTOP
 10
0.0
 20
0.0
 30
0.0
  9
$PUCSORGBOTTOM
 10
0.0
 20
0.0
 30
0.0
  9
$PUCSORGLEFT
 10
0.0
 20
0.0
 30
0.0
  9
$PUCSORGRIGHT
 10
0.0
 20
0.0
 30
0.0
  9
$PUCSORGFRONT
 10
0.0
 20
0.0
 30
0.0
  9
$PUCSORGBACK
 10
0.0
 20
0.0
 30
0.0
  9
$USERI1
 70
     0
  9
$USERI2
 70
     0
  9
$USERI3
 70
     0
  9
$USERI4
 70
     0
  9
$USERI5
 70
     0
  9
$USERR1
 40
0.0
  9
$USERR2
 40
0.0
  9
$USERR3
 40
0.0
  9
$USERR4
 40
0.0
  9
$USERR5
 40
0.0
  9
$WORLDVIEW
 70
     1
  9
$SHADEDGE
 70
     3
  9
$SHADEDIF
 70
    70
  9
$TILEMODE
 70
     1
  9
$MAXACTVP
 70
    16
  9
$PINSBASE
 10
0.0
 20
0.0
 30
0.0
  9
$PLIMCHECK
 70
     0
  9
$PEXTMIN
 10
1.000000E+20
 20
1.000000E+20
 30
1.000000E+20
  9
$PEXTMAX
 10
-1.000000E+20
 20
-1.000000E+20
 30
-1.000000E+20
  9
$PLIMMIN
 10
0.0
 20
0.0
  9
$PLIMMAX
 10
12.0
 20
9.0
  9
$UNITMODE
 70
     0
  9
$VISRETAIN
 70
     0
  9
$PLINEGEN
 70
     1
  9
$PSLTSCALE
 70
     0
  9
$TREEDEPTH
 70
  3020
  9
$CMLSTYLE
  2
Standard
  9
$CMLJUST
 70
     0
  9
$CMLSCALE
 40
1.0
  9
$PROXYGRAPHICS
 70
     0
  9
$MEASUREMENT
 70
     0
  9
$CELWEIGHT
370
     0
  9
$ENDCAPS
280
     0
  9
$JOINSTYLE
280
     0
  9
$LWDISPLAY
290
     0
  9
$INSUNITS
 70
     0
  9
$HYPERLINKBASE
  1

  9
$XEDIT
290
     1
  9
$CEPSNTYPE
380
     0
  9
$PSTYLEMODE
290
     1
  9
$FINGERPRINTGUID
  2

  9
$VERSIONGUID
  2

  9
$EXTNAMES
290
     1
  9
$PSVPSCALE
 40
0.0
  0
ENDSEC
  0
SECTION
  2
CLASSES
  0
CLASS
  1
LWPOLYLINE
  2
AcDbPolyline
  3
"AutoCAD"
 90
        0
280
     0
281
     1
  0
CLASS
  1
IMAGE
  2
AcDbRasterImage
  3
ISM
 90
      127
280
     0
281
     1
  0
CLASS
  1
OLE2FRAME
  2
AcDbOle2Frame
  3
""
 90
        0
280
     0
281
     1
  0
CLASS
  1
HATCH
  2
AcDbHatch
  3
"ACAD_SEDONA"
 90
        0
280
     0
281
     1
  0
CLASS
  1
DICTIONARYVAR
  2
AcDbDictionaryVar
  3
"AutoCAD"
 90
        0
280
     0
281
     0
  0
CLASS
  1
RASTERVARIABLES
  2
AcDbRasterVariables
  3
ISM
 90
        0
280
     0
281
     0
  0
CLASS
  1
IMAGEDEF
  2
AcDbRasterImageDef
  3
ISM
 90
        0
280
     0
281
     0
  0
CLASS
  1
IMAGEDEF_REACTOR
  2
AcDbRasterImageDefReactor
  3
ISM
 90
        1
280
     0
281
     0
  0
CLASS
  1
IDBUFFER
  2
AcDbIdBuffer
  3
"Acad"
 90
        0
280
     0
281
     0
  0
CLASS
  1
SPATIAL_FILTER
  2
AcDbSpatialFilter
  3
"Acad"
 90
        0
280
     0
281
     0
  0
CLASS
  1
XRECORD
  2
AcDbXrecord
  3
"<Built In>"
 90
        0
280
     0
281
     0
  0
CLASS
  1
SORTENTSTABLE
  2
AcDbSortentsTable
  3
"AutoCAD"
 90
        0
280
     0
281
     0
  0
CLASS
  1
LAYER_INDEX
  2
AcDbLayerIndex
  3
"Acad"
 90
        0
280
     0
281
     0
  0
CLASS
  1
SPATIAL_INDEX
  2
AcDbSpatialIndex
  3
"Acad"
 90
        0
280
     0
281
     0
  0
CLASS
  1
OBJECT_PTR
  2
CAseDLPNTableRecord
  3
"ASE-LPNTableRecord"
 90
        1
280
     0
281
     0
  0
CLASS
  1
LAYOUT
  2
AcDbLayout
  3
"AutoCAD 2000"
 90
        1
280
     0
281
     0
  0
CLASS
  1
PLOTSETTINGS
  2
AcDbPlotSettings
  3
"AutoCAD 2000"
 90
        1
280
     0
281
     0
  0
CLASS
  1
ACDBDICTIONARYWDFLT
  2
AcDbDictionaryWithDefault
  3
"AutoCAD 2000"
 90
        1
280
     0
281
     0
  0
CLASS
  1
ACDBPLACEHOLDER
  2
AcDbPlaceHolder
  3
"AutoCAD 2000"
 90
        1
280
     0
281
     0
  0
CLASS
  1
VBA_PROJECT
  2
AcDbVbaProject
  3
"acadvba"
 90
        1
280
     0
281
     0
  0
CLASS
  1
WIPEOUT
  2
AcDbWipeout
  3
WipeOut|AutoCAD Express Tool|expresstools@autodesk.com
 90
      127
280
     0
281
     1
  0
CLASS
  1
WIPEOUTVARIABLES
  2
AcDbWipeoutVariables
  3
WipeOut|AutoCAD Express Tool|expresstools@autodesk.com
 90
        0
280
     0
281
     0
  0
CLASS
  1
RTEXT
  2
RText
  3
RText|AutoCAD Express Tool|expresstools@autodesk.com
 90
        0
280
     0
281
     1
  0
CLASS
  1
ARCALIGNEDTEXT
  2
AcDbArcAlignedText
  3
ATEXT|AutoCAD Express Tool|expresstools@autodesk.com
 90
        0
280
     0
281
     1
  0
ENDSEC
  0
SECTION
  2
TABLES
  0
TABLE
  2
VPORT
  5
7
100
AcDbSymbolTable
 70
     1
  0
VPORT
  5
15
100
AcDbSymbolTableRecord
100
AcDbViewportTableRecord
  2
*ACTIVE
 70
     0
 10
0.0
 20
0.0
 11
1.0
 21
1.0
 12
6.591288
 22
4.579184
 13
0.0
 23
0.0
 14
1.0
 24
1.0
 15
0.0
 25
0.0
 16
0.0
 26
0.0
 36
1.0
 17
0.0
 27
0.0
 37
0.0
 40
9.158369
 41
0.688564
 42
50.0
 43
0.0
 44
0.0
 50
0.0
 51
0.0
 71
     0
 72
   100
 73
     1
 74
     1
 75
     0
 76
     0
 77
     0
 78
     0
281
     0
 65
     0
110
0.0
120
0.0
130
0.0
111
1.0
121
0.0
131
0.0
112
0.0
122
1.0
132
0.0
345
0
346
0
 79
     0
146
0.0
  0
ENDTAB
  0
TABLE
  2
LTYPE
  5
4
100
AcDbSymbolTable
 70
     3
  0
LTYPE
  5
11
100
AcDbSymbolTableRecord
100
AcDbLinetypeTableRecord
  2
ByBlock
 70
    64
  3

 72
    65
 73
     0
 40
0.0
  0
LTYPE
  5
12
100
AcDbSymbolTableRecord
100
AcDbLinetypeTableRecord
  2
ByLayer
 70
    64
  3

 72
    65
 73
     0
 40
0.0
  0
LTYPE
  5
13
100
AcDbSymbolTableRecord
100
AcDbLinetypeTableRecord
  2
Continuous
 70
    64
  3
Solid line
 72
    65
 73
     0
 40
0.0
  0
ENDTAB
  0
TABLE
  2
LAYER
  5
2
100
AcDbSymbolTable
 70
     2
  0
LAYER
  5
14
100
AcDbSymbolTableRecord
100
AcDbLayerTableRecord
  2
0
 70
     0
 62
     7
  6
Continuous
290
     1
370
    -3
390
1D
  0
LAYER
  5
28
100
AcDbSymbolTableRecord
100
AcDbLayerTableRecord
  2
LAYER_1
 70
     0
 62
   160
  6
Continuous
290
     1
370
    -3
390
1F
  0
ENDTAB
  0
TABLE
  2
STYLE
  5
3
100
AcDbSymbolTable
 70
     5
  0
STYLE
  5
17
100
AcDbSymbolTableRecord
100
AcDbTextStyleTableRecord
  2
Standard
 70
     0
 40
0.0
 41
1.0
 50
0.0
 71
     0
 42
0.0
  3
txt
  4

  0
STYLE
  5
24
100
AcDbSymbolTableRecord
100
AcDbTextStyleTableRecord
  2
STD
 70
     0
 40
0.0
 41
1.0
 50
0.0
 71
     0
 42
0.0
  3
txt
  4

  0
STYLE
  5
25
100
AcDbSymbolTableRecord
100
AcDbTextStyleTableRecord
  2
TATESTD
 70
     4
 40
0.0
 41
1.0
 50
0.0
 71
     0
 42
0.0
  3
txt
  4

  0
STYLE
  5
26
100
AcDbSymbolTableRecord
100
AcDbTextStyleTableRecord
  2
KANJISTD
 70
     0
 40
0.0
 41
1.0
 50
0.0
 71
     0
 42
0.0
  3
txt
  4
extfont
  0
STYLE
  5
27
100
AcDbSymbolTableRecord
100
AcDbTextStyleTableRecord
  2
KANJITATE
 70
     4
 40
0.0
 41
1.0
 50
0.0
 71
     0
 42
0.0
  3
txt
  4
extfont
  0
ENDTAB
  0
TABLE
  2
VIEW
  5
5
100
AcDbSymbolTable
 70
     0
  0
ENDTAB
  0
TABLE
  2
UCS
  5
6
100
AcDbSymbolTable
 70
     0
  0
ENDTAB
  0
TABLE
  2
APPID
  5
8
100
AcDbSymbolTable
 70
     1
  0
APPID
  5
16
100
AcDbSymbolTableRecord
100
AcDbRegAppTableRecord
  2
ACAD
 70
     0
  0
ENDTAB
  0
TABLE
  2
DIMSTYLE
  5
9
100
AcDbSymbolTable
 70
     1
100
AcDbDimStyleTable
 71
     0
  0
DIMSTYLE
105
18
100
AcDbSymbolTableRecord
100
AcDbDimStyleTableRecord
  2
Standard
 70
     0
  3

  4

 40
1.0
 41
0.18
 42
0.0625
 43
0.38
 44
0.18
 45
0.0
 46
0.0
 47
0.0
 48
0.0
 71
     0
 72
     0
 73
     1
 74
     1
 75
     0
 76
     0
 77
     0
 78
     0
 79
     0
140
0.18
141
0.09
142
0.0
143
25.4
144
1.0
145
0.0
146
1.0
147
0.09
148
0.0
170
     0
171
     2
172
     0
173
     0
174
     0
175
     0
176
     0
177
     0
178
     0
179
     0
271
     4
272
     4
273
     2
274
     2
275
     0
276
     0
277
     2
278
    46
279
     0
280
     0
281
     0
282
     0
283
     1
284
     0
285
     0
286
     0
288
     0
340
17
341
0
342
0
343
0
344
0
371
    -2
372
    -2
  0
ENDTAB
  0
TABLE
  2
BLOCK_RECORD
  5
1
100
AcDbSymbolTable
 70
     5
  0
BLOCK_RECORD
  5
A
100
AcDbSymbolTableRecord
100
AcDbBlockTableRecord
  2
*MODEL_SPACE
340
20
  0
BLOCK_RECORD
  5
B
100
AcDbSymbolTableRecord
100
AcDbBlockTableRecord
  2
*PAPER_SPACE
340
21
  0
BLOCK_RECORD
  5
29
100
AcDbSymbolTableRecord
100
AcDbBlockTableRecord
  2
AI9-BLK1
340
0
  0
BLOCK_RECORD
  5
2E
100
AcDbSymbolTableRecord
100
AcDbBlockTableRecord
  2
AI9-BLK2
340
0
  0
BLOCK_RECORD
  5
79
100
AcDbSymbolTableRecord
100
AcDbBlockTableRecord
  2
AI9-BLK3
340
0
  0
BLOCK_RECORD
  5
84
100
AcDbSymbolTableRecord
100
AcDbBlockTableRecord
  2
AI9-BLK4
340
0
  0
BLOCK_RECORD
  5
CD
100
AcDbSymbolTableRecord
100
AcDbBlockTableRecord
  2
AI9-BLK5
340
0
  0
ENDTAB
  0
ENDSEC
  0
SECTION
  2
BLOCKS
  0
BLOCK
  5
D
100
AcDbEntity
  8
0
100
AcDbBlockBegin
  2
*MODEL_SPACE
 70
     0
 10
0.0
 20
0.0
 30
0.0
  3
*MODEL_SPACE
  1

  0
ENDBLK
  5
E
100
AcDbEntity
  8
0
100
AcDbBlockEnd
  0
BLOCK
  5
F
100
AcDbEntity
 67
     1
  8
0
100
AcDbBlockBegin
  2
*PAPER_SPACE
 70
     0
 10
0.0
 20
0.0
 30
0.0
  3
*PAPER_SPACE
  1

  0
ENDBLK
  5
10
100
AcDbEntity
 67
     1
  8
0
100
AcDbBlockEnd
  0
BLOCK
  5
2B
100
AcDbEntity
  8
LAYER_1
 62
     7
100
AcDbBlockBegin
  2
AI9-BLK1
 70
     0
 10
0.0
 20
0.0
 30
0.0
  3
AI9-BLK1
  1

  0
SPLINE
  5
2C
100
AcDbEntity
  8
LAYER_1
 62
     7
100
AcDbSpline
210
0.0
220
0.0
230
1.0
 70
     8
 71
     3
 72
   101
 73
    97
 74
     0
 42
0.00000001
 43
0.00000001
 40
0.0
 40
0.0
 40
0.0
 40
0.0
 40
1.0
 40
1.0
 40
1.0
 40
2.0
 40
2.0
 40
2.0
 40
3.0
 40
3.0
 40
3.0
 40
4.0
 40
4.0
 40
4.0
 40
5.0
 40
5.0
 40
5.0
 40
6.0
 40
6.0
 40
6.0
 40
7.0
 40
7.0
 40
7.0
 40
8.0
 40
8.0
 40
8.0
 40
9.0
 40
9.0
 40
9.0
 40
10.0
 40
10.0
 40
10.0
 40
11.0
 40
11.0
 40
11.0
 40
12.0
 40
12.0
 40
12.0
 40
13.0
 40
13.0
 40
13.0
 40
14.0
 40
14.0
 40
14.0
 40
15.0
 40
15.0
 40
15.0
 40
16.0
 40
16.0
 40
16.0
 40
17.0
 40
17.0
 40
17.0
 40
18.0
 40
18.0
 40
18.0
 40
19.0
 40
19.0
 40
19.0
 40
20.0
 40
20.0
 40
20.0
 40
21.0
 40
21.0
 40
21.0
 40
22.0
 40
22.0
 40
22.0
 40
23.0
 40
23.0
 40
23.0
 40
24.0
 40
24.0
 40
24.0
 40
25.0
 40
25.0
 40
25.0
 40
26.0
 40
26.0
 40
26.0
 40
27.0
 40
27.0
 40
27.0
 40
28.0
 40
28.0
 40
28.0
 40
29.0
 40
29.0
 40
29.0
 40
30.0
 40
30.0
 40
30.0
 40
31.0
 40
31.0
 40
31.0
 40
32.0
 40
32.0
 40
32.0
 40
32.0
 10
-91.892065429687491
 20
30.238205973307288
 30
0.0
 10
-91.892065429687491
 20
30.238205973307288
 30
0.0
 10
-91.892065429687491
 20
33.413205973307292
 30
0.0
 10
-91.892065429687491
 20
33.413205973307292
 30
0.0
 10
-89.069843207465269
 20
33.413205973307292
 30
0.0
 10
-78.48650987413194
 20
33.120372856987842
 30
0.0
 10
-82.719843207465274
 20
38.941206190321175
 30
0.0
 10
-84.190898980034717
 20
40.941600884331592
 30
0.0
 10
-88.657120768229163
 20
40.115983751085068
 30
0.0
 10
-90.833732096354154
 20
40.115983751085068
 30
0.0
 10
-93.363121202256934
 20
40.115983751085068
 30
0.0
 10
-97.772843424479163
 20
40.941600884331592
 30
0.0
 10
-100.00595431857639
 20
39.646761745876731
 30
0.0
 10
-102.41545410156249
 20
38.295767550998264
 30
0.0
 10
-102.29900987413194
 20
28.121539306640621
 30
0.0
 10
-100.88789876302083
 20
26.004872639973957
 30
0.0
 10
-98.771232096354154
 20
22.773545328776038
 30
0.0
 10
-91.892065429687491
 20
21.302317301432289
 30
0.0
 10
-88.36428765190972
 20
20.067595079210069
 30
0.0
 10
-78.07378743489582
 20
16.42354532877604
 30
0.0
 10
-67.963121202256943
 20
12.246539306640624
 30
0.0
 10
-57.67262098524305
 20
8.4259284125434029
 30
0.0
 10
-28.804787868923608
 20
-2.2173495822482638
 30
0.0
 10
-0.2297878689236111
 20
-13.738954671223958
 30
0.0
 10
28.757934570312496
 20
-24.32228800455729
 30
0.0
 10
37.577379014756943
 20
-27.557404920789928
 30
0.0
 10
64.741267903645834
 20
-36.906016031901039
 30
0.0
 10
67.916267903645831
 20
-39.611794026692706
 30
0.0
 10
72.442434353298609
 20
-39.788182915581594
 30
0.0
 10
82.792879231770826
 20
-47.372905137803812
 30
0.0
 10
83.025767686631937
 20
-37.847905137803814
 30
0.0
 10
83.085712348090269
 20
-36.376849365234371
 30
0.0
 10
83.085712348090269
 20
-34.789349365234372
 30
0.0
 10
83.085712348090269
 20
-33.261794026692705
 30
0.0
 10
83.840705023871521
 20
-30.746529812282983
 30
0.0
 10
84.909545898437486
 20
-30.732404920789929
 30
0.0
 10
86.260712348090266
 20
-30.379627143012151
 30
0.0
 10
87.731768120659709
 20
-30.086794026692704
 30
0.0
 10
88.37737901475694
 20
-32.319904920789931
 30
0.0
 10
89.788490125868051
 20
-32.556238471137149
 30
0.0
 10
92.141490342881937
 20
-32.909016248914931
 30
0.0
 10
99.197045898437494
 20
-33.554627143012148
 30
0.0
 10
100.78454589843749
 20
-31.437960476345484
 30
0.0
 10
102.66487901475693
 20
-28.908399115668399
 30
0.0
 10
101.6065456814236
 20
-23.500460476345484
 30
0.0
 10
101.43015679253472
 20
-20.561794026692706
 30
0.0
 10
101.25376790364582
 20
-18.325065782335066
 30
0.0
 10
101.95932345920139
 20
-15.446516248914929
 30
0.0
 10
100.13548990885415
 20
-13.682627360026041
 30
0.0
 10
97.66604546440972
 20
-11.269510226779513
 30
0.0
 10
88.200990125868046
 20
-11.742349582248263
 30
0.0
 10
88.024601236979166
 20
-15.622905137803818
 30
0.0
 10
88.024601236979166
 20
-15.622905137803818
 30
0.0
 10
85.202379014756943
 20
-15.975682915581595
 30
0.0
 10
85.202379014756943
 20
-15.975682915581595
 30
0.0
 10
83.576121690538187
 20
-15.488890923394095
 30
0.0
 10
82.732934570312494
 20
-13.093516031901041
 30
0.0
 10
82.38015679253472
 20
-11.036794026692707
 30
0.0
 10
81.910934787326383
 20
-7.978238254123263
 30
0.0
 10
82.027379014756931
 20
11.83743421766493
 30
0.0
 10
82.027379014756931
 20
18.596539306640622
 30
0.0
 10
82.027379014756931
 20
21.891600884331595
 30
0.0
 10
82.849378797743043
 20
29.356261528862845
 30
0.0
 10
80.499823676215271
 20
31.885650634765621
 30
0.0
 10
77.14843478732638
 20
35.473545328776041
 30
0.0
 10
67.387101236979163
 20
33.060428195529511
 30
0.0
 10
62.977379014756941
 20
33.060428195529511
 30
0.0
 10
46.513267686631941
 20
32.884039306640624
 30
0.0
 10
29.992656792534721
 20
32.354872639973955
 30
0.0
 10
13.588490125868054
 20
32.354872639973955
 30
0.0
 10
13.232267252604165
 20
34.087066650390625
 30
0.0
 10
13.482725694444444
 20
35.025510660807285
 30
0.0
 10
14.096469455295138
 20
35.512302652994791
 30
0.0
 10
15.74046902126736
 20
36.803352186414926
 30
0.0
 10
19.98086480034722
 20
34.866691758897566
 30
0.0
 10
22.291490342881943
 20
36.059039306640621
 30
0.0
 10
24.111878797743053
 20
36.940983751085064
 30
0.0
 10
24.231768120659719
 20
39.939594862196174
 30
0.0
 10
22.877156575520832
 20
41.294378662109374
 30
0.0
 10
21.762323676215274
 20
42.409039306640622
 30
0.0
 10
19.938490125868054
 20
42.176323106553816
 30
0.0
 10
18.527379014756942
 20
42.232650417751735
 30
0.0
 10
15.116045464409721
 20
42.232650417751735
 30
0.0
 10
6.9456570095486105
 20
43.703706190321178
 30
0.0
 10
4.4762125651041664
 20
41.057872856987842
 30
0.0
 10
2.4160454644097218
 20
38.881261528862844
 30
0.0
 10
4.9454345703124991
 20
33.765983751085066
 30
0.0
 10
2.8887125651041665
 20
32.354872639973955
 30
0.0
 10
1.4176567925347221
 20
31.356483968098956
 30
0.0
 10
-16.986732313368055
 20
31.649317084418399
 30
0.0
 10
-23.805954318576386
 20
31.649317084418399
 30
0.0
 10
-37.44784342447916
 20
31.649317084418399
 30
0.0
 10
-51.146232096354161
 20
30.887434217664929
 30
0.0
 10
-64.7281765407986
 20
30.590983751085066
 30
0.0
 10
-73.664065212673606
 20
30.35826755099826
 30
0.0
 10
-83.072620985243049
 20
31.180095079210066
 30
0.0
 10
-91.892065429687491
 20
30.238205973307288
 30
0.0
  0
ENDBLK
  5
2D
100
AcDbEntity
  8
LAYER_1
100
AcDbBlockEnd
  0
BLOCK
  5
30
100
AcDbEntity
  8
LAYER_1
 62
     7
100
AcDbBlockBegin
  2
AI9-BLK2
 70
     0
 10
0.0
 20
0.0
 30
0.0
  3
AI9-BLK2
  1

  0
SPLINE
  5
77
100
AcDbEntity
  8
LAYER_1
 62
     7
100
AcDbSpline
210
0.0
220
0.0
230
1.0
 70
     8
 71
     3
 72
   101
 73
    97
 74
     0
 42
0.00000001
 43
0.00000001
 40
0.0
 40
0.0
 40
0.0
 40
0.0
 40
1.0
 40
1.0
 40
1.0
 40
2.0
 40
2.0
 40
2.0
 40
3.0
 40
3.0
 40
3.0
 40
4.0
 40
4.0
 40
4.0
 40
5.0
 40
5.0
 40
5.0
 40
6.0
 40
6.0
 40
6.0
 40
7.0
 40
7.0
 40
7.0
 40
8.0
 40
8.0
 40
8.0
 40
9.0
 40
9.0
 40
9.0
 40
10.0
 40
10.0
 40
10.0
 40
11.0
 40
11.0
 40
11.0
 40
12.0
 40
12.0
 40
12.0
 40
13.0
 40
13.0
 40
13.0
 40
14.0
 40
14.0
 40
14.0
 40
15.0
 40
15.0
 40
15.0
 40
16.0
 40
16.0
 40
16.0
 40
17.0
 40
17.0
 40
17.0
 40
18.0
 40
18.0
 40
18.0
 40
19.0
 40
19.0
 40
19.0
 40
20.0
 40
20.0
 40
20.0
 40
21.0
 40
21.0
 40
21.0
 40
22.0
 40
22.0
 40
22.0
 40
23.0
 40
23.0
 40
23.0
 40
24.0
 40
24.0
 40
24.0
 40
25.0
 40
25.0
 40
25.0
 40
26.0
 40
26.0
 40
26.0
 40
27.0
 40
27.0
 40
27.0
 40
28.0
 40
28.0
 40
28.0
 40
29.0
 40
29.0
 40
29.0
 40
30.0
 40
30.0
 40
30.0
 40
31.0
 40
31.0
 40
31.0
 40
32.0
 40
32.0
 40
32.0
 40
32.0
 10
102.79785970052082
 20
-40.738426378038191
 30
0.0
 10
102.79785970052082
 20
-40.738426378038191
 30
0.0
 10
102.79785970052082
 20
29.817129177517359
 30
0.0
 10
102.79785970052082
 20
29.817129177517359
 30
0.0
 10
102.79785970052082
 20
37.109018283420134
 30
0.0
 10
101.85597059461804
 20
56.0990736219618
 30
0.0
 10
102.62147081163194
 20
57.922907172309024
 30
0.0
 10
102.91430392795138
 20
58.62846272786458
 30
0.0
 10
105.15085991753472
 20
61.450684950086803
 30
0.0
 10
105.97285970052083
 20
61.450684950086803
 30
0.0
 10
107.03119303385415
 20
61.450684950086803
 30
0.0
 10
107.67680392795138
 20
59.626851399739579
 30
0.0
 10
108.79508192274305
 20
59.274073621961797
 30
0.0
 10
111.61730414496527
 20
58.335801866319436
 30
0.0
 10
120.26035970052082
 20
58.03935139973958
 30
0.0
 10
121.25874837239583
 20
61.567129177517359
 30
0.0
 10
122.31708170572915
 20
65.038579644097211
 30
0.0
 10
121.49508192274304
 20
69.917351616753464
 30
0.0
 10
121.43513726128471
 20
73.561573621961799
 30
0.0
 10
121.43513726128471
 20
74.97268473307291
 30
0.0
 10
121.49508192274304
 20
76.560184733072916
 30
0.0
 10
120.32030436197915
 20
77.56219075520832
 30
0.0
 10
117.73097059461804
 20
79.855246310763889
 30
0.0
 10
107.67680392795138
 20
79.382406955295139
 30
0.0
 10
107.03119303385415
 20
75.678240288628459
 30
0.0
 10
104.25134548611111
 20
75.05743408203125
 30
0.0
 10
102.44508192274304
 20
79.02962917751735
 30
0.0
 10
102.1522488064236
 20
80.617129177517356
 30
0.0
 10
101.73952636718749
 20
82.853857421874991
 30
0.0
 10
102.97424858940971
 20
86.614351399739576
 30
0.0
 10
99.915692816840263
 20
87.496295844184019
 30
0.0
 10
95.56591525607638
 20
88.727572970920136
 30
0.0
 10
89.332359483506934
 20
87.672684733072913
 30
0.0
 10
84.806193033854157
 20
87.672684733072913
 30
0.0
 10
84.806193033854157
 20
87.672684733072913
 30
0.0
 10
-99.34380696614582
 20
87.319906955295124
 30
0.0
 10
-99.34380696614582
 20
87.319906955295124
 30
0.0
 10
-105.0481960720486
 20
87.319906955295124
 30
0.0
 10
-112.63291829427082
 20
88.611128743489573
 30
0.0
 10
-117.68825141059027
 20
85.61596272786457
 30
0.0
 10
-121.74519585503471
 20
83.206635199652766
 30
0.0
 10
-121.9215847439236
 20
78.736796061197907
 30
0.0
 10
-121.9215847439236
 20
74.619906955295136
 30
0.0
 10
-121.9215847439236
 20
65.744135199652774
 30
0.0
 10
-121.56880696614583
 20
56.981018066406243
 30
0.0
 10
-121.56880696614583
 20
48.1615736219618
 30
0.0
 10
-121.56880696614583
 20
14.471295844184027
 30
0.0
 10
-121.21602918836804
 20
-19.098920355902777
 30
0.0
 10
-121.21602918836804
 20
-52.732870822482631
 30
0.0
 10
-121.21602918836804
 20
-52.732870822482631
 30
0.0
 10
-121.21602918836804
 20
-76.01620415581597
 30
0.0
 10
-121.21602918836804
 20
-76.01620415581597
 30
0.0
 10
-121.21602918836804
 20
-80.07314860026041
 30
0.0
 10
-121.15608452690971
 20
-84.306481933593744
 30
0.0
 10
-117.33547363281249
 20
-86.715981716579847
 30
0.0
 10
-113.04219563802083
 20
-89.47808702256944
 30
0.0
 10
-30.844973415798609
 20
-87.305093044704847
 30
0.0
 10
-16.441029188368056
 20
-87.305093044704847
 30
0.0
 10
-16.441029188368056
 20
-87.305093044704847
 30
0.0
 10
86.217304144965269
 20
-86.599537489149299
 30
0.0
 10
86.217304144965269
 20
-86.599537489149299
 30
0.0
 10
90.510582139756934
 20
-86.599537489149299
 30
0.0
 10
96.624248589409717
 20
-87.657870822482636
 30
0.0
 10
100.62124837239583
 20
-85.893981933593736
 30
0.0
 10
103.32702636718749
 20
-84.775703938802081
 30
0.0
 10
102.79785970052082
 20
-81.60070393880207
 30
0.0
 10
102.79785970052082
 20
-79.191204155815967
 30
0.0
 10
102.79785970052082
 20
-79.191204155815967
 30
0.0
 10
102.79785970052082
 20
-66.13842637803819
 30
0.0
 10
102.79785970052082
 20
-66.13842637803819
 30
0.0
 10
102.79785970052082
 20
-64.490981716579853
 30
0.0
 10
102.32863769531249
 20
-62.081481933593743
 30
0.0
 10
103.38697102864582
 20
-60.670370822482631
 30
0.0
 10
103.85619303385415
 20
-59.964815266927076
 30
0.0
 10
103.03074815538193
 20
-56.54986436631944
 30
0.0
 10
106.26569281684027
 20
-57.435426161024303
 30
0.0
 10
107.32402615017359
 20
-57.435426161024303
 30
0.0
 10
107.73674858940971
 20
-59.375703938802076
 30
0.0
 10
108.79508192274305
 20
-59.788426378038189
 30
0.0
 10
111.26452636718749
 20
-60.786815049913187
 30
0.0
 10
118.08374837239582
 20
-60.6104261610243
 30
0.0
 10
120.32030436197915
 20
-59.082870822482633
 30
0.0
 10
121.67147081163193
 20
-58.140981716579859
 30
0.0
 10
121.43513726128471
 20
-56.316975911458329
 30
0.0
 10
121.49508192274304
 20
-54.849537489149299
 30
0.0
 10
121.49508192274304
 20
-51.850926378038189
 30
0.0
 10
123.14252658420138
 20
-43.031481933593746
 30
0.0
 10
119.96752658420138
 20
-41.26759304470486
 30
0.0
 10
117.90735948350694
 20
-40.149315049913191
 30
0.0
 10
110.97169325086804
 20
-40.089198133680554
 30
0.0
 10
108.79508192274305
 20
-41.031259494357634
 30
0.0
 10
107.79669325086805
 20
-41.500309244791666
 30
0.0
 10
107.67680392795138
 20
-43.087809244791664
 30
0.0
 10
106.61847059461805
 20
-43.264198133680551
 30
0.0
 10
105.3272488064236
 20
-43.440587022569439
 30
0.0
 10
104.25134548611111
 20
-43.475899251302081
 30
0.0
 10
102.79785970052082
 20
-40.738426378038191
 30
0.0
  0
POLYLINE
  5
70
100
AcDbEntity
  8
LAYER_1
 62
     7
100
AcDb2dPolyline
 66
     1
 10
0.0
 20
0.0
 30
0.0
  0
VERTEX
  5
71
100
AcDbEntity
  8
LAYER_1
 62
     7
100
AcDbVertex
100
AcDb2dVertex
 10
-6.563251
 20
80.617129
 30
0.0
  0
VERTEX
  5
72
100
AcDbEntity
  8
LAYER_1
 62
     7
100
AcDbVertex
100
AcDb2dVertex
 10
-6.563251
 20
76.031018
 30
0.0
  0
VERTEX
  5
73
100
AcDbEntity
  8
LAYER_1
 62
     7
100
AcDbVertex
100
AcDb2dVertex
 10
36.12286
 20
76.031018
 30
0.0
  0
VERTEX
  5
74
100
AcDbEntity
  8
LAYER_1
 62
     7
100
AcDbVertex
100
AcDb2dVertex
 10
36.12286
 20
80.617129
 30
0.0
  0
VERTEX
  5
75
100
AcDbEntity
  8
LAYER_1
 62
     7
100
AcDbVertex
100
AcDb2dVertex
 10
-6.563251
 20
80.617129
 30
0.0
  0
SEQEND
  5
76
100
AcDbEntity
  8
LAYER_1
 62
     7
  0
POLYLINE
  5
6A
100
AcDbEntity
  8
LAYER_1
 62
     7
100
AcDb2dPolyline
 66
     1
 10
0.0
 20
0.0
 30
0.0
 70
     1
  0
VERTEX
  5
6B
100
AcDbEntity
  8
LAYER_1
 62
     7
100
AcDbVertex
100
AcDb2dVertex
 10
-110.279918
 20
79.911574
 30
0.0
  0
VERTEX
  5
6C
100
AcDbEntity
  8
LAYER_1
 62
     7
100
AcDbVertex
100
AcDb2dVertex
 10
-110.279918
 20
75.325463
 30
0.0
  0
VERTEX
  5
6D
100
AcDbEntity
  8
LAYER_1
 62
     7
100
AcDbVertex
100
AcDb2dVertex
 10
-69.357696
 20
75.325463
 30
0.0
  0
VERTEX
  5
6E
100
AcDbEntity
  8
LAYER_1
 62
     7
100
AcDbVertex
100
AcDb2dVertex
 10
-69.357696
 20
79.911574
 30
0.0
  0
SEQEND
  5
6F
100
AcDbEntity
  8
LAYER_1
 62
     7
  0
POLYLINE
  5
63
100
AcDbEntity
  8
LAYER_1
 62
     7
100
AcDb2dPolyline
 66
     1
 10
0.0
 20
0.0
 30
0.0
  0
VERTEX
  5
64
100
AcDbEntity
  8
LAYER_1
 62
     7
100
AcDbVertex
100
AcDb2dVertex
 10
57.995082
 20
63.331018
 30
0.0
  0
VERTEX
  5
65
100
AcDbEntity
  8
LAYER_1
 62
     7
100
AcDbVertex
100
AcDb2dVertex
 10
57.995082
 20
-71.077315
 30
0.0
  0
VERTEX
  5
66
100
AcDbEntity
  8
LAYER_1
 62
     7
100
AcDbVertex
100
AcDb2dVertex
 10
65.050637
 20
-71.077315
 30
0.0
  0
VERTEX
  5
67
100
AcDbEntity
  8
LAYER_1
 62
     7
100
AcDbVertex
100
AcDb2dVertex
 10
65.050637
 20
63.331018
 30
0.0
  0
VERTEX
  5
68
100
AcDbEntity
  8
LAYER_1
 62
     7
100
AcDbVertex
100
AcDb2dVertex
 10
57.995082
 20
63.331018
 30
0.0
  0
SEQEND
  5
69
100
AcDbEntity
  8
LAYER_1
 62
     7
  0
POLYLINE
  5
5C
100
AcDbEntity
  8
LAYER_1
 62
     7
100
AcDb2dPolyline
 66
     1
 10
0.0
 20
0.0
 30
0.0
  0
VERTEX
  5
5D
100
AcDbEntity
  8
LAYER_1
 62
     7
100
AcDbVertex
100
AcDb2dVertex
 10
-111.691029
 20
61.214351
 30
0.0
  0
VERTEX
  5
5E
100
AcDbEntity
  8
LAYER_1
 62
     7
100
AcDbVertex
100
AcDb2dVertex
 10
-111.691029
 20
-46.382871
 30
0.0
  0
VERTEX
  5
5F
100
AcDbEntity
  8
LAYER_1
 62
     7
100
AcDbVertex
100
AcDb2dVertex
 10
-106.399363
 20
-46.382871
 30
0.0
  0
VERTEX
  5
60
100
AcDbEntity
  8
LAYER_1
 62
     7
100
AcDbVertex
100
AcDb2dVertex
 10
-106.399363
 20
61.214351
 30
0.0
  0
VERTEX
  5
61
100
AcDbEntity
  8
LAYER_1
 62
     7
100
AcDbVertex
100
AcDb2dVertex
 10
-111.691029
 20
61.214351
 30
0.0
  0
SEQEND
  5
62
100
AcDbEntity
  8
LAYER_1
 62
     7
  0
SPLINE
  5
5B
100
AcDbEntity
  8
LAYER_1
 62
     7
100
AcDbSpline
210
0.0
220
0.0
230
1.0
 70
     8
 71
     3
 72
    23
 73
    19
 74
     0
 42
0.00000001
 43
0.00000001
 40
0.0
 40
0.0
 40
0.0
 40
0.0
 40
1.0
 40
1.0
 40
1.0
 40
2.0
 40
2.0
 40
2.0
 40
3.0
 40
3.0
 40
3.0
 40
4.0
 40
4.0
 40
4.0
 40
5.0
 40
5.0
 40
5.0
 40
6.0
 40
6.0
 40
6.0
 40
6.0
 10
-95.110473632812486
 20
61.214351399739577
 30
0.0
 10
-95.110473632812486
 20
61.214351399739577
 30
0.0
 10
-95.110473632812486
 20
-46.382870822482637
 30
0.0
 10
-95.110473632812486
 20
-46.382870822482637
 30
0.0
 10
-95.110473632812486
 20
-46.382870822482637
 30
0.0
 10
-90.171584743923603
 20
-46.382870822482637
 30
0.0
 10
-90.171584743923603
 20
-46.382870822482637
 30
0.0
 10
-90.171584743923603
 20
-42.149537489149303
 30
0.0
 10
-90.993584526909714
 20
-38.325309244791661
 30
0.0
 10
-85.585473632812494
 20
-38.26898193359375
 30
0.0
 10
-85.585473632812494
 20
-38.26898193359375
 30
0.0
 10
-85.585473632812494
 20
54.15879584418402
 30
0.0
 10
-85.585473632812494
 20
54.15879584418402
 30
0.0
 10
-90.464417860243046
 20
54.15879584418402
 30
0.0
 10
-90.171584743923603
 20
57.157406955295137
 30
0.0
 10
-90.171584743923603
 20
61.214351399739577
 30
0.0
 10
-90.171584743923603
 20
61.214351399739577
 30
0.0
 10
-95.110473632812486
 20
61.214351399739577
 30
0.0
 10
-95.110473632812486
 20
61.214351399739577
 30
0.0
  0
POLYLINE
  5
54
100
AcDbEntity
  8
LAYER_1
 62
     7
100
AcDb2dPolyline
 66
     1
 10
0.0
 20
0.0
 30
0.0
  0
VERTEX
  5
55
100
AcDbEntity
  8
LAYER_1
 62
     7
100
AcDbVertex
100
AcDb2dVertex
 10
44.589526
 20
46.397685
 30
0.0
  0
VERTEX
  5
56
100
AcDbEntity
  8
LAYER_1
 62
     7
100
AcDbVertex
100
AcDb2dVertex
 10
44.589526
 20
-70.724537
 30
0.0
  0
VERTEX
  5
57
100
AcDbEntity
  8
LAYER_1
 62
     7
100
AcDbVertex
100
AcDb2dVertex
 10
51.292304
 20
-70.724537
 30
0.0
  0
VERTEX
  5
58
100
AcDbEntity
  8
LAYER_1
 62
     7
100
AcDbVertex
100
AcDb2dVertex
 10
51.292304
 20
46.397685
 30
0.0
  0
VERTEX
  5
59
100
AcDbEntity
  8
LAYER_1
 62
     7
100
AcDbVertex
100
AcDb2dVertex
 10
44.589526
 20
46.397685
 30
0.0
  0
SEQEND
  5
5A
100
AcDbEntity
  8
LAYER_1
 62
     7
  0
POLYLINE
  5
4D
100
AcDbEntity
  8
LAYER_1
 62
     7
100
AcDb2dPolyline
 66
     1
 10
0.0
 20
0.0
 30
0.0
  0
VERTEX
  5
4E
100
AcDbEntity
  8
LAYER_1
 62
     7
100
AcDbVertex
100
AcDb2dVertex
 10
14.250637
 20
46.044907
 30
0.0
  0
VERTEX
  5
4F
100
AcDbEntity
  8
LAYER_1
 62
     7
100
AcDbVertex
100
AcDb2dVertex
 10
14.250637
 20
-28.743982
 30
0.0
  0
VERTEX
  5
50
100
AcDbEntity
  8
LAYER_1
 62
     7
100
AcDbVertex
100
AcDb2dVertex
 10
24.833971
 20
-28.743982
 30
0.0
  0
VERTEX
  5
51
100
AcDbEntity
  8
LAYER_1
 62
     7
100
AcDbVertex
100
AcDb2dVertex
 10
24.833971
 20
46.044907
 30
0.0
  0
VERTEX
  5
52
100
AcDbEntity
  8
LAYER_1
 62
     7
100
AcDbVertex
100
AcDb2dVertex
 10
14.250637
 20
46.044907
 30
0.0
  0
SEQEND
  5
53
100
AcDbEntity
  8
LAYER_1
 62
     7
  0
POLYLINE
  5
46
100
AcDbEntity
  8
LAYER_1
 62
     7
100
AcDb2dPolyline
 66
     1
 10
0.0
 20
0.0
 30
0.0
  0
VERTEX
  5
47
100
AcDbEntity
  8
LAYER_1
 62
     7
100
AcDbVertex
100
AcDb2dVertex
 10
-48.191029
 20
45.692129
 30
0.0
  0
VERTEX
  5
48
100
AcDbEntity
  8
LAYER_1
 62
     7
100
AcDbVertex
100
AcDb2dVertex
 10
-48.191029
 20
-29.09676
 30
0.0
  0
VERTEX
  5
49
100
AcDbEntity
  8
LAYER_1
 62
     7
100
AcDbVertex
100
AcDb2dVertex
 10
-37.607696
 20
-29.09676
 30
0.0
  0
VERTEX
  5
4A
100
AcDbEntity
  8
LAYER_1
 62
     7
100
AcDbVertex
100
AcDb2dVertex
 10
-37.607696
 20
45.692129
 30
0.0
  0
VERTEX
  5
4B
100
AcDbEntity
  8
LAYER_1
 62
     7
100
AcDbVertex
100
AcDb2dVertex
 10
-48.191029
 20
45.692129
 30
0.0
  0
SEQEND
  5
4C
100
AcDbEntity
  8
LAYER_1
 62
     7
  0
POLYLINE
  5
3F
100
AcDbEntity
  8
LAYER_1
 62
     7
100
AcDb2dPolyline
 66
     1
 10
0.0
 20
0.0
 30
0.0
  0
VERTEX
  5
40
100
AcDbEntity
  8
LAYER_1
 62
     7
100
AcDbVertex
100
AcDb2dVertex
 10
-16.793807
 20
45.692129
 30
0.0
  0
VERTEX
  5
41
100
AcDbEntity
  8
LAYER_1
 62
     7
100
AcDbVertex
100
AcDb2dVertex
 10
-16.793807
 20
-29.09676
 30
0.0
  0
VERTEX
  5
42
100
AcDbEntity
  8
LAYER_1
 62
     7
100
AcDbVertex
100
AcDb2dVertex
 10
-6.210474
 20
-29.09676
 30
0.0
  0
VERTEX
  5
43
100
AcDbEntity
  8
LAYER_1
 62
     7
100
AcDbVertex
100
AcDb2dVertex
 10
-6.210474
 20
45.692129
 30
0.0
  0
VERTEX
  5
44
100
AcDbEntity
  8
LAYER_1
 62
     7
100
AcDbVertex
100
AcDb2dVertex
 10
-16.793807
 20
45.692129
 30
0.0
  0
SEQEND
  5
45
100
AcDbEntity
  8
LAYER_1
 62
     7
  0
SPLINE
  5
3E
100
AcDbEntity
  8
LAYER_1
 62
     7
100
AcDbSpline
210
0.0
220
0.0
230
1.0
 70
     8
 71
     3
 72
    23
 73
    19
 74
     0
 42
0.00000001
 43
0.00000001
 40
0.0
 40
0.0
 40
0.0
 40
0.0
 40
1.0
 40
1.0
 40
1.0
 40
2.0
 40
2.0
 40
2.0
 40
3.0
 40
3.0
 40
3.0
 40
4.0
 40
4.0
 40
4.0
 40
5.0
 40
5.0
 40
5.0
 40
6.0
 40
6.0
 40
6.0
 40
6.0
 10
-78.882695855034711
 20
45.339351399739577
 30
0.0
 10
-78.882695855034711
 20
45.339351399739577
 30
0.0
 10
-78.882695855034711
 20
-29.449537489149304
 30
0.0
 10
-78.882695855034711
 20
-29.449537489149304
 30
0.0
 10
-78.882695855034711
 20
-29.449537489149304
 30
0.0
 10
-73.591029188368054
 20
-29.449537489149304
 30
0.0
 10
-73.591029188368054
 20
-29.449537489149304
 30
0.0
 10
-73.591029188368054
 20
-23.508642578124999
 30
0.0
 10
-70.652362738715269
 20
-23.805093044704858
 30
0.0
 10
-65.47714029947916
 20
-23.805093044704858
 30
0.0
 10
-65.47714029947916
 20
-23.805093044704858
 30
0.0
 10
-65.47714029947916
 20
39.694906955295139
 30
0.0
 10
-65.47714029947916
 20
39.694906955295139
 30
0.0
 10
-70.7088623046875
 20
39.694906955295139
 30
0.0
 10
-73.591029188368054
 20
39.342129177517357
 30
0.0
 10
-73.591029188368054
 20
45.339351399739577
 30
0.0
 10
-73.591029188368054
 20
45.339351399739577
 30
0.0
 10
-78.882695855034711
 20
45.339351399739577
 30
0.0
 10
-78.882695855034711
 20
45.339351399739577
 30
0.0
  0
POLYLINE
  5
37
100
AcDbEntity
  8
LAYER_1
 62
     7
100
AcDb2dPolyline
 66
     1
 10
0.0
 20
0.0
 30
0.0
  0
VERTEX
  5
38
100
AcDbEntity
  8
LAYER_1
 62
     7
100
AcDbVertex
100
AcDb2dVertex
 10
-5.504918
 20
-75.310649
 30
0.0
  0
VERTEX
  5
39
100
AcDbEntity
  8
LAYER_1
 62
     7
100
AcDbVertex
100
AcDb2dVertex
 10
-5.504918
 20
-79.89676
 30
0.0
  0
VERTEX
  5
3A
100
AcDbEntity
  8
LAYER_1
 62
     7
100
AcDbVertex
100
AcDb2dVertex
 10
37.181193
 20
-79.89676
 30
0.0
  0
VERTEX
  5
3B
100
AcDbEntity
  8
LAYER_1
 62
     7
100
AcDbVertex
100
AcDb2dVertex
 10
37.181193
 20
-75.310649
 30
0.0
  0
VERTEX
  5
3C
100
AcDbEntity
  8
LAYER_1
 62
     7
100
AcDbVertex
100
AcDb2dVertex
 10
-5.504918
 20
-75.310649
 30
0.0
  0
SEQEND
  5
3D
100
AcDbEntity
  8
LAYER_1
 62
     7
  0
POLYLINE
  5
31
100
AcDbEntity
  8
LAYER_1
 62
     7
100
AcDb2dPolyline
 66
     1
 10
0.0
 20
0.0
 30
0.0
 70
     1
  0
VERTEX
  5
32
100
AcDbEntity
  8
LAYER_1
 62
     7
100
AcDbVertex
100
AcDb2dVertex
 10
-109.221585
 20
-76.016204
 30
0.0
  0
VERTEX
  5
33
100
AcDbEntity
  8
LAYER_1
 62
     7
100
AcDbVertex
100
AcDb2dVertex
 10
-109.221585
 20
-80.602315
 30
0.0
  0
VERTEX
  5
34
100
AcDbEntity
  8
LAYER_1
 62
     7
100
AcDbVertex
100
AcDb2dVertex
 10
-68.299363
 20
-80.602315
 30
0.0
  0
VERTEX
  5
35
100
AcDbEntity
  8
LAYER_1
 62
     7
100
AcDbVertex
100
AcDb2dVertex
 10
-68.299363
 20
-76.016204
 30
0.0
  0
SEQEND
  5
36
100
AcDbEntity
  8
LAYER_1
 62
     7
  0
ENDBLK
  5
78
100
AcDbEntity
  8
LAYER_1
100
AcDbBlockEnd
  0
BLOCK
  5
7B
100
AcDbEntity
  8
LAYER_1
 62
     7
100
AcDbBlockBegin
  2
AI9-BLK3
 70
     0
 10
0.0
 20
0.0
 30
0.0
  3
AI9-BLK3
  1

  0
SPLINE
  5
82
100
AcDbEntity
  8
LAYER_1
 62
     7
100
AcDbSpline
210
0.0
220
0.0
230
1.0
 70
     8
 71
     3
 72
   374
 73
   370
 74
     0
 42
0.00000001
 43
0.00000001
 40
0.0
 40
0.0
 40
0.0
 40
0.0
 40
1.0
 40
1.0
 40
1.0
 40
2.0
 40
2.0
 40
2.0
 40
3.0
 40
3.0
 40
3.0
 40
4.0
 40
4.0
 40
4.0
 40
5.0
 40
5.0
 40
5.0
 40
6.0
 40
6.0
 40
6.0
 40
7.0
 40
7.0
 40
7.0
 40
8.0
 40
8.0
 40
8.0
 40
9.0
 40
9.0
 40
9.0
 40
10.0
 40
10.0
 40
10.0
 40
11.0
 40
11.0
 40
11.0
 40
12.0
 40
12.0
 40
12.0
 40
13.0
 40
13.0
 40
13.0
 40
14.0
 40
14.0
 40
14.0
 40
15.0
 40
15.0
 40
15.0
 40
16.0
 40
16.0
 40
16.0
 40
17.0
 40
17.0
 40
17.0
 40
18.0
 40
18.0
 40
18.0
 40
19.0
 40
19.0
 40
19.0
 40
20.0
 40
20.0
 40
20.0
 40
21.0
 40
21.0
 40
21.0
 40
22.0
 40
22.0
 40
22.0
 40
23.0
 40
23.0
 40
23.0
 40
24.0
 40
24.0
 40
24.0
 40
25.0
 40
25.0
 40
25.0
 40
26.0
 40
26.0
 40
26.0
 40
27.0
 40
27.0
 40
27.0
 40
28.0
 40
28.0
 40
28.0
 40
29.0
 40
29.0
 40
29.0
 40
30.0
 40
30.0
 40
30.0
 40
31.0
 40
31.0
 40
31.0
 40
32.0
 40
32.0
 40
32.0
 40
33.0
 40
33.0
 40
33.0
 40
34.0
 40
34.0
 40
34.0
 40
35.0
 40
35.0
 40
35.0
 40
36.0
 40
36.0
 40
36.0
 40
37.0
 40
37.0
 40
37.0
 40
38.0
 40
38.0
 40
38.0
 40
39.0
 40
39.0
 40
39.0
 40
40.0
 40
40.0
 40
40.0
 40
41.0
 40
41.0
 40
41.0
 40
42.0
 40
42.0
 40
42.0
 40
43.0
 40
43.0
 40
43.0
 40
44.0
 40
44.0
 40
44.0
 40
45.0
 40
45.0
 40
45.0
 40
46.0
 40
46.0
 40
46.0
 40
47.0
 40
47.0
 40
47.0
 40
48.0
 40
48.0
 40
48.0
 40
49.0
 40
49.0
 40
49.0
 40
50.0
 40
50.0
 40
50.0
 40
51.0
 40
51.0
 40
51.0
 40
52.0
 40
52.0
 40
52.0
 40
53.0
 40
53.0
 40
53.0
 40
54.0
 40
54.0
 40
54.0
 40
55.0
 40
55.0
 40
55.0
 40
56.0
 40
56.0
 40
56.0
 40
57.0
 40
57.0
 40
57.0
 40
58.0
 40
58.0
 40
58.0
 40
59.0
 40
59.0
 40
59.0
 40
60.0
 40
60.0
 40
60.0
 40
61.0
 40
61.0
 40
61.0
 40
62.0
 40
62.0
 40
62.0
 40
63.0
 40
63.0
 40
63.0
 40
64.0
 40
64.0
 40
64.0
 40
65.0
 40
65.0
 40
65.0
 40
66.0
 40
66.0
 40
66.0
 40
67.0
 40
67.0
 40
67.0
 40
68.0
 40
68.0
 40
68.0
 40
69.0
 40
69.0
 40
69.0
 40
70.0
 40
70.0
 40
70.0
 40
71.0
 40
71.0
 40
71.0
 40
72.0
 40
72.0
 40
72.0
 40
73.0
 40
73.0
 40
73.0
 40
74.0
 40
74.0
 40
74.0
 40
75.0
 40
75.0
 40
75.0
 40
76.0
 40
76.0
 40
76.0
 40
77.0
 40
77.0
 40
77.0
 40
78.0
 40
78.0
 40
78.0
 40
79.0
 40
79.0
 40
79.0
 40
80.0
 40
80.0
 40
80.0
 40
81.0
 40
81.0
 40
81.0
 40
82.0
 40
82.0
 40
82.0
 40
83.0
 40
83.0
 40
83.0
 40
84.0
 40
84.0
 40
84.0
 40
85.0
 40
85.0
 40
85.0
 40
86.0
 40
86.0
 40
86.0
 40
87.0
 40
87.0
 40
87.0
 40
88.0
 40
88.0
 40
88.0
 40
89.0
 40
89.0
 40
89.0
 40
90.0
 40
90.0
 40
90.0
 40
91.0
 40
91.0
 40
91.0
 40
92.0
 40
92.0
 40
92.0
 40
93.0
 40
93.0
 40
93.0
 40
94.0
 40
94.0
 40
94.0
 40
95.0
 40
95.0
 40
95.0
 40
96.0
 40
96.0
 40
96.0
 40
97.0
 40
97.0
 40
97.0
 40
98.0
 40
98.0
 40
98.0
 40
99.0
 40
99.0
 40
99.0
 40
100.0
 40
100.0
 40
100.0
 40
101.0
 40
101.0
 40
101.0
 40
102.0
 40
102.0
 40
102.0
 40
103.0
 40
103.0
 40
103.0
 40
104.0
 40
104.0
 40
104.0
 40
105.0
 40
105.0
 40
105.0
 40
106.0
 40
106.0
 40
106.0
 40
107.0
 40
107.0
 40
107.0
 40
108.0
 40
108.0
 40
108.0
 40
109.0
 40
109.0
 40
109.0
 40
110.0
 40
110.0
 40
110.0
 40
111.0
 40
111.0
 40
111.0
 40
112.0
 40
112.0
 40
112.0
 40
113.0
 40
113.0
 40
113.0
 40
114.0
 40
114.0
 40
114.0
 40
115.0
 40
115.0
 40
115.0
 40
116.0
 40
116.0
 40
116.0
 40
117.0
 40
117.0
 40
117.0
 40
118.0
 40
118.0
 40
118.0
 40
119.0
 40
119.0
 40
119.0
 40
120.0
 40
120.0
 40
120.0
 40
121.0
 40
121.0
 40
121.0
 40
122.0
 40
122.0
 40
122.0
 40
123.0
 40
123.0
 40
123.0
 40
123.0
 10
-9.1857872856987832
 20
190.13757595486109
 30
0.0
 10
-10.66743672688802
 20
190.13757595486109
 30
0.0
 10
-20.9685306125217
 20
190.69843749999998
 30
0.0
 10
-22.944120619032116
 20
189.60840928819442
 30
0.0
 10
-25.353620402018226
 20
188.25724283854166
 30
0.0
 10
-26.002676391601561
 20
179.37785373263887
 30
0.0
 10
-23.533231947157116
 20
177.85029839409719
 30
0.0
 10
-22.199721611870658
 20
176.98954128689235
 30
0.0
 10
-11.221321953667534
 20
177.4375759548611
 30
0.0
 10
-9.8913428412543389
 20
177.4375759548611
 30
0.0
 10
-9.8913428412543389
 20
177.4375759548611
 30
0.0
 10
-9.8913428412543389
 20
173.55702039930554
 30
0.0
 10
-9.8913428412543389
 20
173.55702039930554
 30
0.0
 10
-12.163211059570312
 20
173.55702039930554
 30
0.0
 10
-22.210315280490448
 20
173.71222195095484
 30
0.0
 10
-23.296898396809894
 20
173.08779839409721
 30
0.0
 10
-25.706398179796004
 20
171.73663194444444
 30
0.0
 10
-25.649898613823783
 20
162.62090928819444
 30
0.0
 10
-23.236953735351559
 20
161.26974283854165
 30
0.0
 10
-22.178620402018225
 20
160.63825683593748
 30
0.0
 10
-11.845745510525173
 20
160.85702039930555
 30
0.0
 10
-9.5385650634765611
 20
160.85702039930555
 30
0.0
 10
-9.5385650634765611
 20
160.85702039930555
 30
0.0
 10
-9.5385650634765611
 20
123.46257595486109
 30
0.0
 10
-9.5385650634765611
 20
123.46257595486109
 30
0.0
 10
-10.702748955620658
 20
123.46257595486109
 30
0.0
 10
-22.330290730794268
 20
123.60012139214409
 30
0.0
 10
-23.296898396809894
 20
123.0532986111111
 30
0.0
 10
-26.119120619032117
 20
121.52229817708333
 30
0.0
 10
-26.179065280490448
 20
112.58640950520832
 30
0.0
 10
-23.296898396809894
 20
111.11535373263888
 30
0.0
 10
-20.181843058268228
 20
109.41140950520833
 30
0.0
 10
-13.419120619032118
 20
110.76257595486111
 30
0.0
 10
-9.8913428412543389
 20
110.76257595486111
 30
0.0
 10
-9.8913428412543389
 20
110.76257595486111
 30
0.0
 10
-9.8913428412543389
 20
106.88202039930555
 30
0.0
 10
-9.8913428412543389
 20
106.88202039930555
 30
0.0
 10
-11.873909166124131
 20
106.88202039930555
 30
0.0
 10
-22.249158732096351
 20
107.21007961697048
 30
0.0
 10
-23.589731513129337
 20
106.41279839409721
 30
0.0
 10
-26.119120619032117
 20
105.0016872829861
 30
0.0
 10
-25.882787068684895
 20
96.711409505208323
 30
0.0
 10
-23.649676174587672
 20
95.123909505208331
 30
0.0
 10
-22.083363511827255
 20
94.023201497395831
 30
0.0
 10
-11.76814473470052
 20
94.182020399305543
 30
0.0
 10
-9.8913428412543389
 20
94.182020399305543
 30
0.0
 10
-9.8913428412543389
 20
94.182020399305543
 30
0.0
 10
-9.8913428412543389
 20
69.4875759548611
 30
0.0
 10
-9.8913428412543389
 20
69.4875759548611
 30
0.0
 10
-9.8913428412543389
 20
66.548909505208329
 30
0.0
 10
-8.9529849582248264
 20
61.610020616319439
 30
0.0
 10
-10.127676391601561
 20
58.904242621527771
 30
0.0
 10
-10.716873847113714
 20
57.553076171874991
 30
0.0
 10
-12.597120836046006
 20
57.845909288194441
 30
0.0
 10
-13.771898396809895
 20
57.845909288194441
 30
0.0
 10
-16.65406528049045
 20
57.789409722222217
 30
0.0
 10
-21.240176391601562
 20
58.67135416666666
 30
0.0
 10
-23.649676174587672
 20
57.083854166666661
 30
0.0
 10
-25.942731730143226
 20
55.552853732638887
 30
0.0
 10
-26.119120619032117
 20
47.086187065972219
 30
0.0
 10
-23.589731513129337
 20
45.558631727430551
 30
0.0
 10
-21.935138278537323
 20
44.570750596788187
 30
0.0
 10
-11.535256279839409
 20
45.145909288194439
 30
0.0
 10
-9.8913428412543389
 20
45.145909288194439
 30
0.0
 10
-9.8913428412543389
 20
45.145909288194439
 30
0.0
 10
-9.8913428412543389
 20
41.265353732638886
 30
0.0
 10
-9.8913428412543389
 20
41.265353732638886
 30
0.0
 10
-11.348273722330728
 20
41.265353732638886
 30
0.0
 10
-21.610610283745658
 20
41.790903049045134
 30
0.0
 10
-23.236953735351559
 20
40.796131727430549
 30
0.0
 10
-25.766342841254339
 20
39.148687065972219
 30
0.0
 10
-25.882787068684895
 20
30.272743055555551
 30
0.0
 10
-23.296898396809894
 20
28.918131510416664
 30
0.0
 10
-21.836436292860242
 20
28.089069281684026
 30
0.0
 10
-11.4435306125217
 20
28.565353732638886
 30
0.0
 10
-9.5385650634765611
 20
28.565353732638886
 30
0.0
 10
-9.5385650634765611
 20
28.565353732638886
 30
0.0
 10
-9.5385650634765611
 20
-8.8290907118055539
 30
0.0
 10
-9.5385650634765611
 20
-8.8290907118055539
 30
0.0
 10
-11.482374064127603
 20
-8.8290907118055539
 30
0.0
 10
-21.755218166775173
 20
-8.5081800672743046
 30
0.0
 10
-23.236953735351559
 20
-9.3582573784722207
 30
0.0
 10
-25.882787068684895
 20
-10.885812717013888
 30
0.0
 10
-26.235564846462673
 20
-19.176090494791666
 30
0.0
 10
-23.589731513129337
 20
-20.763590494791664
 30
0.0
 10
-22.0692386203342
 20
-21.687909613715277
 30
0.0
 10
-11.602349514431422
 20
-21.176312934027777
 30
0.0
 10
-9.8913428412543389
 20
-21.176312934027777
 30
0.0
 10
-9.8913428412543389
 20
-21.176312934027777
 30
0.0
 10
-9.8913428412543389
 20
-25.409646267361108
 30
0.0
 10
-9.8913428412543389
 20
-25.409646267361108
 30
0.0
 10
-11.641106838650172
 20
-25.409646267361108
 30
0.0
 10
-21.779936726888018
 20
-25.007431369357636
 30
0.0
 10
-23.296898396809894
 20
-25.878868272569441
 30
0.0
 10
-25.882787068684895
 20
-27.349924045138888
 30
0.0
 10
-25.530009290907117
 20
-36.049479166666664
 30
0.0
 10
-22.944120619032116
 20
-37.404090711805551
 30
0.0
 10
-21.635328843858506
 20
-38.095521375868053
 30
0.0
 10
-11.619919501410589
 20
-37.756868489583333
 30
0.0
 10
-9.5385650634765611
 20
-37.756868489583333
 30
0.0
 10
-9.5385650634765611
 20
-37.756868489583333
 30
0.0
 10
-9.5385650634765611
 20
-74.795090060763883
 30
0.0
 10
-9.5385650634765611
 20
-74.795090060763883
 30
0.0
 10
-11.327172512478297
 20
-74.795090060763883
 30
0.0
 10
-22.040988837348088
 20
-74.466944715711804
 30
0.0
 10
-23.649676174587672
 20
-75.55697292751735
 30
0.0
 10
-26.119120619032117
 20
-77.20458984375
 30
0.0
 10
-26.002676391601561
 20
-85.611139594184024
 30
0.0
 10
-23.296898396809894
 20
-87.022250705295136
 30
0.0
 10
-22.002231513129338
 20
-87.681986490885407
 30
0.0
 10
-12.166742282443575
 20
-87.495090060763886
 30
0.0
 10
-9.8913428412543389
 20
-87.495090060763886
 30
0.0
 10
-9.8913428412543389
 20
-87.495090060763886
 30
0.0
 10
-9.8913428412543389
 20
-91.022867838541657
 30
0.0
 10
-9.8913428412543389
 20
-91.022867838541657
 30
0.0
 10
-11.609325832790798
 20
-91.022867838541657
 30
0.0
 10
-21.698804728190101
 20
-90.58895806206597
 30
0.0
 10
-23.296898396809894
 20
-91.492089843749994
 30
0.0
 10
-26.119120619032117
 20
-93.019472927517356
 30
0.0
 10
-26.179065280490448
 20
-101.89903428819443
 30
0.0
 10
-23.296898396809894
 20
-103.37009006076389
 30
0.0
 10
-21.705867173936628
 20
-104.22378472222221
 30
0.0
 10
-11.35886739095052
 20
-103.72286783854166
 30
0.0
 10
-9.5385650634765611
 20
-103.72286783854166
 30
0.0
 10
-9.5385650634765611
 20
-103.72286783854166
 30
0.0
 10
-9.5385650634765611
 20
-140.41175672743054
 30
0.0
 10
-9.5385650634765611
 20
-140.41175672743054
 30
0.0
 10
-11.263610500759548
 20
-140.41175672743054
 30
0.0
 10
-21.402440388997395
 20
-140.0977362738715
 30
0.0
 10
-23.296898396809894
 20
-141.17363959418401
 30
0.0
 10
-26.059175957573782
 20
-142.82125651041665
 30
0.0
 10
-26.179065280490448
 20
-151.52425672743055
 30
0.0
 10
-23.296898396809894
 20
-153.11175672743053
 30
0.0
 10
-21.674086168077256
 20
-154.01488850911457
 30
0.0
 10
-11.521131388346353
 20
-153.46453450520832
 30
0.0
 10
-9.8913428412543389
 20
-153.46453450520832
 30
0.0
 10
-9.8913428412543389
 20
-153.46453450520832
 30
0.0
 10
-9.8913428412543389
 20
-157.34509006076388
 30
0.0
 10
-9.8913428412543389
 20
-157.34509006076388
 30
0.0
 10
-11.503561401367186
 20
-157.34509006076388
 30
0.0
 10
-21.959856838650172
 20
-156.82643093532985
 30
0.0
 10
-23.589731513129337
 20
-157.81431206597222
 30
0.0
 10
-26.002676391601561
 20
-159.28536783854165
 30
0.0
 10
-26.059175957573782
 20
-167.86847873263886
 30
0.0
 10
-23.589731513129337
 20
-169.27958984374999
 30
0.0
 10
-22.224440171983506
 20
-170.12260470920137
 30
0.0
 10
-11.521131388346353
 20
-169.69231228298611
 30
0.0
 10
-9.5385650634765611
 20
-169.69231228298611
 30
0.0
 10
-9.5385650634765611
 20
-169.69231228298611
 30
0.0
 10
-9.5385650634765611
 20
-186.27286783854166
 30
0.0
 10
-9.5385650634765611
 20
-186.27286783854166
 30
0.0
 10
-9.5385650634765611
 20
-188.97502848307289
 30
0.0
 10
-9.0693430582682275
 20
-192.03375651041665
 30
0.0
 10
-10.596898396809895
 20
-194.38675672743054
 30
0.0
 10
-14.008231947157118
 20
-199.67842339409719
 30
0.0
 10
-24.387012736002603
 20
-193.20836181640624
 30
0.0
 10
-24.708009507921005
 20
-202.85342339409721
 30
0.0
 10
-25.060787285698783
 20
-209.436139594184
 30
0.0
 10
-25.413565063476561
 20
-229.84092339409719
 30
0.0
 10
-24.531620619032115
 20
-232.83953450520832
 30
0.0
 10
-23.356843058268225
 20
-237.07286783854164
 30
0.0
 10
-13.715484958224826
 20
-236.13097873263888
 30
0.0
 10
-16.357787068684896
 20
-242.3645345052083
 30
0.0
 10
-18.121675957573782
 20
-246.53792317708331
 30
0.0
 10
-22.414953952365451
 20
-246.24509006076386
 30
0.0
 10
-26.119120619032117
 20
-246.24509006076386
 30
0.0
 10
-26.119120619032117
 20
-246.24509006076386
 30
0.0
 10
-42.346898396809891
 20
-246.24509006076386
 30
0.0
 10
-42.346898396809891
 20
-246.24509006076386
 30
0.0
 10
-44.050842624240445
 20
-246.24509006076386
 30
0.0
 10
-46.933009507921
 20
-245.71592339409719
 30
0.0
 10
-48.167731730143224
 20
-247.12703450520831
 30
0.0
 10
-49.518898179796004
 20
-248.71453450520832
 30
0.0
 10
-48.989731513129335
 20
-254.47542317708331
 30
0.0
 10
-48.696898396809893
 20
-256.47564561631941
 30
0.0
 10
-48.227676391601555
 20
-259.41431206597218
 30
0.0
 10
-44.580009290907114
 20
-258.94509006076385
 30
0.0
 10
-42.346898396809891
 20
-258.94509006076385
 30
0.0
 10
-42.346898396809891
 20
-258.94509006076385
 30
0.0
 10
-22.591342841254338
 20
-258.94509006076385
 30
0.0
 10
-22.591342841254338
 20
-258.94509006076385
 30
0.0
 10
-21.120287068684895
 20
-258.94509006076385
 30
0.0
 10
-18.005231730143226
 20
-258.41592339409721
 30
0.0
 10
-16.83045416937934
 20
-259.53058403862843
 30
0.0
 10
-14.770287068684894
 20
-261.64725070529511
 30
0.0
 10
-17.063342624240448
 20
-265.05875651041663
 30
0.0
 10
-12.713565063476562
 20
-265.58792317708333
 30
0.0
 10
-8.1873986138237846
 20
-266.23336181640622
 30
0.0
 10
-3.2485097249348955
 20
-265.64786783854163
 30
0.0
 10
1.3975460476345485
 20
-265.64786783854163
 30
0.0
 10
1.3975460476345485
 20
-265.64786783854163
 30
0.0
 10
29.969014824761281
 20
-265.64786783854163
 30
0.0
 10
29.969014824761281
 20
-265.64786783854163
 30
0.0
 10
34.262292819552947
 20
-265.64786783854163
 30
0.0
 10
45.727570597330725
 20
-267.58814561631942
 30
0.0
 10
47.960681491427948
 20
-262.82564561631943
 30
0.0
 10
49.784515041775173
 20
-258.82502848307291
 30
0.0
 10
48.666237046983504
 20
-252.41870117187497
 30
0.0
 10
48.666237046983504
 20
-248.00897894965274
 30
0.0
 10
48.666237046983504
 20
-248.00897894965274
 30
0.0
 10
48.666237046983504
 20
-214.84786783854165
 30
0.0
 10
48.666237046983504
 20
-214.84786783854165
 30
0.0
 10
48.666237046983504
 20
-210.84725070529512
 30
0.0
 10
50.077348158094615
 20
-203.20620117187499
 30
0.0
 10
47.491459486219611
 20
-199.91113959418402
 30
0.0
 10
42.432681274414058
 20
-193.561139594184
 30
0.0
 10
30.967403496636283
 20
-202.50064561631942
 30
0.0
 10
26.617625935872393
 20
-193.3284233940972
 30
0.0
 10
24.793792385525173
 20
-189.50419514973956
 30
0.0
 10
26.441237046983506
 20
-154.05002848307291
 30
0.0
 10
26.441237046983506
 20
-141.82286783854164
 30
0.0
 10
26.441237046983506
 20
-141.82286783854164
 30
0.0
 10
40.199570380316835
 20
-141.82286783854164
 30
0.0
 10
40.199570380316835
 20
-141.82286783854164
 30
0.0
 10
42.199792819552947
 20
-141.82286783854164
 30
0.0
 10
45.02201504177517
 20
-142.17564561631943
 30
0.0
 10
46.84240349663628
 20
-141.11731228298609
 30
0.0
 10
49.195403713650173
 20
-139.76252848307291
 30
0.0
 10
49.195403713650173
 20
-130.88675672743054
 30
0.0
 10
46.84240349663628
 20
-129.53197292751736
 30
0.0
 10
45.314848158094613
 20
-128.6500284830729
 30
0.0
 10
42.552570597330728
 20
-129.12286783854165
 30
0.0
 10
40.905125935872391
 20
-129.12286783854165
 30
0.0
 10
40.905125935872391
 20
-129.12286783854165
 30
0.0
 10
26.088459269205728
 20
-129.12286783854165
 30
0.0
 10
26.088459269205728
 20
-129.12286783854165
 30
0.0
 10
26.088459269205728
 20
-129.12286783854165
 30
0.0
 10
26.088459269205728
 20
-115.36453450520833
 30
0.0
 10
26.088459269205728
 20
-115.36453450520833
 30
0.0
 10
31.440070597330728
 20
-115.36453450520833
 30
0.0
 10
36.964625718858507
 20
-115.77363959418402
 30
0.0
 10
42.316237046983503
 20
-115.1282009548611
 30
0.0
 10
43.727348158094614
 20
-114.95181206597221
 30
0.0
 10
45.551181708441838
 20
-115.36453450520833
 30
0.0
 10
46.84240349663628
 20
-114.65897894965276
 30
0.0
 10
49.311847941080728
 20
-113.30419514973957
 30
0.0
 10
49.195403713650173
 20
-104.6048122829861
 30
0.0
 10
46.785903930664055
 20
-103.13375651041666
 30
0.0
 10
45.198403930664057
 20
-102.19169514973957
 30
0.0
 10
42.376181708441834
 20
-102.66453450520832
 30
0.0
 10
40.552348158094617
 20
-102.66453450520832
 30
0.0
 10
40.552348158094617
 20
-102.66453450520832
 30
0.0
 10
26.088459269205728
 20
-102.66453450520832
 30
0.0
 10
26.088459269205728
 20
-102.66453450520832
 30
0.0
 10
26.088459269205728
 20
-102.66453450520832
 30
0.0
 10
26.088459269205728
 20
-39.520757378472219
 30
0.0
 10
26.088459269205728
 20
-39.520757378472219
 30
0.0
 10
26.088459269205728
 20
-39.520757378472219
 30
0.0
 10
26.14840393066406
 20
-11.002256944444444
 30
0.0
 10
26.14840393066406
 20
-11.002256944444444
 30
0.0
 10
26.794014824761284
 20
-8.7092013888888875
 30
0.0
 10
30.967403496636283
 20
-9.6510904947916654
 30
0.0
 10
32.791237046983504
 20
-9.4147569444444432
 30
0.0
 10
36.319014824761283
 20
-8.9455349392361097
 30
0.0
 10
45.431292385525168
 20
-11.002256944444444
 30
0.0
 10
47.667848375108505
 20
-7.7707573784722213
 30
0.0
 10
48.666237046983504
 20
-6.3596462673611107
 30
0.0
 10
48.429903496636278
 20
-0.0661458333333333
 30
0.0
 10
48.077125718858504
 20
0.9921874999999999
 30
0.0
 10
47.371570163302948
 20
3.5181315104166662
 30
0.0
 10
44.725736829969613
 20
3.1653537326388888
 30
0.0
 10
42.669014824761284
 20
3.1653537326388888
 30
0.0
 10
42.669014824761284
 20
3.1653537326388888
 30
0.0
 10
26.088459269205728
 20
3.1653537326388888
 30
0.0
 10
26.088459269205728
 20
3.1653537326388888
 30
0.0
 10
26.088459269205728
 20
3.1653537326388888
 30
0.0
 10
26.088459269205728
 20
16.570909288194443
 30
0.0
 10
26.088459269205728
 20
16.570909288194443
 30
0.0
 10
30.674570380316837
 20
16.570909288194443
 30
0.0
 10
35.200736829969614
 20
16.923687065972221
 30
0.0
 10
39.846792602539061
 20
16.923687065972221
 30
0.0
 10
41.787070380316834
 20
16.923687065972221
 30
0.0
 10
44.669237263997388
 20
16.394520399305556
 30
0.0
 10
46.489625718858505
 20
17.219965277777778
 30
0.0
 10
49.135459052191834
 20
18.334798177083332
 30
0.0
 10
49.37179260253906
 20
27.274131944444441
 30
0.0
 10
47.138681708441837
 20
28.861631944444444
 30
0.0
 10
45.4912370469835
 20
30.096354166666664
 30
0.0
 10
42.78545905219184
 20
29.62368706597222
 30
0.0
 10
40.905125935872391
 20
29.62368706597222
 30
0.0
 10
40.905125935872391
 20
29.62368706597222
 30
0.0
 10
26.088459269205728
 20
29.62368706597222
 30
0.0
 10
26.088459269205728
 20
29.62368706597222
 30
0.0
 10
26.088459269205728
 20
29.62368706597222
 30
0.0
 10
26.088459269205728
 20
122.75702039930555
 30
0.0
 10
26.088459269205728
 20
122.75702039930555
 30
0.0
 10
26.088459269205728
 20
122.75702039930555
 30
0.0
 10
41.257903713650173
 20
122.75702039930555
 30
0.0
 10
41.257903713650173
 20
122.75702039930555
 30
0.0
 10
42.961847941080727
 20
122.75702039930555
 30
0.0
 10
45.667625935872394
 20
122.22785373263888
 30
0.0
 10
47.195181274414061
 20
123.28618706597221
 30
0.0
 10
49.488236829969615
 20
124.93363172743054
 30
0.0
 10
49.724570380316834
 20
133.92946506076387
 30
0.0
 10
46.84240349663628
 20
135.16418728298609
 30
0.0
 10
45.078514607747394
 20
135.9296875
 30
0.0
 10
42.376181708441834
 20
135.45702039930555
 30
0.0
 10
40.552348158094617
 20
135.45702039930555
 30
0.0
 10
40.552348158094617
 20
135.45702039930555
 30
0.0
 10
26.441237046983506
 20
135.45702039930555
 30
0.0
 10
26.441237046983506
 20
135.45702039930555
 30
0.0
 10
26.441237046983506
 20
135.45702039930555
 30
0.0
 10
26.441237046983506
 20
148.86257595486109
 30
0.0
 10
26.441237046983506
 20
148.86257595486109
 30
0.0
 10
26.441237046983506
 20
148.86257595486109
 30
0.0
 10
40.199570380316835
 20
148.86257595486109
 30
0.0
 10
40.199570380316835
 20
148.86257595486109
 30
0.0
 10
42.256292385525171
 20
148.86257595486109
 30
0.0
 10
44.962070380316838
 20
148.39335394965278
 30
0.0
 10
46.84240349663628
 20
149.39174262152775
 30
0.0
 10
49.431737263997391
 20
150.74635416666666
 30
0.0
 10
49.724570380316834
 20
159.21302083333333
 30
0.0
 10
47.547959052191835
 20
160.97690972222222
 30
0.0
 10
45.903959486219613
 20
162.26813151041665
 30
0.0
 10
43.198181491427945
 20
161.91535373263886
 30
0.0
 10
41.257903713650173
 20
161.91535373263886
 30
0.0
 10
41.257903713650173
 20
161.91535373263886
 30
0.0
 10
26.441237046983506
 20
161.91535373263886
 30
0.0
 10
26.441237046983506
 20
161.91535373263886
 30
0.0
 10
26.441237046983506
 20
161.91535373263886
 30
0.0
 10
26.441237046983506
 20
188.37368706597221
 30
0.0
 10
26.441237046983506
 20
188.37368706597221
 30
0.0
 10
26.441237046983506
 20
191.66857638888888
 30
0.0
 10
25.442848375108504
 20
196.72390950520833
 30
0.0
 10
27.263236829969614
 20
199.60607638888888
 30
0.0
 10
31.496570163302948
 20
206.54174262152776
 30
0.0
 10
40.492403496636278
 20
200.54452039930553
 30
0.0
 10
46.136847941080724
 20
204.54496527777775
 30
0.0
 10
49.255348375108504
 20
206.71813151041664
 30
0.0
 10
48.666237046983504
 20
210.42229817708332
 30
0.0
 10
48.666237046983504
 20
213.77368706597221
 30
0.0
 10
48.666237046983504
 20
213.77368706597221
 30
0.0
 10
48.666237046983504
 20
232.47090928819443
 30
0.0
 10
48.666237046983504
 20
232.47090928819443
 30
0.0
 10
48.666237046983504
 20
235.29313151041666
 30
0.0
 10
49.195403713650173
 20
238.82090928819443
 30
0.0
 10
48.429903496636278
 20
241.64313151041665
 30
0.0
 10
46.785903930664055
 20
247.46396484374998
 30
0.0
 10
39.906737263997393
 20
246.22924262152776
 30
0.0
 10
35.260681491427945
 20
246.22924262152776
 30
0.0
 10
35.260681491427945
 20
246.22924262152776
 30
0.0
 10
9.8642127143012139
 20
246.22924262152776
 30
0.0
 10
9.8642127143012139
 20
246.22924262152776
 30
0.0
 10
6.6292680528428809
 20
246.22924262152776
 30
0.0
 10
1.8667680528428818
 20
245.3472981770833
 30
0.0
 10
-1.0718983968098956
 20
246.75840928819443
 30
0.0
 10
-8.7765960693359375
 20
250.46257595486108
 30
0.0
 10
-0.9554541693793403
 20
261.98779839409718
 30
0.0
 10
-8.1873986138237846
 20
265.10285373263889
 30
0.0
 10
-11.715176391601561
 20
266.69035373263887
 30
0.0
 10
-21.356620619032118
 20
266.63385416666665
 30
0.0
 10
-23.589731513129337
 20
263.10607638888888
 30
0.0
 10
-25.82628750271267
 20
259.57829861111111
 30
0.0
 10
-24.708009507921005
 20
253.34474283854163
 30
0.0
 10
-24.708009507921005
 20
249.40424262152774
 30
0.0
 10
-24.708009507921005
 20
249.40424262152774
 30
0.0
 10
-24.708009507921005
 20
219.41813151041666
 30
0.0
 10
-24.708009507921005
 20
219.41813151041666
 30
0.0
 10
-24.708009507921005
 20
215.71396484374998
 30
0.0
 10
-25.82628750271267
 20
210.06952039930553
 30
0.0
 10
-24.178842841254337
 20
206.71813151041664
 30
0.0
 10
-21.885787285698783
 20
201.95563151041665
 30
0.0
 10
-17.476065063476561
 20
204.36857638888887
 30
0.0
 10
-13.771898396809895
 20
202.78107638888886
 30
0.0
 10
-12.389037068684894
 20
202.17430894639756
 30
0.0
 10
-11.418898179796006
 20
201.31002061631943
 30
0.0
 10
-10.737975056966144
 20
200.27631971571179
 30
0.0
 10
-8.9035478379991311
 20
197.48587849934893
 30
0.0
 10
-9.1857872856987832
 20
193.48190239800346
 30
0.0
 10
-9.1857872856987832
 20
190.13757595486109
 30
0.0
  0
POLYLINE
  5
7C
100
AcDbEntity
  8
LAYER_1
 62
     7
100
AcDb2dPolyline
 66
     1
 10
0.0
 20
0.0
 30
0.0
 70
     1
  0
VERTEX
  5
7D
100
AcDbEntity
  8
LAYER_1
 62
     7
100
AcDbVertex
100
AcDb2dVertex
 10
8.453102
 20
-168.986757
 30
0.0
  0
VERTEX
  5
7E
100
AcDbEntity
  8
LAYER_1
 62
     7
100
AcDbVertex
100
AcDb2dVertex
 10
8.453102
 20
-190.858979
 30
0.0
  0
VERTEX
  5
7F
100
AcDbEntity
  8
LAYER_1
 62
     7
100
AcDbVertex
100
AcDb2dVertex
 10
15.155879
 20
-190.858979
 30
0.0
  0
VERTEX
  5
80
100
AcDbEntity
  8
LAYER_1
 62
     7
100
AcDbVertex
100
AcDb2dVertex
 10
15.155879
 20
-168.986757
 30
0.0
  0
SEQEND
  5
81
100
AcDbEntity
  8
LAYER_1
 62
     7
  0
ENDBLK
  5
83
100
AcDbEntity
  8
LAYER_1
100
AcDbBlockEnd
  0
BLOCK
  5
86
100
AcDbEntity
  8
LAYER_1
 62
     7
100
AcDbBlockBegin
  2
AI9-BLK4
 70
     0
 10
0.0
 20
0.0
 30
0.0
  3
AI9-BLK4
  1

  0
SPLINE
  5
CB
100
AcDbEntity
  8
LAYER_1
 62
     7
100
AcDbSpline
210
0.0
220
0.0
230
1.0
 70
     8
 71
     3
 72
   101
 73
    97
 74
     0
 42
0.00000001
 43
0.00000001
 40
0.0
 40
0.0
 40
0.0
 40
0.0
 40
1.0
 40
1.0
 40
1.0
 40
2.0
 40
2.0
 40
2.0
 40
3.0
 40
3.0
 40
3.0
 40
4.0
 40
4.0
 40
4.0
 40
5.0
 40
5.0
 40
5.0
 40
6.0
 40
6.0
 40
6.0
 40
7.0
 40
7.0
 40
7.0
 40
8.0
 40
8.0
 40
8.0
 40
9.0
 40
9.0
 40
9.0
 40
10.0
 40
10.0
 40
10.0
 40
11.0
 40
11.0
 40
11.0
 40
12.0
 40
12.0
 40
12.0
 40
13.0
 40
13.0
 40
13.0
 40
14.0
 40
14.0
 40
14.0
 40
15.0
 40
15.0
 40
15.0
 40
16.0
 40
16.0
 40
16.0
 40
17.0
 40
17.0
 40
17.0
 40
18.0
 40
18.0
 40
18.0
 40
19.0
 40
19.0
 40
19.0
 40
20.0
 40
20.0
 40
20.0
 40
21.0
 40
21.0
 40
21.0
 40
22.0
 40
22.0
 40
22.0
 40
23.0
 40
23.0
 40
23.0
 40
24.0
 40
24.0
 40
24.0
 40
25.0
 40
25.0
 40
25.0
 40
26.0
 40
26.0
 40
26.0
 40
27.0
 40
27.0
 40
27.0
 40
28.0
 40
28.0
 40
28.0
 40
29.0
 40
29.0
 40
29.0
 40
30.0
 40
30.0
 40
30.0
 40
31.0
 40
31.0
 40
31.0
 40
32.0
 40
32.0
 40
32.0
 40
32.0
 10
102.41493733723958
 20
-60.523136054144963
 30
0.0
 10
102.41493733723958
 20
-60.523136054144963
 30
0.0
 10
106.64827067057291
 20
-57.70091383192274
 30
0.0
 10
106.64827067057291
 20
-57.70091383192274
 30
0.0
 10
108.89550645616319
 20
-61.581469387478293
 30
0.0
 10
117.34804823133679
 20
-61.874302503797736
 30
0.0
 10
119.9373819986979
 20
-59.641191609700513
 30
0.0
 10
121.81771511501735
 20
-58.053691609700515
 30
0.0
 10
121.99410400390624
 20
-44.70463562011718
 30
0.0
 10
120.46654866536457
 20
-42.647913614908852
 30
0.0
 10
118.87904866536458
 20
-40.531246948242185
 30
0.0
 10
111.52721489800346
 20
-41.120358276367185
 30
0.0
 10
109.11771511501735
 20
-41.589580281575515
 30
0.0
 10
107.70660400390624
 20
-41.82591383192274
 30
0.0
 10
107.06099310980902
 20
-43.882635837131069
 30
0.0
 10
105.94271511501735
 20
-43.882635837131069
 30
0.0
 10
104.70799289279513
 20
-43.882635837131069
 30
0.0
 10
103.07467312282985
 20
-43.325219387478292
 30
0.0
 10
102.41493733723958
 20
-41.473136054144959
 30
0.0
 10
102.41493733723958
 20
-41.473136054144959
 30
0.0
 10
102.41493733723958
 20
36.490752834743923
 30
0.0
 10
102.41493733723958
 20
36.490752834743923
 30
0.0
 10
102.41493733723958
 20
42.724308607313361
 30
0.0
 10
100.82743733723957
 20
51.250919935438361
 30
0.0
 10
102.47488199869791
 20
57.248142157660588
 30
0.0
 10
102.8841593424479
 20
58.715752834743917
 30
0.0
 10
103.86842312282985
 20
61.714363945855027
 30
0.0
 10
106.64827067057291
 20
61.53797505696614
 30
0.0
 10
107.6466593424479
 20
57.953697713216144
 30
0.0
 10
117.05521511501735
 20
57.128252834743918
 30
0.0
 10
119.9373819986979
 20
59.244919501410585
 30
0.0
 10
122.99249267578124
 20
61.481475490993915
 30
0.0
 10
121.46493733723958
 20
69.18264194064669
 30
0.0
 10
121.46493733723958
 20
72.47408616807725
 30
0.0
 10
121.40499267578124
 20
74.005086602105024
 30
0.0
 10
121.58138156467012
 20
75.709030829535578
 30
0.0
 10
120.29015977647569
 20
76.883808390299478
 30
0.0
 10
118.46632622612846
 20
78.531253051757801
 30
0.0
 10
111.4107706705729
 20
78.29491950141059
 30
0.0
 10
109.11771511501735
 20
77.589363945855027
 30
0.0
 10
107.88299289279513
 20
77.236586168077253
 30
0.0
 10
107.11749267578124
 20
74.887031046549467
 30
0.0
 10
105.64988199869791
 20
75.649086168077247
 30
0.0
 10
103.33925645616318
 20
75.737280612521701
 30
0.0
 10
102.59132622612846
 20
78.591197713216133
 30
0.0
 10
102.41493733723958
 20
79.529641723632807
 30
0.0
 10
102.06215955946179
 20
81.766197713216144
 30
0.0
 10
102.94410400390625
 20
85.879641723632801
 30
0.0
 10
100.23832600911457
 20
86.99791971842447
 30
0.0
 10
100.23832600911457
 20
86.99791971842447
 30
0.0
 10
52.673270670572911
 20
87.290752834743913
 30
0.0
 10
52.673270670572911
 20
87.290752834743913
 30
0.0
 10
52.673270670572911
 20
87.290752834743913
 30
0.0
 10
-62.332284884982634
 20
87.290752834743913
 30
0.0
 10
-62.332284884982634
 20
87.290752834743913
 30
0.0
 10
-62.332284884982634
 20
87.290752834743913
 30
0.0
 10
-102.90172932942707
 20
87.290752834743913
 30
0.0
 10
-102.90172932942707
 20
87.290752834743913
 30
0.0
 10
-107.95706244574652
 20
87.290752834743913
 30
0.0
 10
-115.0725626627604
 20
88.525475056966144
 30
0.0
 10
-119.06956244574651
 20
84.704864162868915
 30
0.0
 10
-122.54084065755207
 20
81.469919501410587
 30
0.0
 10
-121.59895155164929
 20
76.767364162868915
 30
0.0
 10
-121.59895155164929
 20
72.47408616807725
 30
0.0
 10
-121.59895155164929
 20
72.47408616807725
 30
0.0
 10
-121.59895155164929
 20
43.546308390299473
 30
0.0
 10
-121.59895155164929
 20
43.546308390299473
 30
0.0
 10
-121.59895155164929
 20
43.546308390299473
 30
0.0
 10
-121.59895155164929
 20
-40.767580498589403
 30
0.0
 10
-121.59895155164929
 20
-40.767580498589403
 30
0.0
 10
-121.59895155164929
 20
-40.767580498589403
 30
0.0
 10
-121.59895155164929
 20
-67.931469387478288
 30
0.0
 10
-121.59895155164929
 20
-67.931469387478288
 30
0.0
 10
-121.59895155164929
 20
-72.281246948242185
 30
0.0
 10
-122.24456244574651
 20
-77.103691609700519
 30
0.0
 10
-121.53900689019096
 20
-81.337024943033853
 30
0.0
 10
-120.24778510199651
 20
-88.685413614908839
 30
0.0
 10
-112.31028510199651
 20
-87.334247165256073
 30
0.0
 10
-106.78228488498263
 20
-87.334247165256073
 30
0.0
 10
-106.78228488498263
 20
-87.334247165256073
 30
0.0
 10
-60.921173773871523
 20
-87.334247165256073
 30
0.0
 10
-60.921173773871523
 20
-87.334247165256073
 30
0.0
 10
-60.921173773871523
 20
-87.334247165256073
 30
0.0
 10
19.864937337239581
 20
-87.334247165256073
 30
0.0
 10
19.864937337239581
 20
-87.334247165256073
 30
0.0
 10
31.682992892795134
 20
-87.334247165256073
 30
0.0
 10
77.836937120225684
 20
-86.981469387478285
 30
0.0
 10
89.009381781684013
 20
-86.981469387478285
 30
0.0
 10
92.537159559461799
 20
-86.981469387478285
 30
0.0
 10
98.534381781684019
 20
-88.156246948242185
 30
0.0
 10
101.41654866536457
 20
-85.510413614908842
 30
0.0
 10
103.00404866536458
 20
-84.039357842339399
 30
0.0
 10
102.41493733723958
 20
-80.864357842339402
 30
0.0
 10
102.41493733723958
 20
-78.867580498589405
 30
0.0
 10
102.41493733723958
 20
-78.867580498589405
 30
0.0
 10
102.41493733723958
 20
-60.523136054144963
 30
0.0
 10
102.41493733723958
 20
-60.523136054144963
 30
0.0
  0
POLYLINE
  5
C4
100
AcDbEntity
  8
LAYER_1
 62
     7
100
AcDb2dPolyline
 66
     1
 10
0.0
 20
0.0
 30
0.0
  0
VERTEX
  5
C5
100
AcDbEntity
  8
LAYER_1
 62
     7
100
AcDbVertex
100
AcDb2dVertex
 10
-6.593396
 20
80.587975
 30
0.0
  0
VERTEX
  5
C6
100
AcDbEntity
  8
LAYER_1
 62
     7
100
AcDbVertex
100
AcDb2dVertex
 10
-6.593396
 20
76.001864
 30
0.0
  0
VERTEX
  5
C7
100
AcDbEntity
  8
LAYER_1
 62
     7
100
AcDbVertex
100
AcDb2dVertex
 10
36.445493
 20
76.001864
 30
0.0
  0
VERTEX
  5
C8
100
AcDbEntity
  8
LAYER_1
 62
     7
100
AcDbVertex
100
AcDb2dVertex
 10
36.445493
 20
80.587975
 30
0.0
  0
VERTEX
  5
C9
100
AcDbEntity
  8
LAYER_1
 62
     7
100
AcDbVertex
100
AcDb2dVertex
 10
-6.593396
 20
80.587975
 30
0.0
  0
SEQEND
  5
CA
100
AcDbEntity
  8
LAYER_1
 62
     7
  0
POLYLINE
  5
BE
100
AcDbEntity
  8
LAYER_1
 62
     7
100
AcDb2dPolyline
 66
     1
 10
0.0
 20
0.0
 30
0.0
 70
     1
  0
VERTEX
  5
BF
100
AcDbEntity
  8
LAYER_1
 62
     7
100
AcDbVertex
100
AcDb2dVertex
 10
-110.310063
 20
80.235197
 30
0.0
  0
VERTEX
  5
C0
100
AcDbEntity
  8
LAYER_1
 62
     7
100
AcDbVertex
100
AcDb2dVertex
 10
-110.310063
 20
75.296308
 30
0.0
  0
VERTEX
  5
C1
100
AcDbEntity
  8
LAYER_1
 62
     7
100
AcDbVertex
100
AcDb2dVertex
 10
-69.035063
 20
75.296308
 30
0.0
  0
VERTEX
  5
C2
100
AcDbEntity
  8
LAYER_1
 62
     7
100
AcDbVertex
100
AcDb2dVertex
 10
-69.035063
 20
80.235197
 30
0.0
  0
SEQEND
  5
C3
100
AcDbEntity
  8
LAYER_1
 62
     7
  0
POLYLINE
  5
B8
100
AcDbEntity
  8
LAYER_1
 62
     7
100
AcDb2dPolyline
 66
     1
 10
0.0
 20
0.0
 30
0.0
 70
     1
  0
VERTEX
  5
B9
100
AcDbEntity
  8
LAYER_1
 62
     7
100
AcDbVertex
100
AcDb2dVertex
 10
57.964937
 20
62.949086
 30
0.0
  0
VERTEX
  5
BA
100
AcDbEntity
  8
LAYER_1
 62
     7
100
AcDbVertex
100
AcDb2dVertex
 10
57.964937
 20
-71.459247
 30
0.0
  0
VERTEX
  5
BB
100
AcDbEntity
  8
LAYER_1
 62
     7
100
AcDbVertex
100
AcDb2dVertex
 10
64.667715
 20
-71.459247
 30
0.0
  0
VERTEX
  5
BC
100
AcDbEntity
  8
LAYER_1
 62
     7
100
AcDbVertex
100
AcDb2dVertex
 10
64.667715
 20
62.949086
 30
0.0
  0
SEQEND
  5
BD
100
AcDbEntity
  8
LAYER_1
 62
     7
  0
SPLINE
  5
B7
100
AcDbEntity
  8
LAYER_1
 62
     7
100
AcDbSpline
210
0.0
220
0.0
230
1.0
 70
     8
 71
     3
 72
    23
 73
    19
 74
     0
 42
0.00000001
 43
0.00000001
 40
0.0
 40
0.0
 40
0.0
 40
0.0
 40
1.0
 40
1.0
 40
1.0
 40
2.0
 40
2.0
 40
2.0
 40
3.0
 40
3.0
 40
3.0
 40
4.0
 40
4.0
 40
4.0
 40
5.0
 40
5.0
 40
5.0
 40
6.0
 40
6.0
 40
6.0
 40
6.0
 10
-95.493395996093739
 20
61.890752834743921
 30
0.0
 10
-95.493395996093739
 20
61.890752834743921
 30
0.0
 10
-95.493395996093739
 20
-46.059247165256075
 30
0.0
 10
-95.493395996093739
 20
-46.059247165256075
 30
0.0
 10
-95.493395996093739
 20
-46.059247165256075
 30
0.0
 10
-90.201729329427081
 20
-46.059247165256075
 30
0.0
 10
-90.201729329427081
 20
-46.059247165256075
 30
0.0
 10
-90.201729329427081
 20
-41.649524943033853
 30
0.0
 10
-91.083673773871524
 20
-38.001857842339405
 30
0.0
 10
-85.615618218315959
 20
-37.945358276367188
 30
0.0
 10
-85.615618218315959
 20
-37.945358276367188
 30
0.0
 10
-85.615618218315959
 20
54.482419501410583
 30
0.0
 10
-85.615618218315959
 20
54.482419501410583
 30
0.0
 10
-90.847340223524299
 20
54.482419501410583
 30
0.0
 10
-90.201729329427081
 20
57.540975273980031
 30
0.0
 10
-90.201729329427081
 20
61.890752834743921
 30
0.0
 10
-90.201729329427081
 20
61.890752834743921
 30
0.0
 10
-95.493395996093739
 20
61.890752834743921
 30
0.0
 10
-95.493395996093739
 20
61.890752834743921
 30
0.0
  0
POLYLINE
  5
B1
100
AcDbEntity
  8
LAYER_1
 62
     7
100
AcDb2dPolyline
 66
     1
 10
0.0
 20
0.0
 30
0.0
 70
     1
  0
VERTEX
  5
B2
100
AcDbEntity
  8
LAYER_1
 62
     7
100
AcDbVertex
100
AcDb2dVertex
 10
-112.073952
 20
61.537975
 30
0.0
  0
VERTEX
  5
B3
100
AcDbEntity
  8
LAYER_1
 62
     7
100
AcDbVertex
100
AcDb2dVertex
 10
-112.073952
 20
-46.059247
 30
0.0
  0
VERTEX
  5
B4
100
AcDbEntity
  8
LAYER_1
 62
     7
100
AcDbVertex
100
AcDb2dVertex
 10
-107.135063
 20
-46.059247
 30
0.0
  0
VERTEX
  5
B5
100
AcDbEntity
  8
LAYER_1
 62
     7
100
AcDbVertex
100
AcDb2dVertex
 10
-107.135063
 20
61.537975
 30
0.0
  0
SEQEND
  5
B6
100
AcDbEntity
  8
LAYER_1
 62
     7
  0
POLYLINE
  5
AA
100
AcDbEntity
  8
LAYER_1
 62
     7
100
AcDb2dPolyline
 66
     1
 10
0.0
 20
0.0
 30
0.0
  0
VERTEX
  5
AB
100
AcDbEntity
  8
LAYER_1
 62
     7
100
AcDbVertex
100
AcDb2dVertex
 10
-47.868396
 20
46.015753
 30
0.0
  0
VERTEX
  5
AC
100
AcDbEntity
  8
LAYER_1
 62
     7
100
AcDbVertex
100
AcDb2dVertex
 10
-47.868396
 20
-29.125914
 30
0.0
  0
VERTEX
  5
AD
100
AcDbEntity
  8
LAYER_1
 62
     7
100
AcDbVertex
100
AcDb2dVertex
 10
-37.63784
 20
-29.125914
 30
0.0
  0
VERTEX
  5
AE
100
AcDbEntity
  8
LAYER_1
 62
     7
100
AcDbVertex
100
AcDb2dVertex
 10
-37.63784
 20
46.015753
 30
0.0
  0
VERTEX
  5
AF
100
AcDbEntity
  8
LAYER_1
 62
     7
100
AcDbVertex
100
AcDb2dVertex
 10
-47.868396
 20
46.015753
 30
0.0
  0
SEQEND
  5
B0
100
AcDbEntity
  8
LAYER_1
 62
     7
  0
POLYLINE
  5
A3
100
AcDbEntity
  8
LAYER_1
 62
     7
100
AcDb2dPolyline
 66
     1
 10
0.0
 20
0.0
 30
0.0
  0
VERTEX
  5
A4
100
AcDbEntity
  8
LAYER_1
 62
     7
100
AcDbVertex
100
AcDb2dVertex
 10
-16.823952
 20
46.015753
 30
0.0
  0
VERTEX
  5
A5
100
AcDbEntity
  8
LAYER_1
 62
     7
100
AcDbVertex
100
AcDb2dVertex
 10
-16.823952
 20
-29.125914
 30
0.0
  0
VERTEX
  5
A6
100
AcDbEntity
  8
LAYER_1
 62
     7
100
AcDbVertex
100
AcDb2dVertex
 10
-6.593396
 20
-29.125914
 30
0.0
  0
VERTEX
  5
A7
100
AcDbEntity
  8
LAYER_1
 62
     7
100
AcDbVertex
100
AcDb2dVertex
 10
-6.593396
 20
46.015753
 30
0.0
  0
VERTEX
  5
A8
100
AcDbEntity
  8
LAYER_1
 62
     7
100
AcDbVertex
100
AcDb2dVertex
 10
-16.823952
 20
46.015753
 30
0.0
  0
SEQEND
  5
A9
100
AcDbEntity
  8
LAYER_1
 62
     7
  0
POLYLINE
  5
9C
100
AcDbEntity
  8
LAYER_1
 62
     7
100
AcDb2dPolyline
 66
     1
 10
0.0
 20
0.0
 30
0.0
  0
VERTEX
  5
9D
100
AcDbEntity
  8
LAYER_1
 62
     7
100
AcDbVertex
100
AcDb2dVertex
 10
14.220493
 20
46.015753
 30
0.0
  0
VERTEX
  5
9E
100
AcDbEntity
  8
LAYER_1
 62
     7
100
AcDbVertex
100
AcDb2dVertex
 10
14.220493
 20
-28.773136
 30
0.0
  0
VERTEX
  5
9F
100
AcDbEntity
  8
LAYER_1
 62
     7
100
AcDbVertex
100
AcDb2dVertex
 10
24.451048
 20
-28.773136
 30
0.0
  0
VERTEX
  5
A0
100
AcDbEntity
  8
LAYER_1
 62
     7
100
AcDbVertex
100
AcDb2dVertex
 10
24.451048
 20
46.015753
 30
0.0
  0
VERTEX
  5
A1
100
AcDbEntity
  8
LAYER_1
 62
     7
100
AcDbVertex
100
AcDb2dVertex
 10
14.220493
 20
46.015753
 30
0.0
  0
SEQEND
  5
A2
100
AcDbEntity
  8
LAYER_1
 62
     7
  0
POLYLINE
  5
95
100
AcDbEntity
  8
LAYER_1
 62
     7
100
AcDb2dPolyline
 66
     1
 10
0.0
 20
0.0
 30
0.0
  0
VERTEX
  5
96
100
AcDbEntity
  8
LAYER_1
 62
     7
100
AcDbVertex
100
AcDb2dVertex
 10
44.559382
 20
46.015753
 30
0.0
  0
VERTEX
  5
97
100
AcDbEntity
  8
LAYER_1
 62
     7
100
AcDbVertex
100
AcDb2dVertex
 10
44.559382
 20
-71.459247
 30
0.0
  0
VERTEX
  5
98
100
AcDbEntity
  8
LAYER_1
 62
     7
100
AcDbVertex
100
AcDb2dVertex
 10
51.26216
 20
-71.459247
 30
0.0
  0
VERTEX
  5
99
100
AcDbEntity
  8
LAYER_1
 62
     7
100
AcDbVertex
100
AcDb2dVertex
 10
51.26216
 20
46.015753
 30
0.0
  0
VERTEX
  5
9A
100
AcDbEntity
  8
LAYER_1
 62
     7
100
AcDbVertex
100
AcDb2dVertex
 10
44.559382
 20
46.015753
 30
0.0
  0
SEQEND
  5
9B
100
AcDbEntity
  8
LAYER_1
 62
     7
  0
SPLINE
  5
94
100
AcDbEntity
  8
LAYER_1
 62
     7
100
AcDbSpline
210
0.0
220
0.0
230
1.0
 70
     8
 71
     3
 72
    23
 73
    19
 74
     0
 42
0.00000001
 43
0.00000001
 40
0.0
 40
0.0
 40
0.0
 40
0.0
 40
1.0
 40
1.0
 40
1.0
 40
2.0
 40
2.0
 40
2.0
 40
3.0
 40
3.0
 40
3.0
 40
4.0
 40
4.0
 40
4.0
 40
5.0
 40
5.0
 40
5.0
 40
6.0
 40
6.0
 40
6.0
 40
6.0
 10
-79.265618218315964
 20
45.66297505696614
 30
0.0
 10
-79.265618218315964
 20
45.66297505696614
 30
0.0
 10
-79.265618218315964
 20
-29.125913831922741
 30
0.0
 10
-79.265618218315964
 20
-29.125913831922741
 30
0.0
 10
-79.265618218315964
 20
-29.125913831922741
 30
0.0
 10
-73.973951551649293
 20
-29.125913831922741
 30
0.0
 10
-73.973951551649293
 20
-29.125913831922741
 30
0.0
 10
-73.973951551649293
 20
-23.305080498589408
 30
0.0
 10
-70.915395779079859
 20
-23.834247165256073
 30
0.0
 10
-65.860062662760413
 20
-23.834247165256073
 30
0.0
 10
-65.860062662760413
 20
-23.834247165256073
 30
0.0
 10
-65.860062662760413
 20
40.018530612521701
 30
0.0
 10
-65.860062662760413
 20
40.018530612521701
 30
0.0
 10
-71.091784667968739
 20
40.018530612521701
 30
0.0
 10
-73.973951551649293
 20
39.609253268771695
 30
0.0
 10
-73.973951551649293
 20
45.66297505696614
 30
0.0
 10
-73.973951551649293
 20
45.66297505696614
 30
0.0
 10
-79.265618218315964
 20
45.66297505696614
 30
0.0
 10
-79.265618218315964
 20
45.66297505696614
 30
0.0
  0
POLYLINE
  5
8D
100
AcDbEntity
  8
LAYER_1
 62
     7
100
AcDb2dPolyline
 66
     1
 10
0.0
 20
0.0
 30
0.0
  0
VERTEX
  5
8E
100
AcDbEntity
  8
LAYER_1
 62
     7
100
AcDbVertex
100
AcDb2dVertex
 10
-6.593396
 20
-75.69258
 30
0.0
  0
VERTEX
  5
8F
100
AcDbEntity
  8
LAYER_1
 62
     7
100
AcDbVertex
100
AcDb2dVertex
 10
-6.593396
 20
-80.278692
 30
0.0
  0
VERTEX
  5
90
100
AcDbEntity
  8
LAYER_1
 62
     7
100
AcDbVertex
100
AcDb2dVertex
 10
36.445493
 20
-80.278692
 30
0.0
  0
VERTEX
  5
91
100
AcDbEntity
  8
LAYER_1
 62
     7
100
AcDbVertex
100
AcDb2dVertex
 10
36.445493
 20
-75.69258
 30
0.0
  0
VERTEX
  5
92
100
AcDbEntity
  8
LAYER_1
 62
     7
100
AcDbVertex
100
AcDb2dVertex
 10
-6.593396
 20
-75.69258
 30
0.0
  0
SEQEND
  5
93
100
AcDbEntity
  8
LAYER_1
 62
     7
  0
POLYLINE
  5
87
100
AcDbEntity
  8
LAYER_1
 62
     7
100
AcDb2dPolyline
 66
     1
 10
0.0
 20
0.0
 30
0.0
 70
     1
  0
VERTEX
  5
88
100
AcDbEntity
  8
LAYER_1
 62
     7
100
AcDbVertex
100
AcDb2dVertex
 10
-109.957285
 20
-76.045358
 30
0.0
  0
VERTEX
  5
89
100
AcDbEntity
  8
LAYER_1
 62
     7
100
AcDbVertex
100
AcDb2dVertex
 10
-109.957285
 20
-80.631469
 30
0.0
  0
VERTEX
  5
8A
100
AcDbEntity
  8
LAYER_1
 62
     7
100
AcDbVertex
100
AcDb2dVertex
 10
-69.035063
 20
-80.631469
 30
0.0
  0
VERTEX
  5
8B
100
AcDbEntity
  8
LAYER_1
 62
     7
100
AcDbVertex
100
AcDb2dVertex
 10
-69.035063
 20
-76.045358
 30
0.0
  0
SEQEND
  5
8C
100
AcDbEntity
  8
LAYER_1
 62
     7
  0
ENDBLK
  5
CC
100
AcDbEntity
  8
LAYER_1
100
AcDbBlockEnd
  0
BLOCK
  5
CF
100
AcDbEntity
  8
LAYER_1
 62
     7
100
AcDbBlockBegin
  2
AI9-BLK5
 70
     0
 10
0.0
 20
0.0
 30
0.0
  3
AI9-BLK5
  1

  0
SPLINE
  5
E3
100
AcDbEntity
  8
LAYER_1
 62
     7
100
AcDbSpline
210
0.0
220
0.0
230
1.0
 70
     8
 71
     3
 72
   116
 73
   112
 74
     0
 42
0.00000001
 43
0.00000001
 40
0.0
 40
0.0
 40
0.0
 40
0.0
 40
1.0
 40
1.0
 40
1.0
 40
2.0
 40
2.0
 40
2.0
 40
3.0
 40
3.0
 40
3.0
 40
4.0
 40
4.0
 40
4.0
 40
5.0
 40
5.0
 40
5.0
 40
6.0
 40
6.0
 40
6.0
 40
7.0
 40
7.0
 40
7.0
 40
8.0
 40
8.0
 40
8.0
 40
9.0
 40
9.0
 40
9.0
 40
10.0
 40
10.0
 40
10.0
 40
11.0
 40
11.0
 40
11.0
 40
12.0
 40
12.0
 40
12.0
 40
13.0
 40
13.0
 40
13.0
 40
14.0
 40
14.0
 40
14.0
 40
15.0
 40
15.0
 40
15.0
 40
16.0
 40
16.0
 40
16.0
 40
17.0
 40
17.0
 40
17.0
 40
18.0
 40
18.0
 40
18.0
 40
19.0
 40
19.0
 40
19.0
 40
20.0
 40
20.0
 40
20.0
 40
21.0
 40
21.0
 40
21.0
 40
22.0
 40
22.0
 40
22.0
 40
23.0
 40
23.0
 40
23.0
 40
24.0
 40
24.0
 40
24.0
 40
25.0
 40
25.0
 40
25.0
 40
26.0
 40
26.0
 40
26.0
 40
27.0
 40
27.0
 40
27.0
 40
28.0
 40
28.0
 40
28.0
 40
29.0
 40
29.0
 40
29.0
 40
30.0
 40
30.0
 40
30.0
 40
31.0
 40
31.0
 40
31.0
 40
32.0
 40
32.0
 40
32.0
 40
33.0
 40
33.0
 40
33.0
 40
34.0
 40
34.0
 40
34.0
 40
35.0
 40
35.0
 40
35.0
 40
36.0
 40
36.0
 40
36.0
 40
37.0
 40
37.0
 40
37.0
 40
37.0
 10
-80.632201470269095
 20
-48.525031195746521
 30
0.0
 10
-80.632201470269095
 20
-50.8745863172743
 30
0.0
 10
-80.854410129123252
 20
-55.227808973524297
 30
0.0
 10
-79.750257025824652
 20
-57.224586317274301
 30
0.0
 10
-75.298160129123261
 20
-58.402808973524301
 30
0.0
 10
-69.579646131727429
 20
-58.05003119574652
 30
0.0
 10
-66.521090359157981
 20
-58.05003119574652
 30
0.0
 10
-65.226423475477418
 20
-58.05003119574652
 30
0.0
 10
-63.522479248046871
 20
-58.34286431206597
 30
0.0
 10
-62.404201253255202
 20
-57.520864529079859
 30
0.0
 10
-58.290757242838538
 20
-54.345864529079854
 30
0.0
 10
-63.815312364366314
 20
-51.816475423177081
 30
0.0
 10
-66.521090359157981
 20
-51.756530761718743
 30
0.0
 10
-68.048645697699641
 20
-51.700031195746526
 30
0.0
 10
-69.636145697699646
 20
-51.700031195746526
 30
0.0
 10
-71.107201470269089
 20
-51.700031195746526
 30
0.0
 10
-71.107201470269089
 20
-51.700031195746526
 30
0.0
 10
-71.107201470269089
 20
-48.172253417968747
 30
0.0
 10
-71.107201470269089
 20
-48.172253417968747
 30
0.0
 10
-71.107201470269089
 20
-48.172253417968747
 30
0.0
 10
24.848354085286456
 20
-47.819475640190966
 30
0.0
 10
24.848354085286456
 20
-47.819475640190966
 30
0.0
 10
24.848354085286456
 20
-50.11253119574652
 30
0.0
 10
25.508089870876734
 20
-54.698642306857636
 30
0.0
 10
25.670353868272567
 20
-56.519030761718746
 30
0.0
 10
26.728687201605901
 20
-57.577364095052076
 30
0.0
 10
28.376131863064234
 20
-57.344475640190964
 30
0.0
 10
29.787242974175346
 20
-57.344475640190964
 30
0.0
 10
33.138631863064234
 20
-57.400975206163189
 30
0.0
 10
40.194187418619791
 20
-58.755586751302076
 30
0.0
 10
43.076354302300345
 20
-56.99169786241319
 30
0.0
 10
44.896742757161455
 20
-55.873419867621521
 30
0.0
 10
44.896742757161455
 20
-52.698419867621524
 30
0.0
 10
42.956464979383675
 20
-51.700031195746526
 30
0.0
 10
41.958076307508676
 20
-51.110919867621526
 30
0.0
 10
40.430520968967009
 20
-51.347253417968744
 30
0.0
 10
39.312242974175341
 20
-51.347253417968744
 30
0.0
 10
39.312242974175341
 20
-51.347253417968744
 30
0.0
 10
34.373354085286458
 20
-51.347253417968744
 30
0.0
 10
34.373354085286458
 20
-51.347253417968744
 30
0.0
 10
34.373354085286458
 20
-51.347253417968744
 30
0.0
 10
34.373354085286458
 20
-47.819475640190966
 30
0.0
 10
34.373354085286458
 20
-47.819475640190966
 30
0.0
 10
50.717576090494788
 20
-47.819475640190966
 30
0.0
 10
67.418020968967014
 20
-48.172253417968747
 30
0.0
 10
83.762242974175336
 20
-47.290308973524304
 30
0.0
 10
88.112020534939234
 20
-47.053975423177079
 30
0.0
 10
97.167798529730888
 20
-48.93430853949652
 30
0.0
 10
100.57913208007811
 20
-45.879197862413193
 30
0.0
 10
102.34302096896701
 20
-44.348197428385411
 30
0.0
 10
102.10668741861979
 20
-42.175031195746527
 30
0.0
 10
102.10668741861979
 20
-40.05836452907986
 30
0.0
 10
102.10668741861979
 20
-40.05836452907986
 30
0.0
 10
102.10668741861979
 20
19.857358127170137
 30
0.0
 10
102.10668741861979
 20
19.857358127170137
 30
0.0
 10
102.28307630750867
 20
22.150413682725691
 30
0.0
 10
102.23725653754339
 20
24.676357693142357
 30
0.0
 10
104.57613186306423
 20
25.205524359809026
 30
0.0
 10
104.57613186306423
 20
25.205524359809026
 30
0.0
 10
107.75113186306423
 20
25.205524359809026
 30
0.0
 10
107.75113186306423
 20
25.205524359809026
 30
0.0
 10
107.75113186306423
 20
20.73930257161458
 30
0.0
 10
117.80529852973089
 20
20.619413248697914
 30
0.0
 10
120.27474297417534
 20
23.441635470920136
 30
0.0
 10
122.56779852973089
 20
26.147413465711804
 30
0.0
 10
121.15668741861978
 20
34.437691243489581
 30
0.0
 10
121.09674275716145
 20
37.905524359809021
 30
0.0
 10
121.04024319118922
 20
43.786302354600693
 30
0.0
 10
108.32267320421006
 20
44.255524359809023
 30
0.0
 10
107.75113186306423
 20
38.963857693142359
 30
0.0
 10
107.75113186306423
 20
38.963857693142359
 30
0.0
 10
106.12125718858506
 20
39.877497016059024
 30
0.0
 10
106.12125718858506
 20
39.877497016059024
 30
0.0
 10
106.12125718858506
 20
39.877497016059024
 30
0.0
 10
104.89015231662326
 20
40.568927680121526
 30
0.0
 10
104.89015231662326
 20
40.568927680121526
 30
0.0
 10
104.89015231662326
 20
40.568927680121526
 30
0.0
 10
102.10668741861979
 20
42.138857693142356
 30
0.0
 10
102.10668741861979
 20
42.138857693142356
 30
0.0
 10
102.10668741861979
 20
45.666635470920134
 30
0.0
 10
103.5177985297309
 20
53.311302354600691
 30
0.0
 10
101.16479831271701
 20
56.193469238281246
 30
0.0
 10
98.991632080078119
 20
58.839302571614581
 30
0.0
 10
92.521742757161448
 20
58.013857693142356
 30
0.0
 10
89.406687418619782
 20
58.013857693142356
 30
0.0
 10
89.406687418619782
 20
58.013857693142356
 30
0.0
 10
56.951131863064234
 20
58.013857693142356
 30
0.0
 10
56.951131863064234
 20
58.013857693142356
 30
0.0
 10
18.558298746744789
 20
58.013857693142356
 30
0.0
 10
-19.778034803602427
 20
57.3083021375868
 30
0.0
 10
-58.054423692491312
 20
57.3083021375868
 30
0.0
 10
-74.105812581380206
 20
57.3083021375868
 30
0.0
 10
-94.803257242838527
 20
60.190469021267354
 30
0.0
 10
-107.67964613172742
 20
48.31246880425347
 30
0.0
 10
-110.79470147026909
 20
45.433747016059023
 30
0.0
 10
-113.96970147026909
 20
42.258747016059026
 30
0.0
 10
-116.08636813693575
 20
38.611079915364577
 30
0.0
 10
-122.25997924804686
 20
28.204135470920136
 30
0.0
 10
-121.55442369249131
 20
16.622413465711805
 30
0.0
 10
-121.55442369249131
 20
5.0971910264756941
 30
0.0
 10
-121.55442369249131
 20
5.0971910264756941
 30
0.0
 10
-121.55442369249131
 20
-40.05836452907986
 30
0.0
 10
-121.55442369249131
 20
-40.05836452907986
 30
0.0
 10
-121.55442369249131
 20
-42.644253200954857
 30
0.0
 10
-121.90720147026909
 20
-45.526420084635411
 30
0.0
 10
-119.79053480360243
 20
-47.346808539496521
 30
0.0
 10
-117.20464613172742
 20
-49.583364529079859
 30
0.0
 10
-112.02942369249131
 20
-48.525031195746521
 30
0.0
 10
-108.85442369249131
 20
-48.525031195746521
 30
0.0
 10
-108.85442369249131
 20
-48.525031195746521
 30
0.0
 10
-80.632201470269095
 20
-48.525031195746521
 30
0.0
 10
-80.632201470269095
 20
-48.525031195746521
 30
0.0
  0
POLYLINE
  5
DC
100
AcDbEntity
  8
LAYER_1
 62
     7
100
AcDb2dPolyline
 66
     1
 10
0.0
 20
0.0
 30
0.0
  0
VERTEX
  5
DD
100
AcDbEntity
  8
LAYER_1
 62
     7
100
AcDbVertex
100
AcDb2dVertex
 10
42.840021
 20
44.96108
 30
0.0
  0
VERTEX
  5
DE
100
AcDbEntity
  8
LAYER_1
 62
     7
100
AcDbVertex
100
AcDb2dVertex
 10
42.840021
 20
11.799969
 30
0.0
  0
VERTEX
  5
DF
100
AcDbEntity
  8
LAYER_1
 62
     7
100
AcDbVertex
100
AcDb2dVertex
 10
47.77891
 20
11.799969
 30
0.0
  0
VERTEX
  5
E0
100
AcDbEntity
  8
LAYER_1
 62
     7
100
AcDbVertex
100
AcDb2dVertex
 10
47.77891
 20
44.96108
 30
0.0
  0
VERTEX
  5
E1
100
AcDbEntity
  8
LAYER_1
 62
     7
100
AcDbVertex
100
AcDb2dVertex
 10
42.840021
 20
44.96108
 30
0.0
  0
SEQEND
  5
E2
100
AcDbEntity
  8
LAYER_1
 62
     7
  0
POLYLINE
  5
D6
100
AcDbEntity
  8
LAYER_1
 62
     7
100
AcDb2dPolyline
 66
     1
 10
0.0
 20
0.0
 30
0.0
 70
     1
  0
VERTEX
  5
D7
100
AcDbEntity
  8
LAYER_1
 62
     7
100
AcDbVertex
100
AcDb2dVertex
 10
-57.701646
 20
44.255524
 30
0.0
  0
VERTEX
  5
D8
100
AcDbEntity
  8
LAYER_1
 62
     7
100
AcDbVertex
100
AcDb2dVertex
 10
-57.701646
 20
11.094413
 30
0.0
  0
VERTEX
  5
D9
100
AcDbEntity
  8
LAYER_1
 62
     7
100
AcDbVertex
100
AcDb2dVertex
 10
-52.762757
 20
11.094413
 30
0.0
  0
VERTEX
  5
DA
100
AcDbEntity
  8
LAYER_1
 62
     7
100
AcDbVertex
100
AcDb2dVertex
 10
-52.762757
 20
44.255524
 30
0.0
  0
SEQEND
  5
DB
100
AcDbEntity
  8
LAYER_1
 62
     7
  0
POLYLINE
  5
D0
100
AcDbEntity
  8
LAYER_1
 62
     7
100
AcDb2dPolyline
 66
     1
 10
0.0
 20
0.0
 30
0.0
 70
     1
  0
VERTEX
  5
D1
100
AcDbEntity
  8
LAYER_1
 62
     7
100
AcDbVertex
100
AcDb2dVertex
 10
-52.762757
 20
-1.958365
 30
0.0
  0
VERTEX
  5
D2
100
AcDbEntity
  8
LAYER_1
 62
     7
100
AcDbVertex
100
AcDb2dVertex
 10
-52.762757
 20
-18.53892
 30
0.0
  0
VERTEX
  5
D3
100
AcDbEntity
  8
LAYER_1
 62
     7
100
AcDbVertex
100
AcDb2dVertex
 10
36.842799
 20
-18.53892
 30
0.0
  0
VERTEX
  5
D4
100
AcDbEntity
  8
LAYER_1
 62
     7
100
AcDbVertex
100
AcDb2dVertex
 10
36.842799
 20
-1.958365
 30
0.0
  0
SEQEND
  5
D5
100
AcDbEntity
  8
LAYER_1
 62
     7
  0
ENDBLK
  5
E4
100
AcDbEntity
  8
LAYER_1
100
AcDbBlockEnd
  0
ENDSEC
  0
SECTION
  2
ENTITIES
  0
INSERT
  5
CE
100
AcDbEntity
  8
LAYER_1
 62
     7
100
AcDbBlockReference
  2
AI9-BLK5
 10
136.01125
 20
455.944607
 30
0.0
  0
INSERT
  5
85
100
AcDbEntity
  8
LAYER_1
 62
     7
100
AcDbBlockReference
  2
AI9-BLK4
 10
133.586334
 20
294.023268
 30
0.0
  0
INSERT
  5
7A
100
AcDbEntity
  8
LAYER_1
 62
     7
100
AcDbBlockReference
  2
AI9-BLK3
 10
-59.256633
 20
243.740333
 30
0.0
  0
INSERT
  5
2F
100
AcDbEntity
  8
LAYER_1
 62
     7
100
AcDbBlockReference
  2
AI9-BLK2
 10
133.203411
 20
101.028114
 30
0.0
  0
INSERT
  5
2A
100
AcDbEntity
  8
LAYER_1
 62
     7
100
AcDbBlockReference
  2
AI9-BLK1
 10
153.973892
 20
-42.62074
 30
0.0
  0
ENDSEC
  0
SECTION
  2
OBJECTS
  0
DICTIONARY
  5
19
100
AcDbDictionary
280
     0
281
     1
  3
ACAD_GROUP
350
1A
  3
ACAD_MLINESTYLE
350
1B
  3
ACAD_LAYOUT
350
1E
  3
ACAD_PLOTSETTINGS
350
22
  3
ACAD_PLOTSTYLENAME
350
1F
  3
ACAD_WIPEOUT_VARS
350
23
  0
DICTIONARY
  5
1A
102
{ACAD_REACTORS
330
19
102
}
100
AcDbDictionary
280
     0
281
     1
  0
DICTIONARY
  5
1B
102
{ACAD_REACTORS
330
19
102
}
100
AcDbDictionary
280
     0
281
     1
  3
Standard
350
1C
  0
MLINESTYLE
  5
1C
102
{ACAD_REACTORS
330
1B
102
}
100
AcDbMlineStyle
  2
Standard
 70
     0
  3

 62
     0
 51
90.0
 52
90.0
 71
     2
 49
0.5
 62
   256
  6
BYLAYER
 49
-0.5
 62
   256
  6
BYLAYER
  0
ACDBDICTIONARYWDFLT
  5
1F
102
{ACAD_REACTORS
330
19
102
}
100
AcDbDictionary
281
     1
  3
Normal
350
1D
100
AcDbDictionaryWithDefault
340
1D
  0
ACDBPLACEHOLDER
  5
1D
102
{ACAD_REACTORS
330
1F
102
}
  0
LAYOUT
  5
20
102
{ACAD_REACTORS
330
1E
102
}
100
AcDbPlotSettings
  1

  2

  4

  6

 40
0.0
 41
0.0
 42
0.0
 43
0.0
 44
0.0
 45
0.0
 46
0.0
 47
0.0
 48
0.0
 49
0.0
140
0.0
141
0.0
142
1.0
143
1.0
 70
  1024
 72
     0
 73
     0
 74
     0
  7

 75
     0
147
1.0
148
0.0
149
0.0
100
AcDbLayout
  1
Model
 70
     0
 71
     0
 10
0.0
 20
0.0
 11
0.0
 21
0.0
 12
0.0
 22
0.0
 32
0.0
 14
0.0
 24
0.0
 34
0.0
 15
0.0
 25
0.0
 35
0.0
146
0.0
 13
0.0
 23
0.0
 33
0.0
 16
0.0
 26
0.0
 36
0.0
 17
0.0
 27
0.0
 37
0.0
 76
     0
330
A
331
0
345
0
346
0
  0
LAYOUT
  5
21
102
{ACAD_REACTORS
330
1E
102
}
100
AcDbPlotSettings
  1

  2

  4

  6

 40
0.0
 41
0.0
 42
0.0
 43
0.0
 44
0.0
 45
0.0
 46
0.0
 47
0.0
 48
0.0
 49
0.0
140
0.0
141
0.0
142
1.0
143
1.0
 70
     0
 72
     0
 73
     0
 74
     0
  7

 75
     0
147
1.0
148
0.0
149
0.0
100
AcDbLayout
  1
Layout1
 70
     0
 71
     0
 10
0.0
 20
0.0
 11
0.0
 21
0.0
 12
0.0
 22
0.0
 32
0.0
 14
0.0
 24
0.0
 34
0.0
 15
0.0
 25
0.0
 35
0.0
146
0.0
 13
0.0
 23
0.0
 33
0.0
 16
0.0
 26
0.0
 36
0.0
 17
0.0
 27
0.0
 37
0.0
 76
     0
330
B
331
0
345
0
346
0
  0
DICTIONARY
  5
1E
102
{ACAD_REACTORS
330
19
102
}
100
AcDbDictionary
280
     0
281
     1
  3
Layout1
350
21
  3
Model
350
20
  0
DICTIONARY
  5
22
102
{ACAD_REACTORS
330
19
102
}
100
AcDbDictionary
280
     0
281
     1
  0
WIPEOUTVARIABLES
  5
23
100
AcDbWipeoutVariables
 70
     1
  0
ENDSEC
  0
EOF
